<svg width="32" height="31" viewBox="0 0 32 31" fill="none" xmlns="http://www.w3.org/2000/svg">
<g id="Group 10256">
<path id="Vector" d="M31.9995 19.5275C31.9995 22.1808 32.0006 24.8351 31.9995 27.4884C31.9985 28.7741 31.2347 29.2732 30.091 28.745C29.2638 28.3632 28.3775 28.2563 27.4839 28.2272C24.7105 28.139 22.0452 28.7492 19.4229 29.5834C16.6106 30.4789 13.7462 31.0559 10.7909 30.9957C7.39453 30.9262 4.15947 30.1479 1.13579 28.5375C0.933602 28.4296 0.732432 28.3144 0.545558 28.1805C0.191214 27.9263 0.000255635 27.5787 0.000255635 27.1263C0.0012768 21.7802 -0.00280855 16.4342 0.00433962 11.0871C0.00638195 9.96333 1.0204 9.42479 1.98949 9.97578C3.34866 10.7478 4.83242 11.1732 6.34987 11.4721C10.3294 12.2566 14.2272 11.8747 18.0606 10.5973C20.2684 9.86164 22.5211 9.31998 24.8361 9.09585C26.8161 8.90492 28.7829 8.95058 30.673 9.68628C31.7412 10.1024 31.9975 10.5102 31.9975 11.6796C31.9995 14.2976 31.9995 16.9126 31.9995 19.5275ZM29.4538 18.9381C29.4538 16.8161 29.4538 14.694 29.4538 12.572C29.4538 11.9141 29.4477 11.9069 28.7982 11.7626C27.3594 11.443 25.9134 11.5229 24.4705 11.7118C22.4179 11.9805 20.4338 12.5419 18.4732 13.1977C16.1888 13.9625 13.8442 14.4253 11.4414 14.5332C8.56478 14.6619 5.75351 14.2748 3.02904 13.3046C2.55215 13.1344 2.54807 13.1386 2.54807 13.6533C2.54705 17.7686 2.55317 21.883 2.53888 25.9983C2.53786 26.3708 2.67367 26.5555 2.98717 26.706C5.06422 27.698 7.25565 28.2459 9.53387 28.4015C12.3308 28.5935 15.0717 28.2532 17.74 27.3535C19.4688 26.7703 21.2201 26.2692 23.0194 25.9641C24.9851 25.631 26.956 25.4484 28.9381 25.8406C29.4497 25.9423 29.4517 25.9381 29.4528 25.382C29.4538 23.234 29.4538 21.086 29.4538 18.9381Z" fill="#00678F"/>
<path id="Vector_2" d="M14.2764 5.6403C13.8156 5.2105 13.381 4.79843 12.9409 4.3947C12.3684 3.87101 11.8231 3.88874 11.3567 4.43643C10.8771 4.99977 10.8705 5.70603 11.4017 6.27458C12.4726 7.41898 13.5631 8.54252 14.6621 9.65563C15.1013 10.1 15.8334 10.1199 16.2858 9.68276C17.3988 8.60825 18.5147 7.53374 19.5734 6.39455C20.1722 5.7488 20.2501 4.23405 19.0882 3.91274C18.6677 3.79694 18.3298 3.98368 18.0305 4.27891C17.6719 4.63256 17.3266 5.0029 16.9718 5.36281C16.8883 5.44731 16.8254 5.56937 16.6865 5.57875C16.5964 5.45253 16.6405 5.30439 16.6405 5.16877C16.6358 3.86788 16.6443 2.56699 16.6339 1.2661C16.6283 0.579665 16.206 0.0841382 15.6006 0.00798352C15.0497 -0.0619119 14.5279 0.333466 14.3834 0.945833C14.3458 1.10649 14.343 1.2807 14.343 1.44762C14.3402 2.68383 14.3421 3.92004 14.3393 5.15521C14.3365 5.29396 14.3665 5.43896 14.2764 5.6403Z" fill="#00678F"/>
<path id="Vector_3" d="M15.9803 25C13.7543 24.9971 11.9703 23.1964 12.0004 20.9844C12.0305 18.7383 13.7903 16.9951 16.023 17C18.246 17.0049 20.0087 18.7889 20 21.0254C19.9912 23.2598 18.2285 25.0029 15.9803 25ZM17.5759 20.9318C17.5895 20.0388 16.9767 19.4431 16.0346 19.4324C15.1072 19.4216 14.4283 20.0651 14.4108 20.9698C14.3934 21.8599 15.0761 22.5793 15.9647 22.6066C16.8971 22.6359 17.5604 21.9456 17.5759 20.9318Z" fill="#00678F"/>
<path id="Vector_4" d="M24.9956 21C23.9165 20.9976 23.0065 20.3167 23 19.5074C22.9935 18.6924 23.9414 17.9864 25.0216 18.0002C26.1008 18.0148 27.0139 18.7119 26.9998 19.5107C26.9857 20.3192 26.066 21.0024 24.9956 21Z" fill="#00678F"/>
<path id="Vector_5" d="M6.47797 22.9999C5.12783 22.988 3.99865 22.0747 4 20.9965C4.00271 19.9097 5.19968 18.9693 6.54304 19.0008C7.89725 19.0322 9.03185 19.9672 8.99932 21.0269C8.96543 22.1105 7.81455 23.0118 6.47797 22.9999Z" fill="#00678F"/>
</g>
</svg>
