<svg width="6" height="9" viewBox="0 0 6 9" fill="none" xmlns="http://www.w3.org/2000/svg">
    <path d="M0.713065 0C0.890258 0 1.03932 0.065897 1.16147 0.187641C2.43678 1.46134 3.71289 2.73464 4.98418 4.01236C5.25941 4.2888 5.25298 4.67694 4.97574 4.95538C3.69963 6.23551 2.42111 7.51363 1.14138 8.78974C0.861729 9.06859 0.467164 9.06819 0.199567 8.79979C-0.0684327 8.53139 -0.0684336 8.13803 0.211218 7.85757C1.29286 6.77312 2.37571 5.69067 3.46338 4.61224C3.57146 4.50496 3.57347 4.44952 3.46418 4.34103C2.39097 3.27667 1.32299 2.20748 0.256219 1.13709C-0.112632 0.767035 0.0336232 0.164338 0.521406 0.0281286C0.58248 0.0112534 0.648777 0.0092411 0.713065 0Z" fill="#00678F"/>
</svg>
