<svg width="28" height="16" viewBox="0 0 28 16" fill="none" xmlns="http://www.w3.org/2000/svg">
<g id="Group">
<path id="Vector" d="M27.7248 8.75864C27.6245 9.38518 27.5371 10.0131 27.3494 10.6247C26.9343 11.978 26.2687 13.1979 25.1888 14.1943C24.1911 15.1154 23.005 15.6614 21.5879 15.6756C20.4401 15.6871 19.4135 15.3254 18.5075 14.6691C17.3229 13.8109 16.5512 12.6743 16.0271 11.3779C15.4712 10.0043 15.2813 8.57373 15.3911 7.11745C15.5362 5.19043 16.1512 3.41378 17.5026 1.91212C18.4057 0.908311 19.5211 0.218105 20.931 0.0433522C22.2889 -0.125305 23.5176 0.222846 24.5968 1.00585C26.0276 2.04488 26.8513 3.45306 27.3487 5.05496C27.5386 5.66592 27.6245 6.29449 27.7248 6.92103C27.7248 7.53402 27.7248 8.14633 27.7248 8.75864ZM26.5517 7.84694C26.556 7.24886 26.5106 6.65551 26.3864 6.06826C26.0803 4.61944 25.4689 3.31556 24.3362 2.25689C22.8231 0.842609 20.7267 0.736945 19.0807 2.00763C18.135 2.73712 17.5243 3.68742 17.1128 4.7549C16.4913 6.36967 16.3981 8.02712 16.7483 9.70149C17.0442 11.1178 17.6521 12.4041 18.7811 13.4201C19.9434 14.4666 21.2963 14.8709 22.8613 14.3277C23.8287 13.9917 24.5419 13.3442 25.113 12.5571C26.1431 11.1368 26.5532 9.5457 26.5517 7.84694Z" fill="white"/>
<path id="Vector_2" d="M12.423 7.57941C12.4237 9.48679 12.0635 11.0487 11.2196 12.4962C10.5236 13.6903 9.59528 14.6826 8.24748 15.2543C6.68528 15.9167 5.15124 15.8111 3.68866 14.9874C2.42244 14.2742 1.57781 13.2074 0.968526 11.9665C0.211249 10.4249 -0.0515238 8.79387 0.0690342 7.11408C0.189592 5.4309 0.690593 3.85135 1.73519 2.45401C2.4968 1.43529 3.44971 0.634681 4.73687 0.239794C6.15541 -0.195733 7.50898 -0.0331727 8.77375 0.68819C10.2371 1.52267 11.1416 2.7859 11.7451 4.25504C12.2187 5.40719 12.436 6.60811 12.423 7.57941ZM1.24141 8.01494C1.23491 8.42337 1.28183 9.02417 1.40817 9.61887C1.71425 11.0596 2.32137 12.3567 3.44466 13.4126C4.96138 14.8384 7.06356 14.9482 8.71744 13.67C9.66242 12.9398 10.2717 11.9889 10.6825 10.9207C11.3033 9.30594 11.3943 7.64782 11.0441 5.97412C10.7489 4.56594 10.1295 3.30068 9.02931 2.26977C7.85332 1.16774 6.22976 0.819594 4.83432 1.3872C3.71537 1.84169 2.94221 2.64298 2.35314 3.61564C1.5641 4.9168 1.2378 6.32972 1.24141 8.01494Z" fill="white"/>
<path id="Vector_3" d="M18.7063 7.66743C18.7077 6.45161 19.8418 5.29337 21.3145 5.17009C22.7821 5.04682 24.1263 6.03031 24.3667 7.40395C24.636 8.94015 23.4694 10.3592 21.8119 10.5102C21.7469 10.5163 21.6812 10.5183 21.6163 10.5156C21.5629 10.5136 21.4935 10.5366 21.4647 10.4736C21.4416 10.4222 21.4979 10.393 21.5282 10.3598C21.6957 10.1749 21.6545 9.99408 21.5188 9.81527C21.2474 9.45695 20.5977 9.26256 20.1566 9.41157C19.9812 9.4705 19.8324 9.55923 19.8036 9.75363C19.779 9.92025 19.696 9.87013 19.6108 9.79765C19.4094 9.62697 19.2434 9.42715 19.1069 9.20905C18.8427 8.78504 18.6998 8.32716 18.7063 7.66743ZM22.4941 7.00568C22.5511 7.00568 22.6082 7.00906 22.6645 7.005C22.894 6.98739 23.1099 6.92643 23.1944 6.70358C23.281 6.47532 23.1734 6.28702 22.9864 6.1353C22.6573 5.86775 22.2703 5.78241 21.8487 5.84404C21.6488 5.87317 21.4719 5.96258 21.4019 6.15697C21.3304 6.35475 21.43 6.52003 21.5722 6.65346C21.8242 6.88985 22.1346 7.01042 22.4941 7.00568Z" fill="white"/>
<path id="Vector_4" d="M9.08757 7.85432C9.08396 9.27063 7.85023 10.481 6.37466 10.5135C6.29742 10.5149 6.19346 10.5521 6.1487 10.4776C6.10539 10.4058 6.21079 10.3659 6.2476 10.311C6.36527 10.1349 6.32052 9.9737 6.20429 9.81995C5.94152 9.4745 5.32934 9.27469 4.89043 9.3939C4.69624 9.44673 4.52009 9.52937 4.48472 9.74408C4.45151 9.9439 4.35405 9.8511 4.27825 9.78269C3.84872 9.39661 3.55707 8.93196 3.44373 8.38332C3.08711 6.65069 4.47678 5.11991 6.35589 5.16529C7.86322 5.20187 9.09118 6.41091 9.08757 7.85432ZM7.18391 7.00629C7.233 7.00629 7.28137 7.009 7.33046 7.00561C7.56941 6.98936 7.78959 6.92637 7.87983 6.69472C7.97151 6.459 7.84012 6.27951 7.66037 6.13185C7.32468 5.8555 6.92475 5.77083 6.4981 5.85211C6.04331 5.93813 5.91914 6.32895 6.24183 6.64392C6.49377 6.89114 6.81502 7.01171 7.18391 7.00629Z" fill="white"/>
</g>
</svg>
