<svg width="412" height="189" viewBox="0 0 412 189" fill="none" xmlns="http://www.w3.org/2000/svg">
<g filter="url(#filter0_d_375_579)">
<path d="M45.2277 172.361C35.5634 212.382 -3.91741 195.879 0.473358 198.912L286.775 228.641L452.44 86.7363C447.194 63.8875 433.427 15.8459 420.328 6.47041C403.955 -5.24901 367.432 -24.5976 305.3 76.8033C243.168 178.204 219.609 203.694 213.42 185.561C196.777 136.798 147.791 86.8499 97.6827 97.3863C47.5741 107.923 51.6005 145.971 45.2277 172.361Z" fill="#D9D9D9"/>
<path d="M45.2277 172.361C35.5634 212.382 -3.91741 195.879 0.473358 198.912L286.775 228.641L452.44 86.7363C447.194 63.8875 433.427 15.8459 420.328 6.47041C403.955 -5.24901 367.432 -24.5976 305.3 76.8033C243.168 178.204 219.609 203.694 213.42 185.561C196.777 136.798 147.791 86.8499 97.6827 97.3863C47.5741 107.923 51.6005 145.971 45.2277 172.361Z" stroke="black"/>
</g>
<defs>
<filter id="filter0_d_375_579" x="0.133789" y="-8.28581" width="484.283" height="236.926" filterUnits="userSpaceOnUse" color-interpolation-filters="sRGB">
<feFlood flood-opacity="0" result="BackgroundImageFix"/>
<feColorMatrix in="SourceAlpha" type="matrix" values="0 0 0 0 0 0 0 0 0 0 0 0 0 0 0 0 0 0 127 0" result="hardAlpha"/>
<feOffset dx="29.4192" dy="-2.55819"/>
<feGaussianBlur stdDeviation="1.27909"/>
<feComposite in2="hardAlpha" operator="out"/>
<feColorMatrix type="matrix" values="0 0 0 0 0 0 0 0 0 0 0 0 0 0 0 0 0 0 0.25 0"/>
<feBlend mode="normal" in2="BackgroundImageFix" result="effect1_dropShadow_375_579"/>
<feBlend mode="normal" in="SourceGraphic" in2="effect1_dropShadow_375_579" result="shape"/>
</filter>
</defs>
</svg>
