<svg width="24" height="27" viewBox="0 0 24 27" fill="none" xmlns="http://www.w3.org/2000/svg">
<g id="Group">
<g id="Group_2">
<path id="Vector" d="M11.2353 26.1176C10.4707 25.9678 9.77966 25.6655 9.19959 25.1331C8.66104 24.6381 8.28522 24.0396 8.09458 23.335C8.03875 23.1287 7.94207 23.0735 7.73918 23.0742C5.53938 23.0803 3.34027 23.079 1.14047 23.0769C0.611456 23.0762 0.268994 22.7079 0.31461 22.202C0.332312 22.006 0.428991 21.85 0.559032 21.7105C1.43459 20.773 2.16514 19.7347 2.71117 18.5718C3.38997 17.1264 3.77192 15.6074 3.84613 14.0074C3.89311 12.9882 3.88426 11.9697 3.87541 10.9518C3.84817 7.82199 5.83487 4.77659 8.96742 3.57967C9.48486 3.38155 9.48758 3.38155 9.48418 2.81577C9.48146 2.29765 9.46716 1.78361 9.71294 1.29749C10.2011 0.332741 11.2591 -0.179931 12.3138 0.0576824C13.3636 0.294615 14.0996 1.21579 14.1071 2.30514C14.1091 2.57679 14.12 2.84913 14.1037 3.1201C14.0914 3.32436 14.165 3.41763 14.361 3.48504C15.545 3.8915 16.5854 4.53557 17.4541 5.44041C18.9166 6.96413 19.6907 8.77722 19.7138 10.9008C19.7254 11.9363 19.6968 12.9719 19.7465 14.0074C19.8405 15.9805 20.3878 17.8133 21.3826 19.5161C21.8428 20.3045 22.3943 21.0242 23.0166 21.69C23.2733 21.9644 23.3672 22.2742 23.2093 22.6235C23.0499 22.9768 22.749 23.083 22.3752 23.0817C20.2183 23.0749 18.0607 23.0817 15.9038 23.0735C15.6621 23.0728 15.558 23.1389 15.4797 23.3826C15.0276 24.7967 14.0744 25.6913 12.6269 26.0495C12.5364 26.0719 12.4465 26.0951 12.3566 26.1182C11.9829 26.1176 11.6091 26.1176 11.2353 26.1176ZM2.81057 21.4899C8.82036 21.4899 14.7825 21.4899 20.7821 21.4899C20.6922 21.3605 20.6241 21.2645 20.5574 21.1672C19.0234 18.9299 18.2037 16.4591 18.152 13.7433C18.1356 12.8772 18.1554 12.0105 18.1452 11.1445C18.1397 10.6863 18.107 10.2288 18.0206 9.77737C17.431 6.70405 14.598 4.39941 11.3517 4.67038C8.85917 4.87804 7.09102 6.16006 6.00917 8.39799C5.5993 9.24631 5.46177 10.1593 5.44271 11.0934C5.4182 12.2904 5.49717 13.488 5.39028 14.6835C5.22756 16.5 4.71284 18.2109 3.85703 19.8205C3.55473 20.391 3.20614 20.9329 2.81057 21.4899ZM11.8113 23.0776C11.1836 23.0776 10.5558 23.0837 9.92877 23.0742C9.71362 23.0708 9.67005 23.13 9.7749 23.3173C10.2161 24.1098 10.8908 24.5571 11.7943 24.5571C12.6971 24.5571 13.3752 24.1166 13.8157 23.3213C13.9124 23.1464 13.8981 23.0701 13.6693 23.0735C13.0497 23.0844 12.4302 23.0776 11.8113 23.0776ZM11.7854 3.067C11.7854 3.06768 11.7854 3.06836 11.7854 3.06972C11.972 3.06972 12.1578 3.06904 12.3444 3.0704C12.4452 3.07108 12.5412 3.05883 12.5391 2.92947C12.535 2.65986 12.5779 2.38752 12.4989 2.12131C12.4077 1.81221 12.1156 1.58277 11.8072 1.57596C11.4961 1.56915 11.1897 1.80676 11.091 2.12471C11.0317 2.31603 11.0522 2.51075 11.0508 2.70479C11.0481 3.07177 11.0501 3.07177 11.4048 3.06768C11.5315 3.06564 11.6581 3.067 11.7854 3.067Z" fill="#006181"/>
<path id="Vector_2" d="M0.312204 10.5847C0.4225 7.9519 1.30487 5.61526 2.99676 3.59044C3.19761 3.3501 3.41344 3.11997 3.63335 2.89666C3.98058 2.54398 4.43742 2.52628 4.76831 2.84015C5.10805 3.16287 5.1135 3.63129 4.7615 3.99486C3.65582 5.13526 2.84289 6.44929 2.35268 7.96348C2.03882 8.933 1.91763 9.93111 1.87678 10.9428C1.85635 11.4535 1.53772 11.7735 1.06726 11.7619C0.61722 11.751 0.314247 11.4119 0.311523 10.9156C0.311523 10.8053 0.312204 10.695 0.312204 10.5847Z" fill="#006181"/>
<path id="Vector_3" d="M23.2802 10.5976C23.2802 10.7168 23.2816 10.8352 23.2802 10.9544C23.2734 11.4235 22.9561 11.7571 22.5122 11.7625C22.0636 11.768 21.7299 11.4494 21.7184 10.9809C21.6775 9.37144 21.3419 7.83682 20.5888 6.40297C20.1197 5.50902 19.5227 4.7104 18.8221 3.98598C18.5988 3.75518 18.5082 3.4842 18.6151 3.16897C18.7172 2.8694 18.9317 2.68966 19.2394 2.63315C19.5315 2.57937 19.7671 2.69647 19.9706 2.90277C21.1996 4.15075 22.1098 5.59617 22.6709 7.25674C23.0651 8.42711 23.2714 9.58454 23.2802 10.5976Z" fill="#006181"/>
</g>
</g>
</svg>
