<svg width="32" height="32" viewBox="0 0 32 32" fill="none" xmlns="http://www.w3.org/2000/svg">
    <path d="M0.41571 0.0251981C0.475848 0.0186967 0.535987 0.00569347 0.596125 0.00569347C2.87405 0.0048808 5.15198 0.00731947 7.43073 5.38973e-06C7.67534 -0.000807286 7.74442 0.0902121 7.74035 0.321012C7.72979 0.938645 7.72735 1.55628 7.74117 2.17391C7.74686 2.41934 7.65015 2.48517 7.42016 2.48354C6.02317 2.47623 4.62537 2.48679 3.22838 2.4746C2.95288 2.47216 2.86105 2.54612 2.8643 2.83137C2.87812 4.20804 2.86105 5.58552 2.8773 6.9622C2.88055 7.27508 2.78141 7.36366 2.47909 7.35228C1.79157 7.32627 1.10323 7.33196 0.41571 7.32546C0.41571 4.8915 0.41571 2.45835 0.41571 0.0251981Z" fill="#00678F"/>
    <path d="M0.415696 23.8707C1.15361 23.8642 1.89233 23.8617 2.63024 23.8487C2.8781 23.8446 2.87079 24.0023 2.87079 24.1713C2.86998 25.4765 2.86673 26.7825 2.8716 28.0876C2.87404 28.8117 2.77408 28.7109 3.49817 28.7142C4.78383 28.7191 6.06867 28.7256 7.35432 28.7085C7.66801 28.7044 7.75416 28.8068 7.74278 29.1075C7.71759 29.7942 7.72246 30.4826 7.71596 31.1701C5.35839 31.1701 3.00082 31.1677 0.644057 31.175C0.454704 31.1758 0.410819 31.1319 0.411632 30.9426C0.418134 28.5858 0.415696 26.2282 0.415696 23.8707Z" fill="#00678F"/>
    <path d="M24.262 31.171C24.2555 30.4322 24.2523 29.6935 24.2401 28.9556C24.236 28.7069 24.3953 28.7159 24.5643 28.7167C25.8906 28.7175 27.2169 28.7191 28.5432 28.7159C29.1811 28.7142 29.1047 28.789 29.1064 28.1462C29.1096 26.8402 29.1145 25.5342 29.1015 24.2283C29.0991 23.943 29.1746 23.8341 29.4745 23.8447C30.0816 23.8658 30.6895 23.8536 31.2965 23.8496C31.4721 23.8488 31.585 23.8821 31.5842 24.0966C31.5785 26.4355 31.5777 28.7744 31.5745 31.1133C31.5745 31.1328 31.5655 31.1531 31.5615 31.1726C29.1283 31.171 26.6952 31.171 24.262 31.171Z" fill="#00678F"/>
    <path d="M14.7936 9.54642C14.7936 11.036 14.7855 12.5265 14.8001 14.0161C14.8033 14.3258 14.7091 14.4103 14.4043 14.4095C11.4047 14.3989 8.40434 14.3989 5.40475 14.4095C5.09594 14.4103 5.0106 14.3193 5.01223 14.0137C5.02279 11.0141 5.02279 8.01371 5.01223 5.01413C5.01142 4.70531 5.10244 4.61998 5.408 4.6216C8.40759 4.63217 11.408 4.63217 14.4076 4.6216C14.7164 4.62079 14.8033 4.71181 14.8009 5.01738C14.7855 6.5257 14.7936 8.03646 14.7936 9.54642ZM9.90454 7.1027C9.19507 7.1027 8.48479 7.10839 7.77533 7.09945C7.56728 7.09701 7.48926 7.16447 7.49008 7.37901C7.49658 8.79794 7.49577 10.2177 7.49089 11.6366C7.49008 11.8365 7.53965 11.9308 7.76232 11.9292C9.19182 11.9219 10.6213 11.9235 12.0508 11.9284C12.245 11.9292 12.3206 11.8642 12.3198 11.6642C12.3141 10.2348 12.3133 8.80526 12.3206 7.37576C12.3214 7.15878 12.2385 7.0962 12.0329 7.09864C11.3235 7.10839 10.614 7.1027 9.90454 7.1027Z" fill="#00678F"/>
    <path d="M22.0702 4.62646C23.5704 4.62646 25.0706 4.63459 26.57 4.61996C26.8756 4.61671 26.9666 4.70448 26.9658 5.01329C26.9552 8.01288 26.9552 11.0133 26.9658 14.0129C26.9666 14.3184 26.8813 14.4094 26.5725 14.4086C23.5729 14.3981 20.5725 14.3981 17.5729 14.4086C17.2673 14.4094 17.1763 14.3241 17.1771 14.0153C17.1877 11.0157 17.1877 8.01532 17.1771 5.01573C17.1763 4.71017 17.2608 4.61671 17.5705 4.61996C19.0707 4.63459 20.5709 4.62646 22.0702 4.62646ZM24.4831 9.5147C24.4831 8.80524 24.4774 8.09496 24.4863 7.38549C24.4888 7.17826 24.4238 7.09862 24.2076 7.09943C22.7781 7.10593 21.3486 7.10594 19.9191 7.10025C19.7184 7.09943 19.6558 7.17745 19.6566 7.37005C19.6615 8.79955 19.6615 10.229 19.6566 11.6585C19.6558 11.852 19.7184 11.9292 19.9191 11.9283C21.3486 11.9227 22.7781 11.9227 24.2076 11.9292C24.4229 11.93 24.4888 11.8503 24.4863 11.6431C24.4782 10.9336 24.4831 10.2242 24.4831 9.5147Z" fill="#00678F"/>
    <path d="M9.87443 26.5688C8.38479 26.5688 6.89435 26.5607 5.40471 26.5753C5.09671 26.5786 5.00975 26.4875 5.01056 26.1803C5.02113 23.1808 5.02113 20.1804 5.01056 17.1808C5.00975 16.8736 5.09833 16.7858 5.40471 16.7866C8.4043 16.7972 11.4047 16.7972 14.4043 16.7866C14.7115 16.7858 14.7992 16.8744 14.7984 17.1808C14.7879 20.1804 14.7879 23.1808 14.7984 26.1803C14.7992 26.4875 14.7107 26.5777 14.4035 26.5745C12.8951 26.5615 11.3852 26.5688 9.87443 26.5688ZM9.92319 19.2693C9.22348 19.2693 8.52376 19.2775 7.82486 19.2645C7.58106 19.2604 7.48679 19.3262 7.48841 19.5871C7.49898 20.9857 7.49816 22.3851 7.48922 23.7846C7.4876 24.0251 7.56643 24.0983 7.80454 24.0966C9.20397 24.0877 10.6026 24.0885 12.002 24.0966C12.2328 24.0983 12.3246 24.0389 12.323 23.7894C12.3125 22.3803 12.3141 20.9711 12.3222 19.5619C12.3238 19.3352 12.2474 19.262 12.0231 19.2653C11.3226 19.2767 10.6229 19.2693 9.92319 19.2693Z" fill="#00678F"/>
    <path d="M31.5826 3.6481C31.5826 4.7631 31.5745 5.87809 31.5883 6.99308C31.5924 7.27833 31.4924 7.35878 31.2202 7.35147C30.6326 7.33521 30.0442 7.33278 29.4567 7.35228C29.1666 7.36203 29.0991 7.24988 29.1015 6.9817C29.1121 5.6034 29.0983 4.2251 29.1129 2.84681C29.1162 2.54855 29.0211 2.47135 28.7326 2.47379C27.3543 2.4876 25.976 2.47298 24.5977 2.48517C24.3198 2.4876 24.2263 2.40146 24.2344 2.12271C24.2523 1.51483 24.2474 0.906137 24.2369 0.298256C24.2328 0.072332 24.3181 0.000816294 24.5392 0.000816294C26.7895 0.00650502 29.039 0.00731815 31.2893 4.06445e-06C31.5493 -0.000808611 31.5859 0.12028 31.5851 0.334826C31.5794 1.43844 31.5826 2.54368 31.5826 3.6481Z" fill="#00678F"/>
    <path d="M22.0418 24.1364C21.2503 24.1364 20.4587 24.1364 19.6672 24.1364C19.6501 24.1194 19.6331 24.1015 19.616 24.0844C19.616 23.4164 19.5997 22.7476 19.6241 22.0804C19.6363 21.7602 19.5225 21.6854 19.2243 21.696C18.6481 21.7171 18.0703 21.6927 17.4933 21.7065C17.2519 21.7122 17.1788 21.6236 17.1796 21.3888C17.1877 19.9609 17.1877 18.5338 17.1796 17.106C17.178 16.8703 17.2527 16.7842 17.4933 16.789C18.1109 16.802 18.7286 16.8012 19.3462 16.789C19.5819 16.7842 19.6688 16.8622 19.6631 17.1027C19.6501 17.6797 19.6745 18.2575 19.6526 18.8337C19.6412 19.1328 19.7176 19.2449 20.037 19.2336C20.7042 19.2092 21.373 19.2254 22.041 19.2254C22.0581 19.2425 22.0751 19.2604 22.0922 19.2774C22.0922 20.88 22.0922 22.4826 22.0922 24.0852C22.0768 24.1023 22.0597 24.1194 22.0418 24.1364Z" fill="#00678F"/>
    <path d="M22.0426 19.2255C22.045 18.5266 22.0556 17.8277 22.0467 17.1296C22.0434 16.889 22.1076 16.7875 22.3685 16.7891C23.7964 16.7988 25.225 16.798 26.6529 16.7899C26.8967 16.7883 26.9642 16.8793 26.9634 17.1101C26.956 18.538 26.9552 19.9666 26.9642 21.3945C26.9658 21.6367 26.8788 21.7106 26.6456 21.7066C26.028 21.6952 25.4095 21.6936 24.7919 21.7074C24.5481 21.7123 24.4766 21.6196 24.4806 21.3872C24.492 20.7793 24.4766 20.1714 24.4879 19.5644C24.492 19.3393 24.4164 19.2621 24.1905 19.2661C23.4916 19.2791 22.7927 19.2751 22.0946 19.2783C22.0767 19.2604 22.0597 19.2425 22.0426 19.2255Z" fill="#00678F"/>
    <path d="M22.0939 24.0852C23.5819 24.0876 25.0699 24.0901 26.5579 24.0933C26.9577 24.0941 26.9586 24.095 26.9594 24.4964C26.9602 25.0937 26.9537 25.6911 26.9618 26.2884C26.9651 26.498 26.887 26.5728 26.6782 26.572C25.2308 26.5663 23.7834 26.5655 22.3361 26.5728C22.1012 26.5744 22.0459 26.4737 22.0476 26.2624C22.0532 25.5537 22.0451 24.8451 22.0419 24.1372C22.0597 24.1193 22.0768 24.1023 22.0939 24.0852Z" fill="#00678F"/>
    <path d="M19.668 24.1365C19.6656 24.8443 19.6542 25.5522 19.6639 26.26C19.6672 26.5022 19.5794 26.5769 19.3454 26.5721C18.7286 26.5607 18.1117 26.5599 17.4949 26.5721C17.2568 26.5769 17.1755 26.4941 17.1796 26.2568C17.1918 25.6399 17.191 25.0231 17.1796 24.4063C17.1755 24.1722 17.2511 24.0853 17.4925 24.0885C18.2003 24.0983 18.9082 24.0869 19.616 24.0845C19.6339 24.1024 19.6509 24.1194 19.668 24.1365Z" fill="#00678F"/>
</svg>
