<svg width="36" height="30" viewBox="0 0 36 30" fill="none" xmlns="http://www.w3.org/2000/svg">
    <path d="M1.01553 15.0127C1.03463 14.4341 0.94638 13.7599 1.05647 13.0975C1.45406 10.7083 3.13177 9.15437 5.59739 8.88688C5.85305 8.85959 5.9686 8.75132 6.07323 8.53751C7.65268 5.31219 10.0937 2.9785 13.4937 1.81483C18.4022 0.136211 22.8631 1.06423 26.7762 4.47789C28.0736 5.6097 29.0572 6.99809 29.7905 8.55753C29.8878 8.76315 30.0052 8.85868 30.2454 8.88507C32.7174 9.15255 34.3851 10.6983 34.8 13.0857C34.8591 13.4242 34.8473 13.7654 34.8373 14.1047C34.8045 15.1692 34.9346 16.241 34.7672 17.2991C34.3514 19.9321 31.844 21.7399 29.2009 21.3251C28.9798 21.2905 28.8688 21.3642 28.7542 21.5307C26.9873 24.0918 24.6045 25.8105 21.6321 26.7139C21.2427 26.8322 20.8442 26.9323 20.443 27.0014C20.19 27.0451 20.0554 27.1616 19.9426 27.3881C19.3284 28.6264 17.9801 29.2442 16.6645 28.9103C15.3662 28.5809 14.4791 27.4018 14.5036 26.0398C14.5255 24.827 15.4007 23.7015 16.5753 23.3749C17.8099 23.031 19.1101 23.5077 19.7733 24.5895C19.9489 24.8752 20.1063 24.9434 20.422 24.8579C25.043 23.5978 27.9272 20.6381 28.7569 15.928C29.826 9.85948 25.6481 4.30047 19.8034 3.3124C13.8859 2.31251 8.32504 6.1183 7.14591 11.9757C6.63277 14.5214 6.99943 16.9625 8.19767 19.2716C8.67805 20.1987 8.44241 20.8092 7.45707 21.1376C4.29635 22.1912 1.02008 19.832 1.01553 16.4994C1.01553 16.0335 1.01553 15.5686 1.01553 15.0127ZM30.6958 11.1087C31.3099 13.9173 31.0961 16.6131 30.0143 19.247C31.6001 19.1579 32.6919 18.0233 32.7028 16.503C32.7083 15.7551 32.7028 15.0082 32.7383 14.2594C32.7647 13.7071 32.7247 13.1467 32.4781 12.6299C32.1187 11.8766 31.551 11.3698 30.6958 11.1087ZM5.14885 11.1351C4.12348 11.3607 3.25187 12.3697 3.16271 13.3969C3.06263 14.5505 3.13632 15.7069 3.17908 16.8587C3.2273 18.1525 4.49833 19.2543 5.83031 19.2279C4.7549 16.6067 4.54655 13.9182 5.14885 11.1351ZM18.112 26.1235C18.1065 25.7122 17.7836 25.3874 17.3769 25.3856C16.9529 25.3838 16.6354 25.714 16.6417 26.1499C16.6481 26.5784 16.9502 26.8668 17.3841 26.8577C17.8072 26.8504 18.1175 26.5374 18.112 26.1235Z" stroke="white" stroke-miterlimit="10"/>
    <path d="M17.788 22.7335C17.2749 22.7608 16.6353 22.6707 16.0048 22.5197C15.7992 22.4706 15.6381 22.507 15.4607 22.6107C14.4827 23.1857 13.4991 23.7516 12.5165 24.3193C12.4283 24.3703 12.34 24.4221 12.2481 24.4667C11.8433 24.6605 11.4484 24.6378 11.0963 24.3585C10.7442 24.08 10.6159 23.7025 10.7296 23.2639C10.9689 22.3414 11.2018 21.4179 11.4721 20.5044C11.5803 20.1396 11.5294 19.883 11.2828 19.5828C9.8362 17.8196 9.19659 15.7806 9.33853 13.5106C9.5587 9.99417 12.0898 6.86984 15.4844 5.88451C20.351 4.47246 25.3114 7.45122 26.3586 12.4152C27.3803 17.2555 23.9421 22.0693 19.0454 22.668C18.6733 22.7162 18.3012 22.7262 17.788 22.7335ZM13.4382 21.3342C14.0005 21.0121 14.4818 20.741 14.9594 20.4617C15.3015 20.2606 15.6445 20.2169 16.033 20.3407C16.9428 20.6291 17.879 20.6928 18.8225 20.5636C22.2853 20.0887 24.7464 16.9134 24.3688 13.4197C23.9566 9.60932 20.2509 6.9672 16.5088 7.81606C13.1416 8.58031 10.9644 11.8184 11.5294 15.2138C11.765 16.6286 12.4101 17.8259 13.4318 18.8204C13.803 19.1816 13.9277 19.5864 13.7776 20.0841C13.6629 20.4626 13.5692 20.8474 13.4382 21.3342Z" stroke="white" stroke-miterlimit="10"/>
    <path d="M15.5655 14.1301C15.5683 14.7206 15.1015 15.1973 14.522 15.1973C13.9433 15.1982 13.4748 14.7197 13.4775 14.131C13.4793 13.5515 13.9297 13.0938 14.5047 13.0865C15.0979 13.0783 15.5637 13.536 15.5655 14.1301Z" stroke="white" stroke-miterlimit="10"/>
    <path d="M20.2874 14.1301C20.2901 13.5369 20.7551 13.0783 21.3483 13.0865C21.9251 13.0947 22.3727 13.5496 22.3746 14.131C22.3764 14.7197 21.9078 15.1991 21.3301 15.1991C20.7532 15.1982 20.2856 14.7188 20.2874 14.1301Z" stroke="white" stroke-miterlimit="10"/>
    <path d="M17.9246 15.1857C17.3268 15.1857 16.8792 14.7317 16.8828 14.1285C16.8865 13.5371 17.3496 13.084 17.9464 13.0877C18.5169 13.0913 18.9681 13.5526 18.97 14.1321C18.9727 14.7344 18.5242 15.1857 17.9246 15.1857Z" stroke="white" stroke-miterlimit="10"/>
</svg>
