<svg width="31" height="31" viewBox="0 0 31 31" fill="none" xmlns="http://www.w3.org/2000/svg">
<g id="Group">
<g id="Group_2">
<path id="Vector" d="M31.0006 14.3493C30.5792 13.917 30.2111 13.4356 29.7691 13.0209C29.4821 12.7514 29.2005 12.4753 28.8778 12.2495C28.6489 12.0896 28.5654 11.8965 28.5666 11.6137C28.5769 9.05072 28.5732 6.48772 28.5732 3.92473C28.5732 2.88088 28.1222 2.42737 27.0844 2.42677C25.2376 2.42616 23.3909 2.42555 21.5442 2.42677C20.5839 2.42737 20.1098 2.90146 20.108 3.85994C20.1074 4.15239 20.102 4.44544 20.1092 4.73788C20.1141 4.9383 20.0408 5.03397 19.8283 5.03215C19.2028 5.02549 18.5767 5.02549 17.9513 5.03215C17.7369 5.03457 17.6691 4.93406 17.6734 4.73546C17.68 4.39276 17.6806 4.04945 17.6728 3.70615C17.6546 2.93779 17.1599 2.431 16.391 2.4304C12.1629 2.42495 7.93482 2.42434 3.70675 2.4304C2.93174 2.43161 2.4304 2.95475 2.42979 3.7449C2.42677 8.5179 2.42677 13.2909 2.43161 18.0639C2.43222 18.8619 2.94566 19.3633 3.75216 19.3657C5.63884 19.3711 7.52612 19.3675 9.41341 19.3681C9.88992 19.3681 9.88326 19.3681 9.82755 19.8349C9.76216 20.3853 9.69435 20.9369 9.69919 21.4921C9.70101 21.7307 9.60716 21.8076 9.37587 21.807C7.37778 21.8009 5.37969 21.8215 3.38221 21.7949C1.93148 21.7755 0.503154 20.5845 0.121096 19.1447C0.0823454 18.9988 0.0405672 18.8541 0 18.7087C0 13.5016 0 8.29448 0 3.08735C0.0236137 3.01105 0.0532822 2.93598 0.0708411 2.85847C0.286392 1.91271 0.813161 1.17705 1.59423 0.618801C2.04289 0.298502 2.56421 0.144104 3.08795 0C7.73017 0 12.3718 0 17.014 0C17.6582 0.167113 18.2776 0.388114 18.7947 0.829509C18.8559 0.88158 18.9261 0.882186 18.9867 0.830114C19.5031 0.386902 20.1268 0.174378 20.768 0C23.1493 0 25.5313 0 27.9127 0C27.9889 0.0242192 28.0634 0.0532831 28.1409 0.070842C29.0982 0.28821 29.8393 0.824665 30.3988 1.61845C30.71 2.06045 30.8632 2.57208 31.0006 3.08735C31.0006 6.84132 31.0006 10.5953 31.0006 14.3493Z" fill="#006181"/>
<path id="Vector_2" d="M20.6464 31.0001C19.8726 30.8632 19.0934 30.747 18.3577 30.4539C14.7975 29.0371 12.6795 26.4469 12.1751 22.6414C11.8131 19.9059 12.6123 17.4573 14.41 15.3726C16.0024 13.5259 18.035 12.4282 20.4708 12.1678C23.6932 11.8239 26.4148 12.8847 28.6018 15.2606C29.923 16.6962 30.678 18.4176 30.9414 20.3521C30.9547 20.4508 30.9808 20.5483 31.0007 20.6457C31.0007 21.2512 31.0007 21.8567 31.0007 22.4622C30.982 22.5397 30.9553 22.6166 30.9462 22.6953C30.4855 26.6848 27.3836 30.0464 23.4413 30.8245C23.1162 30.8887 22.7892 30.9413 22.4635 30.9989C21.8574 31.0001 21.2519 31.0001 20.6464 31.0001ZM21.5692 14.5377C17.6765 14.5794 14.5535 17.6244 14.5498 21.5461C14.5462 25.4563 17.6426 28.5563 21.5552 28.557C25.463 28.5576 28.5449 25.4678 28.5588 21.5746C28.5734 17.6716 25.4769 14.5922 21.5692 14.5377Z" fill="#006181"/>
<path id="Vector_3" d="M10.0511 5.01952C11.6453 5.01952 13.2396 5.01891 14.8338 5.01952C15.2594 5.01952 15.2625 5.02315 15.2637 5.43367C15.2649 5.98889 15.2552 6.54412 15.2679 7.09874C15.274 7.35364 15.1965 7.45779 14.9246 7.45718C11.6756 7.45052 8.42659 7.45052 5.17698 7.45718C4.90573 7.45779 4.82762 7.35485 4.83367 7.09934C4.84639 6.52474 4.85002 5.94893 4.83246 5.37433C4.82399 5.08733 4.94024 5.01467 5.20665 5.01588C6.82207 5.02376 8.43628 5.01952 10.0511 5.01952Z" fill="#006181"/>
<path id="Vector_4" d="M8.20386 11.6912C7.20663 11.6912 6.2088 11.6827 5.21158 11.6967C4.91913 11.7009 4.82407 11.6004 4.83255 11.3128C4.8495 10.7291 4.84344 10.1442 4.83557 9.55993C4.83255 9.34135 4.91429 9.25477 5.1365 9.25537C7.20179 9.25961 9.26769 9.25961 11.333 9.25537C11.5552 9.25477 11.6363 9.34256 11.6333 9.56054C11.6254 10.1551 11.6218 10.7497 11.6357 11.3437C11.6418 11.6052 11.5528 11.6985 11.2876 11.6961C10.2595 11.6846 9.23136 11.6912 8.20386 11.6912Z" fill="#006181"/>
<path id="Vector_5" d="M17.6745 8.90005C17.6745 8.51799 17.6805 8.13533 17.6721 7.75327C17.6678 7.54378 17.732 7.436 17.9627 7.43903C18.5863 7.4475 19.2106 7.44508 19.8342 7.44084C20.0231 7.43963 20.1097 7.51411 20.1079 7.70846C20.1037 8.32242 20.1037 8.93577 20.1085 9.54973C20.1097 9.72471 20.0304 9.8004 19.8633 9.82765C19.2076 9.93421 18.5561 10.062 17.9258 10.2775C17.7375 10.3417 17.669 10.2684 17.6721 10.0777C17.6787 9.68475 17.6745 9.2924 17.6745 8.90005Z" fill="#006181"/>
<path id="Vector_6" d="M22.7891 19.6243C22.447 19.597 22.0316 19.6733 21.6223 19.5782C21.5509 19.5619 21.4788 19.571 21.431 19.6352C21.3734 19.7127 21.4037 19.7883 21.4455 19.861C21.5085 19.9712 21.6144 20.0311 21.718 20.0935C22.2865 20.4368 22.9017 20.6996 23.4218 21.1277C24.5014 22.0165 24.7333 23.4164 23.9861 24.6049C23.7342 25.0052 23.4133 25.3358 23.0034 25.5701C22.8321 25.6682 22.763 25.7899 22.7715 25.9842C22.783 26.2561 22.7691 26.5285 22.7745 26.801C22.7788 26.9911 22.7001 27.0765 22.5063 27.0753C21.8712 27.0711 21.2354 27.0711 20.6003 27.0753C20.4035 27.0765 20.332 26.9839 20.3363 26.7974C20.3417 26.5455 20.3254 26.2924 20.3399 26.0411C20.3532 25.8147 20.2763 25.6797 20.0729 25.5574C19.3124 25.099 18.8692 24.4136 18.7227 23.5387C18.6639 23.1875 18.7172 23.1264 19.0696 23.1245C19.6442 23.1221 20.2194 23.1276 20.794 23.1215C20.9775 23.1197 21.1179 23.15 21.2215 23.3304C21.3359 23.5296 21.54 23.5326 21.7301 23.4509C21.9795 23.3443 22.0025 23.084 21.7713 22.9453C21.417 22.7328 21.0519 22.5384 20.6905 22.3374C19.8071 21.8458 19.1253 21.1924 18.9751 20.1341C18.8244 19.0715 19.1743 18.205 20.0505 17.5765C20.2527 17.4312 20.3575 17.2847 20.3411 17.0328C20.3235 16.7615 20.3429 16.4885 20.3363 16.216C20.3314 16.0186 20.3974 15.9157 20.6124 15.9175C21.2475 15.9236 21.8833 15.9217 22.5184 15.9193C22.6964 15.9187 22.7745 15.9986 22.7727 16.176C22.7691 16.4582 22.7836 16.7416 22.7697 17.0231C22.7582 17.2574 22.8351 17.4076 23.0373 17.5469C23.604 17.9374 23.9988 18.4599 24.1332 19.1532C24.2125 19.5619 24.1683 19.6218 23.7663 19.6243C23.4636 19.6255 23.1608 19.6243 22.7891 19.6243Z" fill="#006181"/>
</g>
</g>
</svg>
