<svg id="Layer_1" xmlns="http://www.w3.org/2000/svg" viewBox="0 0 128.3 24.3"><style>.st0{fill:#fff}</style><path class="st0" d="M127.9 6.5h-2.8c-.5 0-1 .5-1 .5l-10.6 13.9c-.2.3-.5.3-.7 0L102.9 7s-.4-.5-1.1-.5H83c-.3 0-.6-.3-.6-.6V1.3c0-.7-.5-1.2-1.2-1.2H52.3c-4.5.2-6.4.6-8.4 1.8C42 3 41 4.4 41 6.1c0 1.8 1.5 3.6 4.4 5.3.8.5 3.5 1.8 8.1 3.9 2.9 1.4 4.5 2.5 4.4 3.6-.2 1.8-1.8 2.4-5.6 2.4H34.8c-.4 0-.8-.1-.8-.4 0-.2.1-.3.3-.4 3.9-2.4 5.2-5.5 5.2-8.4 0-5.5-4.5-12-22.5-12H1.3C.6.1.1.6.1 1.3v21.4c0 .7.5 1.2 1.2 1.2H58c3.6 0 6.4-.6 8.4-1.8 1.9-1.1 2.8-2.5 2.8-4.2 0-1.8-1.5-3.5-4.4-5.3-.7-.5-3.5-1.8-8.1-3.9-2.9-1.3-4.4-2.4-4.4-3.3 0-1.8 1.9-2.7 5.7-2.7h13.3c.3 0 .6.3.6.6v15.5c0 2.3 1.5 5 6.1 5h36.5c.9 0 1.3-.6 1.3-.6l12.5-16.4c-.1.1.1-.3-.4-.3M14.6 21.3h-3.9c-.3 0-.6-.3-.6-.6V3.2c0-.3.3-.6.6-.6h3.9c9.6 0 14.6 3.9 14.6 9.3 0 5.5-5.1 9.4-14.6 9.4m87.6.1H85.3c-2.3 0-2.9-.7-2.9-2.5V9.5c0-.3.3-.5.6-.5h9.8c.3 0 .7.2.9.4l8.8 11.5c.1.3 0 .5-.3.5"/></svg>