<svg width="54" height="54" viewBox="0 0 54 54" fill="none" xmlns="http://www.w3.org/2000/svg">
<path d="M24.6557 0C26.2014 0 27.746 0 29.2918 0C30.141 0.125386 30.9987 0.206517 31.8364 0.383532C42.3951 2.61624 49.3788 8.87077 52.8369 19.0565C53.4585 20.8878 53.7314 22.797 53.9474 24.7126C53.9474 26.1845 53.9474 27.6575 53.9474 29.1295C53.8083 30.0989 53.7114 31.0756 53.5239 32.0355C50.6358 46.8215 36.3176 56.4636 21.5474 53.3152C11.2173 51.1141 4.44539 44.7237 1.09159 34.736C0.493113 32.9532 0.232859 31.0946 0 29.2349C0 27.6923 0 26.1498 0 24.6082C0.127493 23.7432 0.238127 22.875 0.386693 22.0141C2.11364 12.0444 9.93813 3.52555 19.7488 0.906147C21.363 0.4752 23.0035 0.212839 24.6557 0ZM26.9653 11.7262C27.3667 11.7631 27.7682 11.801 28.1696 11.8379C33.7582 12.3447 38.8379 17.0999 38.7684 23.6884C38.7273 27.5048 37.0783 30.6088 34.0448 32.9575C33.538 33.3505 33.5349 33.341 34.1123 33.6192C38.3796 35.6812 41.3288 38.9307 42.9293 43.3908C43.2212 44.2021 43.2285 44.2148 43.8439 43.5752C48.5938 38.642 50.9308 32.7773 50.679 25.9127C50.5262 21.7549 49.3925 17.8743 47.1113 14.4088C42.0853 6.77293 34.9647 3.00188 25.7768 3.2811C21.6864 3.40543 17.8543 4.5613 14.4594 6.81718C5.97531 12.4511 2.25273 20.3841 3.52871 30.495C4.18198 35.6696 6.5896 40.0591 10.2785 43.7459C10.7221 44.1895 10.741 44.1768 10.9402 43.6047C12.5259 39.036 15.5046 35.7043 19.8668 33.6055C20.4115 33.3431 20.4052 33.3536 19.9195 32.969C16.376 30.1695 14.7565 26.5175 15.2781 22.0352C15.9577 16.2053 21.0753 11.7567 26.9653 11.7262ZM27.0011 35.3809C26.528 35.3809 26.0497 35.3419 25.5808 35.3872C19.8984 35.9372 15.1622 40.056 13.7703 45.6393C13.5575 46.4949 13.5564 46.497 14.3277 46.9743C19.0428 49.8877 24.1541 51.0625 29.6721 50.4577C33.3673 50.0531 36.757 48.8045 39.8832 46.8099C40.2267 46.5908 40.3362 46.3695 40.2477 45.9491C38.9486 39.7894 33.4242 35.3577 27.0011 35.3809ZM26.9811 15.0642C22.2628 15.0621 18.4728 18.8352 18.4707 23.5346C18.4696 28.2286 22.2733 32.0366 26.9653 32.0376C31.6636 32.0387 35.4747 28.2381 35.4757 23.5493C35.4778 18.8447 31.6952 15.0663 26.9811 15.0642Z" fill="#006181"/>
</svg>
