<svg width="28" height="28" viewBox="0 0 28 28" fill="none" xmlns="http://www.w3.org/2000/svg">
    <path d="M0 13.7718C0.184592 13.5259 0.444596 13.4882 0.729926 13.4887C3.61699 13.4915 6.50461 13.491 9.39167 13.4904C9.92857 13.4904 9.88467 13.532 9.88692 12.9822C9.88805 12.7453 9.87848 12.5078 9.89311 12.272C9.91787 11.873 10.1013 11.6934 10.502 11.6895C11.3214 11.6816 12.1414 11.6811 12.9614 11.6901C13.3885 11.6946 13.5641 11.8887 13.5686 12.3226C13.5714 12.6322 13.5731 12.9423 13.5681 13.2518C13.5658 13.4049 13.6097 13.4932 13.7819 13.4915C14.3092 13.487 14.8366 13.4898 15.3577 13.4898C15.4117 13.3857 15.3313 13.3418 15.2952 13.2884C14.7099 12.4177 14.4105 11.4599 14.4111 10.4092C14.4122 8.05901 14.4111 5.7094 14.4117 3.35923C14.4117 2.82403 14.5738 2.65407 15.1196 2.66814C16.4872 2.70247 17.781 2.44415 18.9702 1.74293C19.4986 1.43115 19.9815 1.06197 20.4019 0.612867C20.5949 0.40689 20.7913 0.204289 20.9861 0C21.1318 0 21.2776 0 21.4234 0C21.532 0.109742 21.6456 0.214982 21.7481 0.329789C22.4493 1.11599 23.2726 1.72886 24.2479 2.13969C25.2503 2.56178 26.2965 2.68953 27.3725 2.66758C27.8317 2.65801 27.9994 2.83697 28 3.29226C28.0011 5.68689 28.0152 8.08208 27.9949 10.4767C27.9797 12.2422 27.2127 13.6339 25.7517 14.6182C25.1568 15.0189 24.5231 15.3667 23.8889 15.7049C23.6019 15.858 23.4989 16.0336 23.5 16.3628C23.5124 19.9871 23.5084 23.6114 23.5079 27.2352C23.5079 27.8509 23.3621 27.9972 22.7583 27.9977C21.4926 27.9983 20.2269 27.9977 18.9612 27.9977C12.8691 27.9977 6.777 27.9972 0.685466 28C0.408016 28 0.155327 27.9775 0.000562686 27.7068C-9.44482e-08 23.0627 0 18.417 0 13.7718ZM11.7205 27.0376C15.199 27.0376 18.677 27.0376 22.1555 27.0376C22.5472 27.0376 22.5478 27.0371 22.5478 26.6527C22.5478 23.3931 22.5478 20.1329 22.5478 16.8733C22.5478 16.8187 22.5455 16.7641 22.5478 16.7095C22.554 16.5429 22.4825 16.5193 22.3486 16.5958C22.0644 16.7585 21.7773 16.9177 21.4937 17.0815C21.3024 17.1918 21.1155 17.1924 20.9247 17.0809C19.5093 16.2553 18.0641 15.4815 16.6701 14.6193C16.4833 14.504 16.2942 14.4488 16.0781 14.4499C15.3954 14.4533 14.7122 14.4511 14.0295 14.4511C13.6137 14.4511 13.6137 14.4511 13.5107 14.8653C13.2929 15.7421 12.5489 16.2818 11.6028 16.2491C10.8144 16.2216 10.0574 15.5817 9.94939 14.7949C9.90943 14.5028 9.80025 14.4454 9.53575 14.446C6.79501 14.4539 4.05427 14.4505 1.31353 14.4511C0.942094 14.4511 0.941531 14.4516 0.941531 14.8298C0.941531 18.7637 0.941531 22.6969 0.941531 26.6308C0.941531 27.0376 0.942094 27.0382 1.34054 27.0382C4.79995 27.0376 8.25992 27.0376 11.7205 27.0376ZM27.0405 7.34766C27.0405 6.20071 27.0365 5.05377 27.0438 3.90626C27.045 3.69521 26.9791 3.62262 26.763 3.61924C24.6813 3.58772 22.9012 2.82572 21.4155 1.37487C21.2495 1.21279 21.1521 1.22855 20.9956 1.38219C19.5105 2.83529 17.727 3.58941 15.6464 3.61924C15.4252 3.62262 15.369 3.70084 15.3695 3.90851C15.3752 6.09322 15.3532 8.27849 15.3808 10.4632C15.3988 11.8966 16.0032 13.0689 17.2306 13.832C18.4744 14.6053 19.7654 15.3014 21.035 16.0336C21.1583 16.1045 21.2635 16.1062 21.3901 16.033C22.6046 15.3335 23.8349 14.6599 25.0353 13.9367C26.3843 13.1246 27.045 11.9034 27.041 10.3248C27.0382 9.33258 27.0405 8.3404 27.0405 7.34766ZM12.6063 13.6654C12.6068 13.6654 12.6074 13.6654 12.6074 13.6654C12.6074 13.4105 12.5995 13.1555 12.6102 12.9012C12.6175 12.716 12.5545 12.6378 12.3609 12.6429C11.9518 12.653 11.5421 12.6519 11.1329 12.6434C10.9449 12.6395 10.8712 12.7104 10.874 12.8984C10.8808 13.4077 10.869 13.9176 10.8802 14.4269C10.892 14.9525 11.2382 15.293 11.7351 15.2919C12.2264 15.2902 12.5855 14.9396 12.6051 14.4302C12.6142 14.1753 12.6063 13.9204 12.6063 13.6654Z" fill="white"/>
    <path d="M5.85231 26.1947C4.7138 26.1947 3.5753 26.1958 2.43736 26.1942C1.93536 26.1936 1.78622 26.0439 1.7851 25.543C1.78397 24.705 1.77215 23.8671 1.78791 23.0296C1.81942 21.3717 2.57918 20.1499 4.03903 19.3699C4.24782 19.2585 4.24276 19.1847 4.10431 19.0114C3.55166 18.3209 3.42279 17.5431 3.76439 16.7293C4.10713 15.9122 4.73575 15.4377 5.63451 15.3331C6.57773 15.2239 7.49675 15.7529 7.92109 16.5965C8.30772 17.3641 8.19347 18.3563 7.59918 19.0497C7.47593 19.1937 7.47649 19.2511 7.65095 19.3423C9.20366 20.1544 9.95103 21.4561 9.9606 23.1951C9.96454 23.9689 9.96285 24.7433 9.9606 25.5171C9.95948 26.0287 9.7974 26.193 9.29483 26.1936C8.14732 26.1953 6.99982 26.1947 5.85231 26.1947ZM5.85512 25.2335C6.80228 25.2335 7.74944 25.2262 8.6966 25.2386C8.93972 25.2419 9.01063 25.1615 9.005 24.9245C8.99093 24.2965 9.01007 23.6678 8.99768 23.0398C8.97855 22.0915 8.62906 21.2884 7.91658 20.6497C7.77533 20.523 7.6729 20.5112 7.53052 20.6609C7.13432 21.0757 6.72405 21.4769 6.31604 21.8805C5.97893 22.2142 5.74707 22.2153 5.40715 21.8799C4.99857 21.4769 4.59055 21.0734 4.19154 20.6615C4.06267 20.5287 3.96587 20.5191 3.8263 20.6451C3.1594 21.249 2.77446 21.9891 2.75139 22.8946C2.73394 23.5772 2.75364 24.2604 2.74126 24.9437C2.73732 25.1722 2.81836 25.2414 3.04178 25.2391C3.97881 25.2284 4.91697 25.2335 5.85512 25.2335ZM5.87594 16.2875C5.13082 16.2842 4.55285 16.8531 4.55116 17.5904C4.55003 18.3085 5.12745 18.8938 5.84443 18.9C6.58617 18.9062 7.17597 18.3411 7.19116 17.6084C7.20636 16.8908 6.60925 16.2909 5.87594 16.2875ZM4.92203 20.0385C5.23325 20.3446 5.49776 20.6041 5.76114 20.8646C5.83036 20.9333 5.8917 20.9513 5.9688 20.8736C6.23556 20.6052 6.50513 20.3396 6.80566 20.0413C6.16859 19.8449 5.58555 19.8511 4.92203 20.0385Z" fill="white"/>
    <path d="M16.2863 21.6254C17.9617 21.6254 19.6371 21.6254 21.3131 21.6254C21.6986 21.6254 21.7031 21.6282 21.7031 21.9974C21.7031 22.6744 21.7442 22.5849 21.1201 22.5855C17.8239 22.5877 14.5271 22.5866 11.2309 22.5866C10.8054 22.5866 10.8026 22.586 10.8049 22.1729C10.8077 21.5708 10.7447 21.6265 11.3423 21.6259C12.9901 21.6237 14.638 21.6254 16.2863 21.6254Z" fill="white"/>
    <path d="M16.2576 23.4296C17.951 23.4296 19.6449 23.429 21.3383 23.4301C21.6935 23.4301 21.7025 23.4386 21.7025 23.801C21.7025 24.4803 21.7435 24.3891 21.1205 24.3897C17.8243 24.3919 14.5281 24.3908 11.2325 24.3908C10.8048 24.3908 10.8031 24.3902 10.8048 23.9524C10.807 23.393 10.7508 23.4307 11.3141 23.4307C12.9614 23.429 14.6097 23.4296 16.2576 23.4296Z" fill="white"/>
    <path d="M16.2301 26.1945C14.5547 26.1945 12.8793 26.1945 11.2039 26.1945C10.8055 26.1945 10.8026 26.1934 10.8049 25.8102C10.8088 25.1737 10.734 25.235 11.3699 25.235C14.6751 25.2333 17.9803 25.2344 21.2856 25.2344C21.7026 25.2344 21.7031 25.235 21.7037 25.6616C21.7048 26.2683 21.72 26.1934 21.1747 26.1945C19.5257 26.1957 17.8779 26.1945 16.2301 26.1945Z" fill="white"/>
    <path d="M14.0181 18.0173C14.9563 18.0173 15.8939 18.0241 16.8315 18.0128C17.0842 18.0094 17.1905 18.0747 17.1815 18.3471C17.1585 19.0663 17.2609 18.9757 16.5574 18.9774C14.7728 18.9814 12.9883 18.9791 11.2031 18.9785C10.8047 18.9785 10.8013 18.9774 10.8035 18.5925C10.8075 17.947 10.7355 18.0207 11.3675 18.0184C12.2516 18.0145 13.1346 18.0173 14.0181 18.0173Z" fill="white"/>
    <path d="M13.963 20.7823C13.0249 20.7823 12.0873 20.7755 11.1497 20.7868C10.8965 20.7896 10.7907 20.7226 10.7997 20.4508C10.8227 19.7259 10.7209 19.8239 11.4232 19.8222C13.2078 19.8177 14.9924 19.8205 16.7775 19.8211C17.176 19.8211 17.1793 19.8222 17.1771 20.2054C17.1731 20.8447 17.2474 20.7795 16.6132 20.7817C15.7296 20.7845 14.846 20.7823 13.963 20.7823Z" fill="white"/>
    <path d="M21.1903 14.4482C18.4361 14.4404 16.2109 12.2056 16.2171 9.45469C16.2232 6.71902 18.4834 4.46621 21.2179 4.47071C23.9817 4.47521 26.2087 6.73534 26.1951 9.52335C26.1822 12.2573 23.9474 14.4567 21.1903 14.4482ZM21.2219 13.4893C23.4561 13.4853 25.2345 11.6901 25.2367 9.45188C25.2384 7.43937 23.6688 5.44995 21.2151 5.44432C18.9105 5.43869 17.1969 7.25872 17.1811 9.4727C17.1653 11.6901 18.9916 13.4932 21.2219 13.4893Z" fill="white"/>
    <path d="M21.2336 12.1994C21.0591 12.1971 20.9347 12.1257 20.8284 12.0198C20.2864 11.4801 19.7478 10.9365 19.2031 10.4002C19.0849 10.2842 19.0838 10.2004 19.2036 10.0861C19.8587 9.46145 19.6173 9.48621 20.2144 10.0546C20.4322 10.2617 20.6477 10.4716 20.8498 10.6939C21.0028 10.8622 21.0619 10.8149 21.1357 10.6281C21.5662 9.53574 22.0046 8.44619 22.4413 7.35665C22.582 7.00604 22.5831 7.0066 22.9275 7.1428C23.4746 7.35947 23.4751 7.35947 23.2556 7.90987C22.7424 9.19469 22.2269 10.479 21.7164 11.7649C21.6219 11.9996 21.4913 12.1791 21.2336 12.1994Z" fill="white"/>
</svg>
