<svg width="42" height="41" viewBox="0 0 42 41" fill="none" xmlns="http://www.w3.org/2000/svg">
<path id="Vector" d="M12.1552 0C5.56273 0 0.200195 5.3675 0.200195 11.9617V29.045C0.200195 35.6375 5.5677 41 12.1619 41H29.2452C35.8377 41 41.2002 35.6325 41.2002 29.0383V11.955C41.2002 5.36254 35.8327 0 29.2385 0H12.1552ZM32.6585 6.83333C33.6015 6.83333 34.3669 7.59867 34.3669 8.54167C34.3669 9.48467 33.6015 10.25 32.6585 10.25C31.7155 10.25 30.9502 9.48467 30.9502 8.54167C30.9502 7.59867 31.7155 6.83333 32.6585 6.83333ZM20.7002 10.25C26.3531 10.25 30.9502 14.8471 30.9502 20.5C30.9502 26.1529 26.3531 30.75 20.7002 30.75C15.0473 30.75 10.4502 26.1529 10.4502 20.5C10.4502 14.8471 15.0473 10.25 20.7002 10.25ZM20.7002 13.6667C18.8879 13.6667 17.1498 14.3866 15.8683 15.6681C14.5868 16.9496 13.8669 18.6877 13.8669 20.5C13.8669 22.3123 14.5868 24.0504 15.8683 25.3319C17.1498 26.6134 18.8879 27.3333 20.7002 27.3333C22.5125 27.3333 24.2506 26.6134 25.5321 25.3319C26.8136 24.0504 27.5335 22.3123 27.5335 20.5C27.5335 18.6877 26.8136 16.9496 25.5321 15.6681C24.2506 14.3866 22.5125 13.6667 20.7002 13.6667Z" fill="white"/>
</svg>
