<svg width="64" height="51" viewBox="0 0 64 51" fill="none" xmlns="http://www.w3.org/2000/svg">
<path fill-rule="evenodd" clip-rule="evenodd" d="M9.16895 11.1868L28.5133 0C33.1199 11.4709 41.0416 22.2459 56.1642 31.5131L54.6235 32.4236C43.0868 25.71 34.705 16.843 29.215 6.00223C27.106 7.54869 25.3469 6.64594 23.7521 4.60074L15.0687 9.62289C16.1532 11.9793 15.6544 14.0439 13.2767 15.7585C19.424 26.4948 27.6744 35.3812 38.6968 41.8261L37.1755 42.725C23.6555 34.2948 14.6144 23.8775 9.16895 11.1868ZM27.9121 4.85397L27.164 4.30884L26.4159 4.85397L26.704 3.97249L25.9539 3.42929L26.8799 3.43122L27.164 2.54974L27.4482 3.43122L28.3741 3.42929L27.6241 3.97249L27.9121 4.85397ZM13.5764 13.2668L12.8283 12.7197L12.0802 13.2648L12.3682 12.3833L11.6182 11.8401L12.5441 11.8421L12.8283 10.9606L13.1124 11.8421L14.0384 11.8401L13.2883 12.3833L13.5764 13.2648V13.2668Z" fill="#006181"/>
<path d="M34.4247 29.8255C37.9334 28.2489 40.0133 25.2693 39.0702 23.1704C38.1271 21.0715 34.5181 20.6481 31.0094 22.2247C27.5007 23.8013 25.4208 26.7808 26.3639 28.8798C27.307 30.9787 30.9159 31.4021 34.4247 29.8255Z" fill="#006181"/>
<path d="M25.056 19.6674C26.6521 19.6674 27.9459 18.3735 27.9459 16.7774C27.9459 15.1813 26.6521 13.8875 25.056 13.8875C23.4599 13.8875 22.166 15.1813 22.166 16.7774C22.166 18.3735 23.4599 19.6674 25.056 19.6674Z" fill="#006181"/>
<path d="M41.9534 36.8566C43.5495 36.8566 44.8434 35.5627 44.8434 33.9666C44.8434 32.3705 43.5495 31.0767 41.9534 31.0767C40.3574 31.0767 39.0635 32.3705 39.0635 33.9666C39.0635 35.5627 40.3574 36.8566 41.9534 36.8566Z" fill="#006181"/>
<path fill-rule="evenodd" clip-rule="evenodd" d="M19.2855 29.563C14.5571 25.6331 10.5189 20.6245 7.1167 14.63L8.8874 13.5784C11.441 19.0471 14.8142 24.3901 19.2855 29.563Z" fill="#006181"/>
<path fill-rule="evenodd" clip-rule="evenodd" d="M5.40283 18.3355C8.90945 23.2068 13.5488 27.2547 18.6773 30.9469C14.1771 26.8488 10.2336 22.3795 7.06142 17.396L5.40283 18.3355Z" fill="#006181"/>
<path fill-rule="evenodd" clip-rule="evenodd" d="M15.5305 30.3404L5.09766 23.9805L7.38836 22.4534C9.46643 25.0824 12.2655 27.7114 15.5305 30.3404Z" fill="#006181"/>
<path fill-rule="evenodd" clip-rule="evenodd" d="M5.33724 20.1885L6.43717 21.4025L2.84357 23.7589L34.9154 42.9583C36.1274 43.8494 37.1867 43.9422 38.1069 43.2927L56.8597 32.4462L57.4339 30.5672L45.8025 22.1796L62.7904 32.5795C63.7241 33.2793 63.9426 33.9056 63.324 34.4392L43.678 45.9778C41.1264 46.9327 38.6849 46.5596 36.3284 45.1736L0 23.4689L5.33531 20.1885H5.33724ZM50.7589 37.4103C51.5418 37.4103 52.1778 38.0463 52.1778 38.8292C52.1778 39.6121 51.5418 40.2481 50.7589 40.2481C49.976 40.2481 49.34 39.6121 49.34 38.8292C49.34 38.0463 49.976 37.4103 50.7589 37.4103Z" fill="#006181"/>
<path fill-rule="evenodd" clip-rule="evenodd" d="M0.0517578 25.6191L35.6882 46.3283C38.1683 48.1956 40.5885 48.5726 42.9218 47.49L63.859 35.4972V38.4239L43.6602 49.9122C41.5667 51.3504 39.3204 51.3504 36.9311 49.9837L0.125215 28.9092L0.0517578 25.6172V25.6191Z" fill="#006181"/>
</svg>
