<svg width="28" height="28" viewBox="0 0 28 28" fill="none" xmlns="http://www.w3.org/2000/svg">
    <path d="M0.0138584 13.6691C0.0138584 10.6462 0.0462252 7.62249 0.000309503 4.59958C-0.022272 3.08812 1.19337 1.74979 2.8102 1.80474C3.40936 1.82506 3.34463 1.877 3.34011 1.25827C3.3371 0.889436 3.377 0.545443 3.66755 0.278982C3.85422 0.107362 4.06649 0.00198184 4.32542 0.00273456C4.71006 0.00424 5.09545 -0.00253414 5.48009 0.00424032C6.03409 0.0140256 6.45109 0.429525 6.47217 0.987288C6.4797 1.1845 6.4812 1.38171 6.47367 1.57892C6.4669 1.74979 6.53991 1.81151 6.70777 1.81001C7.53425 1.80549 8.35998 1.80549 9.18647 1.81001C9.35282 1.81076 9.42884 1.7513 9.42207 1.57968C9.41454 1.39225 9.4183 1.20407 9.42282 1.01664C9.43637 0.418987 9.84208 0.0117679 10.436 0.00348801C10.783 -0.00178101 11.1307 -0.000276306 11.4785 0.00273456C12.0972 0.00800358 12.521 0.414471 12.5511 1.03245C12.5594 1.21009 12.5586 1.38924 12.5534 1.56763C12.5489 1.72796 12.6023 1.81076 12.7784 1.81001C13.5951 1.80549 14.4118 1.80549 15.2293 1.81001C15.3971 1.81076 15.4694 1.74603 15.4641 1.57742C15.4581 1.38999 15.4566 1.20181 15.4671 1.01439C15.5018 0.41146 15.9248 0.00875703 16.5285 0.00348801C16.8853 -0.000275571 17.242 -0.00178142 17.5988 0.00424032C18.1626 0.0140256 18.5736 0.418988 18.5924 0.979762C18.5992 1.17697 18.6007 1.37418 18.5939 1.5714C18.5887 1.73474 18.6459 1.81151 18.8205 1.81076C19.656 1.80625 20.4915 1.807 21.327 1.81001C21.4851 1.81076 21.5461 1.74226 21.5416 1.58871C21.5363 1.40128 21.5386 1.2131 21.5416 1.02568C21.5529 0.437053 21.9699 0.0132725 22.5532 0.00499262C22.919 -0.000276398 23.2856 -0.000276398 23.6514 0.00499262C24.2212 0.0132725 24.6413 0.424257 24.6706 0.996322C24.6714 1.01514 24.6699 1.03396 24.6721 1.05278C24.6985 1.29139 24.566 1.59022 24.7391 1.75581C24.8987 1.90861 25.1885 1.80399 25.4203 1.81001C26.8294 1.84463 27.9976 3.01285 27.9991 4.42118C28.0036 9.4817 27.9999 14.5422 28.0021 19.6027C28.0021 20.2967 27.7545 20.8936 27.275 21.3799C26.1489 22.524 25.0138 23.6599 23.869 24.7852C23.3661 25.2797 22.7437 25.5093 22.0316 25.5093C18.4735 25.5055 14.9146 25.5108 11.3565 25.5018C11.0939 25.501 10.9358 25.5853 10.7709 25.7886C9.64186 27.1833 8.15449 27.8804 6.37808 27.985C5.01416 28.0655 3.71346 27.8299 2.54976 27.0855C0.929162 26.049 0.00934213 24.6008 0.0138584 22.6264C0.0191274 19.6404 0.0138584 16.6543 0.0138584 13.6691ZM0.955507 19.7104C1.17756 19.3897 1.34918 19.133 1.52983 18.8824C2.04544 18.165 2.61675 17.4921 3.20387 16.8327C3.31753 16.7048 3.33259 16.625 3.20613 16.4842C2.64762 15.8617 2.76203 14.9908 3.46431 14.5437C3.6555 14.4218 3.63819 14.3518 3.49066 14.2231C3.35592 14.1064 3.23398 13.9754 3.11204 13.8452C2.59568 13.2965 2.59342 12.5392 3.12107 12.0003C3.2528 11.8656 3.29796 11.7293 3.2957 11.5502C3.28893 11.0526 3.29043 10.5551 3.29495 10.0575C3.29871 9.61042 3.48388 9.42374 3.93401 9.42374C10.6475 9.42223 17.361 9.42223 24.0737 9.42374C24.5389 9.42374 24.7218 9.60816 24.7218 10.0771C24.724 12.6875 24.724 15.2972 24.7218 17.9076C24.7218 18.4089 24.5487 18.5738 24.0368 18.5745C23.0131 18.5753 21.9902 18.5828 20.9665 18.5693C20.7008 18.5655 20.6082 18.637 20.6127 18.9147C20.6278 19.9753 20.621 21.0367 20.6172 22.098C20.6157 22.4646 20.4351 22.6497 20.07 22.6746C19.9669 22.6813 19.8638 22.6776 19.7599 22.6776C17.2526 22.6776 14.746 22.6828 12.2387 22.6708C11.9392 22.6693 11.833 22.7784 11.8323 23.0539C11.8315 23.4717 11.7389 23.8744 11.5997 24.2643C11.5237 24.4773 11.5982 24.5338 11.7991 24.5323C12.2591 24.527 12.719 24.5308 13.1796 24.5308C16.0806 24.5308 18.9823 24.5315 21.8833 24.53C22.5585 24.53 22.4501 24.5247 22.4539 23.9723C22.4591 23.0336 22.4508 22.0942 22.4569 21.1556C22.4621 20.372 22.8829 19.9595 23.668 19.9573C24.5788 19.955 25.4896 19.9565 26.4003 19.9565C27.0582 19.9565 27.0597 19.9565 27.0597 19.2911C27.0605 15.4982 27.0597 11.7045 27.0597 7.91153C27.0597 7.53216 27.059 7.53141 26.6683 7.53141C18.2273 7.53141 9.78638 7.53141 1.34541 7.53141C0.95626 7.53141 0.955507 7.53216 0.955507 7.91304C0.955507 11.7346 0.955507 15.5561 0.955507 19.3777C0.955507 19.462 0.955507 19.5455 0.955507 19.7104ZM13.9948 6.55438C15.9383 6.55438 17.8819 6.55438 19.8254 6.55438C22.1257 6.55438 24.426 6.55137 26.7263 6.5589C26.9807 6.55965 27.074 6.48815 27.065 6.22319C27.0462 5.67897 27.0642 5.13401 27.0575 4.58979C27.0522 4.17881 26.9566 3.79266 26.7044 3.45394C26.2596 2.85553 25.6356 2.7494 24.9476 2.78177C24.7436 2.79155 24.6631 2.85553 24.6683 3.06328C24.6789 3.47577 24.6774 3.88976 24.6691 4.30225C24.6571 4.9097 24.2393 5.32746 23.6379 5.33799C23.2811 5.34401 22.9243 5.34401 22.5675 5.33799C21.9631 5.32821 21.5476 4.9097 21.5401 4.30451C21.5348 3.89127 21.531 3.47803 21.5416 3.06554C21.5468 2.8593 21.4746 2.78101 21.2653 2.78327C20.4674 2.7908 19.6696 2.79005 18.8709 2.78327C18.6677 2.78177 18.5849 2.84951 18.5894 3.06027C18.5999 3.50136 18.5999 3.94321 18.5871 4.38355C18.5721 4.91572 18.1649 5.31842 17.6304 5.33573C17.2737 5.34703 16.9169 5.34251 16.5601 5.3395C15.8939 5.33348 15.4739 4.91873 15.4619 4.25107C15.4551 3.86643 15.4506 3.48104 15.4634 3.0964C15.4709 2.86758 15.3941 2.77951 15.1578 2.78252C14.3877 2.79306 13.6177 2.79306 12.8484 2.78252C12.6068 2.77875 12.5406 2.87661 12.5473 3.10092C12.5594 3.49459 12.5586 3.88976 12.5473 4.28344C12.53 4.91798 12.1055 5.33197 11.474 5.3395C11.127 5.34401 10.7792 5.34552 10.4322 5.33875C9.8323 5.32746 9.4311 4.92626 9.42131 4.32484C9.41454 3.91159 9.41078 3.49835 9.42207 3.08586C9.42809 2.8736 9.36637 2.78026 9.13754 2.78252C8.33966 2.7923 7.54178 2.7908 6.74315 2.78327C6.53163 2.78101 6.46539 2.86607 6.47066 3.06855C6.48045 3.49986 6.4812 3.93267 6.46991 4.36398C6.45636 4.90367 6.0371 5.32143 5.4974 5.33573C5.1218 5.34552 4.74619 5.34401 4.37058 5.33724C3.78346 5.32745 3.36194 4.91271 3.34312 4.32634C3.33485 4.06364 3.34689 3.80019 3.33936 3.53749C3.31678 2.6794 3.52152 2.77349 2.55428 2.79306C1.77672 2.80886 1.12261 3.402 1.00067 4.17279C0.897548 4.82614 0.969809 5.48477 0.954002 6.14039C0.944216 6.55213 0.952497 6.55288 1.37251 6.55288C5.58246 6.55514 9.78864 6.55438 13.9948 6.55438ZM10.8966 22.9471C10.8906 22.0453 10.71 21.3596 10.3615 20.725C9.61401 19.3649 8.6001 18.2064 7.56662 17.0631C7.45145 16.9359 7.31295 16.9208 7.15865 16.9216C6.47367 16.9238 5.78644 16.9524 5.10373 16.9118C4.62049 16.8832 4.28778 17.0247 3.97014 17.4025C3.12935 18.4014 2.27351 19.3844 1.60962 20.5165C1.18734 21.2361 0.932173 22.0107 0.963035 22.8447C1.01196 24.1326 1.57575 25.1954 2.60697 25.9466C4.50231 27.3264 6.54669 27.4189 8.60311 26.3674C10.0348 25.6358 10.8086 24.4036 10.8966 22.9471ZM14.0091 13.526C14.4314 13.526 14.8537 13.517 15.2759 13.5298C15.4912 13.5366 15.5755 13.4719 15.5733 13.2438C15.5627 12.3902 15.565 11.5359 15.5725 10.6823C15.574 10.4798 15.5138 10.397 15.3 10.3993C14.4367 10.4075 13.5733 10.406 12.7099 10.4C12.5203 10.3985 12.4405 10.4587 12.4427 10.6582C12.4495 11.5306 12.4502 12.4037 12.4427 13.2761C12.4412 13.4809 12.5293 13.5321 12.7145 13.5283C13.1458 13.52 13.5778 13.526 14.0091 13.526ZM22.204 10.403C21.7719 10.403 21.3406 10.4113 20.9093 10.3993C20.6925 10.3932 20.6112 10.4617 20.6142 10.6876C20.6248 11.5411 20.6232 12.3955 20.615 13.2498C20.6127 13.4538 20.6752 13.5321 20.8874 13.5298C21.7508 13.5208 22.6142 13.5208 23.4775 13.5298C23.6966 13.5321 23.747 13.4402 23.7455 13.243C23.7387 12.3887 23.738 11.5351 23.7455 10.6808C23.747 10.4775 23.6823 10.3932 23.4708 10.3993C23.0485 10.4106 22.6262 10.403 22.204 10.403ZM15.5688 20.1628C15.5688 19.7307 15.5605 19.2994 15.5725 18.8681C15.5785 18.6521 15.5115 18.5693 15.285 18.5715C14.4314 18.582 13.5771 18.5805 12.7227 18.5723C12.5195 18.5708 12.4397 18.6325 12.4412 18.8455C12.4495 19.7089 12.4487 20.5722 12.442 21.4356C12.4405 21.626 12.5007 21.7043 12.7001 21.7028C13.5725 21.696 14.4457 21.6953 15.3181 21.7028C15.5236 21.7043 15.574 21.6147 15.5703 21.4303C15.5635 21.0073 15.5688 20.585 15.5688 20.1628ZM19.644 11.9664C19.644 11.5344 19.6402 11.1023 19.6462 10.671C19.6485 10.4836 19.5822 10.3993 19.3843 10.4008C18.5202 10.4068 17.6568 10.406 16.7927 10.4015C16.6083 10.4008 16.545 10.4783 16.5458 10.6552C16.5495 11.5283 16.551 12.4015 16.545 13.2746C16.5435 13.4756 16.6316 13.5306 16.8183 13.5291C17.6726 13.523 18.5269 13.5223 19.3813 13.5291C19.5777 13.5306 19.6492 13.453 19.6462 13.2626C19.6402 12.8305 19.644 12.3985 19.644 11.9664ZM13.9843 17.5975C14.4163 17.5975 14.8484 17.5892 15.2797 17.6005C15.5003 17.6065 15.5748 17.5245 15.5725 17.3047C15.5635 16.4692 15.5635 15.6329 15.5725 14.7974C15.5748 14.5829 15.5078 14.4933 15.2835 14.4955C14.4291 14.5038 13.5748 14.5023 12.7197 14.4963C12.512 14.4948 12.4405 14.5746 12.442 14.7801C12.4495 15.6254 12.451 16.4707 12.4412 17.3152C12.4382 17.5471 12.5361 17.605 12.7446 17.5998C13.1578 17.5907 13.571 17.5975 13.9843 17.5975ZM23.7418 16.08C23.7418 15.6487 23.7357 15.2182 23.7448 14.7868C23.7485 14.5889 23.6861 14.4955 23.4738 14.4971C22.6119 14.5031 21.7501 14.5023 20.8882 14.4978C20.7045 14.4971 20.6142 14.5528 20.6157 14.7552C20.6225 15.6171 20.621 16.479 20.6165 17.3408C20.6157 17.5154 20.6699 17.5998 20.8566 17.599C21.7373 17.5945 22.6179 17.5952 23.4986 17.599C23.6808 17.5998 23.747 17.5222 23.7448 17.3446C23.7372 16.9231 23.7418 16.5015 23.7418 16.08ZM16.5473 20.1454C16.5473 20.5677 16.5526 20.9907 16.545 21.413C16.5413 21.6087 16.5955 21.7051 16.8145 21.7028C17.6688 21.6945 18.5232 21.696 19.3775 21.7021C19.5702 21.7036 19.6477 21.6328 19.647 21.4386C19.6425 20.5745 19.641 19.7111 19.6477 18.847C19.6492 18.637 19.5634 18.5708 19.3609 18.5723C18.5156 18.579 17.6711 18.5798 16.8258 18.5723C16.6188 18.57 16.5398 18.6423 16.545 18.85C16.5541 19.2813 16.5473 19.7134 16.5473 20.1454ZM19.6447 16.0808C19.6447 15.6495 19.6402 15.2182 19.647 14.7876C19.65 14.5889 19.5785 14.4963 19.3692 14.4978C18.5164 14.5031 17.6636 14.5023 16.8107 14.4986C16.618 14.4978 16.5443 14.5791 16.5458 14.7688C16.5503 15.6216 16.5518 16.4744 16.545 17.3273C16.5435 17.5395 16.6354 17.602 16.8341 17.6005C17.6771 17.5945 18.5209 17.5945 19.3647 17.6005C19.5694 17.602 19.6515 17.523 19.6477 17.3182C19.6387 16.9057 19.644 16.4933 19.6447 16.0808ZM11.4672 11.9845C11.4672 11.5441 11.4642 11.1038 11.4687 10.6635C11.4702 10.4956 11.4228 10.4008 11.2308 10.4015C10.3592 10.4068 9.48755 10.406 8.61666 10.4015C8.433 10.4008 8.366 10.4813 8.36902 10.6559C8.37428 10.9367 8.37428 11.2182 8.36902 11.499C8.366 11.654 8.42547 11.7579 8.55343 11.8497C9.05022 12.205 9.22335 12.6898 9.07205 13.2784C9.02463 13.4628 9.04797 13.5321 9.25346 13.5291C9.90004 13.52 10.5466 13.52 11.1932 13.5291C11.4032 13.5321 11.4747 13.4523 11.4702 13.249C11.4604 12.8275 11.4672 12.406 11.4672 11.9845ZM8.4616 14.4993C8.4759 14.552 8.47515 14.5738 8.48569 14.5851C9.14733 15.2814 9.18421 15.7955 8.61064 16.5437C8.52407 16.6566 8.54891 16.7168 8.6287 16.8041C8.81237 17.0051 8.99678 17.2061 9.16614 17.4191C9.27002 17.5493 9.3882 17.602 9.55229 17.6005C10.0875 17.5945 10.6226 17.5907 11.1578 17.602C11.3882 17.6065 11.4732 17.5267 11.471 17.2926C11.4612 16.4662 11.4597 15.6397 11.4717 14.8139C11.4755 14.558 11.3686 14.4933 11.1353 14.4971C10.506 14.5068 9.87671 14.5001 9.24819 14.5001C8.9885 14.4993 8.73032 14.4993 8.4616 14.4993ZM5.79247 14.3269C6.18538 14.3269 6.44808 14.3269 6.71078 14.3269C6.81541 14.3269 6.91778 14.3209 6.99832 14.2404C7.34908 13.8881 7.70512 13.5403 8.04761 13.1806C8.17557 13.0458 8.18987 12.8682 8.07395 12.7146C7.96104 12.5641 7.79996 12.5784 7.63963 12.6393C6.9253 12.9118 6.56626 12.7613 6.26141 12.059C6.19517 11.907 6.09506 11.8121 5.92193 11.8129C5.75859 11.8136 5.66977 11.9092 5.60504 12.0477C5.26707 12.7771 4.96749 12.9013 4.20499 12.6326C4.0424 12.5754 3.88358 12.5716 3.77368 12.7252C3.65927 12.8847 3.68636 13.0451 3.81959 13.1843C3.96863 13.3401 4.14025 13.4779 4.27198 13.6465C4.69576 14.1907 5.20535 14.5053 5.79247 14.3269ZM26.2453 20.9403C25.3751 20.9403 24.4945 20.9403 23.6145 20.9403C23.4369 20.9403 23.4324 21.0638 23.4324 21.1932C23.4331 21.7186 23.4324 22.244 23.4324 22.7694C23.4324 23.1029 23.4324 23.4371 23.4324 23.7502C24.371 22.8123 25.3021 21.8827 26.2453 20.9403ZM10.3645 2.67187C10.3645 3.15888 10.369 3.64589 10.3622 4.13214C10.3592 4.32333 10.4307 4.40613 10.6257 4.3986C10.859 4.38957 11.0939 4.39258 11.3279 4.39785C11.4883 4.40161 11.5733 4.34215 11.5733 4.17128C11.5711 3.16941 11.5711 2.16755 11.5733 1.16644C11.5733 0.993311 11.4838 0.939115 11.3257 0.942878C11.0916 0.948147 10.8575 0.951159 10.6234 0.942126C10.4254 0.934599 10.3607 1.02417 10.3637 1.21235C10.369 1.69861 10.3645 2.18561 10.3645 2.67187ZM17.65 2.69972C17.65 2.20368 17.6455 1.70764 17.6523 1.21085C17.6553 1.02191 17.589 0.933846 17.3918 0.941373C17.1585 0.950405 16.9236 0.947395 16.6895 0.942126C16.5307 0.938363 16.4419 0.994063 16.4419 1.16644C16.4434 2.1683 16.4442 3.17017 16.4419 4.17128C16.4419 4.3429 16.527 4.40086 16.6873 4.3971C16.9214 4.39183 17.1555 4.38882 17.3896 4.39785C17.5853 4.40538 17.6553 4.32107 17.6523 4.13063C17.6455 3.65492 17.65 3.17694 17.65 2.69972ZM5.50192 2.67112C5.50192 2.1826 5.49815 1.69484 5.50342 1.20633C5.50568 1.01589 5.43191 0.93234 5.23621 0.941373C5.01115 0.951911 4.78533 0.946642 4.56027 0.943631C4.41349 0.941373 4.32467 0.994816 4.32467 1.15213C4.32392 2.16604 4.32392 3.18071 4.32316 4.19462C4.32316 4.33462 4.3894 4.39936 4.53091 4.39785C4.75597 4.39484 4.98254 4.38731 5.20685 4.40086C5.4274 4.41441 5.50944 4.32785 5.50493 4.10805C5.49514 3.62933 5.50192 3.14984 5.50192 2.67112ZM22.5118 2.65606C22.5118 2.94736 22.5118 3.23791 22.5118 3.52921C22.5118 4.42194 22.5118 4.42194 23.4121 4.3971C23.4309 4.39634 23.4497 4.39559 23.4685 4.39634C23.6221 4.40613 23.6928 4.33537 23.6921 4.18107C23.6906 3.17619 23.6906 2.17131 23.6913 1.16644C23.6913 0.994816 23.6002 0.938363 23.4414 0.942126C23.2254 0.947395 23.0086 0.951911 22.7933 0.94062C22.5856 0.92933 22.5073 1.01363 22.5103 1.21913C22.5178 1.69785 22.5126 2.17733 22.5118 2.65606ZM5.97161 15.3062C5.4003 15.3062 4.82824 15.304 4.25692 15.307C3.9739 15.3085 3.81357 15.4327 3.83239 15.6382C3.85573 15.8903 4.03487 15.949 4.25316 15.9483C5.36869 15.9475 6.48346 15.9498 7.59899 15.9468C7.88652 15.946 8.03481 15.8256 8.01976 15.6118C8.00094 15.3521 7.82104 15.304 7.60275 15.3047C7.05854 15.3077 6.51507 15.3062 5.97161 15.3062ZM5.83763 10.403C5.39654 10.403 4.95544 10.403 4.51435 10.403C4.39618 10.403 4.278 10.4083 4.27649 10.5694C4.27424 10.8787 4.27348 11.1889 4.27725 11.4982C4.2795 11.6789 4.44209 11.6781 4.55575 11.7278C4.6935 11.7888 4.7078 11.6661 4.74769 11.5886C4.99308 11.1143 5.38374 10.8411 5.91365 10.8343C6.45712 10.8276 6.85606 11.1023 7.11198 11.5833C7.14736 11.6495 7.14811 11.7669 7.27682 11.7293C7.3935 11.6954 7.395 11.5976 7.39575 11.5012C7.3965 11.2197 7.38747 10.9382 7.39952 10.6567C7.4078 10.4557 7.32123 10.3955 7.1323 10.3993C6.70099 10.409 6.26894 10.403 5.83763 10.403ZM11.4649 20.6475C11.4649 20.022 11.4642 19.3972 11.4649 18.7717C11.4649 18.628 11.3904 18.5738 11.2534 18.5745C10.9448 18.5768 10.6362 18.576 10.3276 18.5745C10.1763 18.5738 10.1364 18.6204 10.2342 18.7529C10.6799 19.3551 11.0908 19.9783 11.4649 20.6475Z" fill="white"/>
    <path d="M5.92942 20.3217C5.73447 20.3179 5.55683 20.3743 5.39725 20.4797C5.05552 20.7048 5.08337 21.1323 5.44919 21.3145C5.69608 21.4372 5.96781 21.4733 6.23352 21.529C6.54816 21.5952 6.84774 21.7029 7.11721 21.8798C8.05509 22.4955 7.99488 23.8052 7.00505 24.3261C6.88914 24.3871 6.76795 24.4443 6.643 24.4782C6.49998 24.5165 6.41643 24.5798 6.3946 24.7371C6.35697 25.0118 6.19588 25.1819 5.91136 25.1978C5.66973 25.2113 5.48758 25.0291 5.43413 24.7032C5.40854 24.5489 5.31671 24.5098 5.19853 24.4661C4.6897 24.2779 4.30732 23.9513 4.11086 23.4349C3.97612 23.0811 4.06569 22.8199 4.34947 22.7017C4.61969 22.5896 4.84175 22.7115 5.00057 23.06C5.26703 23.6449 6.22599 23.8286 6.68665 23.383C6.88462 23.1918 6.8643 22.9208 6.63171 22.7221C6.45482 22.57 6.23427 22.5143 6.01373 22.4676C5.72017 22.4044 5.42284 22.3608 5.14509 22.2388C4.60012 21.9995 4.22301 21.6246 4.18989 20.9968C4.15451 20.3345 4.46313 19.8602 5.04423 19.5682C5.258 19.4605 5.44542 19.3868 5.47026 19.0895C5.48908 18.8674 5.6893 18.7455 5.92566 18.756C6.15674 18.7658 6.33664 18.8832 6.3675 19.115C6.39987 19.3582 6.5331 19.4575 6.7416 19.5418C7.13076 19.6992 7.40701 19.9912 7.58841 20.3683C7.73218 20.6664 7.6539 20.9457 7.40399 21.0744C7.16312 21.1986 6.90268 21.1135 6.74537 20.826C6.56471 20.4955 6.2975 20.3329 5.92942 20.3217Z" fill="white"/>
</svg>
