<svg width="44" height="32" viewBox="0 0 44 32" fill="none" xmlns="http://www.w3.org/2000/svg">
    <path d="M21.975 17.208C15.3533 17.208 8.73158 17.2092 2.11104 17.2068C1.12094 17.2068 0.485132 16.5567 0.54239 15.6202C0.584142 14.926 1.13287 14.3558 1.82475 14.2961C2.00249 14.2806 2.18142 14.2878 2.36035 14.2878C15.4547 14.2878 28.549 14.2878 41.6434 14.289C41.8808 14.289 42.1241 14.277 42.3544 14.3248C43.051 14.4703 43.5127 15.1431 43.4566 15.8946C43.4053 16.5972 42.8244 17.1626 42.1074 17.202C41.9297 17.2116 41.7508 17.2068 41.5718 17.2068C35.0396 17.208 28.5073 17.208 21.975 17.208Z" fill="#00678F"/>
    <path d="M6.25272 25.7263C6.25272 24.3425 6.25033 22.9587 6.25391 21.5762C6.2563 20.6243 6.8265 20.0099 7.69969 20.0052C8.58482 20.0004 9.17053 20.629 9.17172 21.5989C9.1753 23.7413 9.18245 25.8837 9.16456 28.0249C9.16098 28.446 9.27073 28.5892 9.70971 28.5844C11.9118 28.5641 14.1127 28.5713 16.3147 28.5796C16.9911 28.582 17.5243 29.0055 17.6997 29.6342C17.8738 30.2616 17.6281 30.9094 17.0782 31.2708C16.8205 31.4402 16.5354 31.4963 16.23 31.4963C13.4184 31.4939 10.6068 31.4975 7.79512 31.4927C6.85393 31.4915 6.25868 30.8998 6.2551 29.9658C6.24795 28.5522 6.25272 27.1398 6.25272 25.7263Z" fill="#00678F"/>
    <path d="M31.981 31.4954C30.6569 31.4954 29.3327 31.4954 28.0086 31.4954C26.9088 31.4954 26.2599 30.9574 26.2551 30.0448C26.2503 29.0941 26.8754 28.5752 28.0265 28.5752C30.1093 28.5752 32.1921 28.5644 34.2749 28.5835C34.6948 28.5871 34.8391 28.4797 34.8355 28.0396C34.8153 25.8375 34.8212 23.6354 34.8308 21.4345C34.8344 20.7057 35.333 20.1295 36.0141 20.0186C36.7644 19.8969 37.417 20.2822 37.6746 20.9908C37.7426 21.1781 37.745 21.3689 37.745 21.5622C37.7462 24.344 37.7474 27.1258 37.745 29.9088C37.7438 30.9395 37.1784 31.493 36.1322 31.4954C34.7485 31.4977 33.3647 31.4954 31.981 31.4954Z" fill="#00678F"/>
    <path d="M12.0144 0.00184096C13.3981 0.00184096 14.7819 -0.000547291 16.1644 0.00303138C17.1104 0.00541716 17.7367 0.581583 17.7426 1.44643C17.7486 2.33155 17.1199 2.91965 16.1525 2.92084C14.0554 2.92442 11.9571 2.92203 9.86002 2.92203C9.17291 2.92203 9.17291 2.92203 9.17172 3.58886C9.17172 5.7456 9.1753 7.90234 9.16695 10.0603C9.16456 10.7068 8.78761 11.2126 8.19832 11.4178C7.60188 11.6254 6.95891 11.4345 6.55452 10.9335C6.3398 10.6675 6.25034 10.3633 6.25034 10.0233C6.25272 7.16752 6.24676 4.31056 6.25511 1.45478C6.25749 0.59232 6.85513 0.0113839 7.72833 0.00541949C9.1586 -0.00412363 10.5865 0.00184096 12.0144 0.00184096Z" fill="#00678F"/>
    <path d="M37.7462 5.76599C37.7462 7.14974 37.7486 8.5323 37.745 9.91605C37.7426 10.8608 37.1653 11.4859 36.3004 11.4919C35.4237 11.4978 34.8284 10.8584 34.8272 9.89816C34.8248 7.75573 34.8165 5.61449 34.8344 3.47206C34.838 3.05097 34.7294 2.90782 34.2892 2.9126C32.0883 2.93288 29.8863 2.92691 27.6854 2.91737C26.9601 2.91379 26.3482 2.36506 26.2647 1.68392C26.1704 0.922854 26.5808 0.259609 27.2858 0.0603969C27.454 0.0126813 27.6377 0.00433096 27.8142 0.00433096C30.596 0.000752293 33.3779 -0.000441762 36.1585 0.00313691C37.1808 0.0043298 37.7426 0.57811 37.745 1.61712C37.7486 2.99968 37.7462 4.38343 37.7462 5.76599Z" fill="#00678F"/>
</svg>
