<svg width="33" height="32" viewBox="0 0 33 32" fill="none" xmlns="http://www.w3.org/2000/svg">
<g id="Group 10255">
<path id="Vector" d="M32.9995 20.5275C32.9995 23.1808 33.0006 25.8351 32.9995 28.4884C32.9985 29.7741 32.2108 30.2732 31.0313 29.745C30.1783 29.3632 29.2643 29.2563 28.3428 29.2272C25.4827 29.139 22.7341 29.7492 20.0298 30.5834C17.1296 31.4789 14.1758 32.0559 11.1281 31.9957C7.62561 31.9262 4.28945 31.1479 1.17129 29.5375C0.962777 29.4296 0.755321 29.3144 0.562607 29.1805C0.197189 28.9263 0.000263623 28.5787 0.000263623 28.1263C0.0013167 22.7802 -0.00289632 17.4342 0.00447523 12.0871C0.00658139 10.9633 1.05229 10.4248 2.05166 10.9758C3.45331 11.7478 4.98343 12.1732 6.54831 12.4721C10.6522 13.2566 14.6718 12.8747 18.625 11.5973C20.9018 10.8616 23.2249 10.32 25.6122 10.0958C27.6541 9.90492 29.6823 9.95057 31.6316 10.6863C32.7331 11.1024 32.9974 11.5102 32.9974 12.6796C32.9995 15.2976 32.9995 17.9126 32.9995 20.5275ZM30.3742 19.937C30.3742 17.815 30.3742 15.693 30.3742 13.571C30.3742 12.9131 30.3679 12.9058 29.6981 12.7616C28.2143 12.442 26.7232 12.5219 25.2352 12.7108C23.1185 12.9795 21.0724 13.5409 19.0505 14.1967C16.6947 14.9614 14.2768 15.4242 11.799 15.5322C8.83243 15.6608 5.93331 15.2738 3.12369 14.3036C2.63191 14.1334 2.62769 14.1375 2.62769 14.6522C2.62664 18.7676 2.63296 22.8819 2.61822 26.9973C2.61716 27.3698 2.75722 27.5545 3.08052 27.705C5.22248 28.697 7.48239 29.2449 9.83181 29.4005C12.7162 29.5925 15.5426 29.2521 18.2943 28.3525C20.0772 27.7693 21.8832 27.2681 23.7388 26.963C25.7659 26.63 27.7984 26.4473 29.8424 26.8396C30.37 26.9413 30.3721 26.9371 30.3732 26.3809C30.3742 24.233 30.3742 22.085 30.3742 19.937Z" fill="#00678F"/>
<path id="Vector_2" d="M14.6404 4.3597C14.1284 4.7895 13.6456 5.20157 13.1565 5.6053C12.5204 6.12899 11.9146 6.11126 11.3963 5.56357C10.8634 5.00023 10.8561 4.29398 11.4463 3.72543C12.6362 2.58102 13.8479 1.45748 15.069 0.344365C15.557 -0.100045 16.3704 -0.119866 16.8731 0.317241C18.1098 1.39175 19.3497 2.46626 20.526 3.60545C21.1913 4.2512 21.2778 5.76595 19.9869 6.08726C19.5197 6.20306 19.1443 6.01633 18.8116 5.7211C18.4133 5.36745 18.0295 4.9971 17.6353 4.63719C17.5425 4.55269 17.4727 4.43064 17.3183 4.42125C17.2182 4.54748 17.2672 4.69561 17.2672 4.83123C17.262 6.13212 17.2714 7.43301 17.2599 8.7339C17.2537 9.42033 16.7844 9.91586 16.1118 9.99202C15.4997 10.0619 14.9199 9.66653 14.7593 9.05417C14.7176 8.89351 14.7145 8.7193 14.7145 8.55238C14.7113 7.31617 14.7134 6.07996 14.7103 4.84479C14.7072 4.705 14.7405 4.56 14.6404 4.3597Z" fill="#00678F"/>
<path id="Vector_3" d="M16.9803 26C14.7543 25.9967 12.9703 23.971 13.0004 21.4825C13.0305 18.9555 14.7903 16.9945 17.023 17C19.246 17.0055 21.0087 19.0126 21 21.5285C20.9912 24.0423 19.2285 26.0033 16.9803 26ZM18.5759 21.4232C18.5895 20.4186 17.9767 19.7485 17.0346 19.7364C16.1072 19.7244 15.4283 20.4482 15.4108 21.466C15.3934 22.4673 16.0761 23.2767 16.9647 23.3075C17.8971 23.3404 18.5604 22.565 18.5759 21.4232Z" fill="#00678F"/>
<path id="Vector_4" d="M25.4945 22C24.1456 21.9967 23.0082 21.089 23 20.0099C22.9919 18.9232 24.1768 17.9818 25.527 18.0003C26.8759 18.0198 28.0174 18.9492 27.9998 20.0142C27.9822 21.0922 26.8326 22.0032 25.4945 22Z" fill="#00678F"/>
<path id="Vector_5" d="M6.98238 23.9999C5.90226 23.988 4.99892 23.0747 5 21.9965C5.00217 20.9097 5.95974 19.9693 7.03443 20.0008C8.1178 20.0322 9.02548 20.9672 8.99945 22.0269C8.97234 23.1105 8.05164 24.0118 6.98238 23.9999Z" fill="#00678F"/>
</g>
</svg>
