<svg xmlns="http://www.w3.org/2000/svg" viewBox="0 0 500 500"><g id="freepik--background-complete--inject-69"><rect y="382.4" width="500" height="0.25" style="fill:#ebebeb"></rect><rect x="416.78" y="398.49" width="33.12" height="0.25" style="fill:#ebebeb"></rect><rect x="322.53" y="401.21" width="8.69" height="0.25" style="fill:#ebebeb"></rect><rect x="396.59" y="389.21" width="19.19" height="0.25" style="fill:#ebebeb"></rect><rect x="52.46" y="390.89" width="43.19" height="0.25" style="fill:#ebebeb"></rect><rect x="104.56" y="390.89" width="6.33" height="0.25" style="fill:#ebebeb"></rect><rect x="131.47" y="395.11" width="93.68" height="0.25" style="fill:#ebebeb"></rect><path d="M237,337.8H43.91a5.71,5.71,0,0,1-5.7-5.71V60.66A5.71,5.71,0,0,1,43.91,55H237a5.71,5.71,0,0,1,5.71,5.71V332.09A5.71,5.71,0,0,1,237,337.8ZM43.91,55.2a5.46,5.46,0,0,0-5.45,5.46V332.09a5.46,5.46,0,0,0,5.45,5.46H237a5.47,5.47,0,0,0,5.46-5.46V60.66A5.47,5.47,0,0,0,237,55.2Z" style="fill:#ebebeb"></path><path d="M453.31,337.8H260.21a5.72,5.72,0,0,1-5.71-5.71V60.66A5.72,5.72,0,0,1,260.21,55h193.1A5.71,5.71,0,0,1,459,60.66V332.09A5.71,5.71,0,0,1,453.31,337.8ZM260.21,55.2a5.47,5.47,0,0,0-5.46,5.46V332.09a5.47,5.47,0,0,0,5.46,5.46h193.1a5.47,5.47,0,0,0,5.46-5.46V60.66a5.47,5.47,0,0,0-5.46-5.46Z" style="fill:#ebebeb"></path><path d="M169.47,375.54c-.88,0-1.76,0-2.66-.06l.16-3.27c47.33,2.31,61-62.89,70.1-106,3.46-16.5,6.19-29.53,10-35.13,13.82-20.34,36.65-17.27,36.88-17.24l-.47,3.24h0c-.89-.13-21.07-2.75-33.71,15.84-3.44,5.07-6.25,18.45-9.5,34C231.15,310.28,217.45,375.54,169.47,375.54Z" style="fill:#e6e6e6"></path><path d="M150.81,364.85l-.23-3.27c27.64-1.91,43.21-32.39,58.26-61.87,8.45-16.56,16.44-32.2,26.41-42.83,28.2-30.07,41.8-25.73,42.36-25.53l-1.09,3.09.55-1.55-.52,1.56c-.12,0-12.54-3.47-38.92,24.67-9.65,10.29-17.53,25.73-25.88,42.08C196.28,331.49,180.29,362.8,150.81,364.85Z" style="fill:#e6e6e6"></path><path d="M167.06,371.06l-1-3.11c9.53-3.07,15.36-14.32,22.11-27.34,8.24-15.88,17.57-33.88,36.61-43.85C259.65,278.5,302.25,302,304,303l-1.6,2.85c-.42-.24-42.86-23.66-76.14-6.24-18.13,9.5-27.21,27-35.23,42.47C184,355.78,177.88,367.58,167.06,371.06Z" style="fill:#e6e6e6"></path><path d="M161.89,381.74l-.16-3.26c.47,0,46.63-2.46,71.7-25.8,26.19-24.39,58-15.54,58.34-15.45l-.9,3.14c-.3-.08-30.42-8.39-55.21,14.7C209.7,379.24,163.83,381.65,161.89,381.74Z" style="fill:#e6e6e6"></path><rect x="274.88" y="180.13" width="130.25" height="201.54" style="fill:#e0e0e0"></rect><rect x="270.82" y="180.13" width="106.37" height="201.54" style="fill:#ebebeb"></rect><rect x="274.26" y="182.72" width="99.48" height="198.94" style="fill:#e0e0e0"></rect><rect x="289.72" y="365.89" width="34.57" height="10.15" rx="1.65" style="fill:#f0f0f0"></rect><rect x="289.72" y="365.89" width="34.57" height="10.15" rx="1.65" style="fill:#e6e6e6;isolation:isolate"></rect><rect x="277.94" y="365.89" width="34.57" height="10.15" rx="1.65" style="fill:#f0f0f0"></rect><path d="M309.1,371a2.13,2.13,0,1,1-2.13-2.14A2.13,2.13,0,0,1,309.1,371Z" style="fill:#fafafa"></path><path d="M308.05,371a1.09,1.09,0,0,1-2.17,0,1.09,1.09,0,1,1,2.17,0Z" style="fill:#f0f0f0"></path><rect x="299.97" y="369.75" width="2.43" height="2.43" style="fill:#fafafa"></rect><rect x="289.72" y="354.81" width="34.57" height="10.15" rx="1.65" style="fill:#f0f0f0"></rect><rect x="289.72" y="354.81" width="34.57" height="10.15" rx="1.65" style="fill:#e6e6e6;isolation:isolate"></rect><rect x="277.94" y="354.81" width="34.57" height="10.15" rx="1.65" style="fill:#f0f0f0"></rect><path d="M309.1,359.88a2.13,2.13,0,1,1-2.13-2.13A2.13,2.13,0,0,1,309.1,359.88Z" style="fill:#fafafa"></path><path d="M308.05,359.88A1.09,1.09,0,1,1,307,358.8,1.08,1.08,0,0,1,308.05,359.88Z" style="fill:#f0f0f0"></path><rect x="299.97" y="358.67" width="2.43" height="2.43" style="fill:#fafafa"></rect><rect x="289.72" y="343.73" width="34.57" height="10.15" rx="1.65" style="fill:#f0f0f0"></rect><rect x="289.72" y="343.73" width="34.57" height="10.15" rx="1.65" style="fill:#e6e6e6;isolation:isolate"></rect><rect x="277.94" y="343.73" width="34.57" height="10.15" rx="1.65" style="fill:#f0f0f0"></rect><path d="M309.1,348.8a2.13,2.13,0,1,1-2.13-2.13A2.13,2.13,0,0,1,309.1,348.8Z" style="fill:#fafafa"></path><path d="M308.05,348.8a1.09,1.09,0,1,1-1.08-1.08A1.08,1.08,0,0,1,308.05,348.8Z" style="fill:#f0f0f0"></path><rect x="299.97" y="347.59" width="2.43" height="2.43" style="fill:#fafafa"></rect><rect x="289.72" y="332.64" width="34.57" height="10.15" rx="1.65" style="fill:#f0f0f0"></rect><rect x="289.72" y="332.64" width="34.57" height="10.15" rx="1.65" style="fill:#e6e6e6;isolation:isolate"></rect><rect x="277.94" y="332.64" width="34.57" height="10.15" rx="1.65" style="fill:#f0f0f0"></rect><path d="M309.1,337.72a2.13,2.13,0,1,1-2.13-2.14A2.13,2.13,0,0,1,309.1,337.72Z" style="fill:#fafafa"></path><path d="M308.05,337.72a1.09,1.09,0,0,1-2.17,0,1.09,1.09,0,1,1,2.17,0Z" style="fill:#f0f0f0"></path><rect x="299.97" y="336.5" width="2.43" height="2.43" style="fill:#fafafa"></rect><rect x="289.79" y="321.56" width="34.57" height="10.15" rx="1.65" style="fill:#f0f0f0"></rect><rect x="289.79" y="321.56" width="34.57" height="10.15" rx="1.65" style="fill:#e6e6e6;isolation:isolate"></rect><rect x="278.01" y="321.56" width="34.57" height="10.15" rx="1.65" style="fill:#f0f0f0"></rect><circle cx="307.04" cy="326.63" r="2.13" style="fill:#fafafa"></circle><path d="M308.12,326.63a1.09,1.09,0,1,1-1.08-1.08A1.08,1.08,0,0,1,308.12,326.63Z" style="fill:#f0f0f0"></path><rect x="300.04" y="325.42" width="2.43" height="2.43" style="fill:#fafafa"></rect><rect x="289.86" y="310.48" width="34.57" height="10.15" rx="1.65" style="fill:#f0f0f0"></rect><rect x="289.86" y="310.48" width="34.57" height="10.15" rx="1.65" style="fill:#e6e6e6;isolation:isolate"></rect><rect x="278.08" y="310.48" width="34.57" height="10.15" rx="1.65" style="fill:#f0f0f0"></rect><path d="M309.24,315.55a2.13,2.13,0,1,1-2.13-2.13A2.13,2.13,0,0,1,309.24,315.55Z" style="fill:#fafafa"></path><path d="M308.19,315.55a1.09,1.09,0,1,1-1.08-1.08A1.08,1.08,0,0,1,308.19,315.55Z" style="fill:#f0f0f0"></path><rect x="300.11" y="314.34" width="2.43" height="2.43" style="fill:#fafafa"></rect><rect x="289.93" y="299.39" width="34.57" height="10.15" rx="1.65" style="fill:#f0f0f0"></rect><rect x="289.93" y="299.39" width="34.57" height="10.15" rx="1.65" style="fill:#e6e6e6;isolation:isolate"></rect><rect x="278.15" y="299.39" width="34.57" height="10.15" rx="1.65" style="fill:#f0f0f0"></rect><path d="M309.31,304.47a2.14,2.14,0,1,1-2.13-2.14A2.13,2.13,0,0,1,309.31,304.47Z" style="fill:#fafafa"></path><path d="M308.26,304.47a1.09,1.09,0,0,1-2.17,0,1.09,1.09,0,1,1,2.17,0Z" style="fill:#f0f0f0"></path><rect x="300.18" y="303.25" width="2.43" height="2.43" style="fill:#fafafa"></rect><rect x="290" y="288.31" width="34.57" height="10.15" rx="1.65" style="fill:#f0f0f0"></rect><rect x="290" y="288.31" width="34.57" height="10.15" rx="1.65" style="fill:#e6e6e6;isolation:isolate"></rect><rect x="278.22" y="288.31" width="34.57" height="10.15" rx="1.65" style="fill:#f0f0f0"></rect><path d="M309.38,293.38a2.14,2.14,0,1,1-2.13-2.13A2.13,2.13,0,0,1,309.38,293.38Z" style="fill:#fafafa"></path><path d="M308.33,293.38a1.09,1.09,0,1,1-1.08-1.08A1.08,1.08,0,0,1,308.33,293.38Z" style="fill:#f0f0f0"></path><rect x="300.25" y="292.17" width="2.43" height="2.43" style="fill:#fafafa"></rect><rect x="290.07" y="277.23" width="34.57" height="10.15" rx="1.65" style="fill:#f0f0f0"></rect><rect x="290.07" y="277.23" width="34.57" height="10.15" rx="1.65" style="fill:#e6e6e6;isolation:isolate"></rect><rect x="278.29" y="277.23" width="34.57" height="10.15" rx="1.65" style="fill:#f0f0f0"></rect><path d="M309.45,282.3a2.14,2.14,0,1,1-2.13-2.13A2.13,2.13,0,0,1,309.45,282.3Z" style="fill:#fafafa"></path><circle cx="307.32" cy="282.3" r="1.08" style="fill:#f0f0f0"></circle><rect x="300.32" y="281.09" width="2.43" height="2.43" style="fill:#fafafa"></rect><rect x="290.14" y="266.14" width="34.57" height="10.15" rx="1.65" style="fill:#f0f0f0"></rect><rect x="290.14" y="266.14" width="34.57" height="10.15" rx="1.65" style="fill:#e6e6e6;isolation:isolate"></rect><rect x="278.36" y="266.14" width="34.57" height="10.15" rx="1.65" style="fill:#f0f0f0"></rect><path d="M309.52,271.22a2.14,2.14,0,1,1-2.13-2.13A2.13,2.13,0,0,1,309.52,271.22Z" style="fill:#fafafa"></path><circle cx="307.39" cy="271.22" r="1.08" style="fill:#f0f0f0"></circle><rect x="300.39" y="270" width="2.43" height="2.43" style="fill:#fafafa"></rect><rect x="290.21" y="255.06" width="34.57" height="10.15" rx="1.65" style="fill:#f0f0f0"></rect><rect x="290.21" y="255.06" width="34.57" height="10.15" rx="1.65" style="fill:#e6e6e6;isolation:isolate"></rect><rect x="278.43" y="255.06" width="34.57" height="10.15" rx="1.65" style="fill:#f0f0f0"></rect><path d="M309.59,260.14a2.14,2.14,0,1,1-2.13-2.14A2.13,2.13,0,0,1,309.59,260.14Z" style="fill:#fafafa"></path><path d="M308.54,260.14a1.09,1.09,0,1,1-1.08-1.09A1.08,1.08,0,0,1,308.54,260.14Z" style="fill:#f0f0f0"></path><rect x="300.46" y="258.92" width="2.43" height="2.43" style="fill:#fafafa"></rect><rect x="290.28" y="243.98" width="34.57" height="10.15" rx="1.65" style="fill:#f0f0f0"></rect><rect x="290.28" y="243.98" width="34.57" height="10.15" rx="1.65" style="fill:#e6e6e6;isolation:isolate"></rect><rect x="278.5" y="243.98" width="34.57" height="10.15" rx="1.65" style="fill:#f0f0f0"></rect><path d="M309.66,249.05a2.14,2.14,0,1,1-2.13-2.13A2.14,2.14,0,0,1,309.66,249.05Z" style="fill:#fafafa"></path><path d="M308.61,249.05a1.09,1.09,0,1,1-1.08-1.08A1.08,1.08,0,0,1,308.61,249.05Z" style="fill:#f0f0f0"></path><rect x="300.53" y="247.84" width="2.43" height="2.43" style="fill:#fafafa"></rect><rect x="290.35" y="232.89" width="34.57" height="10.15" rx="1.65" style="fill:#f0f0f0"></rect><rect x="290.35" y="232.89" width="34.57" height="10.15" rx="1.65" style="fill:#e6e6e6;isolation:isolate"></rect><rect x="278.57" y="232.89" width="34.57" height="10.15" rx="1.65" style="fill:#f0f0f0"></rect><path d="M309.73,238a2.14,2.14,0,1,1-2.13-2.13A2.13,2.13,0,0,1,309.73,238Z" style="fill:#fafafa"></path><path d="M308.68,238a1.09,1.09,0,0,1-2.17,0,1.09,1.09,0,1,1,2.17,0Z" style="fill:#f0f0f0"></path><rect x="300.6" y="236.76" width="2.43" height="2.43" style="fill:#fafafa"></rect><rect x="290.42" y="221.81" width="34.57" height="10.15" rx="1.65" style="fill:#f0f0f0"></rect><rect x="290.42" y="221.81" width="34.57" height="10.15" rx="1.65" style="fill:#e6e6e6;isolation:isolate"></rect><rect x="278.64" y="221.81" width="34.57" height="10.15" rx="1.65" style="fill:#f0f0f0"></rect><circle cx="307.67" cy="226.89" r="2.13" style="fill:#fafafa"></circle><path d="M308.75,226.89a1.09,1.09,0,0,1-2.17,0,1.09,1.09,0,1,1,2.17,0Z" style="fill:#f0f0f0"></path><rect x="300.67" y="225.67" width="2.43" height="2.43" style="fill:#fafafa"></rect><rect x="290.49" y="210.73" width="34.57" height="10.15" rx="1.65" style="fill:#f0f0f0"></rect><rect x="290.49" y="210.73" width="34.57" height="10.15" rx="1.65" style="fill:#e6e6e6;isolation:isolate"></rect><rect x="278.71" y="210.73" width="34.57" height="10.15" rx="1.65" style="fill:#f0f0f0"></rect><circle cx="307.74" cy="215.8" r="2.13" style="fill:#fafafa"></circle><path d="M308.82,215.8a1.09,1.09,0,1,1-1.08-1.08A1.08,1.08,0,0,1,308.82,215.8Z" style="fill:#f0f0f0"></path><rect x="300.74" y="214.59" width="2.43" height="2.43" style="fill:#fafafa"></rect><rect x="290.56" y="199.64" width="34.57" height="10.15" rx="1.65" style="fill:#f0f0f0"></rect><rect x="290.56" y="199.64" width="34.57" height="10.15" rx="1.65" style="fill:#e6e6e6;isolation:isolate"></rect><rect x="278.78" y="199.64" width="34.57" height="10.15" rx="1.65" style="fill:#f0f0f0"></rect><path d="M309.94,204.72a2.14,2.14,0,1,1-2.13-2.13A2.13,2.13,0,0,1,309.94,204.72Z" style="fill:#fafafa"></path><path d="M308.89,204.72a1.09,1.09,0,0,1-2.17,0,1.09,1.09,0,1,1,2.17,0Z" style="fill:#f0f0f0"></path><rect x="300.81" y="203.51" width="2.43" height="2.43" style="fill:#fafafa"></rect><rect x="290.63" y="188.56" width="34.57" height="10.15" rx="1.65" style="fill:#f0f0f0"></rect><rect x="290.63" y="188.56" width="34.57" height="10.15" rx="1.65" style="fill:#e6e6e6;isolation:isolate"></rect><rect x="278.85" y="188.56" width="34.57" height="10.15" rx="1.65" style="fill:#f0f0f0"></rect><path d="M310,193.64a2.14,2.14,0,1,1-2.13-2.14A2.14,2.14,0,0,1,310,193.64Z" style="fill:#fafafa"></path><path d="M309,193.64a1.09,1.09,0,0,1-2.17,0,1.09,1.09,0,1,1,2.17,0Z" style="fill:#f0f0f0"></path><rect x="300.88" y="192.42" width="2.43" height="2.43" style="fill:#fafafa"></rect><rect x="332.57" y="365.89" width="34.57" height="10.15" rx="1.65" style="fill:#f0f0f0"></rect><rect x="332.57" y="365.89" width="34.57" height="10.15" rx="1.65" style="fill:#e6e6e6;isolation:isolate"></rect><rect x="320.79" y="365.89" width="34.57" height="10.15" rx="1.65" style="fill:#f0f0f0"></rect><path d="M352,371a2.13,2.13,0,1,1-2.13-2.14A2.13,2.13,0,0,1,352,371Z" style="fill:#fafafa"></path><circle cx="349.82" cy="370.97" r="1.08" style="fill:#f0f0f0"></circle><rect x="342.82" y="369.75" width="2.43" height="2.43" style="fill:#fafafa"></rect><rect x="332.57" y="354.81" width="34.57" height="10.15" rx="1.65" style="fill:#f0f0f0"></rect><rect x="332.57" y="354.81" width="34.57" height="10.15" rx="1.65" style="fill:#e6e6e6;isolation:isolate"></rect><rect x="320.79" y="354.81" width="34.57" height="10.15" rx="1.65" style="fill:#f0f0f0"></rect><path d="M352,359.88a2.13,2.13,0,1,1-2.13-2.13A2.13,2.13,0,0,1,352,359.88Z" style="fill:#fafafa"></path><path d="M350.9,359.88a1.09,1.09,0,1,1-1.08-1.08A1.08,1.08,0,0,1,350.9,359.88Z" style="fill:#f0f0f0"></path><rect x="342.82" y="358.67" width="2.43" height="2.43" style="fill:#fafafa"></rect><rect x="332.57" y="343.73" width="34.57" height="10.15" rx="1.65" style="fill:#f0f0f0"></rect><rect x="332.57" y="343.73" width="34.57" height="10.15" rx="1.65" style="fill:#e6e6e6;isolation:isolate"></rect><rect x="320.79" y="343.73" width="34.57" height="10.15" rx="1.65" style="fill:#f0f0f0"></rect><path d="M352,348.8a2.13,2.13,0,1,1-2.13-2.13A2.13,2.13,0,0,1,352,348.8Z" style="fill:#fafafa"></path><path d="M350.9,348.8a1.09,1.09,0,1,1-1.08-1.08A1.08,1.08,0,0,1,350.9,348.8Z" style="fill:#f0f0f0"></path><rect x="342.82" y="347.59" width="2.43" height="2.43" style="fill:#fafafa"></rect><rect x="332.57" y="332.64" width="34.57" height="10.15" rx="1.65" style="fill:#f0f0f0"></rect><rect x="332.57" y="332.64" width="34.57" height="10.15" rx="1.65" style="fill:#e6e6e6;isolation:isolate"></rect><rect x="320.79" y="332.64" width="34.57" height="10.15" rx="1.65" style="fill:#f0f0f0"></rect><path d="M352,337.72a2.13,2.13,0,1,1-2.13-2.14A2.13,2.13,0,0,1,352,337.72Z" style="fill:#fafafa"></path><path d="M350.9,337.72a1.09,1.09,0,0,1-2.17,0,1.09,1.09,0,1,1,2.17,0Z" style="fill:#f0f0f0"></path><rect x="342.82" y="336.5" width="2.43" height="2.43" style="fill:#fafafa"></rect><rect x="332.64" y="321.56" width="34.57" height="10.15" rx="1.65" style="fill:#f0f0f0"></rect><rect x="332.64" y="321.56" width="34.57" height="10.15" rx="1.65" style="fill:#e6e6e6;isolation:isolate"></rect><rect x="320.86" y="321.56" width="34.57" height="10.15" rx="1.65" style="fill:#f0f0f0"></rect><path d="M352,326.63a2.13,2.13,0,1,1-2.13-2.13A2.13,2.13,0,0,1,352,326.63Z" style="fill:#fafafa"></path><circle cx="349.89" cy="326.63" r="1.08" style="fill:#f0f0f0"></circle><rect x="342.89" y="325.42" width="2.43" height="2.43" style="fill:#fafafa"></rect><rect x="332.71" y="310.48" width="34.57" height="10.15" rx="1.65" style="fill:#f0f0f0"></rect><rect x="332.71" y="310.48" width="34.57" height="10.15" rx="1.65" style="fill:#e6e6e6;isolation:isolate"></rect><rect x="320.93" y="310.48" width="34.57" height="10.15" rx="1.65" style="fill:#f0f0f0"></rect><path d="M352.09,315.55a2.13,2.13,0,1,1-2.13-2.13A2.13,2.13,0,0,1,352.09,315.55Z" style="fill:#fafafa"></path><path d="M351,315.55a1.09,1.09,0,1,1-1.08-1.08A1.08,1.08,0,0,1,351,315.55Z" style="fill:#f0f0f0"></path><rect x="342.96" y="314.34" width="2.43" height="2.43" style="fill:#fafafa"></rect><rect x="332.78" y="299.39" width="34.57" height="10.15" rx="1.65" style="fill:#f0f0f0"></rect><rect x="332.78" y="299.39" width="34.57" height="10.15" rx="1.65" style="fill:#e6e6e6;isolation:isolate"></rect><rect x="321" y="299.39" width="34.57" height="10.15" rx="1.65" style="fill:#f0f0f0"></rect><path d="M352.16,304.47a2.13,2.13,0,1,1-2.13-2.14A2.13,2.13,0,0,1,352.16,304.47Z" style="fill:#fafafa"></path><path d="M351.11,304.47a1.09,1.09,0,0,1-2.17,0,1.09,1.09,0,1,1,2.17,0Z" style="fill:#f0f0f0"></path><rect x="343.03" y="303.25" width="2.43" height="2.43" style="fill:#fafafa"></rect><rect x="332.85" y="288.31" width="34.57" height="10.15" rx="1.65" style="fill:#f0f0f0"></rect><rect x="332.85" y="288.31" width="34.57" height="10.15" rx="1.65" style="fill:#e6e6e6;isolation:isolate"></rect><rect x="321.07" y="288.31" width="34.57" height="10.15" rx="1.65" style="fill:#f0f0f0"></rect><path d="M352.23,293.38a2.13,2.13,0,1,1-2.13-2.13A2.13,2.13,0,0,1,352.23,293.38Z" style="fill:#fafafa"></path><path d="M351.18,293.38a1.09,1.09,0,1,1-1.08-1.08A1.08,1.08,0,0,1,351.18,293.38Z" style="fill:#f0f0f0"></path><rect x="343.1" y="292.17" width="2.43" height="2.43" style="fill:#fafafa"></rect><rect x="332.92" y="277.23" width="34.57" height="10.15" rx="1.65" style="fill:#f0f0f0"></rect><rect x="332.92" y="277.23" width="34.57" height="10.15" rx="1.65" style="fill:#e6e6e6;isolation:isolate"></rect><rect x="321.14" y="277.23" width="34.57" height="10.15" rx="1.65" style="fill:#f0f0f0"></rect><circle cx="350.17" cy="282.3" r="2.13" style="fill:#fafafa"></circle><circle cx="350.17" cy="282.3" r="1.08" style="fill:#f0f0f0"></circle><rect x="343.17" y="281.09" width="2.43" height="2.43" style="fill:#fafafa"></rect><rect x="332.99" y="266.14" width="34.57" height="10.15" rx="1.65" style="fill:#f0f0f0"></rect><rect x="332.99" y="266.14" width="34.57" height="10.15" rx="1.65" style="fill:#e6e6e6;isolation:isolate"></rect><rect x="321.21" y="266.14" width="34.57" height="10.15" rx="1.65" style="fill:#f0f0f0"></rect><circle cx="350.24" cy="271.22" r="2.13" style="fill:#fafafa"></circle><circle cx="350.24" cy="271.22" r="1.08" style="fill:#f0f0f0"></circle><rect x="343.24" y="270" width="2.43" height="2.43" style="fill:#fafafa"></rect><rect x="333.06" y="255.06" width="34.57" height="10.15" rx="1.65" style="fill:#f0f0f0"></rect><rect x="333.06" y="255.06" width="34.57" height="10.15" rx="1.65" style="fill:#e6e6e6;isolation:isolate"></rect><rect x="321.28" y="255.06" width="34.57" height="10.15" rx="1.65" style="fill:#f0f0f0"></rect><path d="M352.44,260.14a2.13,2.13,0,1,1-2.13-2.14A2.13,2.13,0,0,1,352.44,260.14Z" style="fill:#fafafa"></path><path d="M351.39,260.14a1.09,1.09,0,1,1-1.08-1.09A1.08,1.08,0,0,1,351.39,260.14Z" style="fill:#f0f0f0"></path><rect x="343.31" y="258.92" width="2.43" height="2.43" style="fill:#fafafa"></rect><rect x="333.13" y="243.98" width="34.57" height="10.15" rx="1.65" style="fill:#f0f0f0"></rect><rect x="333.13" y="243.98" width="34.57" height="10.15" rx="1.65" style="fill:#e6e6e6;isolation:isolate"></rect><rect x="321.35" y="243.98" width="34.57" height="10.15" rx="1.65" style="fill:#f0f0f0"></rect><path d="M352.51,249.05a2.13,2.13,0,1,1-2.13-2.13A2.13,2.13,0,0,1,352.51,249.05Z" style="fill:#fafafa"></path><path d="M351.46,249.05a1.09,1.09,0,1,1-1.08-1.08A1.08,1.08,0,0,1,351.46,249.05Z" style="fill:#f0f0f0"></path><rect x="343.38" y="247.84" width="2.43" height="2.43" style="fill:#fafafa"></rect><rect x="333.2" y="232.89" width="34.57" height="10.15" rx="1.65" style="fill:#f0f0f0"></rect><rect x="333.2" y="232.89" width="34.57" height="10.15" rx="1.65" style="fill:#e6e6e6;isolation:isolate"></rect><rect x="321.42" y="232.89" width="34.57" height="10.15" rx="1.65" style="fill:#f0f0f0"></rect><path d="M352.58,238a2.14,2.14,0,1,1-2.13-2.13A2.13,2.13,0,0,1,352.58,238Z" style="fill:#fafafa"></path><path d="M351.53,238a1.09,1.09,0,0,1-2.17,0,1.09,1.09,0,1,1,2.17,0Z" style="fill:#f0f0f0"></path><rect x="343.45" y="236.76" width="2.43" height="2.43" style="fill:#fafafa"></rect><rect x="333.27" y="221.81" width="34.57" height="10.15" rx="1.65" style="fill:#f0f0f0"></rect><rect x="333.27" y="221.81" width="34.57" height="10.15" rx="1.65" style="fill:#e6e6e6;isolation:isolate"></rect><rect x="321.49" y="221.81" width="34.57" height="10.15" rx="1.65" style="fill:#f0f0f0"></rect><path d="M352.65,226.89a2.14,2.14,0,1,1-2.13-2.14A2.13,2.13,0,0,1,352.65,226.89Z" style="fill:#fafafa"></path><path d="M351.6,226.89a1.09,1.09,0,0,1-2.17,0,1.09,1.09,0,1,1,2.17,0Z" style="fill:#f0f0f0"></path><rect x="343.52" y="225.67" width="2.43" height="2.43" style="fill:#fafafa"></rect><rect x="333.34" y="210.73" width="34.57" height="10.15" rx="1.65" style="fill:#f0f0f0"></rect><rect x="333.34" y="210.73" width="34.57" height="10.15" rx="1.65" style="fill:#e6e6e6;isolation:isolate"></rect><rect x="321.56" y="210.73" width="34.57" height="10.15" rx="1.65" style="fill:#f0f0f0"></rect><path d="M352.72,215.8a2.14,2.14,0,1,1-2.13-2.13A2.13,2.13,0,0,1,352.72,215.8Z" style="fill:#fafafa"></path><path d="M351.67,215.8a1.09,1.09,0,1,1-1.08-1.08A1.08,1.08,0,0,1,351.67,215.8Z" style="fill:#f0f0f0"></path><rect x="343.59" y="214.59" width="2.43" height="2.43" style="fill:#fafafa"></rect><rect x="333.41" y="199.64" width="34.57" height="10.15" rx="1.65" style="fill:#f0f0f0"></rect><rect x="333.41" y="199.64" width="34.57" height="10.15" rx="1.65" style="fill:#e6e6e6;isolation:isolate"></rect><rect x="321.63" y="199.64" width="34.57" height="10.15" rx="1.65" style="fill:#f0f0f0"></rect><path d="M352.79,204.72a2.14,2.14,0,1,1-2.13-2.13A2.13,2.13,0,0,1,352.79,204.72Z" style="fill:#fafafa"></path><path d="M351.74,204.72a1.09,1.09,0,0,1-2.17,0,1.09,1.09,0,1,1,2.17,0Z" style="fill:#f0f0f0"></path><rect x="343.66" y="203.51" width="2.43" height="2.43" style="fill:#fafafa"></rect><rect x="333.48" y="188.56" width="34.57" height="10.15" rx="1.65" style="fill:#f0f0f0"></rect><rect x="333.48" y="188.56" width="34.57" height="10.15" rx="1.65" style="fill:#e6e6e6;isolation:isolate"></rect><rect x="321.7" y="188.56" width="34.57" height="10.15" rx="1.65" style="fill:#f0f0f0"></rect><path d="M352.86,193.64a2.14,2.14,0,1,1-2.13-2.14A2.13,2.13,0,0,1,352.86,193.64Z" style="fill:#fafafa"></path><path d="M351.81,193.64a1.09,1.09,0,0,1-2.17,0,1.09,1.09,0,1,1,2.17,0Z" style="fill:#f0f0f0"></path><rect x="343.73" y="192.42" width="2.43" height="2.43" style="fill:#fafafa"></rect><rect x="90.82" y="180.13" width="130.25" height="201.54" transform="translate(311.88 561.8) rotate(180)" style="fill:#e0e0e0"></rect><rect x="118.76" y="180.13" width="106.37" height="201.54" transform="translate(343.89 561.8) rotate(180)" style="fill:#ebebeb"></rect><rect x="122.2" y="182.72" width="99.48" height="198.94" transform="translate(343.89 564.39) rotate(180)" style="fill:#e0e0e0"></rect><rect x="171.66" y="365.89" width="34.57" height="10.15" rx="1.65" transform="translate(377.89 741.93) rotate(180)" style="fill:#f0f0f0"></rect><rect x="171.66" y="365.89" width="34.57" height="10.15" rx="1.65" transform="translate(377.89 741.93) rotate(180)" style="fill:#e6e6e6;isolation:isolate"></rect><rect x="183.43" y="365.89" width="34.57" height="10.15" rx="1.65" transform="translate(401.44 741.93) rotate(180)" style="fill:#f0f0f0"></rect><circle cx="188.98" cy="370.97" r="2.13" style="fill:#fafafa"></circle><circle cx="188.98" cy="370.97" r="1.08" style="fill:#f0f0f0"></circle><rect x="193.55" y="369.75" width="2.43" height="2.43" transform="translate(389.52 741.93) rotate(180)" style="fill:#fafafa"></rect><rect x="171.66" y="354.81" width="34.57" height="10.15" rx="1.65" transform="translate(377.89 719.77) rotate(180)" style="fill:#f0f0f0"></rect><rect x="171.66" y="354.81" width="34.57" height="10.15" rx="1.65" transform="translate(377.89 719.77) rotate(180)" style="fill:#e6e6e6;isolation:isolate"></rect><rect x="183.43" y="354.81" width="34.57" height="10.15" rx="1.65" transform="translate(401.44 719.77) rotate(180)" style="fill:#f0f0f0"></rect><path d="M186.84,359.88a2.14,2.14,0,1,0,2.14-2.13A2.14,2.14,0,0,0,186.84,359.88Z" style="fill:#fafafa"></path><path d="M187.89,359.88a1.09,1.09,0,1,0,2.17,0,1.09,1.09,0,0,0-2.17,0Z" style="fill:#f0f0f0"></path><rect x="193.55" y="358.67" width="2.43" height="2.43" transform="translate(389.52 719.77) rotate(180)" style="fill:#fafafa"></rect><rect x="171.66" y="343.73" width="34.57" height="10.15" rx="1.65" transform="translate(377.89 697.6) rotate(180)" style="fill:#f0f0f0"></rect><rect x="171.66" y="343.73" width="34.57" height="10.15" rx="1.65" transform="translate(377.89 697.6) rotate(180)" style="fill:#e6e6e6;isolation:isolate"></rect><rect x="183.43" y="343.73" width="34.57" height="10.15" rx="1.65" transform="translate(401.44 697.6) rotate(180)" style="fill:#f0f0f0"></rect><path d="M186.84,348.8a2.14,2.14,0,1,0,2.14-2.13A2.13,2.13,0,0,0,186.84,348.8Z" style="fill:#fafafa"></path><path d="M187.89,348.8a1.09,1.09,0,1,0,2.17,0,1.09,1.09,0,0,0-2.17,0Z" style="fill:#f0f0f0"></path><rect x="193.55" y="347.59" width="2.43" height="2.43" transform="translate(389.52 697.6) rotate(180)" style="fill:#fafafa"></rect><rect x="171.66" y="332.64" width="34.57" height="10.15" rx="1.65" transform="translate(377.89 675.43) rotate(180)" style="fill:#f0f0f0"></rect><rect x="171.66" y="332.64" width="34.57" height="10.15" rx="1.65" transform="translate(377.89 675.43) rotate(180)" style="fill:#e6e6e6;isolation:isolate"></rect><rect x="183.43" y="332.64" width="34.57" height="10.15" rx="1.65" transform="translate(401.44 675.43) rotate(180)" style="fill:#f0f0f0"></rect><path d="M186.84,337.72a2.14,2.14,0,1,0,2.14-2.14A2.13,2.13,0,0,0,186.84,337.72Z" style="fill:#fafafa"></path><path d="M187.89,337.72a1.09,1.09,0,1,0,1.09-1.09A1.08,1.08,0,0,0,187.89,337.72Z" style="fill:#f0f0f0"></path><rect x="193.55" y="336.5" width="2.43" height="2.43" transform="translate(389.52 675.43) rotate(180)" style="fill:#fafafa"></rect><rect x="171.59" y="321.56" width="34.57" height="10.15" rx="1.65" transform="translate(377.75 653.27) rotate(180)" style="fill:#f0f0f0"></rect><rect x="171.59" y="321.56" width="34.57" height="10.15" rx="1.65" transform="translate(377.75 653.27) rotate(180)" style="fill:#e6e6e6;isolation:isolate"></rect><rect x="183.36" y="321.56" width="34.57" height="10.15" rx="1.65" transform="translate(401.3 653.27) rotate(180)" style="fill:#f0f0f0"></rect><circle cx="188.91" cy="326.63" r="2.13" style="fill:#fafafa"></circle><circle cx="188.91" cy="326.63" r="1.08" style="fill:#f0f0f0"></circle><rect x="193.48" y="325.42" width="2.43" height="2.43" transform="translate(389.38 653.27) rotate(180)" style="fill:#fafafa"></rect><rect x="171.52" y="310.48" width="34.57" height="10.15" rx="1.65" transform="translate(377.61 631.1) rotate(180)" style="fill:#f0f0f0"></rect><rect x="171.52" y="310.48" width="34.57" height="10.15" rx="1.65" transform="translate(377.61 631.1) rotate(180)" style="fill:#e6e6e6;isolation:isolate"></rect><rect x="183.29" y="310.48" width="34.57" height="10.15" rx="1.65" transform="translate(401.16 631.1) rotate(180)" style="fill:#f0f0f0"></rect><path d="M186.7,315.55a2.14,2.14,0,1,0,2.14-2.13A2.13,2.13,0,0,0,186.7,315.55Z" style="fill:#fafafa"></path><circle cx="188.84" cy="315.55" r="1.08" style="fill:#f0f0f0"></circle><rect x="193.41" y="314.34" width="2.43" height="2.43" transform="translate(389.24 631.1) rotate(180)" style="fill:#fafafa"></rect><rect x="171.45" y="299.39" width="34.57" height="10.15" rx="1.65" transform="translate(377.47 608.94) rotate(180)" style="fill:#f0f0f0"></rect><rect x="171.45" y="299.39" width="34.57" height="10.15" rx="1.65" transform="translate(377.47 608.94) rotate(180)" style="fill:#e6e6e6;isolation:isolate"></rect><rect x="183.22" y="299.39" width="34.57" height="10.15" rx="1.65" transform="translate(401.02 608.94) rotate(180)" style="fill:#f0f0f0"></rect><path d="M186.64,304.47a2.13,2.13,0,1,0,2.13-2.14A2.13,2.13,0,0,0,186.64,304.47Z" style="fill:#fafafa"></path><path d="M187.68,304.47a1.09,1.09,0,1,0,1.09-1.09A1.08,1.08,0,0,0,187.68,304.47Z" style="fill:#f0f0f0"></path><rect x="193.34" y="303.25" width="2.43" height="2.43" transform="translate(389.1 608.94) rotate(180)" style="fill:#fafafa"></rect><rect x="171.38" y="288.31" width="34.57" height="10.15" rx="1.65" transform="translate(377.33 586.77) rotate(180)" style="fill:#f0f0f0"></rect><rect x="171.38" y="288.31" width="34.57" height="10.15" rx="1.65" transform="translate(377.33 586.77) rotate(180)" style="fill:#e6e6e6;isolation:isolate"></rect><rect x="183.15" y="288.31" width="34.57" height="10.15" rx="1.65" transform="translate(400.88 586.77) rotate(180)" style="fill:#f0f0f0"></rect><path d="M186.57,293.38a2.13,2.13,0,1,0,2.13-2.13A2.13,2.13,0,0,0,186.57,293.38Z" style="fill:#fafafa"></path><path d="M187.61,293.38a1.09,1.09,0,1,0,1.09-1.08A1.09,1.09,0,0,0,187.61,293.38Z" style="fill:#f0f0f0"></path><rect x="193.27" y="292.17" width="2.43" height="2.43" transform="translate(388.96 586.77) rotate(180)" style="fill:#fafafa"></rect><rect x="171.31" y="277.23" width="34.57" height="10.15" rx="1.65" transform="translate(377.19 564.6) rotate(180)" style="fill:#f0f0f0"></rect><rect x="171.31" y="277.23" width="34.57" height="10.15" rx="1.65" transform="translate(377.19 564.6) rotate(180)" style="fill:#e6e6e6;isolation:isolate"></rect><rect x="183.08" y="277.23" width="34.57" height="10.15" rx="1.65" transform="translate(400.74 564.6) rotate(180)" style="fill:#f0f0f0"></rect><path d="M186.5,282.3a2.13,2.13,0,1,0,2.13-2.13A2.13,2.13,0,0,0,186.5,282.3Z" style="fill:#fafafa"></path><circle cx="188.63" cy="282.3" r="1.08" style="fill:#f0f0f0"></circle><rect x="193.2" y="281.09" width="2.43" height="2.43" transform="translate(388.82 564.6) rotate(180)" style="fill:#fafafa"></rect><rect x="171.24" y="266.14" width="34.57" height="10.15" rx="1.65" transform="translate(377.05 542.44) rotate(180)" style="fill:#f0f0f0"></rect><rect x="171.24" y="266.14" width="34.57" height="10.15" rx="1.65" transform="translate(377.05 542.44) rotate(180)" style="fill:#e6e6e6;isolation:isolate"></rect><rect x="183.01" y="266.14" width="34.57" height="10.15" rx="1.65" transform="translate(400.6 542.44) rotate(180)" style="fill:#f0f0f0"></rect><path d="M186.43,271.22a2.13,2.13,0,1,0,2.13-2.13A2.13,2.13,0,0,0,186.43,271.22Z" style="fill:#fafafa"></path><path d="M187.47,271.22a1.09,1.09,0,1,0,1.09-1.09A1.08,1.08,0,0,0,187.47,271.22Z" style="fill:#f0f0f0"></path><rect x="193.13" y="270" width="2.43" height="2.43" transform="translate(388.68 542.44) rotate(180)" style="fill:#fafafa"></rect><rect x="171.17" y="255.06" width="34.57" height="10.15" rx="1.65" transform="translate(376.91 520.27) rotate(180)" style="fill:#f0f0f0"></rect><rect x="171.17" y="255.06" width="34.57" height="10.15" rx="1.65" transform="translate(376.91 520.27) rotate(180)" style="fill:#e6e6e6;isolation:isolate"></rect><rect x="182.94" y="255.06" width="34.57" height="10.15" rx="1.65" transform="translate(400.46 520.27) rotate(180)" style="fill:#f0f0f0"></rect><path d="M186.36,260.14a2.13,2.13,0,1,0,2.13-2.14A2.13,2.13,0,0,0,186.36,260.14Z" style="fill:#fafafa"></path><path d="M187.4,260.14a1.09,1.09,0,1,0,1.09-1.09A1.09,1.09,0,0,0,187.4,260.14Z" style="fill:#f0f0f0"></path><rect x="193.06" y="258.92" width="2.43" height="2.43" transform="translate(388.54 520.27) rotate(180)" style="fill:#fafafa"></rect><rect x="171.1" y="243.98" width="34.57" height="10.15" rx="1.65" transform="translate(376.77 498.1) rotate(180)" style="fill:#f0f0f0"></rect><rect x="171.1" y="243.98" width="34.57" height="10.15" rx="1.65" transform="translate(376.77 498.1) rotate(180)" style="fill:#e6e6e6;isolation:isolate"></rect><rect x="182.88" y="243.98" width="34.57" height="10.15" rx="1.65" transform="translate(400.32 498.1) rotate(180)" style="fill:#f0f0f0"></rect><path d="M186.29,249.05a2.13,2.13,0,1,0,2.13-2.13A2.13,2.13,0,0,0,186.29,249.05Z" style="fill:#fafafa"></path><path d="M187.33,249.05a1.09,1.09,0,1,0,2.17,0,1.09,1.09,0,0,0-2.17,0Z" style="fill:#f0f0f0"></path><rect x="192.99" y="247.84" width="2.43" height="2.43" transform="translate(388.4 498.1) rotate(180)" style="fill:#fafafa"></rect><rect x="171.03" y="232.89" width="34.57" height="10.15" rx="1.65" transform="translate(376.63 475.94) rotate(180)" style="fill:#f0f0f0"></rect><rect x="171.03" y="232.89" width="34.57" height="10.15" rx="1.65" transform="translate(376.63 475.94) rotate(180)" style="fill:#e6e6e6;isolation:isolate"></rect><rect x="182.81" y="232.89" width="34.57" height="10.15" rx="1.65" transform="translate(400.18 475.94) rotate(180)" style="fill:#f0f0f0"></rect><path d="M186.22,238a2.13,2.13,0,1,0,2.13-2.13A2.13,2.13,0,0,0,186.22,238Z" style="fill:#fafafa"></path><path d="M187.26,238a1.09,1.09,0,1,0,1.09-1.09A1.08,1.08,0,0,0,187.26,238Z" style="fill:#f0f0f0"></path><rect x="192.92" y="236.76" width="2.43" height="2.43" transform="translate(388.26 475.94) rotate(180)" style="fill:#fafafa"></rect><rect x="170.96" y="221.81" width="34.57" height="10.15" rx="1.65" transform="translate(376.49 453.77) rotate(180)" style="fill:#f0f0f0"></rect><rect x="170.96" y="221.81" width="34.57" height="10.15" rx="1.65" transform="translate(376.49 453.77) rotate(180)" style="fill:#e6e6e6;isolation:isolate"></rect><rect x="182.74" y="221.81" width="34.57" height="10.15" rx="1.65" transform="translate(400.04 453.77) rotate(180)" style="fill:#f0f0f0"></rect><circle cx="188.28" cy="226.89" r="2.13" style="fill:#fafafa"></circle><circle cx="188.28" cy="226.89" r="1.08" style="fill:#f0f0f0"></circle><rect x="192.85" y="225.67" width="2.43" height="2.43" transform="translate(388.13 453.77) rotate(180)" style="fill:#fafafa"></rect><rect x="170.89" y="210.73" width="34.57" height="10.15" rx="1.65" transform="translate(376.35 431.61) rotate(180)" style="fill:#f0f0f0"></rect><rect x="170.89" y="210.73" width="34.57" height="10.15" rx="1.65" transform="translate(376.35 431.61) rotate(180)" style="fill:#e6e6e6;isolation:isolate"></rect><rect x="182.67" y="210.73" width="34.57" height="10.15" rx="1.65" transform="translate(399.9 431.61) rotate(180)" style="fill:#f0f0f0"></rect><path d="M186.08,215.8a2.13,2.13,0,1,0,2.13-2.13A2.13,2.13,0,0,0,186.08,215.8Z" style="fill:#fafafa"></path><circle cx="188.21" cy="215.8" r="1.08" style="fill:#f0f0f0"></circle><rect x="192.78" y="214.59" width="2.43" height="2.43" transform="translate(387.99 431.61) rotate(180)" style="fill:#fafafa"></rect><rect x="170.82" y="199.64" width="34.57" height="10.15" rx="1.65" transform="translate(376.21 409.44) rotate(180)" style="fill:#f0f0f0"></rect><rect x="170.82" y="199.64" width="34.57" height="10.15" rx="1.65" transform="translate(376.21 409.44) rotate(180)" style="fill:#e6e6e6;isolation:isolate"></rect><rect x="182.6" y="199.64" width="34.57" height="10.15" rx="1.65" transform="translate(399.76 409.44) rotate(180)" style="fill:#f0f0f0"></rect><path d="M186,204.72a2.13,2.13,0,1,0,2.13-2.13A2.13,2.13,0,0,0,186,204.72Z" style="fill:#fafafa"></path><path d="M187.06,204.72a1.08,1.08,0,1,0,1.08-1.09A1.08,1.08,0,0,0,187.06,204.72Z" style="fill:#f0f0f0"></path><rect x="192.71" y="203.51" width="2.43" height="2.43" transform="translate(387.85 409.44) rotate(180)" style="fill:#fafafa"></rect><rect x="170.75" y="188.56" width="34.57" height="10.15" rx="1.65" transform="translate(376.07 387.27) rotate(180)" style="fill:#f0f0f0"></rect><rect x="170.75" y="188.56" width="34.57" height="10.15" rx="1.65" transform="translate(376.07 387.27) rotate(180)" style="fill:#e6e6e6;isolation:isolate"></rect><rect x="182.53" y="188.56" width="34.57" height="10.15" rx="1.65" transform="translate(399.62 387.27) rotate(180)" style="fill:#f0f0f0"></rect><path d="M185.94,193.64a2.13,2.13,0,1,0,2.13-2.14A2.13,2.13,0,0,0,185.94,193.64Z" style="fill:#fafafa"></path><path d="M187,193.64a1.08,1.08,0,1,0,1.08-1.09A1.08,1.08,0,0,0,187,193.64Z" style="fill:#f0f0f0"></path><rect x="192.64" y="192.42" width="2.43" height="2.43" transform="translate(387.71 387.27) rotate(180)" style="fill:#fafafa"></rect><rect x="128.81" y="365.89" width="34.57" height="10.15" rx="1.65" transform="translate(292.18 741.93) rotate(180)" style="fill:#f0f0f0"></rect><rect x="128.81" y="365.89" width="34.57" height="10.15" rx="1.65" transform="translate(292.18 741.93) rotate(180)" style="fill:#e6e6e6;isolation:isolate"></rect><rect x="140.58" y="365.89" width="34.57" height="10.15" rx="1.65" transform="translate(315.73 741.93) rotate(180)" style="fill:#f0f0f0"></rect><path d="M144,371a2.14,2.14,0,1,0,2.14-2.14A2.14,2.14,0,0,0,144,371Z" style="fill:#fafafa"></path><path d="M145,371a1.09,1.09,0,1,0,1.09-1.09A1.08,1.08,0,0,0,145,371Z" style="fill:#f0f0f0"></path><rect x="150.7" y="369.75" width="2.43" height="2.43" transform="translate(303.82 741.93) rotate(180)" style="fill:#fafafa"></rect><rect x="128.81" y="354.81" width="34.57" height="10.15" rx="1.65" transform="translate(292.18 719.77) rotate(180)" style="fill:#f0f0f0"></rect><rect x="128.81" y="354.81" width="34.57" height="10.15" rx="1.65" transform="translate(292.18 719.77) rotate(180)" style="fill:#e6e6e6;isolation:isolate"></rect><rect x="140.58" y="354.81" width="34.57" height="10.15" rx="1.65" transform="translate(315.73 719.77) rotate(180)" style="fill:#f0f0f0"></rect><path d="M144,359.88a2.14,2.14,0,1,0,2.14-2.13A2.14,2.14,0,0,0,144,359.88Z" style="fill:#fafafa"></path><path d="M145,359.88a1.09,1.09,0,1,0,2.17,0,1.09,1.09,0,0,0-2.17,0Z" style="fill:#f0f0f0"></path><rect x="150.7" y="358.67" width="2.43" height="2.43" transform="translate(303.82 719.77) rotate(180)" style="fill:#fafafa"></rect><rect x="128.81" y="343.73" width="34.57" height="10.15" rx="1.65" transform="translate(292.18 697.6) rotate(180)" style="fill:#f0f0f0"></rect><rect x="128.81" y="343.73" width="34.57" height="10.15" rx="1.65" transform="translate(292.18 697.6) rotate(180)" style="fill:#e6e6e6;isolation:isolate"></rect><rect x="140.58" y="343.73" width="34.57" height="10.15" rx="1.65" transform="translate(315.73 697.6) rotate(180)" style="fill:#f0f0f0"></rect><path d="M144,348.8a2.14,2.14,0,1,0,2.14-2.13A2.13,2.13,0,0,0,144,348.8Z" style="fill:#fafafa"></path><path d="M145,348.8a1.09,1.09,0,1,0,2.17,0,1.09,1.09,0,0,0-2.17,0Z" style="fill:#f0f0f0"></path><rect x="150.7" y="347.59" width="2.43" height="2.43" transform="translate(303.82 697.6) rotate(180)" style="fill:#fafafa"></rect><rect x="128.81" y="332.64" width="34.57" height="10.15" rx="1.65" transform="translate(292.18 675.43) rotate(180)" style="fill:#f0f0f0"></rect><rect x="128.81" y="332.64" width="34.57" height="10.15" rx="1.65" transform="translate(292.18 675.43) rotate(180)" style="fill:#e6e6e6;isolation:isolate"></rect><rect x="140.58" y="332.64" width="34.57" height="10.15" rx="1.65" transform="translate(315.73 675.43) rotate(180)" style="fill:#f0f0f0"></rect><path d="M144,337.72a2.14,2.14,0,1,0,2.14-2.14A2.13,2.13,0,0,0,144,337.72Z" style="fill:#fafafa"></path><path d="M145,337.72a1.09,1.09,0,1,0,1.09-1.09A1.08,1.08,0,0,0,145,337.72Z" style="fill:#f0f0f0"></path><rect x="150.7" y="336.5" width="2.43" height="2.43" transform="translate(303.82 675.43) rotate(180)" style="fill:#fafafa"></rect><rect x="128.74" y="321.56" width="34.57" height="10.15" rx="1.65" transform="translate(292.04 653.27) rotate(180)" style="fill:#f0f0f0"></rect><rect x="128.74" y="321.56" width="34.57" height="10.15" rx="1.65" transform="translate(292.04 653.27) rotate(180)" style="fill:#e6e6e6;isolation:isolate"></rect><rect x="140.51" y="321.56" width="34.57" height="10.15" rx="1.65" transform="translate(315.59 653.27) rotate(180)" style="fill:#f0f0f0"></rect><circle cx="146.06" cy="326.63" r="2.13" style="fill:#fafafa"></circle><path d="M145,326.63a1.09,1.09,0,1,0,2.17,0,1.09,1.09,0,0,0-2.17,0Z" style="fill:#f0f0f0"></path><rect x="150.63" y="325.42" width="2.43" height="2.43" transform="translate(303.68 653.27) rotate(180)" style="fill:#fafafa"></rect><rect x="128.67" y="310.48" width="34.57" height="10.15" rx="1.65" transform="translate(291.9 631.1) rotate(180)" style="fill:#f0f0f0"></rect><rect x="128.67" y="310.48" width="34.57" height="10.15" rx="1.65" transform="translate(291.9 631.1) rotate(180)" style="fill:#e6e6e6;isolation:isolate"></rect><rect x="140.44" y="310.48" width="34.57" height="10.15" rx="1.65" transform="translate(315.46 631.1) rotate(180)" style="fill:#f0f0f0"></rect><path d="M143.85,315.55a2.14,2.14,0,1,0,2.14-2.13A2.13,2.13,0,0,0,143.85,315.55Z" style="fill:#fafafa"></path><path d="M144.9,315.55a1.09,1.09,0,1,0,2.17,0,1.09,1.09,0,0,0-2.17,0Z" style="fill:#f0f0f0"></path><rect x="150.56" y="314.34" width="2.43" height="2.43" transform="translate(303.54 631.1) rotate(180)" style="fill:#fafafa"></rect><rect x="128.6" y="299.39" width="34.57" height="10.15" rx="1.65" transform="translate(291.76 608.94) rotate(180)" style="fill:#f0f0f0"></rect><rect x="128.6" y="299.39" width="34.57" height="10.15" rx="1.65" transform="translate(291.76 608.94) rotate(180)" style="fill:#e6e6e6;isolation:isolate"></rect><rect x="140.37" y="299.39" width="34.57" height="10.15" rx="1.65" transform="translate(315.32 608.94) rotate(180)" style="fill:#f0f0f0"></rect><path d="M143.78,304.47a2.14,2.14,0,1,0,2.14-2.14A2.13,2.13,0,0,0,143.78,304.47Z" style="fill:#fafafa"></path><path d="M144.83,304.47a1.09,1.09,0,1,0,1.09-1.09A1.08,1.08,0,0,0,144.83,304.47Z" style="fill:#f0f0f0"></path><rect x="150.49" y="303.25" width="2.43" height="2.43" transform="translate(303.4 608.94) rotate(180)" style="fill:#fafafa"></rect><rect x="128.53" y="288.31" width="34.57" height="10.15" rx="1.65" transform="translate(291.62 586.77) rotate(180)" style="fill:#f0f0f0"></rect><rect x="128.53" y="288.31" width="34.57" height="10.15" rx="1.65" transform="translate(291.62 586.77) rotate(180)" style="fill:#e6e6e6;isolation:isolate"></rect><rect x="140.3" y="288.31" width="34.57" height="10.15" rx="1.65" transform="translate(315.18 586.77) rotate(180)" style="fill:#f0f0f0"></rect><path d="M143.71,293.38a2.14,2.14,0,1,0,2.14-2.13A2.14,2.14,0,0,0,143.71,293.38Z" style="fill:#fafafa"></path><path d="M144.76,293.38a1.09,1.09,0,1,0,1.09-1.08A1.09,1.09,0,0,0,144.76,293.38Z" style="fill:#f0f0f0"></path><rect x="150.42" y="292.17" width="2.43" height="2.43" transform="translate(303.26 586.77) rotate(180)" style="fill:#fafafa"></rect><rect x="128.46" y="277.23" width="34.57" height="10.15" rx="1.65" transform="translate(291.48 564.6) rotate(180)" style="fill:#f0f0f0"></rect><rect x="128.46" y="277.23" width="34.57" height="10.15" rx="1.65" transform="translate(291.48 564.6) rotate(180)" style="fill:#e6e6e6;isolation:isolate"></rect><rect x="140.23" y="277.23" width="34.57" height="10.15" rx="1.65" transform="translate(315.04 564.6) rotate(180)" style="fill:#f0f0f0"></rect><path d="M143.64,282.3a2.14,2.14,0,1,0,2.14-2.13A2.13,2.13,0,0,0,143.64,282.3Z" style="fill:#fafafa"></path><circle cx="145.78" cy="282.3" r="1.08" style="fill:#f0f0f0"></circle><rect x="150.35" y="281.09" width="2.43" height="2.43" transform="translate(303.12 564.6) rotate(180)" style="fill:#fafafa"></rect><rect x="128.39" y="266.14" width="34.57" height="10.15" rx="1.65" transform="translate(291.35 542.44) rotate(180)" style="fill:#f0f0f0"></rect><rect x="128.39" y="266.14" width="34.57" height="10.15" rx="1.65" transform="translate(291.35 542.44) rotate(180)" style="fill:#e6e6e6;isolation:isolate"></rect><rect x="140.16" y="266.14" width="34.57" height="10.15" rx="1.65" transform="translate(314.9 542.44) rotate(180)" style="fill:#f0f0f0"></rect><path d="M143.57,271.22a2.14,2.14,0,1,0,2.14-2.13A2.13,2.13,0,0,0,143.57,271.22Z" style="fill:#fafafa"></path><circle cx="145.71" cy="271.22" r="1.08" style="fill:#f0f0f0"></circle><rect x="150.28" y="270" width="2.43" height="2.43" transform="translate(302.98 542.44) rotate(180)" style="fill:#fafafa"></rect><rect x="128.32" y="255.06" width="34.57" height="10.15" rx="1.65" transform="translate(291.21 520.27) rotate(180)" style="fill:#f0f0f0"></rect><rect x="128.32" y="255.06" width="34.57" height="10.15" rx="1.65" transform="translate(291.21 520.27) rotate(180)" style="fill:#e6e6e6;isolation:isolate"></rect><rect x="140.09" y="255.06" width="34.57" height="10.15" rx="1.65" transform="translate(314.76 520.27) rotate(180)" style="fill:#f0f0f0"></rect><path d="M143.5,260.14a2.14,2.14,0,1,0,2.14-2.14A2.14,2.14,0,0,0,143.5,260.14Z" style="fill:#fafafa"></path><path d="M144.55,260.14a1.09,1.09,0,1,0,1.09-1.09A1.09,1.09,0,0,0,144.55,260.14Z" style="fill:#f0f0f0"></path><rect x="150.21" y="258.92" width="2.43" height="2.43" transform="translate(302.84 520.27) rotate(180)" style="fill:#fafafa"></rect><rect x="128.25" y="243.98" width="34.57" height="10.15" rx="1.65" transform="translate(291.07 498.1) rotate(180)" style="fill:#f0f0f0"></rect><rect x="128.25" y="243.98" width="34.57" height="10.15" rx="1.65" transform="translate(291.07 498.1) rotate(180)" style="fill:#e6e6e6;isolation:isolate"></rect><rect x="140.02" y="243.98" width="34.57" height="10.15" rx="1.65" transform="translate(314.62 498.1) rotate(180)" style="fill:#f0f0f0"></rect><path d="M143.43,249.05a2.14,2.14,0,1,0,2.14-2.13A2.14,2.14,0,0,0,143.43,249.05Z" style="fill:#fafafa"></path><path d="M144.48,249.05a1.09,1.09,0,1,0,2.17,0,1.09,1.09,0,0,0-2.17,0Z" style="fill:#f0f0f0"></path><rect x="150.14" y="247.84" width="2.43" height="2.43" transform="translate(302.7 498.1) rotate(180)" style="fill:#fafafa"></rect><rect x="128.18" y="232.89" width="34.57" height="10.15" rx="1.65" transform="translate(290.93 475.94) rotate(180)" style="fill:#f0f0f0"></rect><rect x="128.18" y="232.89" width="34.57" height="10.15" rx="1.65" transform="translate(290.93 475.94) rotate(180)" style="fill:#e6e6e6;isolation:isolate"></rect><rect x="139.95" y="232.89" width="34.57" height="10.15" rx="1.65" transform="translate(314.48 475.94) rotate(180)" style="fill:#f0f0f0"></rect><path d="M143.37,238a2.13,2.13,0,1,0,2.13-2.13A2.13,2.13,0,0,0,143.37,238Z" style="fill:#fafafa"></path><path d="M144.41,238a1.09,1.09,0,1,0,1.09-1.09A1.08,1.08,0,0,0,144.41,238Z" style="fill:#f0f0f0"></path><rect x="150.07" y="236.76" width="2.43" height="2.43" transform="translate(302.56 475.94) rotate(180)" style="fill:#fafafa"></rect><rect x="128.11" y="221.81" width="34.57" height="10.15" rx="1.65" transform="translate(290.79 453.77) rotate(180)" style="fill:#f0f0f0"></rect><rect x="128.11" y="221.81" width="34.57" height="10.15" rx="1.65" transform="translate(290.79 453.77) rotate(180)" style="fill:#e6e6e6;isolation:isolate"></rect><rect x="139.88" y="221.81" width="34.57" height="10.15" rx="1.65" transform="translate(314.34 453.77) rotate(180)" style="fill:#f0f0f0"></rect><circle cx="145.43" cy="226.89" r="2.13" style="fill:#fafafa"></circle><path d="M144.34,226.89a1.09,1.09,0,1,0,1.09-1.09A1.08,1.08,0,0,0,144.34,226.89Z" style="fill:#f0f0f0"></path><rect x="150" y="225.67" width="2.43" height="2.43" transform="translate(302.42 453.77) rotate(180)" style="fill:#fafafa"></rect><rect x="128.04" y="210.73" width="34.57" height="10.15" rx="1.65" transform="translate(290.65 431.61) rotate(180)" style="fill:#f0f0f0"></rect><rect x="128.04" y="210.73" width="34.57" height="10.15" rx="1.65" transform="translate(290.65 431.61) rotate(180)" style="fill:#e6e6e6;isolation:isolate"></rect><rect x="139.81" y="210.73" width="34.57" height="10.15" rx="1.65" transform="translate(314.2 431.61) rotate(180)" style="fill:#f0f0f0"></rect><circle cx="145.36" cy="215.8" r="2.13" style="fill:#fafafa"></circle><circle cx="145.36" cy="215.8" r="1.08" style="fill:#f0f0f0"></circle><rect x="149.93" y="214.59" width="2.43" height="2.43" transform="translate(302.28 431.61) rotate(180)" style="fill:#fafafa"></rect><rect x="127.97" y="199.64" width="34.57" height="10.15" rx="1.65" transform="translate(290.51 409.44) rotate(180)" style="fill:#f0f0f0"></rect><rect x="127.97" y="199.64" width="34.57" height="10.15" rx="1.65" transform="translate(290.51 409.44) rotate(180)" style="fill:#e6e6e6;isolation:isolate"></rect><rect x="139.74" y="199.64" width="34.57" height="10.15" rx="1.65" transform="translate(314.06 409.44) rotate(180)" style="fill:#f0f0f0"></rect><path d="M143.16,204.72a2.13,2.13,0,1,0,2.13-2.13A2.13,2.13,0,0,0,143.16,204.72Z" style="fill:#fafafa"></path><path d="M144.2,204.72a1.09,1.09,0,1,0,1.09-1.09A1.08,1.08,0,0,0,144.2,204.72Z" style="fill:#f0f0f0"></path><rect x="149.86" y="203.51" width="2.43" height="2.43" transform="translate(302.14 409.44) rotate(180)" style="fill:#fafafa"></rect><rect x="127.9" y="188.56" width="34.57" height="10.15" rx="1.65" transform="translate(290.37 387.27) rotate(180)" style="fill:#f0f0f0"></rect><rect x="127.9" y="188.56" width="34.57" height="10.15" rx="1.65" transform="translate(290.37 387.27) rotate(180)" style="fill:#e6e6e6;isolation:isolate"></rect><rect x="139.67" y="188.56" width="34.57" height="10.15" rx="1.65" transform="translate(313.92 387.27) rotate(180)" style="fill:#f0f0f0"></rect><path d="M143.09,193.64a2.13,2.13,0,1,0,2.13-2.14A2.13,2.13,0,0,0,143.09,193.64Z" style="fill:#fafafa"></path><path d="M144.13,193.64a1.09,1.09,0,1,0,1.09-1.09A1.08,1.08,0,0,0,144.13,193.64Z" style="fill:#f0f0f0"></path><rect x="149.79" y="192.42" width="2.43" height="2.43" transform="translate(302 387.27) rotate(180)" style="fill:#fafafa"></rect><rect x="54.69" y="349.62" width="42.51" height="32.44" rx="2.39" style="fill:#e0e0e0"></rect><rect x="71.04" y="349.62" width="42.5" height="32.44" rx="2.39" style="fill:#f0f0f0"></rect><path d="M95.2,376H89.38a.41.41,0,0,1-.41-.41.41.41,0,0,1,.41-.41H95.2a.41.41,0,0,1,.41.41A.41.41,0,0,1,95.2,376Z" style="fill:#e0e0e0"></path><path d="M99.08,373.85H85.5a.42.42,0,0,1-.41-.41.41.41,0,0,1,.41-.41H99.08a.41.41,0,0,1,.41.41A.42.42,0,0,1,99.08,373.85Z" style="fill:#e0e0e0"></path><path d="M100.92,371.67H83.67a.41.41,0,1,1,0-.81h17.25a.41.41,0,0,1,0,.81Z" style="fill:#e0e0e0"></path><path d="M102,369.51H82.63a.42.42,0,0,1-.41-.41.41.41,0,0,1,.41-.41H102a.4.4,0,0,1,.4.41A.41.41,0,0,1,102,369.51Z" style="fill:#e0e0e0"></path><path d="M102.42,367.33H82.16a.41.41,0,1,1,0-.81h20.26a.41.41,0,1,1,0,.81Z" style="fill:#e0e0e0"></path><path d="M102.42,365.17H82.16a.41.41,0,0,1-.41-.41.41.41,0,0,1,.41-.41h20.26a.41.41,0,0,1,.41.41A.41.41,0,0,1,102.42,365.17Z" style="fill:#e0e0e0"></path><path d="M102,363H82.64a.41.41,0,1,1,0-.81H102a.41.41,0,0,1,0,.81Z" style="fill:#e0e0e0"></path><path d="M100.92,360.83H83.67a.42.42,0,0,1-.41-.41.41.41,0,0,1,.41-.41h17.25a.4.4,0,0,1,.4.41A.41.41,0,0,1,100.92,360.83Z" style="fill:#e0e0e0"></path><path d="M99.08,358.65H85.5a.41.41,0,1,1,0-.81H99.08a.41.41,0,1,1,0,.81Z" style="fill:#e0e0e0"></path><path d="M95.2,356.49H89.38a.41.41,0,0,1-.41-.41.41.41,0,0,1,.41-.41H95.2a.41.41,0,0,1,.41.41A.41.41,0,0,1,95.2,356.49Z" style="fill:#e0e0e0"></path><rect x="398.65" y="349.62" width="42.51" height="32.44" rx="2.39" transform="translate(839.81 731.68) rotate(180)" style="fill:#e0e0e0"></rect><rect x="382.31" y="349.62" width="42.51" height="32.44" rx="2.39" transform="translate(807.12 731.68) rotate(180)" style="fill:#f0f0f0"></rect><path d="M400.64,376h5.83a.41.41,0,0,0,.41-.41.41.41,0,0,0-.41-.41h-5.83a.41.41,0,0,0-.4.41A.4.4,0,0,0,400.64,376Z" style="fill:#e0e0e0"></path><path d="M396.77,373.85h13.58a.41.41,0,0,0,.4-.41.4.4,0,0,0-.4-.41H396.77a.41.41,0,0,0-.41.41A.41.41,0,0,0,396.77,373.85Z" style="fill:#e0e0e0"></path><path d="M394.93,371.67h17.25a.41.41,0,1,0,0-.81H394.93a.41.41,0,1,0,0,.81Z" style="fill:#e0e0e0"></path><path d="M393.9,369.51h19.31a.41.41,0,0,0,.41-.41.41.41,0,0,0-.41-.41H393.9a.41.41,0,0,0-.41.41A.42.42,0,0,0,393.9,369.51Z" style="fill:#e0e0e0"></path><path d="M393.43,367.33h20.26a.41.41,0,1,0,0-.81H393.43a.41.41,0,1,0,0,.81Z" style="fill:#e0e0e0"></path><path d="M393.43,365.17h20.26a.42.42,0,0,0,.41-.41.41.41,0,0,0-.41-.41H393.43a.41.41,0,0,0-.41.41A.41.41,0,0,0,393.43,365.17Z" style="fill:#e0e0e0"></path><path d="M393.9,363h19.31a.41.41,0,1,0,0-.81H393.9a.41.41,0,1,0,0,.81Z" style="fill:#e0e0e0"></path><path d="M394.93,360.83h17.25a.42.42,0,0,0,.41-.41.41.41,0,0,0-.41-.41H394.93a.41.41,0,0,0-.41.41A.42.42,0,0,0,394.93,360.83Z" style="fill:#e0e0e0"></path><path d="M396.77,358.65h13.58a.41.41,0,0,0,0-.81H396.77a.41.41,0,1,0,0,.81Z" style="fill:#e0e0e0"></path><path d="M400.64,356.49h5.83a.41.41,0,0,0,.41-.41.41.41,0,0,0-.41-.41h-5.83a.4.4,0,0,0-.4.41A.41.41,0,0,0,400.64,356.49Z" style="fill:#e0e0e0"></path></g><g id="freepik--Shadow--inject-69"><ellipse id="freepik--path--inject-69" cx="250" cy="416.24" rx="193.89" ry="11.32" style="fill:#f5f5f5"></ellipse></g><g id="freepik--Plant--inject-69"><path d="M79.34,348.18s6.35-5.3,11.79,0,6.5,38.07,6.5,38.07" style="fill:none;stroke:#00678F;stroke-miterlimit:10"></path><path d="M98.08,392.58s-3.74-38.47,10.34-54.64" style="fill:none;stroke:#00678F;stroke-miterlimit:10"></path><path d="M96.74,388.53s2.88-43.8-7.69-53.52" style="fill:none;stroke:#00678F;stroke-miterlimit:10"></path><path d="M98.08,388.53s.24-28.95,8.1-33.44S118,365.26,118,365.26" style="fill:none;stroke:#00678F;stroke-miterlimit:10"></path><path d="M95,388.53s1.28-22.22-4.81-30.16-12.48,3.4-12.48,3.4" style="fill:none;stroke:#00678F;stroke-miterlimit:10"></path><path d="M97.1,391.5s-3.94-52,2.57-60.76" style="fill:none;stroke:#00678F;stroke-miterlimit:10"></path><path d="M112.9,359.3s-3.92,1.45-2.75,4.85,13.54,9,13.54,9,5.19-4.75.42-12.48S113,356.86,112.9,359.3Z" style="fill:#00678F"></path><path d="M112.9,359.3s-3.92,1.45-2.75,4.85,13.54,9,13.54,9,5.19-4.75.42-12.48S113,356.86,112.9,359.3Z" style="fill:#fff;opacity:0.2;isolation:isolate"></path><path d="M95.88,352.82s4.17-.18,4.41,3.41-9,13.54-9,13.54-6.61-2.39-5.19-11.36S94.84,350.61,95.88,352.82Z" style="fill:#00678F"></path><path d="M95.88,352.82s4.17-.18,4.41,3.41-9,13.54-9,13.54-6.61-2.39-5.19-11.36S94.84,350.61,95.88,352.82Z" style="fill:#fff;opacity:0.2;isolation:isolate"></path><path d="M92.35,335.62s2.78-.3,2.56-2-10.81-6.05-17,1c0,0,4,6.87,9.77,7S92.35,335.62,92.35,335.62Z" style="fill:#00678F"></path><path d="M92.35,335.62s2.78-.3,2.56-2-10.81-6.05-17,1c0,0,4,6.87,9.77,7S92.35,335.62,92.35,335.62Z" style="fill:#fff;opacity:0.2;isolation:isolate"></path><path d="M97.53,331.51s-2.52,1.21-3.22-.34,6-10.85,15-8.17c0,0,.24,7.94-4.62,11.07S97.53,331.51,97.53,331.51Z" style="fill:#00678F"></path><path d="M97.53,331.51s-2.52,1.21-3.22-.34,6-10.85,15-8.17c0,0,.24,7.94-4.62,11.07S97.53,331.51,97.53,331.51Z" style="fill:#fff;opacity:0.2;isolation:isolate"></path><path d="M84.37,357.93s1.92-1.55-.15-2.3-12.23-.54-12.34,9.52c0,0,11.83,2,13.3-1.87S84.37,357.93,84.37,357.93Z" style="fill:#00678F"></path><path d="M84.37,357.93s1.92-1.55-.15-2.3-12.23-.54-12.34,9.52c0,0,11.83,2,13.3-1.87S84.37,357.93,84.37,357.93Z" style="fill:#fff;opacity:0.2;isolation:isolate"></path><path d="M108.49,335.36s-1.91-1.54.16-2.3,12.22-.54,12.33,9.52c0,0-11.83,2-13.3-1.87S108.49,335.36,108.49,335.36Z" style="fill:#00678F"></path><path d="M108.49,335.36s-1.91-1.54.16-2.3,12.22-.54,12.33,9.52c0,0-11.83,2-13.3-1.87S108.49,335.36,108.49,335.36Z" style="fill:#fff;opacity:0.2;isolation:isolate"></path><path d="M102.24,343.47s-.17-1.88,1.35-1.14,6.82,6.45,1.33,11.87c0,0-7.39-5.48-6.06-8.32S102.24,343.47,102.24,343.47Z" style="fill:#00678F"></path><path d="M102.24,343.47s-.17-1.88,1.35-1.14,6.82,6.45,1.33,11.87c0,0-7.39-5.48-6.06-8.32S102.24,343.47,102.24,343.47Z" style="fill:#fff;opacity:0.2;isolation:isolate"></path><path d="M82.65,346.15s1.15-1.5-.53-1.69-9.2,1.83-7.45,9.34c0,0,9.17-.69,9.56-3.81S82.65,346.15,82.65,346.15Z" style="fill:#00678F"></path><path d="M82.65,346.15s1.15-1.5-.53-1.69-9.2,1.83-7.45,9.34c0,0,9.17-.69,9.56-3.81S82.65,346.15,82.65,346.15Z" style="fill:#fff;opacity:0.2;isolation:isolate"></path><polygon points="113.63 416.42 82.17 416.42 78.78 381.98 117.03 381.98 113.63 416.42" style="fill:#00678F"></polygon><polygon points="113.63 416.42 82.17 416.42 78.78 381.98 117.03 381.98 113.63 416.42" style="fill:#fff;opacity:0.5;isolation:isolate"></polygon><rect x="77.1" y="378.17" width="41.61" height="7.6" style="fill:#00678F"></rect><rect x="77.1" y="378.17" width="41.61" height="7.6" style="fill:#fff;opacity:0.2;isolation:isolate"></rect></g><g id="freepik--trash-bin--inject-69"><path d="M409.67,397.93a2.23,2.23,0,0,0-1.78-3.19,4.75,4.75,0,0,0-1.5-5.19,1.1,1.1,0,0,0-.66-.29,1.27,1.27,0,0,0-.7.31l-4.16,3a2.64,2.64,0,0,0-.82.81c-.85,1.65,2.21,3.76.95,5.12-.36.39-.94.47-1.39.75-1,.62-1.11,2-1.57,3.05s-2.07,1.9-2.69.91c.46-1-.92-1.91-2-2s-2.29-.19-2.9-1.24c-1.59,1.38-5.13-2.48-5.05-4a3.07,3.07,0,0,0-2.48,2.54,18.6,18.6,0,0,0-.13,3.88c0,2.52-.85,5-.81,7.51,0,2,.79,4.15,2.59,4.93a6.73,6.73,0,0,0,2.79.38l20.45-.13a3.17,3.17,0,0,0,1.44-.24c.92-.48,1.12-1.69,1.2-2.73q.56-6.67,1.1-13.33Z" style="fill:#00678F"></path><path d="M409.67,397.93a2.23,2.23,0,0,0-1.78-3.19,4.75,4.75,0,0,0-1.5-5.19,1.1,1.1,0,0,0-.66-.29,1.27,1.27,0,0,0-.7.31l-4.16,3a2.64,2.64,0,0,0-.82.81c-.85,1.65,2.21,3.76.95,5.12-.36.39-.94.47-1.39.75-1,.62-1.11,2-1.57,3.05s-2.07,1.9-2.69.91c.46-1-.92-1.91-2-2s-2.29-.19-2.9-1.24c-1.59,1.38-5.13-2.48-5.05-4a3.07,3.07,0,0,0-2.48,2.54,18.6,18.6,0,0,0-.13,3.88c0,2.52-.85,5-.81,7.51,0,2,.79,4.15,2.59,4.93a6.73,6.73,0,0,0,2.79.38l20.45-.13a3.17,3.17,0,0,0,1.44-.24c.92-.48,1.12-1.69,1.2-2.73q.56-6.67,1.1-13.33Z" style="fill:#fff;opacity:0.30000000000000004;isolation:isolate"></path><path d="M410.87,376.31H379.13l.26,3.21.18,2.29.49,5.95.27,3.43.37,4.55.16,2,.05.58.19,2.3.25,3.14.16,2,.16,2,.19,2.3.14,1.74.15,1.95.07.85h29.13l.07-.85.15-1.95.15-1.75.18-2.3.17-2,.15-2,.26-3.15.18-2.29,0-.58.15-2,.38-4.55.27-3.42.48-6,.19-2.29.26-3.21Zm1.9,2.1h0l-.61-.61h.67Zm-.15,1.95-.06.77L409.72,384l-3.26-3.26,2.91-2.92h.69Zm-.82,10.16-2.08,2.08-3.26-3.26,3.26-3.25,2.25,2.25Zm-30.21-2.18h0l2.26-2.25,3.26,3.25-3.26,3.26-2.08-2.08ZM408.67,385l-3.26,3.26L402.15,385l3.26-3.26Zm-5.13-7.23h3.73l-1.86,1.87Zm.81,11.54-3.25,3.26-3.26-3.26,3.26-3.25Zm-10.82,4.31,3.26-3.25,3.25,3.25-3.25,3.26Zm2.2,4.31-3.26,3.26L389.22,398l3.26-3.26Zm5.37-3.25,3.25,3.26-3.25,3.25L397.84,398Zm-4.31-6.42L393.53,385l3.26-3.26L400,385Zm-1.06,1-3.25,3.26-3.26-3.26,3.26-3.25Zm-7.57-1L384.91,385l3.25-3.26,3.26,3.26Zm0,2.11,3.26,3.25-3.26,3.26-3.25-3.26Zm3.26,11.88-3.26,3.25-3.25-3.25,3.25-3.26Zm1.05,1.05,3.26,3.26-3.25,3.26-3.26-3.26Zm1.06-1.05,3.26-3.26,3.25,3.26-3.25,3.25Zm7.57,1.05,3.25,3.26-3.25,3.26-3.26-3.26Zm4.31,4.31,3.26,3.26L406.56,413h-2.3l-2.11-2.11Zm-3.26-5.36,3.26-3.26,3.26,3.26-3.26,3.25Zm0-8.63,3.26-3.25,3.26,3.25-3.26,3.26Zm2.2-12.93L401.1,384l-3.26-3.26,2.91-2.92h.69Zm-7.56-1.05-1.87-1.87h3.72Zm-1.06,1.05L392.48,384l-3.26-3.26,2.91-2.92h.69ZM390,377.8l-1.86,1.87-1.86-1.87Zm-5.83,0,2.92,2.92L383.85,384,381,381.13l-.06-.77,2.55-2.56Zm-2.79,0-.6.6h0l-.06-.6Zm-.2,5.63,1.6,1.6-1.36,1.35Zm.89,10.93-.13-1.55h0l.84.84-.71.71Zm.15,2,1.61-1.61,3.26,3.26-3.26,3.25-1.32-1.32Zm.49,6v-.14l.08.08-.07.06Zm.57,7-.41-5,1-1,3.26,3.26-3.26,3.25-.55-.55Zm.29,3.72-.06-.75.32-.31,1.06,1.06Zm1.32-2.11,3.25-3.26,3.26,3.26L389.31,413H387Zm6.51,2.11,1.06-1.06,1,1.06Zm4.22,0-2.11-2.11,3.26-3.26L400,410.9,397.93,413Zm4.4,0L401.1,412l1.06,1.06Zm9.93,0h-1.31l1.06-1.06.31.31Zm.31-3.72-.56.55-3.26-3.25,3.26-3.26,1,1Zm.57-7.1v.15l-.07-.06.08-.09Zm.19-2.29-1.32,1.32L406.46,398l3.26-3.26,1.61,1.61Zm.44-5.54-.71-.71.84-.84Zm.89-10.94-.24,3L410.77,385l1.6-1.61Z" style="fill:#00678F"></path><g style="opacity:0.6000000000000001;isolation:isolate"><path d="M410.87,376.31H379.13l.26,3.21.18,2.29.49,5.95.27,3.43.37,4.55.16,2,.05.58.19,2.3.25,3.14.16,2,.16,2,.19,2.3.14,1.74.15,1.95.07.85h29.13l.07-.85.15-1.95.15-1.75.18-2.3.17-2,.15-2,.26-3.15.18-2.29,0-.58.15-2,.38-4.55.27-3.42.48-6,.19-2.29.26-3.21Zm1.9,2.1h0l-.61-.61h.67Zm-.15,1.95-.06.77L409.72,384l-3.26-3.26,2.91-2.92h.69Zm-.82,10.16-2.08,2.08-3.26-3.26,3.26-3.25,2.25,2.25Zm-30.21-2.18h0l2.26-2.25,3.26,3.25-3.26,3.26-2.08-2.08ZM408.67,385l-3.26,3.26L402.15,385l3.26-3.26Zm-5.13-7.23h3.73l-1.86,1.87Zm.81,11.54-3.25,3.26-3.26-3.26,3.26-3.25Zm-10.82,4.31,3.26-3.25,3.25,3.25-3.25,3.26Zm2.2,4.31-3.26,3.26L389.22,398l3.26-3.26Zm5.37-3.25,3.25,3.26-3.25,3.25L397.84,398Zm-4.31-6.42L393.53,385l3.26-3.26L400,385Zm-1.06,1-3.25,3.26-3.26-3.26,3.26-3.25Zm-7.57-1L384.91,385l3.25-3.26,3.26,3.26Zm0,2.11,3.26,3.25-3.26,3.26-3.25-3.26Zm3.26,11.88-3.26,3.25-3.25-3.25,3.25-3.26Zm1.05,1.05,3.26,3.26-3.25,3.26-3.26-3.26Zm1.06-1.05,3.26-3.26,3.25,3.26-3.25,3.25Zm7.57,1.05,3.25,3.26-3.25,3.26-3.26-3.26Zm4.31,4.31,3.26,3.26L406.56,413h-2.3l-2.11-2.11Zm-3.26-5.36,3.26-3.26,3.26,3.26-3.26,3.25Zm0-8.63,3.26-3.25,3.26,3.25-3.26,3.26Zm2.2-12.93L401.1,384l-3.26-3.26,2.91-2.92h.69Zm-7.56-1.05-1.87-1.87h3.72Zm-1.06,1.05L392.48,384l-3.26-3.26,2.91-2.92h.69ZM390,377.8l-1.86,1.87-1.86-1.87Zm-5.83,0,2.92,2.92L383.85,384,381,381.13l-.06-.77,2.55-2.56Zm-2.79,0-.6.6h0l-.06-.6Zm-.2,5.63,1.6,1.6-1.36,1.35Zm.89,10.93-.13-1.55h0l.84.84-.71.71Zm.15,2,1.61-1.61,3.26,3.26-3.26,3.25-1.32-1.32Zm.49,6v-.14l.08.08-.07.06Zm.57,7-.41-5,1-1,3.26,3.26-3.26,3.25-.55-.55Zm.29,3.72-.06-.75.32-.31,1.06,1.06Zm1.32-2.11,3.25-3.26,3.26,3.26L389.31,413H387Zm6.51,2.11,1.06-1.06,1,1.06Zm4.22,0-2.11-2.11,3.26-3.26L400,410.9,397.93,413Zm4.4,0L401.1,412l1.06,1.06Zm9.93,0h-1.31l1.06-1.06.31.31Zm.31-3.72-.56.55-3.26-3.25,3.26-3.26,1,1Zm.57-7.1v.15l-.07-.06.08-.09Zm.19-2.29-1.32,1.32L406.46,398l3.26-3.26,1.61,1.61Zm.44-5.54-.71-.71.84-.84Zm.89-10.94-.24,3L410.77,385l1.6-1.61Z" style="fill:#fff"></path></g><rect x="377.09" y="374.98" width="39.38" height="4.15" rx="1.64" transform="translate(793.57 754.11) rotate(180)" style="fill:#00678F"></rect><rect x="379.93" y="412.27" width="33.7" height="4.15" rx="1.64" style="fill:#00678F"></rect></g><g id="freepik--Switches--inject-69"><path d="M79,108a4.56,4.56,0,0,0-4.56,4.55v154A4.57,4.57,0,0,0,79,271.13H348.1a4.56,4.56,0,0,0,4.56-4.56v-154A4.56,4.56,0,0,0,348.1,108Z" style="fill:#00678F;opacity:0.8"></path><path d="M84,103a4.56,4.56,0,0,0-4.56,4.55v154A4.57,4.57,0,0,0,84,266.13H353.1a4.56,4.56,0,0,0,4.56-4.56v-154A4.56,4.56,0,0,0,353.1,103Z" style="fill:#00678F"></path><path d="M84,103a4.56,4.56,0,0,0-4.56,4.55v154A4.57,4.57,0,0,0,84,266.13H353.1a4.56,4.56,0,0,0,4.56-4.56v-154A4.56,4.56,0,0,0,353.1,103Z" style="fill:#fff;opacity:0.8"></path><polygon points="331.3 130.38 329.3 126.21 294.75 126.21 294.75 242.95 329.3 242.95 331.3 238.78 331.3 130.38" style="fill:#00678F"></polygon><polygon points="300.51 130.38 294.75 126.21 294.75 242.95 300.51 238.78 300.51 130.38" style="opacity:0.2;isolation:isolate"></polygon><polygon points="294.75 126.21 300.51 130.38 331.3 130.38 329.3 126.21 294.75 126.21" style="fill:#fff;opacity:0.2"></polygon><polygon points="300.51 238.78 331.3 238.78 329.3 242.95 294.75 242.95 300.51 238.78" style="opacity:0.4;isolation:isolate"></polygon><g style="opacity:0.30000000000000004"><path d="M315.91,147.62a6,6,0,1,1,6-6A6,6,0,0,1,315.91,147.62Zm0-10a4,4,0,1,0,4,4A4,4,0,0,0,315.91,137.66Z" style="fill:#fff"></path><path d="M315.91,233.5a1,1,0,0,1-1-1v-10a1,1,0,0,1,2,0v10A1,1,0,0,1,315.91,233.5Z" style="fill:#fff"></path></g><rect x="303.51" y="153.38" width="24.8" height="62.4" style="fill:#263238"></rect><path d="M348.31,172.78l-2.18-18.55h-20l-22.62.05V215h20a228.93,228.93,0,0,0,1.68-29.77v0l23.11-6.13.72-.19Z" style="fill:#00678F"></path><path d="M348.31,172.78l-2.18-18.55h-20l-22.62.05V215h20a228.93,228.93,0,0,0,1.68-29.77v0l23.11-6.13.72-.19Z" style="fill:#fff;opacity:0.4"></path><polygon points="326.13 154.23 346.13 154.23 349.03 178.91 329.03 178.91 326.13 154.23" style="fill:#fff;opacity:0.2"></polygon><polygon points="305.19 185.21 325.2 185.23 349.03 178.91 329.03 178.91 305.19 185.21" style="opacity:0.4;isolation:isolate"></polygon><path d="M329,178.91l-.72.19-23.11,6.13v0A228.93,228.93,0,0,1,303.51,215v-60.7c.27,1.89.52,4.06.74,6.45l21.88-6.5,2.18,18.55Z" style="opacity:0.2;isolation:isolate"></path><polygon points="268.82 130.38 266.82 126.21 232.27 126.21 232.27 242.95 266.82 242.95 268.82 238.78 268.82 130.38" style="fill:#00678F"></polygon><polygon points="238.03 130.38 232.27 126.21 232.27 242.95 238.03 238.78 238.03 130.38" style="opacity:0.2;isolation:isolate"></polygon><polygon points="232.27 126.21 238.03 130.38 268.82 130.38 266.82 126.21 232.27 126.21" style="fill:#fff;opacity:0.2"></polygon><polygon points="238.03 238.78 268.82 238.78 266.82 242.95 232.27 242.95 238.03 238.78" style="opacity:0.4;isolation:isolate"></polygon><g style="opacity:0.30000000000000004"><path d="M253.43,147.62a6,6,0,1,1,6-6A6,6,0,0,1,253.43,147.62Zm0-10a4,4,0,1,0,4,4A4,4,0,0,0,253.43,137.66Z" style="fill:#fff"></path><path d="M253.43,233.5a1,1,0,0,1-1-1v-10a1,1,0,0,1,2,0v10A1,1,0,0,1,253.43,233.5Z" style="fill:#fff"></path></g><rect x="241.03" y="153.38" width="24.8" height="62.4" style="fill:#263238"></rect><path d="M285.83,172.78l-2.18-18.55h-20l-22.62.05V215h20a228.93,228.93,0,0,0,1.68-29.77v0l23.11-6.13.72-.19Z" style="fill:#00678F"></path><path d="M285.83,172.78l-2.18-18.55h-20l-22.62.05V215h20a228.93,228.93,0,0,0,1.68-29.77v0l23.11-6.13.72-.19Z" style="fill:#fff;opacity:0.4"></path><polygon points="263.65 154.23 283.65 154.23 286.55 178.91 266.55 178.91 263.65 154.23" style="fill:#fff;opacity:0.2"></polygon><polygon points="242.71 185.21 262.72 185.23 286.55 178.91 266.55 178.91 242.71 185.21" style="opacity:0.4;isolation:isolate"></polygon><path d="M266.55,178.91l-.72.19-23.11,6.13v0A228.93,228.93,0,0,1,241,215v-60.7c.27,1.89.52,4.06.74,6.45l21.88-6.5,2.18,18.55Z" style="opacity:0.2;isolation:isolate"></path><polygon points="206.34 130.38 204.34 126.21 169.79 126.21 169.79 242.95 204.34 242.95 206.34 238.78 206.34 130.38" style="fill:#00678F"></polygon><polygon points="175.55 130.38 169.79 126.21 169.79 242.95 175.55 238.78 175.55 130.38" style="opacity:0.2;isolation:isolate"></polygon><polygon points="169.79 126.21 175.55 130.38 206.34 130.38 204.34 126.21 169.79 126.21" style="fill:#fff;opacity:0.2"></polygon><polygon points="175.55 238.78 206.34 238.78 204.34 242.95 169.79 242.95 175.55 238.78" style="opacity:0.4;isolation:isolate"></polygon><g style="opacity:0.30000000000000004"><path d="M190.94,147.62a6,6,0,1,1,6-6A6,6,0,0,1,190.94,147.62Zm0-10a4,4,0,1,0,4,4A4,4,0,0,0,190.94,137.66Z" style="fill:#fff"></path><path d="M190.94,233.5a1,1,0,0,1-1-1v-10a1,1,0,0,1,2,0v10A1,1,0,0,1,190.94,233.5Z" style="fill:#fff"></path></g><rect x="178.54" y="153.38" width="24.8" height="62.4" style="fill:#263238"></rect><path d="M223.34,196.43,221.16,215h-20l-22.62,0v-60.7h20A228.93,228.93,0,0,1,200.22,184v0l23.11,6.13.72.19Z" style="fill:#00678F"></path><path d="M223.34,196.43,221.16,215h-20l-22.62,0v-60.7h20A228.93,228.93,0,0,1,200.22,184v0l23.11,6.13.72.19Z" style="fill:#fff;opacity:0.4"></path><polygon points="201.16 214.98 221.16 214.98 224.06 190.3 204.06 190.3 201.16 214.98" style="fill:#fff;opacity:0.2"></polygon><polygon points="180.22 184 200.24 183.98 224.06 190.3 204.06 190.3 180.22 184" style="fill:#fff;opacity:0.4"></polygon><path d="M204.06,190.3l-.72-.19L180.23,184v0a228.93,228.93,0,0,0-1.68-29.77v60.7c.27-1.89.52-4.06.74-6.45l21.88,6.5,2.18-18.55Z" style="opacity:0.2;isolation:isolate"></path><polygon points="143.86 130.38 141.86 126.21 107.31 126.21 107.31 242.95 141.86 242.95 143.86 238.78 143.86 130.38" style="fill:#00678F"></polygon><polygon points="113.07 130.38 107.31 126.21 107.31 242.95 113.07 238.78 113.07 130.38" style="opacity:0.2;isolation:isolate"></polygon><polygon points="107.31 126.21 113.07 130.38 143.86 130.38 141.86 126.21 107.31 126.21" style="fill:#fff;opacity:0.2"></polygon><polygon points="113.07 238.78 143.86 238.78 141.86 242.95 107.31 242.95 113.07 238.78" style="opacity:0.4;isolation:isolate"></polygon><g style="opacity:0.30000000000000004"><path d="M128.46,147.62a6,6,0,1,1,6-6A6,6,0,0,1,128.46,147.62Zm0-10a4,4,0,1,0,4,4A4,4,0,0,0,128.46,137.66Z" style="fill:#fff"></path><path d="M128.46,233.5a1,1,0,0,1-1-1v-10a1,1,0,0,1,2,0v10A1,1,0,0,1,128.46,233.5Z" style="fill:#fff"></path></g><rect x="116.06" y="153.38" width="24.8" height="62.4" style="fill:#263238"></rect><path d="M160.86,196.43,158.68,215h-20l-22.62,0v-60.7h20A228.93,228.93,0,0,1,137.74,184v0l23.11,6.13.72.19Z" style="fill:#00678F"></path><path d="M160.86,196.43,158.68,215h-20l-22.62,0v-60.7h20A228.93,228.93,0,0,1,137.74,184v0l23.11,6.13.72.19Z" style="fill:#fff;opacity:0.4"></path><polygon points="138.68 214.98 158.68 214.98 161.58 190.3 141.58 190.3 138.68 214.98" style="fill:#fff;opacity:0.2"></polygon><polygon points="117.74 184 137.75 183.98 161.58 190.3 141.58 190.3 117.74 184" style="fill:#fff;opacity:0.4"></polygon><path d="M141.58,190.3l-.72-.19L117.75,184v0a228.93,228.93,0,0,0-1.68-29.77v60.7c.27-1.89.52-4.06.74-6.45l21.88,6.5,2.18-18.55Z" style="opacity:0.2;isolation:isolate"></path></g><g id="freepik--Character--inject-69"><g id="freepik--group--inject-69"><path d="M363.13,188.05s10.53,19.72,11.22,24.4S364,246.57,364,246.57s2,7.89-.46,9.14-6.88,3.79-7.43,1.52.27-9.7.27-9.7l1.89-1.53s7.41-30.89,7.45-32-11.36-19.73-11.36-19.73Z" style="fill:#9f5b53"></path><path d="M375,213.46c-.06,3.61-7.35,27.06-7.35,27.06l-8.52-1s4.37-23.23,4.36-25.49a9.79,9.79,0,0,0-1.31-3.3c-1.25-2.35-3.22-5.47-5.12-8.36-2.82-4.29-5.5-8.07-5.5-8.07l7-5.66s.52-1.6,1.27-3.26c.89-2,2.11-4,3.17-3.68C367,183,375.11,209.86,375,213.46Z" style="fill:#263238"></path><polygon points="359.28 235.93 369.93 237.7 367.69 240.53 359.17 239.48 359.28 235.93" style="fill:#00678F"></polygon><polygon points="359.28 235.93 369.93 237.7 367.69 240.53 359.17 239.48 359.28 235.93" style="fill:#fff;opacity:0.6000000000000001"></polygon><path d="M362.22,210.69c-1.25-2.35-3.22-5.47-5.12-8.36-2.82-4.29-5.5-8.07-5.5-8.07l7-5.66s.52-1.6,1.27-3.26C361.81,188.94,367.2,200.42,362.22,210.69Z" style="opacity:0.2;isolation:isolate"></path><path d="M334,166.58a8.79,8.79,0,0,0,.32,1,10.28,10.28,0,0,0,5,5.66,9.26,9.26,0,0,0,7.95.36,9.36,9.36,0,0,0,3-2.1c3.68-3.72,3.58-8,4-15.26a10,10,0,0,0-13.74-9.93C333.35,149.24,332.38,160,334,166.58Z" style="fill:#9f5b53"></path><path d="M337.9,172.45a10.11,10.11,0,0,0,1.33.82,9.26,9.26,0,0,0,7.95.36,10.68,10.68,0,0,0-1.3-2.47A14.3,14.3,0,0,0,337.9,172.45Z" style="opacity:0.2;isolation:isolate"></path><path d="M352.51,181.87c-3.58,3.25-12.34,2-12.34,2s-5.47-1.5-4.32-3.21c3.22-.53,4.78-2,5.42-4a9.29,9.29,0,0,0,.33-3.68,20.55,20.55,0,0,0-.27-2l10.83-8C350.74,168.29,349,178,352.51,181.87Z" style="fill:#9f5b53"></path><path d="M342.54,143.21s-1.92-1.18-5.2,1.91c-2.76,2.61,0,4.7-1.65,8s.58,6.62.58,6.62,1.6,3.44,4.37,3.22c0,0,2.26,2.74,1.9,5.57s3.7,5.07,9.24,5,3.33-3.53,3.33-3.53a22.83,22.83,0,0,0,3.84-6.22,21.35,21.35,0,0,0,1.57-8.67,11.59,11.59,0,0,0-3.2-8.4C353.63,142.59,344.81,140.5,342.54,143.21Z" style="fill:#263238"></path><path d="M342,161.42a4.72,4.72,0,0,1-2.41,3.23c-1.48.62-2.45-1.46-2.24-3.64.2-1.94,1.21-4.66,2.79-4.3S342.54,159.47,342,161.42Z" style="fill:#9f5b53"></path><path d="M353.39,181.18l-1.6-4.12S341,175,337.34,180.36,353.39,181.18,353.39,181.18Z" style="fill:#00678F"></path><path d="M353.39,181.18l-1.6-4.12S341,175,337.34,180.36,353.39,181.18,353.39,181.18Z" style="fill:#fff;opacity:0.6000000000000001"></path><polygon points="324.59 409.47 317.02 410.26 316.64 405.87 315.6 393.93 323.17 393.13 324.32 406.32 324.59 409.47" style="fill:#9f5b53"></polygon><polygon points="362.38 408.5 355.05 408.5 354.98 406.84 354.97 406.64 354.6 395.99 354.59 395.78 354.44 391.7 361.79 391.7 362.38 408.5" style="fill:#9f5b53"></polygon><polygon points="323.17 393.13 324.32 406.32 316.64 405.87 315.6 393.93 323.17 393.13" style="opacity:0.2;isolation:isolate"></polygon><polygon points="362.34 407.57 362.33 407.57 354.98 406.64 354.97 406.64 354.59 396.37 354.6 396.37 361.95 396.95 362.33 407.25 362.34 407.57" style="opacity:0.2;isolation:isolate"></polygon><path d="M354,408.06h8.91a.65.65,0,0,1,.63.51L365,415.1a1.09,1.09,0,0,1-.84,1.29l-.24,0c-2.88-.05-5-.22-8.6-.22-2.24,0-9,.23-12,.23s-3.48-3.05-2.22-3.33c5.66-1.23,9.91-2.94,11.73-4.56A1.74,1.74,0,0,1,354,408.06Z" style="fill:#263238"></path><path d="M316.22,407.83h8.91a.65.65,0,0,1,.63.5l1.45,6.54a1.08,1.08,0,0,1-.84,1.28,1,1,0,0,1-.24,0c-2.88-.05-5-.23-8.61-.23-2.23,0-9,.24-12,.24s-3.48-3.05-2.22-3.33c5.66-1.23,9.91-2.94,11.72-4.56A1.78,1.78,0,0,1,316.22,407.83Z" style="fill:#263238"></path><path d="M314.9,404.77h10.77s-.88-92.67,10.76-124c.83,10.34,1.75,21.08,2.66,30,.56,5.54,1.13,10.29,1.66,13.92,3.39,23.34,11.94,80.95,11.94,80.95h10.63s-1.26-55.21-2.52-78.15c-1.39-24.89-2-79.63-2-84.3H319.81C316.1,262.86,306.6,341.28,314.9,404.77Z" style="fill:#00678F"></path><path d="M336.43,280.77c.83,10.34,1.75,21.1,2.66,30,1.32-12.91,3-22.12,3-22.12s1.52-1.25,5.7-7.92,0-19.14,0-19.14C347.87,273.2,336.43,280.77,336.43,280.77Z" style="opacity:0.2;isolation:isolate"></path><polygon points="313.7 401.74 314.22 404.77 326.94 404.77 326.94 401.97 313.7 401.74" style="fill:#00678F"></polygon><polygon points="351.47 402.9 352.69 405.7 363.36 405.7 364.06 402.9 351.47 402.9" style="fill:#00678F"></polygon><path d="M359.72,245.85s-1.5-16.93.73-42.69c.58-6.63,1.4-13.84,2.56-21.5,0,0-21.19-4.68-36,0,0,0-.6,3.13-1.44,8.46-.51,3.22-1.1,7.23-1.69,11.83h0c0,.17-.05.35-.07.52-1.47,11.23-4.27,27.64-4.55,42.71Z" style="fill:#263238"></path><path d="M323.85,202.48c3-2.71,4.58-12.84,4.72-13.23l-3,.87c-.51,3.22-1.1,7.23-1.69,11.83h0C323.9,202.13,323.87,202.31,323.85,202.48Z" style="opacity:0.2;isolation:isolate"></path><path d="M325,192.18s-16.14.07-21.3-1.49S288,165,288,165l-7.82-3.81s1.77-6,4.1-6.22,7.17,5.78,7.69,7.08,14,18.78,14.72,19.73,20.1.06,20.1.06Z" style="fill:#9f5b53"></path><path d="M329.72,180.93c-5.16,1-20.91.83-22.38.29s-11.08-14.64-11.08-14.64l-6,6.65s8.93,17.64,11.27,19,23.27,3.16,23.27,3.16C330.61,189.42,329.72,180.93,329.72,180.93Z" style="fill:#263238"></path><polygon points="313.7 401.74 314.22 404.77 326.94 404.77 326.94 401.97 313.7 401.74" style="fill:#fff;opacity:0.6000000000000001"></polygon><polygon points="351.47 402.9 352.69 405.7 363.36 405.7 364.06 402.9 351.47 402.9" style="fill:#fff;opacity:0.6000000000000001"></polygon><polygon points="292.07 176.66 297.97 169.06 296.26 166.58 290.29 173.23 292.07 176.66" style="fill:#00678F"></polygon><polygon points="292.07 176.66 297.97 169.06 296.26 166.58 290.29 173.23 292.07 176.66" style="fill:#fff;opacity:0.6000000000000001"></polygon></g></g></svg>