<svg width="17" height="16" viewBox="0 0 17 16" fill="none" xmlns="http://www.w3.org/2000/svg">
    <path d="M0.000886047 9.52883C0.193634 9.06579 0.411194 8.92046 0.912338 8.92001C1.0559 8.92001 1.19991 8.91824 1.34347 8.9209C1.77505 8.92799 2.11047 9.24746 2.13396 9.6786C2.15301 10.0211 2.22435 10.3463 2.42818 10.6304C2.75607 11.0872 3.21423 11.3043 3.765 11.3052C6.8432 11.3105 9.92096 11.3079 12.9992 11.3079C13.0253 11.3079 13.0519 11.3043 13.1259 11.2986C12.9128 11.0894 12.7249 10.9073 12.5392 10.7225C12.2158 10.4 12.2158 10.1186 12.5374 9.79602C12.7324 9.60061 12.9265 9.40343 13.1241 9.21024C13.3807 8.95945 13.6891 8.95812 13.9443 9.21246C14.9187 10.1837 15.8913 11.1572 16.8634 12.1311C17.0446 12.3124 17.0455 12.4493 16.8661 12.6292C15.8939 13.6031 14.9213 14.5766 13.9469 15.5479C13.6864 15.8075 13.3789 15.8035 13.1144 15.5434C12.9057 15.3378 12.6987 15.1309 12.4931 14.9222C12.2326 14.6577 12.2313 14.3528 12.4896 14.0901C12.6894 13.8871 12.8928 13.6877 13.1024 13.479C13.0169 13.4401 12.95 13.4551 12.8862 13.4551C9.86911 13.4542 6.85162 13.4268 3.83457 13.4644C1.92659 13.4879 0.275607 12.1041 0.0194961 10.2555C0.0163944 10.2338 0.00664647 10.2134 0 10.1926C0.000886195 9.97104 0.000886047 9.74993 0.000886047 9.52883Z" fill="white"/>
    <path d="M0.00109863 3.22692C0.994081 2.23438 1.98662 1.24184 2.9796 0.2493C3.31148 -0.0821368 3.58886 -0.0830233 3.91853 0.246198C4.11393 0.441604 4.31155 0.634796 4.5043 0.833303C4.74756 1.08365 4.748 1.39205 4.50253 1.64196C4.30181 1.84667 4.09311 2.04385 3.87555 2.25653C3.95796 2.30129 4.02398 2.28578 4.08557 2.28578C7.12567 2.28666 10.1658 2.30527 13.2059 2.27957C15.0221 2.26407 16.6314 3.57165 16.9443 5.36265C16.9855 5.59793 17.0032 5.8341 16.9935 6.07205C16.9766 6.46773 16.639 6.80493 16.242 6.81822C16.0377 6.82487 15.833 6.8231 15.6283 6.81911C15.2078 6.81069 14.8737 6.48856 14.8502 6.06584C14.8311 5.72333 14.7602 5.3981 14.5577 5.11318C14.2316 4.65369 13.773 4.43657 13.2222 4.43569C10.1378 4.43037 7.05344 4.43303 3.96948 4.43303C3.94866 4.43303 3.92739 4.43746 3.85516 4.44544C4.09222 4.67629 4.30668 4.87878 4.51361 5.08881C4.69395 5.27181 4.73161 5.4969 4.63191 5.71314C4.59868 5.78492 4.54861 5.84297 4.49367 5.89791C4.2863 6.10484 4.0807 6.31353 3.872 6.51913C3.60127 6.78499 3.2973 6.78543 3.02746 6.51603C2.01808 5.50887 1.01003 4.49994 0.00154183 3.49189C0.00109873 3.40371 0.00109863 3.31509 0.00109863 3.22692Z" fill="white"/>
</svg>
