<svg width="28" height="30" viewBox="0 0 28 30" fill="none" xmlns="http://www.w3.org/2000/svg">
    <mask id="path-1-outside-1_157_350" maskUnits="userSpaceOnUse" x="0" y="0" width="28" height="30" fill="black">
        <rect fill="white" width="28" height="30"/>
        <path d="M14.128 1.00016C17.0229 1.00016 19.9178 1.00016 22.8133 1.00016C23.3618 1.00016 23.4186 1.05566 23.4186 1.59708C23.4186 5.67675 23.4186 9.75643 23.4186 13.8368C23.4186 14.242 23.4193 14.242 23.8039 14.1413C24.6415 13.9206 24.6396 13.9213 24.8648 14.7615C25.6295 17.6157 26.3955 20.4693 27.1602 23.3229C27.1866 23.4223 27.2157 23.5216 27.2363 23.6223C27.2879 23.8708 27.2118 24.0495 26.9511 24.1192C25.5888 24.4851 24.2279 24.8523 22.865 25.2143C22.5939 25.2866 22.4287 25.1588 22.3571 24.8987C22.2751 24.6012 22.1919 24.3038 22.119 24.0037C22.0764 23.8275 22.0041 23.7914 21.8389 23.8811C21.1097 24.2773 20.3418 24.5658 19.5151 24.6813C19.3454 24.7051 19.2828 24.7819 19.2815 24.9684C19.2777 25.677 18.8692 26.1042 18.1664 26.1416C17.987 26.1513 17.9199 26.2223 17.8702 26.3817C17.674 27.005 17.3082 27.2716 16.6583 27.2561C16.4492 27.2509 16.3311 27.289 16.2447 27.5103C16.0298 28.0634 15.4716 28.3357 14.8856 28.1905C14.6617 28.135 14.5527 28.1627 14.4372 28.3905C14.1145 29.03 13.2788 29.1907 12.6477 28.7558C12.4709 28.6338 12.3083 28.4873 12.1527 28.3376C12.0417 28.2305 11.9714 28.224 11.8475 28.3325C11.0467 29.0333 10.2213 28.8048 9.86445 27.7859C9.8167 27.6504 9.74571 27.5903 9.60955 27.5594C9.12944 27.4497 8.83776 27.1399 8.73902 26.663C8.70805 26.5127 8.64223 26.4669 8.50348 26.4346C8.0324 26.3255 7.71814 26.0416 7.60779 25.5595C7.57423 25.4137 7.49937 25.3259 7.35031 25.2898C6.77598 25.1498 6.48042 24.7723 6.44299 24.1902C6.43396 24.0514 6.39589 23.9237 6.25779 23.9101C6.0984 23.8946 6.12744 24.0624 6.09775 24.1592C6.03386 24.3657 5.98095 24.5754 5.92416 24.7839C5.80671 25.2169 5.68217 25.2969 5.26078 25.1846C3.96757 24.84 2.675 24.4928 1.38308 24.1431C1.01396 24.0431 0.940398 23.9114 1.04107 23.5274C1.30242 22.5317 1.56958 21.5373 1.83545 20.5429C2.36203 18.574 2.88989 16.6052 3.41712 14.6363C3.44938 14.5169 3.48294 14.3982 3.5223 14.2807C3.60103 14.0445 3.76559 13.9613 4.005 14.0233C4.19407 14.0723 4.38444 14.1188 4.57158 14.1755C4.75098 14.2304 4.85229 14.1994 4.83294 13.9852C4.82584 13.9032 4.83229 13.8206 4.83229 13.738C4.83229 9.69965 4.83229 5.66062 4.83229 1.62224C4.83229 1.05114 4.88198 1.00081 5.4434 1.00081C8.33828 0.999516 11.2332 1.00016 14.128 1.00016ZM14.13 1.65967C11.3693 1.65967 8.60802 1.6629 5.84737 1.65516C5.58666 1.65451 5.48728 1.71582 5.48728 1.99782C5.49567 6.0362 5.49438 10.0746 5.48922 14.1123C5.48922 14.3362 5.55891 14.4408 5.78284 14.4976C6.52108 14.6834 7.2548 14.8899 7.98917 15.0925C8.37765 15.1997 8.45121 15.332 8.35054 15.7249C8.29182 15.954 8.22729 16.1825 8.16856 16.4116C8.14533 16.5013 8.12339 16.5955 8.21051 16.6684C8.36861 16.8 9.00231 16.8 9.14622 16.6516C9.38756 16.4019 9.6786 16.3199 10.0148 16.3335C10.684 16.3606 11.3525 16.3625 12.0192 16.278C12.6922 16.1928 13.355 16.1115 13.9667 15.7533C14.7508 15.2939 15.6245 15.1222 16.5286 15.239C17.5198 15.3668 18.2839 15.9069 18.904 16.669C19.2435 17.0853 19.53 17.1685 19.9849 17.0085C20.154 16.9491 20.2121 16.8652 20.1592 16.6878C20.0624 16.3625 19.9772 16.0334 19.8939 15.7037C19.8004 15.3339 19.8823 15.1958 20.2534 15.0958C20.9587 14.9054 21.6627 14.706 22.3726 14.5343C22.661 14.4646 22.7649 14.3401 22.7643 14.0297C22.7533 10.0423 22.7572 6.05556 22.7572 2.0688C22.7572 1.66096 22.7565 1.65967 22.3506 1.65967C19.6106 1.65967 16.87 1.65967 14.13 1.65967ZM8.11436 22.4995C8.64352 22.5001 9.07071 22.8253 9.22043 23.361C9.2656 23.5223 9.31464 23.6229 9.50308 23.6655C9.96448 23.7707 10.2613 24.0727 10.3633 24.5361C10.3988 24.6968 10.4852 24.7593 10.6246 24.7955C11.0944 24.9174 11.3997 25.204 11.5074 25.6854C11.5358 25.8125 11.5836 25.8912 11.7359 25.93C12.5122 26.1281 12.8303 26.7553 12.5619 27.5232C12.5315 27.6097 12.4696 27.6968 12.5554 27.7801C12.7619 27.9795 12.9536 28.204 13.2401 28.2944C13.5931 28.4054 13.8841 28.1776 13.8777 27.8091C13.8731 27.5871 13.7667 27.4213 13.6221 27.2651C13.0549 26.6508 12.5528 25.9848 12.0818 25.295C11.8978 25.0259 11.9643 24.7626 12.2211 24.7C12.4296 24.6496 12.5457 24.7839 12.6529 24.9291C12.9594 25.3427 13.2556 25.7647 13.575 26.1681C13.9332 26.6204 14.3068 27.0625 14.7734 27.4097C15.0218 27.5949 15.3399 27.5813 15.5135 27.4097C15.702 27.2232 15.7 26.9108 15.5058 26.6456C15.4632 26.5875 15.4122 26.5359 15.3619 26.4843C14.5746 25.6757 13.9274 24.7593 13.302 23.8256C13.1652 23.6217 13.1104 23.4184 13.3491 23.2642C13.5769 23.117 13.7312 23.2577 13.8602 23.4448C14.1235 23.8262 14.3849 24.2095 14.6585 24.5832C15.1399 25.2408 15.6471 25.8777 16.2737 26.4055C16.5757 26.6598 16.9055 26.6579 17.1055 26.4301C17.2856 26.2249 17.2385 25.8332 16.9855 25.5918C15.8788 24.5367 15.0573 23.2635 14.23 21.9955C14.2074 21.9613 14.1874 21.9251 14.17 21.8877C14.0938 21.7231 14.1345 21.5831 14.2752 21.4779C14.4197 21.3702 14.572 21.3844 14.694 21.5108C14.7856 21.6057 14.8566 21.7225 14.9308 21.8335C15.7162 23.0183 16.4867 24.2153 17.5508 25.182C17.9186 25.5157 18.2045 25.5692 18.4504 25.3595C18.682 25.162 18.6833 24.8691 18.4039 24.469C17.4308 23.0757 16.4744 21.6702 15.4012 20.3499C14.9663 19.8143 14.5152 19.2884 13.9125 18.9263C13.6028 18.7405 13.2749 18.6237 12.9149 18.7734C12.2508 19.0496 11.5616 19.1135 10.8557 19.0225C10.1381 18.9302 9.4863 18.6708 9.16816 17.9855C8.97585 17.5705 8.73902 17.4118 8.30215 17.3795C8.00272 17.3576 7.88656 17.4137 7.81235 17.708C7.5297 18.8257 7.21931 19.9363 6.91988 21.0494C6.75726 21.656 6.59981 22.2639 6.43267 22.8692C6.37524 23.0757 6.46106 23.2074 6.62175 23.3106C6.78888 23.4177 6.86051 23.2629 6.95344 23.1796C7.04572 23.0977 7.13154 23.008 7.21608 22.9183C7.4613 22.6601 7.75105 22.5014 8.11436 22.4995ZM19.2796 24.0172C20.1391 23.9198 20.9297 23.6126 21.6814 23.1899C21.8544 23.0925 21.8402 22.957 21.7944 22.7918C21.595 22.0677 21.4053 21.3405 21.211 20.6151C20.9664 19.7007 20.7212 18.7863 20.4741 17.8726C20.4373 17.737 20.4263 17.5738 20.2005 17.6519C19.4119 17.9255 18.8195 17.6667 18.3097 17.024C17.6941 16.2483 16.8713 15.8327 15.8588 15.8863C15.2096 15.9205 14.612 16.1444 14.0519 16.4664C13.7802 16.6226 13.4943 16.7355 13.1878 16.7871C12.1521 16.9607 11.1164 17.1233 10.0593 17.0014C9.68441 16.9581 9.53792 17.1595 9.67279 17.5131C9.8238 17.908 10.1258 18.1475 10.524 18.2552C11.2725 18.4579 12.014 18.4314 12.7284 18.1152C12.9774 18.0048 13.222 17.9906 13.4808 18.0371C13.8744 18.1081 14.221 18.2823 14.5385 18.5198C14.9611 18.8367 15.327 19.2129 15.6684 19.6136C16.7854 20.9249 17.7431 22.3549 18.7349 23.7591C18.8782 23.9617 19.0305 24.0669 19.2796 24.0172ZM23.0547 24.4567C23.1166 24.4451 23.1476 24.4419 23.1773 24.4341C24.2111 24.1566 25.2442 23.8759 26.2787 23.6023C26.4916 23.5462 26.4845 23.4229 26.4387 23.2512C25.7011 20.508 24.9661 17.7635 24.2356 15.019C24.1827 14.8209 24.1072 14.757 23.891 14.8176C22.9198 15.09 21.946 15.352 20.9684 15.5991C20.687 15.6701 20.6089 15.7753 20.6896 16.0702C21.1652 17.7964 21.6221 19.5284 22.0848 21.2585C22.3481 22.2426 22.6081 23.228 22.8759 24.2108C22.9037 24.3147 22.8921 24.4799 23.0547 24.4567ZM7.60391 15.8805C7.63747 15.6914 7.50454 15.6598 7.36902 15.6236C6.38427 15.361 5.39823 15.1048 4.41735 14.8267C4.15148 14.7512 4.06501 14.826 3.9979 15.0816C3.28224 17.7887 2.55756 20.4932 1.82448 23.1958C1.75414 23.4552 1.80254 23.5642 2.06647 23.6307C3.03444 23.8759 4.00048 24.1282 4.96006 24.4031C5.24013 24.4832 5.32789 24.4135 5.39888 24.1444C5.99966 21.8651 6.61529 19.5897 7.22576 17.3124C7.35353 16.8355 7.47808 16.3574 7.60391 15.8805ZM7.60843 24.6238C7.63295 24.62 7.69297 24.6264 7.73298 24.6012C8.05757 24.3967 8.3428 24.1405 8.52607 23.8056C8.62222 23.63 8.57253 23.4203 8.39378 23.2796C8.22987 23.1506 8.04273 23.1319 7.87882 23.2525C7.61424 23.4468 7.36386 23.6694 7.1935 23.9508C7.00377 24.2663 7.22576 24.6284 7.60843 24.6238ZM9.23527 24.3328C9.19978 24.3386 9.12686 24.3302 9.08039 24.3612C8.76225 24.5735 8.47638 24.8271 8.29569 25.1653C8.2118 25.3214 8.25504 25.5131 8.40346 25.6434C8.5564 25.7777 8.74483 25.8209 8.91713 25.7131C9.21462 25.5266 9.47016 25.2801 9.65214 24.982C9.83348 24.6845 9.6102 24.3386 9.23527 24.3328ZM9.84832 26.907C9.86961 26.9044 9.91672 26.9108 9.95028 26.8928C10.3213 26.6959 10.6259 26.4185 10.8144 26.0448C10.9002 25.8745 10.8363 25.6776 10.6659 25.5505C10.4988 25.4253 10.3129 25.4143 10.1497 25.5357C9.88575 25.7325 9.64246 25.9609 9.45855 26.2345C9.27399 26.5088 9.49856 26.8953 9.84832 26.907ZM11.0338 28.0292C11.0647 28.0227 11.1377 28.0279 11.1822 27.9943C11.4797 27.7736 11.7546 27.5245 11.9469 27.2051C12.0598 27.0173 11.972 26.8431 11.8256 26.7095C11.6758 26.5733 11.4945 26.523 11.3183 26.6501C11.0422 26.8489 10.7898 27.0844 10.6033 27.3664C10.4046 27.6684 10.6414 28.0382 11.0338 28.0292Z"/>
    </mask>
    <path d="M14.128 1.00016C17.0229 1.00016 19.9178 1.00016 22.8133 1.00016C23.3618 1.00016 23.4186 1.05566 23.4186 1.59708C23.4186 5.67675 23.4186 9.75643 23.4186 13.8368C23.4186 14.242 23.4193 14.242 23.8039 14.1413C24.6415 13.9206 24.6396 13.9213 24.8648 14.7615C25.6295 17.6157 26.3955 20.4693 27.1602 23.3229C27.1866 23.4223 27.2157 23.5216 27.2363 23.6223C27.2879 23.8708 27.2118 24.0495 26.9511 24.1192C25.5888 24.4851 24.2279 24.8523 22.865 25.2143C22.5939 25.2866 22.4287 25.1588 22.3571 24.8987C22.2751 24.6012 22.1919 24.3038 22.119 24.0037C22.0764 23.8275 22.0041 23.7914 21.8389 23.8811C21.1097 24.2773 20.3418 24.5658 19.5151 24.6813C19.3454 24.7051 19.2828 24.7819 19.2815 24.9684C19.2777 25.677 18.8692 26.1042 18.1664 26.1416C17.987 26.1513 17.9199 26.2223 17.8702 26.3817C17.674 27.005 17.3082 27.2716 16.6583 27.2561C16.4492 27.2509 16.3311 27.289 16.2447 27.5103C16.0298 28.0634 15.4716 28.3357 14.8856 28.1905C14.6617 28.135 14.5527 28.1627 14.4372 28.3905C14.1145 29.03 13.2788 29.1907 12.6477 28.7558C12.4709 28.6338 12.3083 28.4873 12.1527 28.3376C12.0417 28.2305 11.9714 28.224 11.8475 28.3325C11.0467 29.0333 10.2213 28.8048 9.86445 27.7859C9.8167 27.6504 9.74571 27.5903 9.60955 27.5594C9.12944 27.4497 8.83776 27.1399 8.73902 26.663C8.70805 26.5127 8.64223 26.4669 8.50348 26.4346C8.0324 26.3255 7.71814 26.0416 7.60779 25.5595C7.57423 25.4137 7.49937 25.3259 7.35031 25.2898C6.77598 25.1498 6.48042 24.7723 6.44299 24.1902C6.43396 24.0514 6.39589 23.9237 6.25779 23.9101C6.0984 23.8946 6.12744 24.0624 6.09775 24.1592C6.03386 24.3657 5.98095 24.5754 5.92416 24.7839C5.80671 25.2169 5.68217 25.2969 5.26078 25.1846C3.96757 24.84 2.675 24.4928 1.38308 24.1431C1.01396 24.0431 0.940398 23.9114 1.04107 23.5274C1.30242 22.5317 1.56958 21.5373 1.83545 20.5429C2.36203 18.574 2.88989 16.6052 3.41712 14.6363C3.44938 14.5169 3.48294 14.3982 3.5223 14.2807C3.60103 14.0445 3.76559 13.9613 4.005 14.0233C4.19407 14.0723 4.38444 14.1188 4.57158 14.1755C4.75098 14.2304 4.85229 14.1994 4.83294 13.9852C4.82584 13.9032 4.83229 13.8206 4.83229 13.738C4.83229 9.69965 4.83229 5.66062 4.83229 1.62224C4.83229 1.05114 4.88198 1.00081 5.4434 1.00081C8.33828 0.999516 11.2332 1.00016 14.128 1.00016ZM14.13 1.65967C11.3693 1.65967 8.60802 1.6629 5.84737 1.65516C5.58666 1.65451 5.48728 1.71582 5.48728 1.99782C5.49567 6.0362 5.49438 10.0746 5.48922 14.1123C5.48922 14.3362 5.55891 14.4408 5.78284 14.4976C6.52108 14.6834 7.2548 14.8899 7.98917 15.0925C8.37765 15.1997 8.45121 15.332 8.35054 15.7249C8.29182 15.954 8.22729 16.1825 8.16856 16.4116C8.14533 16.5013 8.12339 16.5955 8.21051 16.6684C8.36861 16.8 9.00231 16.8 9.14622 16.6516C9.38756 16.4019 9.6786 16.3199 10.0148 16.3335C10.684 16.3606 11.3525 16.3625 12.0192 16.278C12.6922 16.1928 13.355 16.1115 13.9667 15.7533C14.7508 15.2939 15.6245 15.1222 16.5286 15.239C17.5198 15.3668 18.2839 15.9069 18.904 16.669C19.2435 17.0853 19.53 17.1685 19.9849 17.0085C20.154 16.9491 20.2121 16.8652 20.1592 16.6878C20.0624 16.3625 19.9772 16.0334 19.8939 15.7037C19.8004 15.3339 19.8823 15.1958 20.2534 15.0958C20.9587 14.9054 21.6627 14.706 22.3726 14.5343C22.661 14.4646 22.7649 14.3401 22.7643 14.0297C22.7533 10.0423 22.7572 6.05556 22.7572 2.0688C22.7572 1.66096 22.7565 1.65967 22.3506 1.65967C19.6106 1.65967 16.87 1.65967 14.13 1.65967ZM8.11436 22.4995C8.64352 22.5001 9.07071 22.8253 9.22043 23.361C9.2656 23.5223 9.31464 23.6229 9.50308 23.6655C9.96448 23.7707 10.2613 24.0727 10.3633 24.5361C10.3988 24.6968 10.4852 24.7593 10.6246 24.7955C11.0944 24.9174 11.3997 25.204 11.5074 25.6854C11.5358 25.8125 11.5836 25.8912 11.7359 25.93C12.5122 26.1281 12.8303 26.7553 12.5619 27.5232C12.5315 27.6097 12.4696 27.6968 12.5554 27.7801C12.7619 27.9795 12.9536 28.204 13.2401 28.2944C13.5931 28.4054 13.8841 28.1776 13.8777 27.8091C13.8731 27.5871 13.7667 27.4213 13.6221 27.2651C13.0549 26.6508 12.5528 25.9848 12.0818 25.295C11.8978 25.0259 11.9643 24.7626 12.2211 24.7C12.4296 24.6496 12.5457 24.7839 12.6529 24.9291C12.9594 25.3427 13.2556 25.7647 13.575 26.1681C13.9332 26.6204 14.3068 27.0625 14.7734 27.4097C15.0218 27.5949 15.3399 27.5813 15.5135 27.4097C15.702 27.2232 15.7 26.9108 15.5058 26.6456C15.4632 26.5875 15.4122 26.5359 15.3619 26.4843C14.5746 25.6757 13.9274 24.7593 13.302 23.8256C13.1652 23.6217 13.1104 23.4184 13.3491 23.2642C13.5769 23.117 13.7312 23.2577 13.8602 23.4448C14.1235 23.8262 14.3849 24.2095 14.6585 24.5832C15.1399 25.2408 15.6471 25.8777 16.2737 26.4055C16.5757 26.6598 16.9055 26.6579 17.1055 26.4301C17.2856 26.2249 17.2385 25.8332 16.9855 25.5918C15.8788 24.5367 15.0573 23.2635 14.23 21.9955C14.2074 21.9613 14.1874 21.9251 14.17 21.8877C14.0938 21.7231 14.1345 21.5831 14.2752 21.4779C14.4197 21.3702 14.572 21.3844 14.694 21.5108C14.7856 21.6057 14.8566 21.7225 14.9308 21.8335C15.7162 23.0183 16.4867 24.2153 17.5508 25.182C17.9186 25.5157 18.2045 25.5692 18.4504 25.3595C18.682 25.162 18.6833 24.8691 18.4039 24.469C17.4308 23.0757 16.4744 21.6702 15.4012 20.3499C14.9663 19.8143 14.5152 19.2884 13.9125 18.9263C13.6028 18.7405 13.2749 18.6237 12.9149 18.7734C12.2508 19.0496 11.5616 19.1135 10.8557 19.0225C10.1381 18.9302 9.4863 18.6708 9.16816 17.9855C8.97585 17.5705 8.73902 17.4118 8.30215 17.3795C8.00272 17.3576 7.88656 17.4137 7.81235 17.708C7.5297 18.8257 7.21931 19.9363 6.91988 21.0494C6.75726 21.656 6.59981 22.2639 6.43267 22.8692C6.37524 23.0757 6.46106 23.2074 6.62175 23.3106C6.78888 23.4177 6.86051 23.2629 6.95344 23.1796C7.04572 23.0977 7.13154 23.008 7.21608 22.9183C7.4613 22.6601 7.75105 22.5014 8.11436 22.4995ZM19.2796 24.0172C20.1391 23.9198 20.9297 23.6126 21.6814 23.1899C21.8544 23.0925 21.8402 22.957 21.7944 22.7918C21.595 22.0677 21.4053 21.3405 21.211 20.6151C20.9664 19.7007 20.7212 18.7863 20.4741 17.8726C20.4373 17.737 20.4263 17.5738 20.2005 17.6519C19.4119 17.9255 18.8195 17.6667 18.3097 17.024C17.6941 16.2483 16.8713 15.8327 15.8588 15.8863C15.2096 15.9205 14.612 16.1444 14.0519 16.4664C13.7802 16.6226 13.4943 16.7355 13.1878 16.7871C12.1521 16.9607 11.1164 17.1233 10.0593 17.0014C9.68441 16.9581 9.53792 17.1595 9.67279 17.5131C9.8238 17.908 10.1258 18.1475 10.524 18.2552C11.2725 18.4579 12.014 18.4314 12.7284 18.1152C12.9774 18.0048 13.222 17.9906 13.4808 18.0371C13.8744 18.1081 14.221 18.2823 14.5385 18.5198C14.9611 18.8367 15.327 19.2129 15.6684 19.6136C16.7854 20.9249 17.7431 22.3549 18.7349 23.7591C18.8782 23.9617 19.0305 24.0669 19.2796 24.0172ZM23.0547 24.4567C23.1166 24.4451 23.1476 24.4419 23.1773 24.4341C24.2111 24.1566 25.2442 23.8759 26.2787 23.6023C26.4916 23.5462 26.4845 23.4229 26.4387 23.2512C25.7011 20.508 24.9661 17.7635 24.2356 15.019C24.1827 14.8209 24.1072 14.757 23.891 14.8176C22.9198 15.09 21.946 15.352 20.9684 15.5991C20.687 15.6701 20.6089 15.7753 20.6896 16.0702C21.1652 17.7964 21.6221 19.5284 22.0848 21.2585C22.3481 22.2426 22.6081 23.228 22.8759 24.2108C22.9037 24.3147 22.8921 24.4799 23.0547 24.4567ZM7.60391 15.8805C7.63747 15.6914 7.50454 15.6598 7.36902 15.6236C6.38427 15.361 5.39823 15.1048 4.41735 14.8267C4.15148 14.7512 4.06501 14.826 3.9979 15.0816C3.28224 17.7887 2.55756 20.4932 1.82448 23.1958C1.75414 23.4552 1.80254 23.5642 2.06647 23.6307C3.03444 23.8759 4.00048 24.1282 4.96006 24.4031C5.24013 24.4832 5.32789 24.4135 5.39888 24.1444C5.99966 21.8651 6.61529 19.5897 7.22576 17.3124C7.35353 16.8355 7.47808 16.3574 7.60391 15.8805ZM7.60843 24.6238C7.63295 24.62 7.69297 24.6264 7.73298 24.6012C8.05757 24.3967 8.3428 24.1405 8.52607 23.8056C8.62222 23.63 8.57253 23.4203 8.39378 23.2796C8.22987 23.1506 8.04273 23.1319 7.87882 23.2525C7.61424 23.4468 7.36386 23.6694 7.1935 23.9508C7.00377 24.2663 7.22576 24.6284 7.60843 24.6238ZM9.23527 24.3328C9.19978 24.3386 9.12686 24.3302 9.08039 24.3612C8.76225 24.5735 8.47638 24.8271 8.29569 25.1653C8.2118 25.3214 8.25504 25.5131 8.40346 25.6434C8.5564 25.7777 8.74483 25.8209 8.91713 25.7131C9.21462 25.5266 9.47016 25.2801 9.65214 24.982C9.83348 24.6845 9.6102 24.3386 9.23527 24.3328ZM9.84832 26.907C9.86961 26.9044 9.91672 26.9108 9.95028 26.8928C10.3213 26.6959 10.6259 26.4185 10.8144 26.0448C10.9002 25.8745 10.8363 25.6776 10.6659 25.5505C10.4988 25.4253 10.3129 25.4143 10.1497 25.5357C9.88575 25.7325 9.64246 25.9609 9.45855 26.2345C9.27399 26.5088 9.49856 26.8953 9.84832 26.907ZM11.0338 28.0292C11.0647 28.0227 11.1377 28.0279 11.1822 27.9943C11.4797 27.7736 11.7546 27.5245 11.9469 27.2051C12.0598 27.0173 11.972 26.8431 11.8256 26.7095C11.6758 26.5733 11.4945 26.523 11.3183 26.6501C11.0422 26.8489 10.7898 27.0844 10.6033 27.3664C10.4046 27.6684 10.6414 28.0382 11.0338 28.0292Z" fill="white"/>
    <path d="M14.128 1.00016C17.0229 1.00016 19.9178 1.00016 22.8133 1.00016C23.3618 1.00016 23.4186 1.05566 23.4186 1.59708C23.4186 5.67675 23.4186 9.75643 23.4186 13.8368C23.4186 14.242 23.4193 14.242 23.8039 14.1413C24.6415 13.9206 24.6396 13.9213 24.8648 14.7615C25.6295 17.6157 26.3955 20.4693 27.1602 23.3229C27.1866 23.4223 27.2157 23.5216 27.2363 23.6223C27.2879 23.8708 27.2118 24.0495 26.9511 24.1192C25.5888 24.4851 24.2279 24.8523 22.865 25.2143C22.5939 25.2866 22.4287 25.1588 22.3571 24.8987C22.2751 24.6012 22.1919 24.3038 22.119 24.0037C22.0764 23.8275 22.0041 23.7914 21.8389 23.8811C21.1097 24.2773 20.3418 24.5658 19.5151 24.6813C19.3454 24.7051 19.2828 24.7819 19.2815 24.9684C19.2777 25.677 18.8692 26.1042 18.1664 26.1416C17.987 26.1513 17.9199 26.2223 17.8702 26.3817C17.674 27.005 17.3082 27.2716 16.6583 27.2561C16.4492 27.2509 16.3311 27.289 16.2447 27.5103C16.0298 28.0634 15.4716 28.3357 14.8856 28.1905C14.6617 28.135 14.5527 28.1627 14.4372 28.3905C14.1145 29.03 13.2788 29.1907 12.6477 28.7558C12.4709 28.6338 12.3083 28.4873 12.1527 28.3376C12.0417 28.2305 11.9714 28.224 11.8475 28.3325C11.0467 29.0333 10.2213 28.8048 9.86445 27.7859C9.8167 27.6504 9.74571 27.5903 9.60955 27.5594C9.12944 27.4497 8.83776 27.1399 8.73902 26.663C8.70805 26.5127 8.64223 26.4669 8.50348 26.4346C8.0324 26.3255 7.71814 26.0416 7.60779 25.5595C7.57423 25.4137 7.49937 25.3259 7.35031 25.2898C6.77598 25.1498 6.48042 24.7723 6.44299 24.1902C6.43396 24.0514 6.39589 23.9237 6.25779 23.9101C6.0984 23.8946 6.12744 24.0624 6.09775 24.1592C6.03386 24.3657 5.98095 24.5754 5.92416 24.7839C5.80671 25.2169 5.68217 25.2969 5.26078 25.1846C3.96757 24.84 2.675 24.4928 1.38308 24.1431C1.01396 24.0431 0.940398 23.9114 1.04107 23.5274C1.30242 22.5317 1.56958 21.5373 1.83545 20.5429C2.36203 18.574 2.88989 16.6052 3.41712 14.6363C3.44938 14.5169 3.48294 14.3982 3.5223 14.2807C3.60103 14.0445 3.76559 13.9613 4.005 14.0233C4.19407 14.0723 4.38444 14.1188 4.57158 14.1755C4.75098 14.2304 4.85229 14.1994 4.83294 13.9852C4.82584 13.9032 4.83229 13.8206 4.83229 13.738C4.83229 9.69965 4.83229 5.66062 4.83229 1.62224C4.83229 1.05114 4.88198 1.00081 5.4434 1.00081C8.33828 0.999516 11.2332 1.00016 14.128 1.00016ZM14.13 1.65967C11.3693 1.65967 8.60802 1.6629 5.84737 1.65516C5.58666 1.65451 5.48728 1.71582 5.48728 1.99782C5.49567 6.0362 5.49438 10.0746 5.48922 14.1123C5.48922 14.3362 5.55891 14.4408 5.78284 14.4976C6.52108 14.6834 7.2548 14.8899 7.98917 15.0925C8.37765 15.1997 8.45121 15.332 8.35054 15.7249C8.29182 15.954 8.22729 16.1825 8.16856 16.4116C8.14533 16.5013 8.12339 16.5955 8.21051 16.6684C8.36861 16.8 9.00231 16.8 9.14622 16.6516C9.38756 16.4019 9.6786 16.3199 10.0148 16.3335C10.684 16.3606 11.3525 16.3625 12.0192 16.278C12.6922 16.1928 13.355 16.1115 13.9667 15.7533C14.7508 15.2939 15.6245 15.1222 16.5286 15.239C17.5198 15.3668 18.2839 15.9069 18.904 16.669C19.2435 17.0853 19.53 17.1685 19.9849 17.0085C20.154 16.9491 20.2121 16.8652 20.1592 16.6878C20.0624 16.3625 19.9772 16.0334 19.8939 15.7037C19.8004 15.3339 19.8823 15.1958 20.2534 15.0958C20.9587 14.9054 21.6627 14.706 22.3726 14.5343C22.661 14.4646 22.7649 14.3401 22.7643 14.0297C22.7533 10.0423 22.7572 6.05556 22.7572 2.0688C22.7572 1.66096 22.7565 1.65967 22.3506 1.65967C19.6106 1.65967 16.87 1.65967 14.13 1.65967ZM8.11436 22.4995C8.64352 22.5001 9.07071 22.8253 9.22043 23.361C9.2656 23.5223 9.31464 23.6229 9.50308 23.6655C9.96448 23.7707 10.2613 24.0727 10.3633 24.5361C10.3988 24.6968 10.4852 24.7593 10.6246 24.7955C11.0944 24.9174 11.3997 25.204 11.5074 25.6854C11.5358 25.8125 11.5836 25.8912 11.7359 25.93C12.5122 26.1281 12.8303 26.7553 12.5619 27.5232C12.5315 27.6097 12.4696 27.6968 12.5554 27.7801C12.7619 27.9795 12.9536 28.204 13.2401 28.2944C13.5931 28.4054 13.8841 28.1776 13.8777 27.8091C13.8731 27.5871 13.7667 27.4213 13.6221 27.2651C13.0549 26.6508 12.5528 25.9848 12.0818 25.295C11.8978 25.0259 11.9643 24.7626 12.2211 24.7C12.4296 24.6496 12.5457 24.7839 12.6529 24.9291C12.9594 25.3427 13.2556 25.7647 13.575 26.1681C13.9332 26.6204 14.3068 27.0625 14.7734 27.4097C15.0218 27.5949 15.3399 27.5813 15.5135 27.4097C15.702 27.2232 15.7 26.9108 15.5058 26.6456C15.4632 26.5875 15.4122 26.5359 15.3619 26.4843C14.5746 25.6757 13.9274 24.7593 13.302 23.8256C13.1652 23.6217 13.1104 23.4184 13.3491 23.2642C13.5769 23.117 13.7312 23.2577 13.8602 23.4448C14.1235 23.8262 14.3849 24.2095 14.6585 24.5832C15.1399 25.2408 15.6471 25.8777 16.2737 26.4055C16.5757 26.6598 16.9055 26.6579 17.1055 26.4301C17.2856 26.2249 17.2385 25.8332 16.9855 25.5918C15.8788 24.5367 15.0573 23.2635 14.23 21.9955C14.2074 21.9613 14.1874 21.9251 14.17 21.8877C14.0938 21.7231 14.1345 21.5831 14.2752 21.4779C14.4197 21.3702 14.572 21.3844 14.694 21.5108C14.7856 21.6057 14.8566 21.7225 14.9308 21.8335C15.7162 23.0183 16.4867 24.2153 17.5508 25.182C17.9186 25.5157 18.2045 25.5692 18.4504 25.3595C18.682 25.162 18.6833 24.8691 18.4039 24.469C17.4308 23.0757 16.4744 21.6702 15.4012 20.3499C14.9663 19.8143 14.5152 19.2884 13.9125 18.9263C13.6028 18.7405 13.2749 18.6237 12.9149 18.7734C12.2508 19.0496 11.5616 19.1135 10.8557 19.0225C10.1381 18.9302 9.4863 18.6708 9.16816 17.9855C8.97585 17.5705 8.73902 17.4118 8.30215 17.3795C8.00272 17.3576 7.88656 17.4137 7.81235 17.708C7.5297 18.8257 7.21931 19.9363 6.91988 21.0494C6.75726 21.656 6.59981 22.2639 6.43267 22.8692C6.37524 23.0757 6.46106 23.2074 6.62175 23.3106C6.78888 23.4177 6.86051 23.2629 6.95344 23.1796C7.04572 23.0977 7.13154 23.008 7.21608 22.9183C7.4613 22.6601 7.75105 22.5014 8.11436 22.4995ZM19.2796 24.0172C20.1391 23.9198 20.9297 23.6126 21.6814 23.1899C21.8544 23.0925 21.8402 22.957 21.7944 22.7918C21.595 22.0677 21.4053 21.3405 21.211 20.6151C20.9664 19.7007 20.7212 18.7863 20.4741 17.8726C20.4373 17.737 20.4263 17.5738 20.2005 17.6519C19.4119 17.9255 18.8195 17.6667 18.3097 17.024C17.6941 16.2483 16.8713 15.8327 15.8588 15.8863C15.2096 15.9205 14.612 16.1444 14.0519 16.4664C13.7802 16.6226 13.4943 16.7355 13.1878 16.7871C12.1521 16.9607 11.1164 17.1233 10.0593 17.0014C9.68441 16.9581 9.53792 17.1595 9.67279 17.5131C9.8238 17.908 10.1258 18.1475 10.524 18.2552C11.2725 18.4579 12.014 18.4314 12.7284 18.1152C12.9774 18.0048 13.222 17.9906 13.4808 18.0371C13.8744 18.1081 14.221 18.2823 14.5385 18.5198C14.9611 18.8367 15.327 19.2129 15.6684 19.6136C16.7854 20.9249 17.7431 22.3549 18.7349 23.7591C18.8782 23.9617 19.0305 24.0669 19.2796 24.0172ZM23.0547 24.4567C23.1166 24.4451 23.1476 24.4419 23.1773 24.4341C24.2111 24.1566 25.2442 23.8759 26.2787 23.6023C26.4916 23.5462 26.4845 23.4229 26.4387 23.2512C25.7011 20.508 24.9661 17.7635 24.2356 15.019C24.1827 14.8209 24.1072 14.757 23.891 14.8176C22.9198 15.09 21.946 15.352 20.9684 15.5991C20.687 15.6701 20.6089 15.7753 20.6896 16.0702C21.1652 17.7964 21.6221 19.5284 22.0848 21.2585C22.3481 22.2426 22.6081 23.228 22.8759 24.2108C22.9037 24.3147 22.8921 24.4799 23.0547 24.4567ZM7.60391 15.8805C7.63747 15.6914 7.50454 15.6598 7.36902 15.6236C6.38427 15.361 5.39823 15.1048 4.41735 14.8267C4.15148 14.7512 4.06501 14.826 3.9979 15.0816C3.28224 17.7887 2.55756 20.4932 1.82448 23.1958C1.75414 23.4552 1.80254 23.5642 2.06647 23.6307C3.03444 23.8759 4.00048 24.1282 4.96006 24.4031C5.24013 24.4832 5.32789 24.4135 5.39888 24.1444C5.99966 21.8651 6.61529 19.5897 7.22576 17.3124C7.35353 16.8355 7.47808 16.3574 7.60391 15.8805ZM7.60843 24.6238C7.63295 24.62 7.69297 24.6264 7.73298 24.6012C8.05757 24.3967 8.3428 24.1405 8.52607 23.8056C8.62222 23.63 8.57253 23.4203 8.39378 23.2796C8.22987 23.1506 8.04273 23.1319 7.87882 23.2525C7.61424 23.4468 7.36386 23.6694 7.1935 23.9508C7.00377 24.2663 7.22576 24.6284 7.60843 24.6238ZM9.23527 24.3328C9.19978 24.3386 9.12686 24.3302 9.08039 24.3612C8.76225 24.5735 8.47638 24.8271 8.29569 25.1653C8.2118 25.3214 8.25504 25.5131 8.40346 25.6434C8.5564 25.7777 8.74483 25.8209 8.91713 25.7131C9.21462 25.5266 9.47016 25.2801 9.65214 24.982C9.83348 24.6845 9.6102 24.3386 9.23527 24.3328ZM9.84832 26.907C9.86961 26.9044 9.91672 26.9108 9.95028 26.8928C10.3213 26.6959 10.6259 26.4185 10.8144 26.0448C10.9002 25.8745 10.8363 25.6776 10.6659 25.5505C10.4988 25.4253 10.3129 25.4143 10.1497 25.5357C9.88575 25.7325 9.64246 25.9609 9.45855 26.2345C9.27399 26.5088 9.49856 26.8953 9.84832 26.907ZM11.0338 28.0292C11.0647 28.0227 11.1377 28.0279 11.1822 27.9943C11.4797 27.7736 11.7546 27.5245 11.9469 27.2051C12.0598 27.0173 11.972 26.8431 11.8256 26.7095C11.6758 26.5733 11.4945 26.523 11.3183 26.6501C11.0422 26.8489 10.7898 27.0844 10.6033 27.3664C10.4046 27.6684 10.6414 28.0382 11.0338 28.0292Z" stroke="white" stroke-width="0.4" mask="url(#path-1-outside-1_157_350)"/>
    <path d="M10.766 5.29535C10.6053 5.26502 10.515 5.15596 10.5085 4.9927C10.5021 4.82814 10.5898 4.71392 10.7447 4.67262L10.7472 5.39356M10.766 5.29535L10.7469 5.3935C10.747 5.39352 10.7471 5.39354 10.7472 5.39356M10.766 5.29535C10.853 5.31229 10.9444 5.31193 11.0347 5.31158C11.0475 5.31153 11.0604 5.31148 11.0732 5.31148M10.766 5.29535L14.1287 5.31212M10.7472 5.39356C10.6483 5.37485 10.5637 5.33022 10.503 5.25841C10.4425 5.18675 10.4125 5.09597 10.4086 4.99664L10.4086 4.99661C10.4046 4.89522 10.4297 4.80208 10.4859 4.72665C10.5421 4.65135 10.6236 4.60142 10.7189 4.576L10.7191 4.57595L10.7191 4.57595C10.8162 4.55023 10.9212 4.55048 11.0087 4.55069C11.0232 4.55073 11.0372 4.55076 11.0506 4.55068L11.0512 4.55068L11.0512 4.55068C12.5864 4.54971 14.1216 4.54983 15.6567 4.54995C16.1691 4.54999 16.6816 4.55003 17.194 4.55003C17.2082 4.55003 17.2232 4.54988 17.2388 4.54973C17.3053 4.54906 17.3818 4.54829 17.4547 4.5588L17.4405 4.65778M10.7472 5.39356C10.8445 5.41248 10.9466 5.41201 11.0358 5.4116C11.0485 5.41154 11.061 5.41148 11.0732 5.41148V5.31148M17.4405 4.65778L17.4545 4.55876C17.563 4.5741 17.6624 4.61458 17.7347 4.68984C17.8084 4.76659 17.8438 4.86917 17.8418 4.9879V4.98791C17.8399 5.10473 17.8031 5.20706 17.728 5.28238C17.6536 5.35695 17.5521 5.39468 17.4399 5.40343L17.4397 5.40345C17.3186 5.41272 17.196 5.4122 17.0784 5.4117C17.0521 5.41159 17.0261 5.41148 17.0004 5.41148V5.31148M17.4405 4.65778C17.6276 4.68424 17.7451 4.792 17.7418 4.98624C17.7386 5.17919 17.6225 5.2889 17.4321 5.30374C17.3154 5.31268 17.1978 5.31219 17.0804 5.3117C17.0537 5.31159 17.027 5.31148 17.0004 5.31148M17.4405 4.65778L14.1287 5.31212M17.0004 5.31148L17.0005 5.41148C16.0422 5.41277 15.0857 5.41277 14.1287 5.41212C13.8739 5.41212 13.6191 5.41217 13.3643 5.41221C12.6006 5.41233 11.8366 5.41245 11.073 5.41148L11.0732 5.31148M17.0004 5.31148C16.0421 5.31277 15.0857 5.31277 14.1287 5.31212M11.0732 5.31148C11.8366 5.31245 12.6005 5.31233 13.3642 5.31221C13.619 5.31217 13.8739 5.31212 14.1287 5.31212" fill="white" stroke="white" stroke-width="0.2"/>
    <path d="M15.9821 8.26897C15.8802 8.26897 15.7743 8.26704 15.6769 8.24122M15.9821 8.26897L15.9819 8.36897C15.9819 8.36897 15.982 8.36897 15.982 8.36897C16.6003 8.37052 17.2185 8.37042 17.8366 8.37031C17.9909 8.37029 18.1452 8.37026 18.2994 8.37026C18.6856 8.37026 19.0718 8.37042 19.458 8.37059H19.4581L19.4584 8.37059C19.8445 8.37075 20.2306 8.37091 20.6168 8.37091L20.6169 8.37091C20.8345 8.37058 21.0101 8.34304 21.1328 8.27052C21.1964 8.23296 21.2465 8.18286 21.2792 8.11901C21.3116 8.05576 21.3237 7.9852 21.3214 7.91097C21.3214 7.91095 21.3214 7.91092 21.3214 7.9109L21.2214 7.91405M15.9821 8.26897C16.6003 8.27052 17.2184 8.27042 17.8365 8.27031C17.9908 8.27029 18.1451 8.27026 18.2994 8.27026C18.6857 8.27026 19.0719 8.27042 19.4581 8.27059C19.8443 8.27075 20.2305 8.27091 20.6168 8.27091M15.9821 8.26897L20.6168 8.27091M15.6769 8.24122L16.0206 7.47461C17.5553 7.47139 19.09 7.47203 20.6246 7.47332M15.6769 8.24122C15.5362 8.2038 15.4439 8.10055 15.4336 7.95341L15.6769 8.24122ZM21.2214 7.91405C21.2143 7.68367 21.0265 7.57332 20.6245 7.57332M21.2214 7.91405C21.2292 8.15991 21.0433 8.27026 20.6168 8.27091M21.2214 7.91405L20.6168 8.27091M20.6245 7.57332L20.6246 7.47332M20.6245 7.57332V7.47332C20.6245 7.47332 20.6246 7.47332 20.6246 7.47332M20.6245 7.57332L20.6246 7.47332" fill="white" stroke="white" stroke-width="0.2"/>
    <path d="M10.2616 13.3194L10.2612 13.3192C10.1842 13.2815 10.1162 13.2297 10.0684 13.1598C10.0199 13.0887 9.99615 13.0047 9.99942 12.9104L10.0994 12.9139L9.99941 12.9105C10.0054 12.7297 10.1112 12.6072 10.2597 12.538C10.3966 12.4741 10.5421 12.4749 10.6617 12.4756C10.6735 12.4757 10.685 12.4757 10.6963 12.4757C11.1935 12.4757 11.6909 12.4757 12.1883 12.4756C13.1831 12.4754 14.1781 12.4753 15.1728 12.4757L10.2616 13.3194ZM10.2616 13.3194C10.3791 13.3764 10.5049 13.3752 10.6035 13.3742C10.6157 13.3741 10.6275 13.374 10.6388 13.374C11.4003 13.3746 12.1618 13.3746 12.9233 13.3746C13.2988 13.3746 13.6743 13.3748 14.0499 13.3749H14.0499L14.0503 13.3749C14.4257 13.3751 14.8012 13.3752 15.1767 13.3752L15.1768 13.3752M10.2616 13.3194L15.1768 13.3752M15.1768 13.3752C15.394 13.3749 15.5703 13.347 15.6947 13.2767C15.7588 13.2405 15.8106 13.1922 15.8453 13.1302C15.8799 13.0683 15.8942 12.999 15.893 12.9258M15.1768 13.3752L15.893 12.9258M15.893 12.9258C15.8918 12.8524 15.8756 12.7834 15.8401 12.722M15.893 12.9258L15.8401 12.722M15.8401 12.722C15.8045 12.6604 15.7527 12.612 15.6885 12.5754M15.8401 12.722L15.6885 12.5754M15.6885 12.5754C15.5636 12.5042 15.3883 12.4757 15.1729 12.4757L15.6885 12.5754Z" fill="white" stroke="white" stroke-width="0.2"/>
    <path d="M12.2753 10.42V10.4199C12.2743 10.3354 12.2572 10.2615 12.2224 10.1994C12.1872 10.1366 12.1372 10.0917 12.0801 10.0605C11.9708 10.0008 11.8336 9.99099 11.7136 9.99132C11.2133 9.9927 10.7134 9.99243 10.2132 9.99217C10.0129 9.99207 9.81255 9.99196 9.61209 9.99196C9.39848 9.99196 9.18494 9.99213 8.97149 9.99231C8.47397 9.99272 7.97691 9.99312 7.48034 9.99132L7.48024 9.99132C7.34914 9.99097 7.21249 10.0111 7.10727 10.0819C6.99402 10.1582 6.9333 10.2819 6.93797 10.4484L6.93798 10.4485C6.9403 10.529 6.95853 10.5994 6.99392 10.6584C7.02954 10.7179 7.07902 10.76 7.13444 10.7891C7.24076 10.8448 7.37252 10.8541 7.48643 10.8541L7.48652 10.8541C8.8978 10.8528 10.3097 10.8521 11.7208 10.8541H11.721C11.841 10.8541 11.9785 10.8442 12.0871 10.7835C12.144 10.7518 12.1933 10.7061 12.2273 10.6424C12.2609 10.5794 12.2762 10.505 12.2753 10.42Z" fill="white" stroke="white" stroke-width="0.2"/>
    <path d="M18.9865 13.3747H18.8865H18.883H18.8795H18.876H18.8725H18.869H18.8655H18.8621H18.8586H18.8551H18.8516H18.8481H18.8446H18.8411H18.8376H18.8341H18.8306H18.8271H18.8236H18.8201H18.8166H18.8131H18.8096H18.8061H18.8027H18.7992H18.7957H18.7922H18.7887H18.7852H18.7817H18.7782H18.7747H18.7712H18.7677H18.7642H18.7607H18.7572H18.7537H18.7502H18.7467H18.7433H18.7398H18.7363H18.7328H18.7293H18.7258H18.7223H18.7188H18.7153H18.7118H18.7083H18.7048H18.7013H18.6978H18.6943H18.6908H18.6873H18.6838H18.6804H18.6769H18.6734H18.6699H18.6664H18.6629H18.6594H18.6559H18.6524H18.6489H18.6454H18.6419H18.6384H18.6349H18.6314H18.6279H18.6244H18.6209H18.6174H18.614H18.6105H18.607H18.6035H18.6H18.5965H18.593H18.5895H18.586H18.5825H18.579H18.5755H18.572H18.5685H18.565H18.5615H18.558H18.5545H18.551H18.5476H18.5441H18.5406H18.5371H18.5336H18.5301H18.5266H18.5231H18.5196H18.5161H18.5126H18.5091H18.5056H18.5021H18.4986H18.4951H18.4916H18.4881H18.4846H18.4811H18.4777H18.4742H18.4707H18.4672H18.4637H18.4602H18.4567H18.4532H18.4497H18.4462H18.4427H18.4392H18.4357H18.4322H18.4287H18.4252H18.4217H18.4182H18.4147H18.4112H18.4077H18.4043H18.4008H18.3973H18.3938H18.3903H18.3868H18.3833H18.3798H18.3763H18.3728H18.3693H18.3658H18.3623H18.3588H18.3553H18.3518H18.3483H18.3448H18.3413H18.3378H18.3343H18.3309H18.3274H18.3239H18.3204H18.3169H18.3134H18.3099H18.3064H18.3029H18.2994H18.2959H18.2924H18.2889H18.2854H18.2819H18.2784H18.2749H18.2714H18.2679H18.2644H18.2609H18.2574H18.254H18.2505H18.247H18.2435H18.24H18.2365H18.233H18.2295H18.226H18.2225H18.219H18.2155H18.212H18.2085H18.205H18.2015H18.198H18.1945H18.191H18.1875H18.184H18.1805H18.177H18.1736H18.1701H18.1666H18.1631H18.1596H18.1561H18.1526H18.1491H18.1456H18.1421H18.1386H18.1351H18.1316H18.1281H18.1246H18.1211H18.1176H18.1141H18.1106H18.1071H18.1036H18.1001H18.0967H18.0932H18.0897H18.0862H18.0827H18.0792H18.0757H18.0722H18.0687H18.0652H18.0617H18.0582H18.0547H18.0512H18.0477H18.0442H18.0407H18.0372H18.0337H18.0302H18.0267H18.0232H18.0197H18.0163H18.0128H18.0093H18.0058H18.0023H17.9988H17.9953H17.9918H17.9883H17.9848H17.9813H17.9778H17.9743H17.9708H17.9673H17.9638H17.9603H17.9568H17.9533H17.9498H17.9463H17.9428H17.9393H17.9359H17.9324H17.9289H17.9254H17.9219H17.9184H17.9149H17.9114H17.9079H17.9044H17.9009H17.8974H17.8939H17.8904H17.8869H17.8834H17.8799H17.8764H17.8729H17.8694H17.8659H17.8624H17.8589H17.8555H17.852H17.8485H17.845H17.8415H17.838H17.8345H17.831H17.8275H17.824H17.8205H17.817H17.8135H17.81H17.8065H17.803H17.7995H17.796H17.7925H17.789H17.7855H17.782H17.7785H17.7751H17.7716H17.7681H17.7646H17.7611H17.7576H17.7541H17.7506H17.7471H17.7436H17.7401H17.7366H17.7331H17.7296H17.7261H17.7226H17.7191H17.7156H17.7121H17.7086H17.7051H17.7016H17.6982H17.6947H17.6912H17.6877H17.6842H17.6807H17.6772H17.6737H17.6702H17.6667H17.6632H17.6597H17.6562H17.6527H17.6492H17.6457H17.6422H17.6387H17.6352H17.6317H17.6282H17.6247H17.6213H17.6178H17.6143H17.6108H17.6073H17.6038H17.6003H17.5968H17.5933H17.5898H17.5863H17.5828H17.5793H17.5758H17.5723H17.5688H17.5653H17.5618H17.5583H17.5548H17.5513H17.5479H17.5444H17.5409H17.5374H17.5339H17.5304H17.5269H17.5234H17.5199H17.5164H17.5129H17.5094H17.5059H17.5024H17.4989H17.4954H17.4919H17.4884H17.4849H17.4814H17.4779H17.4745H17.471H17.4675H17.464H17.4605H17.457H17.4535H17.45H17.4465H17.443H17.4395H17.436H17.4325H17.429H17.4255H17.422H17.4185H17.415H17.4115H17.4081H17.4046H17.4011H17.3976H17.3941H17.3906H17.3871H17.3836H17.3801H17.3766H17.3731H17.3696H17.3661H17.3626H17.3591H17.3556H17.3521H17.3486H17.3451H17.3417H17.3382H17.3347H17.3312H17.3277H17.3242H17.3207H17.3172H17.3137H17.3102H17.3067H17.3032H17.2997H17.2962H17.2927H17.2892H17.2857H17.2822H17.2787H17.2753H17.2718H17.2683H17.2648H17.2613H17.2578H17.2543H17.2508H17.2473H17.2438H17.2403H17.2368H17.2333H17.2298H17.2263H17.2228H17.2193H17.2158H17.2124H17.2089H17.2054H17.2019H17.1984H17.1949H17.1914H17.1879H17.1844H17.1809H17.1774H17.1739H17.1704H17.1669H17.1634H17.1599H17.1564H17.153H17.1495H17.146H17.1425H17.139H17.1355H17.132H17.1285H17.125H17.1215H17.118H17.1145H17.111H17.1075H17.104H17.1005H17.0971C16.965 13.3747 16.7949 13.3729 16.6535 13.2546L16.6534 13.2546C16.5296 13.151 16.4758 13.0068 16.4981 12.8665C16.5202 12.727 16.6153 12.6042 16.7624 12.5356L18.9865 13.3747ZM18.9865 13.3747V13.3734M18.9865 13.3747V13.3734M18.9865 13.3734C19.1304 13.3735 19.2744 13.3737 19.4184 13.3739C19.8792 13.3746 20.3404 13.3752 20.8013 13.3715L20.8014 13.3715C20.9274 13.3704 21.0564 13.344 21.1556 13.2699C21.26 13.1919 21.3179 13.0711 21.3148 12.914M18.9865 13.3734L20.817 12.4793C20.8172 12.4794 20.8173 12.4794 20.8175 12.4794C20.9323 12.488 21.0534 12.5143 21.1487 12.5816C21.2501 12.6531 21.3119 12.7637 21.3148 12.914M21.3148 12.914C21.3148 12.914 21.3148 12.914 21.3148 12.914L21.2148 12.9159L21.3148 12.9139C21.3148 12.9139 21.3148 12.914 21.3148 12.914ZM17.1578 12.475C17.1719 12.4751 17.1857 12.4752 17.199 12.4752L17.1578 12.475ZM17.1578 12.475C17.0405 12.474 16.897 12.4728 16.7625 12.5355L17.1578 12.475ZM18.9865 13.2747C18.9865 13.2744 18.9865 13.2746 18.9865 13.2752V13.2747ZM20.6243 12.4752C19.4821 12.4745 18.3406 12.4745 17.199 12.4752H20.6243Z" fill="white" stroke="white" stroke-width="0.2"/>
    <path d="M17.7804 10.4388C17.7843 10.2672 17.7205 10.1446 17.6036 10.0722C17.497 10.0061 17.3602 9.99131 17.2351 9.99131L17.235 9.99131C15.9697 9.9926 14.7049 9.99195 13.4401 9.99131H13.44C13.323 9.99131 13.1929 10.0038 13.089 10.0644C12.9753 10.1306 12.9079 10.245 12.9032 10.4092L12.9032 10.4092C12.9008 10.4942 12.9142 10.5691 12.9455 10.6329C12.9772 10.6975 13.0246 10.745 13.0807 10.7785C13.1878 10.8423 13.3249 10.8537 13.4468 10.8534L13.4468 10.8534C13.9019 10.852 14.357 10.8523 14.8122 10.8525C14.9945 10.8527 15.1768 10.8528 15.3592 10.8528C15.5162 10.8528 15.6731 10.8527 15.83 10.8526C16.3003 10.8524 16.7704 10.8521 17.2405 10.854L17.2409 10.754L17.2404 10.854C17.3584 10.8547 17.4893 10.8425 17.5939 10.7825C17.7084 10.7168 17.7768 10.6028 17.7804 10.4388ZM17.7804 10.4388L17.6804 10.4366L17.7804 10.4387C17.7804 10.4388 17.7804 10.4388 17.7804 10.4388Z" fill="white" stroke="white" stroke-width="0.2"/>
    <path d="M16.2577 3.32403L16.2577 3.32418C16.2605 3.48663 16.1939 3.60534 16.0845 3.67881C15.9818 3.74788 15.8513 3.77045 15.7311 3.77115M16.2577 3.32403L12.5194 3.77115C13.5898 3.7776 14.6607 3.7776 15.7311 3.77115M16.2577 3.32403C16.2545 3.15599 16.1854 3.03691 16.0694 2.96601C15.9619 2.90026 15.8261 2.88356 15.6999 2.88389L16.2577 3.32403ZM15.7311 3.77115L15.7305 3.67115M15.7311 3.77115L15.7305 3.67115M15.7305 3.67115C15.9518 3.66986 16.1622 3.58662 16.1577 3.32591L12.52 3.67115C13.59 3.6776 14.6605 3.6776 15.7305 3.67115ZM14.5193 2.88462C14.9129 2.88474 15.3066 2.88486 15.6999 2.88389L14.5193 2.88462ZM14.5193 2.88462C14.3881 2.88458 14.2568 2.88454 14.1256 2.88454M14.5193 2.88462L14.1256 2.88454M14.1256 2.88454C13.9943 2.88454 13.863 2.88458 13.7318 2.88462M14.1256 2.88454L13.7318 2.88462M11.9935 3.32334C11.9903 3.48603 12.0566 3.60501 12.1659 3.67866C12.2687 3.74788 12.3992 3.77045 12.5194 3.77115L11.9935 3.32334ZM11.9935 3.32334C11.9967 3.15492 12.066 3.03591 12.1823 2.96529C12.29 2.89988 12.4259 2.88356 12.5519 2.88389L11.9935 3.32334ZM13.7318 2.88462C13.3382 2.88474 12.9447 2.88486 12.5519 2.88389L13.7318 2.88462Z" fill="white" stroke="white" stroke-width="0.2"/>
    <path d="M11.6602 7.47655L11.6603 7.47655C12.5036 7.47074 13.3475 7.47073 14.1908 7.47719L14.1909 7.47719C14.3103 7.47824 14.4401 7.49963 14.5432 7.56721C14.6529 7.63911 14.7209 7.75604 14.7217 7.91796M11.6602 7.47655L12.499 8.36947C12.6361 8.36954 12.7732 8.36961 12.9103 8.36961H12.9128H12.9153H12.9177H12.9202H12.9227H12.9252H12.9276H12.9301H12.9326H12.935H12.9375H12.94H12.9424H12.9449H12.9474H12.9498H12.9523H12.9548H12.9572H12.9597H12.9622H12.9647H12.9671H12.9696H12.9721H12.9745H12.977H12.9795H12.9819H12.9844H12.9869H12.9893H12.9918H12.9943H12.9968H12.9992H13.0017H13.0042H13.0066H13.0091H13.0116H13.014H13.0165H13.019H13.0214H13.0239H13.0264H13.0289H13.0313H13.0338H13.0363H13.0387H13.0412H13.0437H13.0461H13.0486H13.0511H13.0535H13.056H13.0585H13.061H13.0634H13.0659H13.0684H13.0708H13.0733H13.0758H13.0782H13.0807H13.0832H13.0856H13.0881H13.0906H13.093H13.0955H13.098H13.1005H13.1029H13.1054H13.1079H13.1103H13.1128H13.1153H13.1177H13.1202H13.1227H13.1251H13.1276H13.1301H13.1326H13.135H13.1375H13.14H13.1424H13.1449H13.1474H13.1498H13.1523H13.1548H13.1572H13.1597H13.1622H13.1647H13.1671H13.1696H13.1721H13.1745H13.177H13.1795H13.1819H13.1844H13.1869H13.1893H13.1918H13.1943H13.1968H13.1992H13.2017H13.2042H13.2066H13.2091H13.2116H13.214H13.2165H13.219H13.2214H13.2239H13.2264H13.2288H13.2313H13.2338H13.2363H13.2387H13.2412H13.2437H13.2461H13.2486H13.2511H13.2535H13.256H13.2585H13.2609H13.2634H13.2659H13.2684H13.2708H13.2733H13.2758H13.2782H13.2807H13.2832H13.2856H13.2881H13.2906H13.293H13.2955H13.298H13.3005H13.3029H13.3054H13.3079H13.3103H13.3128H13.3153H13.3177H13.3202H13.3227H13.3251H13.3276H13.3301H13.3326H13.335H13.3375H13.34H13.3424H13.3449H13.3474H13.3498H13.3523H13.3548H13.3572H13.3597H13.3622H13.3646H13.3671H13.3696H13.3721H13.3745H13.377H13.3795H13.3819H13.3844H13.3869H13.3893H13.3918H13.3943H13.3967H13.3992H13.4017H13.4042H13.4066H13.4091H13.4116H13.414H13.4165H13.419H13.4214H13.4239H13.4264H13.4288H13.4313H13.4338H13.4363H13.4387H13.4412H13.4437H13.4461H13.4486H13.4511H13.4535H13.456H13.4585H13.4609H13.4634H13.4659H13.4683H13.4708H13.4733H13.4758H13.4782H13.4807H13.4832H13.4856H13.4881H13.4906H13.493H13.4955H13.498H13.5004H13.5029H13.5054H13.5079H13.5103H13.5128H13.5153H13.5177H13.5202H13.5227H13.5251H13.5276H13.5301H13.5325H13.535H13.5375H13.54H13.5424H13.5449H13.5474H13.5498H13.5523H13.5548H13.5572H13.5597H13.5622H13.5646H13.5671H13.5696H13.5721H13.5745H13.577H13.5795H13.5819H13.5844H13.5869H13.5893H13.5918H13.5943H13.5967H13.5992H13.6017H13.6041H13.6066H13.6091H13.6116H13.614H13.6165H13.619H13.6214H13.6239H13.6264H13.6288H13.6313H13.6338H13.6362H13.6387H13.6412H13.6437H13.6461H13.6486H13.6511H13.6535H13.656H13.6585H13.6609H13.6634H13.6659H13.6683H13.6708H13.6733H13.6758H13.6782H13.6807H13.6832H13.6856H13.6881H13.6906H13.693H13.6955H13.698H13.7004H13.7029H13.7054H13.7079H13.7103H13.7128H13.7153H13.7177H13.7202H13.7227H13.7251H13.7276H13.7301H13.7325H13.735H13.7375H13.7399H13.7424H13.7449H13.7474H13.7498H13.7523H13.7548H13.7572H13.7597H13.7622H13.7646H13.7671H13.7696H13.772H13.7745H13.777H13.7795H13.7819H13.7844H13.7869H13.7893H13.7918H13.7943H13.7967H13.7992H13.8017H13.8041H13.8066H13.8091H13.8116H13.814H13.8165H13.819H13.8214H13.8239H13.8264H13.8288H13.8313H13.8338H13.8362H13.8387H13.8412H13.8437H13.8461H13.8486H13.8511H13.8535H13.856H13.8585H13.8609H13.8634H13.8659H13.8683H13.8708H13.8733H13.8757H13.8782H13.8807H13.8832H13.8856H13.8881H13.8906H13.893H13.8955H13.898H13.9004H13.9029H13.9054H13.9078H13.9103H13.9128H13.9153H13.9177H13.9202H13.9227H13.9251H13.9276H13.9301H13.9325H13.935H13.9375H13.9399H13.9424H13.9449H13.9474H13.9498H13.9523H13.9548H13.9572H13.9597H13.9622H13.9646H13.9671H13.9696H13.972H13.9745H13.977H13.9795H13.9819H13.9844H13.9869H13.9893H13.9918H13.9943H13.9967H13.9992H14.0017H14.0041H14.0066H14.0091H14.0115H14.014H14.0165H14.019H14.0214H14.0239H14.0264H14.0288H14.0313H14.0338H14.0362H14.0387H14.0412H14.0436H14.0461H14.0486H14.0511H14.0535H14.056H14.0585H14.0609H14.0634H14.0659H14.0683H14.0708H14.0733H14.0757H14.0782H14.0807H14.0832H14.0856H14.0881H14.0906H14.093H14.0955H14.098H14.1004H14.1029H14.1054H14.1078H14.1103H14.1128H14.1152H14.1177H14.1202H14.1227H14.1251H14.1276H14.1301H14.1325H14.135H14.1375H14.1399H14.1424H14.1449H14.1473H14.1498H14.1523H14.1548H14.1572H14.1597H14.1622H14.1646H14.1671H14.1696H14.172H14.1745C14.3021 8.36961 14.4379 8.35089 14.544 8.28203C14.6583 8.2079 14.7229 8.08593 14.7217 7.91796M11.6602 7.47655C11.531 7.4776 11.3952 7.50349 11.2914 7.57937M11.6602 7.47655L11.2914 7.57937M14.7217 7.91796C14.7217 7.91793 14.7217 7.9179 14.7217 7.91786L14.6217 7.91856L14.7217 7.91807C14.7217 7.91803 14.7217 7.918 14.7217 7.91796ZM11.1301 7.95444L11.2299 7.94889L11.1301 7.9545L11.1301 7.95444ZM11.1301 7.95444C11.1207 7.78679 11.181 7.65998 11.2914 7.57937M11.1301 7.95444L11.2914 7.57937M11.6765 8.26961L11.6767 8.36961L11.6768 8.36961L11.6765 8.26961Z" fill="white" stroke="white" stroke-width="0.2"/>
    <path d="M7.46386 8.36962L7.46401 8.36961L10.4142 7.9205L10.5142 7.921C10.5142 7.92099 10.5142 7.92098 10.5142 7.92097C10.515 7.75923 10.4475 7.64176 10.338 7.56924C10.235 7.50106 10.1048 7.47889 9.98468 7.47784L9.98457 7.47784C9.14064 7.47138 8.2967 7.47138 7.45341 7.47784L7.45332 7.47784C7.33037 7.4789 7.20083 7.50359 7.10022 7.57568C6.99367 7.65203 6.93247 7.77234 6.93604 7.93241L6.93604 7.93246C6.93958 8.08781 7.00106 8.20441 7.10783 8.27787C7.2087 8.34726 7.33771 8.36962 7.46386 8.36962Z" fill="white" stroke="white" stroke-width="0.2"/>
    <path d="M21.2135 10.4418L21.3135 10.4434C21.3158 10.3009 21.2681 10.1835 21.1733 10.1036C21.0817 10.0263 20.959 9.99504 20.8304 9.99395L20.8304 9.99395C20.6067 9.99214 20.3828 9.99255 20.1594 9.99295C20.0639 9.99313 19.9685 9.9933 19.8732 9.9933C19.771 9.9933 19.6685 9.99299 19.5658 9.99267C19.3392 9.99198 19.1117 9.99128 18.8847 9.99395L18.8859 10.0939M21.2135 10.4418L21.3135 10.4432C21.3115 10.5853 21.2558 10.6943 21.1577 10.7639C21.065 10.8296 20.9464 10.8515 20.8309 10.8515M21.2135 10.4418C21.2103 10.6702 21.0412 10.7515 20.8308 10.7515M21.2135 10.4418C21.2174 10.2056 21.0586 10.0959 20.8295 10.0939C20.6064 10.0921 20.3833 10.0925 20.1602 10.093C20.0645 10.0931 19.9689 10.0933 19.8732 10.0933C19.7703 10.0933 19.6675 10.093 19.5646 10.0927C19.3384 10.092 19.1121 10.0913 18.8859 10.0939M20.8309 10.8515C20.8309 10.8515 20.8309 10.8515 20.8308 10.8515V10.7515M20.8309 10.8515C20.8309 10.8515 20.8309 10.8515 20.8309 10.8515L20.8308 10.7515M20.8309 10.8515C20.1829 10.8522 19.535 10.8522 18.8872 10.8522C18.7712 10.8522 18.6538 10.8302 18.5619 10.7637C18.4651 10.6936 18.4112 10.5847 18.4065 10.4439L18.5064 10.4405M20.8308 10.7515C20.1829 10.7522 19.535 10.7522 18.8872 10.7522C18.6761 10.7522 18.5142 10.6709 18.5064 10.4405M18.5064 10.4405C18.498 10.1946 18.66 10.0965 18.8859 10.0939M18.5064 10.4405L18.4065 10.4438C18.4015 10.2966 18.4483 10.178 18.5448 10.0987C18.637 10.023 18.76 9.99538 18.8847 9.99395L18.8859 10.0939" fill="white" stroke="white" stroke-width="0.2"/>
    <path d="M7.42848 13.3694L7.42837 13.3694C7.3077 13.3655 7.18595 13.337 7.09174 13.2652C6.99317 13.1901 6.93635 13.0762 6.93476 12.9292L6.93476 12.9292C6.93317 12.7816 6.98859 12.6654 7.08632 12.5883C7.18012 12.5143 7.30241 12.4844 7.42392 12.4822M7.42848 13.3694L7.42403 12.4822C7.42399 12.4822 7.42395 12.4822 7.42392 12.4822M7.42848 13.3694C7.60257 13.3749 7.77812 13.3737 7.95149 13.3725C8.02498 13.3719 8.09808 13.3714 8.17051 13.3714V13.2714L7.42848 13.3694ZM7.42392 12.4822C7.90727 12.4725 8.39114 12.4725 8.87422 12.4803L8.87432 12.4803C8.99862 12.4824 9.12724 12.5095 9.22608 12.5839C9.33033 12.6622 9.38837 12.7833 9.38363 12.9414M7.42392 12.4822L8.87777 13.2701L8.88076 13.3701C8.99901 13.3666 9.12105 13.3411 9.21705 13.2729C9.3181 13.2011 9.37922 13.0897 9.38363 12.9414M9.38363 12.9414L9.28368 12.9384L9.38363 12.9414C9.38363 12.9414 9.38363 12.9414 9.38363 12.9414Z" fill="white" stroke="white" stroke-width="0.2"/>
    <path d="M22.9745 17.4593L22.9747 17.4724C22.9764 17.6089 22.9567 17.7253 22.9024 17.8165C22.8456 17.912 22.7584 17.9676 22.6527 17.9951M22.9745 17.4593L22.1761 17.7665L22.2681 17.7273L22.1761 17.7665M22.9745 17.4593L22.9709 17.4466M22.9745 17.4593L22.9709 17.4466M22.6527 17.9951L22.6275 17.8983L22.6529 17.9951C22.6528 17.9951 22.6528 17.9951 22.6527 17.9951ZM22.6527 17.9951C22.4456 18.0493 22.2565 17.9555 22.1761 17.7665M22.1761 17.7665C22.0229 17.4064 21.9295 17.0276 21.8687 16.6474M22.1761 17.7665L21.8687 16.6474M22.9709 17.4466C22.9495 17.3706 22.9271 17.2882 22.9035 17.2012M22.9709 17.4466L22.9035 17.2012M21.8687 16.6474L21.8686 16.6472C21.8512 16.537 21.8752 16.4343 21.9362 16.3523C21.9965 16.2714 22.0871 16.218 22.1912 16.193L22.1915 16.1929L22.1915 16.1929C22.2958 16.1682 22.4008 16.1752 22.491 16.2202C22.5824 16.2658 22.6503 16.3463 22.6851 16.4518L21.8687 16.6474ZM22.9035 17.2012C22.8409 16.9706 22.7696 16.7083 22.6851 16.4519L22.9035 17.2012Z" fill="white" stroke="white" stroke-width="0.2"/>
    <path d="M5.28521 17.4958C5.25981 17.609 5.27344 17.7182 5.32996 17.8092C5.38617 17.8997 5.47803 17.9612 5.58915 17.9927L5.5893 17.9927C5.69784 18.0233 5.80498 18.0149 5.89575 17.9684C5.98648 17.9219 6.05361 17.841 6.0884 17.7401C6.17595 17.4873 6.24822 17.2274 6.31307 16.9942C6.3384 16.903 6.36259 16.816 6.38613 16.7351L6.39022 16.721L6.3901 16.7064C6.38907 16.5779 6.36942 16.4646 6.3168 16.3747C6.26153 16.2802 6.17616 16.2221 6.06768 16.1952L6.06745 16.1951C5.95501 16.1675 5.84453 16.1759 5.75079 16.2265C5.65655 16.2774 5.59002 16.3651 5.55574 16.4755L5.55571 16.4756C5.45163 16.8119 5.3619 17.1527 5.28521 17.4958ZM5.28521 17.4958C5.28521 17.4958 5.28522 17.4958 5.28522 17.4958L5.38279 17.5177M5.28521 17.4958C5.28521 17.4958 5.2852 17.4958 5.2852 17.4959L5.38279 17.5177M5.38279 17.5177C5.34149 17.7016 5.43184 17.8442 5.6164 17.8965M5.38279 17.5177C5.45894 17.1769 5.54799 16.8388 5.65124 16.5052C5.70674 16.3264 5.8571 16.2464 6.04359 16.2922L5.6164 17.8965M5.6164 17.8965C5.79063 17.9455 5.9397 17.8649 5.9939 17.7074L5.6164 17.8965Z" fill="white" stroke="white" stroke-width="0.2"/>
</svg>
