<svg width="42" height="41" viewBox="0 0 42 41" fill="none" xmlns="http://www.w3.org/2000/svg">
<path id="Vector" d="M37.6731 0H4.12766C2.06835 0 0.400391 1.66795 0.400391 3.72727V37.2727C0.400391 39.332 2.06835 41 4.12766 41H37.6731C39.7324 41 41.4004 39.332 41.4004 37.2727V3.72727C41.4004 1.66795 39.7306 0 37.6731 0ZM35.2299 17.6561C34.9876 17.6785 34.7435 17.6934 34.4975 17.6934C31.7113 17.6934 29.2625 16.2621 27.8368 14.0947C27.8368 19.7769 27.8368 26.2437 27.8368 26.3518C27.8368 31.3557 23.7797 35.411 18.7777 35.411C13.7757 35.4091 9.71857 31.352 9.71857 26.35C9.71857 21.3461 13.7757 17.2908 18.7777 17.2908C18.9678 17.2908 19.1523 17.3076 19.3368 17.3188V21.784C19.1504 21.7617 18.9697 21.7281 18.7777 21.7281C16.2245 21.7281 14.154 23.7986 14.154 26.3518C14.154 28.905 16.2227 30.9755 18.7777 30.9755C21.3328 30.9755 23.5878 28.9628 23.5878 26.4096C23.5878 26.3071 23.6325 5.59277 23.6325 5.59277H27.8983C28.299 9.40764 31.3796 12.4193 35.2299 12.6951V17.6561Z" fill="white"/>
</svg>
