<svg width="42" height="41" viewBox="0 0 42 41" fill="none" xmlns="http://www.w3.org/2000/svg">
<path id="Vector" d="M4.32688 0C2.26756 0 0.599609 1.66795 0.599609 3.72727V37.2727C0.599609 39.332 2.26756 41 4.32688 41H37.8723C39.9317 41 41.5996 39.332 41.5996 37.2727V3.72727C41.5996 1.66795 39.9317 0 37.8723 0H4.32688ZM9.26261 9.31818H17.8564L22.8722 16.4888L29.0783 9.31818H31.7828L24.088 18.2287L33.5008 31.6818H24.907L19.3415 23.725L12.4694 31.6818H9.72124L18.1185 21.9814L9.26261 9.31818ZM13.4194 11.524L26.0062 29.4651H29.3404L16.7499 11.524H13.4194Z" fill="white"/>
</svg>
