<svg width="13" height="13" viewBox="0 0 13 13" fill="none" xmlns="http://www.w3.org/2000/svg">
<path id="Vector" d="M12.5825 0.417563C12.0285 -0.139188 11.127 -0.139188 10.5704 0.417563L6.49902 4.48996L2.42768 0.417563C1.87368 -0.136574 0.972108 -0.136574 0.415498 0.417563C-0.138499 0.971699 -0.138499 1.87349 0.415498 2.42763L4.48687 6.5L0.415498 10.5724C-0.138499 11.1265 -0.138499 12.0283 0.415498 12.5824C0.969495 13.1392 1.87107 13.1392 2.42768 12.5824L6.49902 8.51007L10.5704 12.5824C11.1244 13.1366 12.0259 13.1366 12.5825 12.5824C13.1365 12.0283 13.1365 11.1265 12.5825 10.5724L8.51117 6.5L12.5825 2.42763C13.1392 1.87349 13.1392 0.974313 12.5825 0.417563Z" fill="#FD4C38"/>
</svg>
