<svg width="59" height="4" viewBox="0 0 59 4" fill="none" xmlns="http://www.w3.org/2000/svg">
<g id="Group">
<path id="Vector" d="M55.1546 0.772111L56.4914 2.10901L55.1546 3.44592C55.0461 3.55439 55.0461 3.72794 55.1546 3.8337C55.2631 3.94217 55.4366 3.94217 55.5424 3.8337L56.8792 2.4968L58.216 3.8337C58.3244 3.94217 58.498 3.94217 58.6037 3.8337C58.7122 3.72523 58.7122 3.55168 58.6037 3.44592L57.2669 2.10901L58.6037 0.772111C58.7122 0.663641 58.7122 0.49009 58.6037 0.384331C58.4953 0.275861 58.3217 0.275861 58.216 0.384331L56.8792 1.72123L55.5424 0.384331C55.4339 0.275861 55.2603 0.275861 55.1546 0.384331C55.0461 0.49009 55.0461 0.666352 55.1546 0.772111Z" fill="#006181"/>
<path id="Vector_2" d="M44.178 0.772111L45.5148 2.10901L44.178 3.44592C44.0696 3.55439 44.0696 3.72794 44.178 3.8337C44.2865 3.94217 44.46 3.94217 44.5658 3.8337L45.9026 2.4968L47.2394 3.8337C47.3479 3.94217 47.5214 3.94217 47.6272 3.8337C47.7356 3.72523 47.7356 3.55168 47.6272 3.44592L46.2903 2.10901L47.6272 0.772111C47.7356 0.663641 47.7356 0.49009 47.6272 0.384331C47.5187 0.275861 47.3451 0.275861 47.2394 0.384331L45.9026 1.72123L44.5658 0.384331C44.4573 0.275861 44.2838 0.275861 44.178 0.384331C44.0696 0.49009 44.0696 0.666352 44.178 0.772111Z" fill="#006181"/>
<path id="Vector_3" d="M33.2024 0.772111L34.5392 2.10901L33.2024 3.44592C33.094 3.55439 33.094 3.72794 33.2024 3.8337C33.3109 3.94217 33.4844 3.94217 33.5902 3.8337L34.927 2.4968L36.2638 3.8337C36.3723 3.94217 36.5458 3.94217 36.6516 3.8337C36.76 3.72523 36.76 3.55168 36.6516 3.44592L35.3148 2.10901L36.6516 0.772111C36.76 0.663641 36.76 0.49009 36.6516 0.384331C36.5431 0.275861 36.3696 0.275861 36.2638 0.384331L34.927 1.72123L33.5902 0.384331C33.4817 0.275861 33.3082 0.275861 33.2024 0.384331C33.094 0.49009 33.094 0.666352 33.2024 0.772111Z" fill="#006181"/>
<path id="Vector_4" d="M22.2259 0.772111L23.5627 2.10901L22.2259 3.44592C22.1174 3.55439 22.1174 3.72794 22.2259 3.8337C22.3343 3.94217 22.5079 3.94217 22.6136 3.8337L23.9504 2.4968L25.2872 3.8337C25.3957 3.94217 25.5692 3.94217 25.675 3.8337C25.7834 3.72523 25.7834 3.55168 25.675 3.44592L24.3382 2.10901L25.675 0.772111C25.7834 0.663641 25.7834 0.49009 25.675 0.384331C25.5665 0.275861 25.393 0.275861 25.2872 0.384331L23.9504 1.72123L22.6136 0.384331C22.5052 0.275861 22.3316 0.275861 22.2259 0.384331C22.1174 0.49009 22.1174 0.666352 22.2259 0.772111Z" fill="#006181"/>
<path id="Vector_5" d="M11.2493 0.772111L12.5861 2.10901L11.2493 3.44592C11.1409 3.55439 11.1409 3.72794 11.2493 3.8337C11.3578 3.94217 11.5313 3.94217 11.6371 3.8337L12.9739 2.4968L14.3107 3.8337C14.4191 3.94217 14.5927 3.94217 14.6984 3.8337C14.8069 3.72523 14.8069 3.55168 14.6984 3.44592L13.3616 2.10901L14.6984 0.772111C14.8069 0.663641 14.8069 0.49009 14.6984 0.384331C14.59 0.275861 14.4164 0.275861 14.3107 0.384331L12.9739 1.72123L11.6371 0.384331C11.5286 0.275861 11.3551 0.275861 11.2493 0.384331C11.1409 0.49009 11.1409 0.666352 11.2493 0.772111Z" fill="#006181"/>
<path id="Vector_6" d="M0.272753 0.772126L1.60955 2.10902L0.272753 3.44593C0.164291 3.5544 0.164291 3.72795 0.272753 3.83371C0.381216 3.94218 0.554754 3.94218 0.660505 3.83371L1.99732 2.49682L3.33412 3.83371C3.44258 3.94218 3.61612 3.94218 3.72187 3.83371C3.83033 3.72524 3.83033 3.55169 3.72187 3.44593L2.38507 2.10902L3.72187 0.772126C3.83033 0.663656 3.83033 0.490105 3.72187 0.384347C3.61341 0.275876 3.43987 0.275876 3.33412 0.384347L1.99732 1.72124L0.660505 0.384347C0.552042 0.275876 0.378504 0.275876 0.272753 0.384347C0.164291 0.490105 0.164291 0.666368 0.272753 0.772126Z" fill="#006181"/>
</g>
</svg>
