<svg width="195" height="195" viewBox="0 0 195 195" fill="none" xmlns="http://www.w3.org/2000/svg">
<g id="Group">
<g id="Group_2">
<path id="Vector" d="M48.9029 34.1798L18.3701 87.0685L19.7478 87.864L50.2806 34.9753L48.9029 34.1798Z" fill="#FF0000"/>
</g>
<g id="Group_3">
<path id="Vector_2" d="M75.2526 21.0435L20.165 116.466L21.5427 117.261L76.6302 21.8389L75.2526 21.0435Z" fill="#FF0000"/>
</g>
<g id="Group_4">
<path id="Vector_3" d="M48.1832 100.397L27.7988 135.707L29.1765 136.503L49.5609 101.193L48.1832 100.397Z" fill="#FF0000"/>
</g>
<g id="Group_5">
<path id="Vector_4" d="M95.7477 18.0402L75.3633 53.3499L76.7409 54.1454L97.1253 18.8356L95.7477 18.0402Z" fill="#FF0000"/>
</g>
<g id="Group_6">
<path id="Vector_5" d="M54.6953 121.633L38.207 150.194L39.5847 150.99L56.073 122.429L54.6953 121.633Z" fill="#FF0000"/>
</g>
<g id="Group_7">
<path id="Vector_6" d="M113.479 19.8086L96.9912 48.3694L98.3689 49.1648L114.857 20.604L113.479 19.8086Z" fill="#FF0000"/>
</g>
<g id="Group_8">
<path id="Vector_7" d="M65.8738 134.759L50.582 161.247L51.9597 162.042L67.2514 135.554L65.8738 134.759Z" fill="#FF0000"/>
</g>
<g id="Group_9">
<path id="Vector_8" d="M129.226 24.9884L113.935 51.4766L115.312 52.2721L130.604 25.7838L129.226 24.9884Z" fill="#FF0000"/>
</g>
<g id="Group_10">
<path id="Vector_9" d="M79.9576 142.821L64.6543 169.329L66.0319 170.125L81.3352 143.617L79.9576 142.821Z" fill="#FF0000"/>
</g>
<g id="Group_11">
<path id="Vector_10" d="M143.286 33.1508L127.985 59.655L129.363 60.4504L144.664 33.9463L143.286 33.1508Z" fill="#FF0000"/>
</g>
<g id="Group_12">
<path id="Vector_11" d="M96.9809 145.847L80.4512 174.48L81.8288 175.276L98.3585 146.643L96.9809 145.847Z" fill="#FF0000"/>
</g>
<g id="Group_13">
<path id="Vector_12" d="M155.638 44.2738L139.11 72.9025L140.488 73.698L157.015 45.0693L155.638 44.2738Z" fill="#FF0000"/>
</g>
<g id="Group_14">
<path id="Vector_13" d="M99.6164 176.969L98.2385 176.174L118.927 140.344L119.243 140.26L119.447 141.021L120.222 140.814L119.934 141.306L120.137 141.424L99.6164 176.969Z" fill="#FF0000"/>
</g>
<g id="Group_15">
<path id="Vector_14" d="M146.376 95.5088L146.171 94.7427L145.404 94.9435L145.319 94.6272L166.001 58.7946L167.379 59.5902L147.025 94.848L147.145 95.2979L146.376 95.5088Z" fill="#FF0000"/>
</g>
<g id="Group_16">
<path id="Vector_15" d="M173.567 78.1613L118.781 173.06L120.159 173.856L174.944 78.9568L173.567 78.1613Z" fill="#FF0000"/>
</g>
<g id="Group_17">
<path id="Vector_16" d="M175.153 107.904L145.328 159.567L146.706 160.362L176.531 108.699L175.153 107.904Z" fill="#FF0000"/>
</g>
</g>
</svg>
