<svg width="70" height="50" viewBox="0 0 70 50" fill="none" xmlns="http://www.w3.org/2000/svg">
<path d="M34.994 0C48.0402 0.204003 59.4224 4.61207 69.0385 13.4822C70.2185 14.5702 70.3185 16.1223 69.3045 17.2023C68.2965 18.2743 66.7765 18.2803 65.5745 17.1543C62.4044 14.1842 58.8904 11.7142 55.0003 9.78216C49.8322 7.21612 44.3801 5.66809 38.616 5.24808C27.0139 4.40007 16.5937 7.50612 7.38354 14.6182C6.28152 15.4702 5.28351 16.4543 4.20749 17.3423C2.58746 18.6783 0.339426 17.8463 0.0294215 15.8063C-0.106581 14.9082 0.237424 14.1582 0.885435 13.5542C8.12955 6.80611 16.6117 2.52404 26.3638 0.780011C29.2159 0.270003 32.0899 0.0120002 34.994 0Z" fill="#00678F"/>
<path d="M35.0081 14.6363C44.4282 14.7923 52.5724 18.0683 59.3585 24.6404C60.3105 25.5644 60.5105 26.6965 59.9525 27.7545C59.4245 28.7565 58.3405 29.2545 57.1844 29.0245C56.4444 28.8765 55.9424 28.3665 55.4284 27.8745C51.7184 24.3284 47.3983 21.8204 42.4062 20.6484C31.856 18.1763 22.5219 20.5644 14.5158 27.9325C14.0098 28.3985 13.5218 28.8825 12.8117 29.0245C11.6817 29.2465 10.6237 28.7785 10.0837 27.8165C9.50969 26.7925 9.65769 25.6204 10.5397 24.7464C12.6597 22.6504 14.9998 20.8344 17.5798 19.3324C21.8739 16.8343 26.506 15.3583 31.436 14.8263C32.6181 14.7023 33.8081 14.5663 35.0081 14.6363Z" fill="#00678F"/>
<path d="M50.5206 37.1602C50.4486 38.1282 50.0566 38.9362 49.1166 39.4042C48.1825 39.8703 47.2865 39.7683 46.4705 39.1482C45.9665 38.7662 45.5265 38.3022 45.0365 37.9002C38.8364 32.8181 29.8422 33.1641 24.0382 38.7142C23.2301 39.4883 22.3441 39.9303 21.2181 39.5443C20.2081 39.1982 19.6401 38.4642 19.5121 37.4122C19.4101 36.5742 19.7261 35.8822 20.3281 35.2962C23.8341 31.8821 28.0062 29.8781 32.8843 29.3921C38.7984 28.8021 44.0085 30.4961 48.5645 34.2742C49.0125 34.6462 49.4306 35.0582 49.8366 35.4762C50.2886 35.9422 50.5106 36.5282 50.5206 37.1602Z" fill="#00678F"/>
<path d="M39.1486 45.6088C39.1366 47.8709 37.2046 49.7689 34.9446 49.7369C32.7085 49.7049 30.8445 47.8049 30.8565 45.5689C30.8665 43.3008 32.7925 41.4108 35.0606 41.4428C37.2946 41.4748 39.1586 43.3748 39.1486 45.6088Z" fill="#00678F"/>
</svg>
