<?xml version="1.0" encoding="UTF-8"?>
<!DOCTYPE svg PUBLIC "-//W3C//DTD SVG 1.1//EN" "http://www.w3.org/Graphics/SVG/1.1/DTD/svg11.dtd">
<svg xmlns="http://www.w3.org/2000/svg" version="1.1" width="512px" height="512px" style="shape-rendering:geometricPrecision; text-rendering:geometricPrecision; image-rendering:optimizeQuality; fill-rule:evenodd; clip-rule:evenodd" xmlns:xlink="http://www.w3.org/1999/xlink">
<g><path style="opacity:0.956" fill="#fefffe" d="M 251.5,9.5 C 338.672,11.3132 404.506,49.3132 449,123.5C 465.48,154.087 474.48,186.753 476,221.5C 492.422,229.585 502.422,242.585 506,260.5C 506.167,273.333 506.333,286.167 506.5,299C 506.623,313.544 506.123,328.044 505,342.5C 500.363,357.472 491.03,368.472 477,375.5C 476.667,386.833 476.333,398.167 476,409.5C 471.475,443.738 452.642,465.571 419.5,475C 402.205,476.246 384.872,476.912 367.5,477C 362.258,488.578 353.591,496.245 341.5,500C 325.536,501.552 309.536,501.885 293.5,501C 269.085,497.343 257.585,483.176 259,458.5C 262.5,441.667 272.667,431.5 289.5,428C 306.167,427.333 322.833,427.333 339.5,428C 353.066,430.741 362.066,438.574 366.5,451.5C 381.504,451.667 396.504,451.5 411.5,451C 434.439,445.394 447.606,430.894 451,407.5C 451.5,398.173 451.666,388.839 451.5,379.5C 434.813,377.315 424.647,367.981 421,351.5C 420.833,334 420.667,316.5 420.5,299C 420.365,279.792 420.865,260.625 422,241.5C 426.903,228.093 436.403,220.426 450.5,218.5C 444.866,153.369 415.2,102.536 361.5,66C 290.844,24.0017 220.178,24.0017 149.5,66C 95.7981,102.54 66.1315,153.374 60.5,218.5C 76.6556,221.155 86.489,230.489 90,246.5C 90.6667,281.5 90.6667,316.5 90,351.5C 85.7275,369.439 74.3942,379.105 56,380.5C 28.6013,378.43 11.6013,364.097 5,337.5C 4.33333,311.833 4.33333,286.167 5,260.5C 8.5785,242.585 18.5785,229.585 35,221.5C 42.1245,131.358 86.2912,66.8575 167.5,28C 194.52,16.741 222.52,10.5744 251.5,9.5 Z M 172.5,151.5 C 227.834,151.333 283.168,151.5 338.5,152C 349.333,154.833 356.167,161.667 359,172.5C 359.667,210.5 359.667,248.5 359,286.5C 356.158,297.342 349.325,304.175 338.5,307C 310.772,307.025 283.105,307.692 255.5,309C 238.028,325.471 220.862,342.304 204,359.5C 203.667,345.5 203.333,331.5 203,317.5C 201.833,312.333 198.667,309.167 193.5,308C 186.5,307.667 179.5,307.333 172.5,307C 161.675,304.175 154.842,297.342 152,286.5C 151.333,248.5 151.333,210.5 152,172.5C 155.016,161.652 161.849,154.652 172.5,151.5 Z M 53.5,242.5 C 58.9892,242.163 62.8226,244.496 65,249.5C 65.6667,282.5 65.6667,315.5 65,348.5C 63.4085,352.887 60.2418,355.22 55.5,355.5C 42.6456,353.814 34.1456,346.814 30,334.5C 29.3333,310.833 29.3333,287.167 30,263.5C 33.9952,251.995 41.8285,244.995 53.5,242.5 Z M 452.5,242.5 C 466.926,242.798 476.426,249.798 481,263.5C 481.667,287.167 481.667,310.833 481,334.5C 476.854,346.814 468.354,353.814 455.5,355.5C 450.758,355.22 447.592,352.887 446,348.5C 445.333,315.5 445.333,282.5 446,249.5C 447.018,245.985 449.185,243.652 452.5,242.5 Z M 292.5,452.5 C 306.837,452.333 321.171,452.5 335.5,453C 345.177,457.724 346.843,464.391 340.5,473C 338.51,474.751 336.177,475.751 333.5,476C 319.111,476.93 304.778,476.597 290.5,475C 283.961,471.085 282.128,465.585 285,458.5C 287.134,455.847 289.634,453.847 292.5,452.5 Z"/></g>
<g><path style="opacity:0.958" fill="#fefffe" d="M 170.5,126.5 C 228.871,126.02 287.204,126.52 345.5,128C 367.155,134.123 379.988,148.29 384,170.5C 384.667,209.833 384.667,249.167 384,288.5C 379.616,312.55 365.45,327.05 341.5,332C 316.5,332.333 291.5,332.667 266.5,333C 250.195,348.304 234.195,363.971 218.5,380C 205.22,387.309 193.387,385.476 183,374.5C 182,372.5 181,370.5 180,368.5C 178.562,356.576 178.062,344.576 178.5,332.5C 149.808,331.308 132.642,316.641 127,288.5C 126.333,249.167 126.333,209.833 127,170.5C 131.68,145.987 146.18,131.321 170.5,126.5 Z M 172.5,151.5 C 161.849,154.652 155.016,161.652 152,172.5C 151.333,210.5 151.333,248.5 152,286.5C 154.842,297.342 161.675,304.175 172.5,307C 179.5,307.333 186.5,307.667 193.5,308C 198.667,309.167 201.833,312.333 203,317.5C 203.333,331.5 203.667,345.5 204,359.5C 220.862,342.304 238.028,325.471 255.5,309C 283.105,307.692 310.772,307.025 338.5,307C 349.325,304.175 356.158,297.342 359,286.5C 359.667,248.5 359.667,210.5 359,172.5C 356.167,161.667 349.333,154.833 338.5,152C 283.168,151.5 227.834,151.333 172.5,151.5 Z"/></g>
<g><path style="opacity:0.936" fill="#fefffe" d="M 191.5,213.5 C 209.438,212.599 216.938,220.933 214,238.5C 207.057,250.118 197.557,252.618 185.5,246C 179.378,239.174 177.878,231.34 181,222.5C 183.468,218.199 186.968,215.199 191.5,213.5 Z"/></g>
<g><path style="opacity:0.942" fill="#fefffe" d="M 250.5,213.5 C 261.599,211.794 269.099,216.128 273,226.5C 275.199,237.606 271.032,245.106 260.5,249C 249.394,251.199 241.894,247.032 238,236.5C 235.928,225.303 240.095,217.637 250.5,213.5 Z"/></g>
<g><path style="opacity:0.937" fill="#fefffe" d="M 308.5,213.5 C 327.571,212.965 334.738,221.965 330,240.5C 323.777,249.017 315.611,251.517 305.5,248C 295.107,240.815 292.941,231.648 299,220.5C 301.529,217.115 304.696,214.782 308.5,213.5 Z"/></g>
</svg>
