<svg width="59" height="60" viewBox="0 0 59 60" fill="none" xmlns="http://www.w3.org/2000/svg">
    <path d="M0 27.0642C0.238373 25.3571 0.436761 23.6408 0.933499 21.9845C4.22612 11.0055 11.3435 3.77284 22.4578 0.970806C32.3295 -1.51904 41.297 0.823167 49.0002 7.5053C54.4398 12.2235 57.7062 18.249 58.6859 25.3771C59.9116 34.3046 57.5494 42.2708 51.6147 49.0775C46.8687 54.5201 40.8387 57.7174 33.7075 58.8355C33.1031 58.9308 32.4941 58.9908 31.8881 59.0677C30.2764 59.0677 28.6647 59.0677 27.053 59.0677C25.4982 58.8631 23.9342 58.6955 22.4178 58.2741C11.3804 55.2076 4.22458 48.1733 0.933499 37.2066C0.436761 35.5518 0.238373 33.8355 0 32.13C0 30.4414 0 28.7528 0 27.0642ZM29.4767 2.93162C14.7253 3.0608 2.85586 14.7411 2.83279 29.5602C2.80972 44.367 14.653 56.2272 29.4614 56.2333C44.3005 56.241 56.1191 44.3501 56.1068 29.5756C56.093 14.7918 44.2651 3.06541 29.4767 2.93162Z" fill="#00678F"/>
    <path d="M38.5969 46.8933C36.2455 46.8225 34.1939 46.2305 32.23 45.3154C27.4933 43.107 23.5625 39.8267 20.0546 36.0158C17.2187 32.9354 14.7827 29.5705 13.2494 25.6335C12.3836 23.4097 11.8453 21.1183 12.4066 18.7207C12.8941 16.6338 13.9937 15.0174 16.0268 14.1086C17.2356 13.5688 18.449 13.0413 19.6855 12.5737C21.4094 11.9248 23.1657 12.5153 24.1269 14.107C25.2173 15.9125 26.2722 17.7395 27.2903 19.5865C28.2746 21.3705 27.7548 23.3313 26.06 24.4847C25.9339 24.5708 25.8017 24.6508 25.6786 24.7431C24.539 25.5828 24.3606 26.7808 25.2296 27.8957C26.9704 30.1318 28.962 32.1172 31.1966 33.8581C31.8086 34.3349 32.4899 34.5102 33.2481 34.2534C33.7664 34.0781 34.1093 33.6951 34.4092 33.263C35.8917 31.1268 37.7203 30.7285 39.9625 32.0404C41.5343 32.96 43.1152 33.8658 44.6946 34.7732C46.5616 35.8451 47.1952 37.6306 46.3986 39.6283C45.9157 40.8386 45.422 42.0443 44.8607 43.2239C43.8273 45.3923 41.9926 46.3781 39.7457 46.7733C39.3136 46.8487 38.8706 46.8671 38.5969 46.8933ZM38.3677 43.9513C38.5784 43.9513 38.7922 43.9713 38.9998 43.9482C40.5131 43.7745 41.7773 43.2254 42.3986 41.6952C42.8246 40.6479 43.2828 39.6129 43.7027 38.5625C43.9611 37.9182 43.8503 37.6275 43.2459 37.2753C41.6204 36.3311 39.9918 35.393 38.3601 34.461C37.6203 34.0381 37.3174 34.118 36.8314 34.8316C34.9459 37.5967 31.8348 38.0612 29.2035 35.9712C26.9412 34.1749 24.9497 32.1126 23.1011 29.8935C21.0957 27.4867 21.4079 23.9772 24.2976 22.184C24.9251 21.7949 25.0112 21.4197 24.6482 20.783C23.6978 19.1175 22.7397 17.4565 21.7739 15.7987C21.4371 15.2189 21.1434 15.1082 20.5328 15.3512C19.4994 15.7618 18.4828 16.2139 17.4509 16.6261C15.8008 17.2843 15.2025 18.6207 15.1133 20.2601C14.9949 22.4393 15.7054 24.437 16.702 26.3086C20.3437 33.143 25.6063 38.4103 32.3654 42.1658C34.2185 43.1977 36.2024 43.919 38.3677 43.9513Z" fill="#00678F"/>
</svg>
