<svg width="70" height="32" viewBox="0 0 70 32" fill="none" xmlns="http://www.w3.org/2000/svg">
    <path opacity="0.7" d="M36.98 21V10.92H40.942C41.5813 10.92 42.118 11.0507 42.552 11.312C42.986 11.5733 43.3127 11.9117 43.532 12.327C43.7513 12.7377 43.861 13.1717 43.861 13.629C43.861 14.1843 43.7233 14.6603 43.448 15.057C43.1773 15.4537 42.811 15.7243 42.349 15.869L42.335 15.526C42.979 15.6847 43.4737 15.995 43.819 16.457C44.1643 16.9143 44.337 17.4487 44.337 18.06C44.337 18.6527 44.218 19.1683 43.98 19.607C43.7467 20.0457 43.4037 20.3887 42.951 20.636C42.503 20.8787 41.9593 21 41.32 21H36.98ZM38.464 19.607H41.096C41.4273 19.607 41.7237 19.544 41.985 19.418C42.251 19.292 42.4587 19.1123 42.608 18.879C42.762 18.641 42.839 18.3587 42.839 18.032C42.839 17.7287 42.7713 17.4557 42.636 17.213C42.5053 16.9657 42.314 16.772 42.062 16.632C41.8147 16.4873 41.523 16.415 41.187 16.415H38.464V19.607ZM38.464 15.036H40.921C41.1917 15.036 41.4343 14.9823 41.649 14.875C41.8683 14.763 42.041 14.6043 42.167 14.399C42.2977 14.189 42.363 13.937 42.363 13.643C42.363 13.251 42.2323 12.929 41.971 12.677C41.7097 12.425 41.3597 12.299 40.921 12.299H38.464V15.036ZM48.145 21.21C47.585 21.21 47.116 21.1073 46.738 20.902C46.36 20.692 46.073 20.4167 45.877 20.076C45.6857 19.7307 45.59 19.3527 45.59 18.942C45.59 18.5593 45.6577 18.2233 45.793 17.934C45.9283 17.6447 46.129 17.3997 46.395 17.199C46.661 16.9937 46.9877 16.828 47.375 16.702C47.711 16.604 48.0913 16.5177 48.516 16.443C48.9407 16.3683 49.3863 16.2983 49.853 16.233C50.3243 16.1677 50.791 16.1023 51.253 16.037L50.721 16.331C50.7303 15.7383 50.6043 15.2997 50.343 15.015C50.0863 14.7257 49.643 14.581 49.013 14.581C48.6163 14.581 48.2523 14.6743 47.921 14.861C47.5897 15.043 47.3587 15.3463 47.228 15.771L45.863 15.351C46.0497 14.7023 46.4043 14.1867 46.927 13.804C47.4543 13.4213 48.1543 13.23 49.027 13.23C49.7037 13.23 50.2917 13.3467 50.791 13.58C51.295 13.8087 51.6637 14.1727 51.897 14.672C52.0183 14.9193 52.093 15.1807 52.121 15.456C52.149 15.7313 52.163 16.0277 52.163 16.345V21H50.868V19.271L51.12 19.495C50.8073 20.0737 50.4083 20.5053 49.923 20.79C49.4423 21.07 48.8497 21.21 48.145 21.21ZM48.404 20.013C48.8193 20.013 49.1763 19.9407 49.475 19.796C49.7737 19.6467 50.014 19.4577 50.196 19.229C50.378 19.0003 50.497 18.7623 50.553 18.515C50.6323 18.291 50.6767 18.039 50.686 17.759C50.7 17.479 50.707 17.255 50.707 17.087L51.183 17.262C50.721 17.332 50.301 17.395 49.923 17.451C49.545 17.507 49.202 17.563 48.894 17.619C48.5907 17.6703 48.32 17.7333 48.082 17.808C47.8813 17.878 47.7017 17.962 47.543 18.06C47.389 18.158 47.2653 18.277 47.172 18.417C47.0833 18.557 47.039 18.7273 47.039 18.928C47.039 19.124 47.088 19.306 47.186 19.474C47.284 19.6373 47.4333 19.768 47.634 19.866C47.8347 19.964 48.0913 20.013 48.404 20.013ZM57.4947 21.21C56.72 21.21 56.062 21.0373 55.5207 20.692C54.9794 20.3467 54.564 19.873 54.2747 19.271C53.99 18.669 53.8454 17.9853 53.8407 17.22C53.8454 16.4407 53.9947 15.7523 54.2887 15.155C54.5827 14.553 55.0027 14.0817 55.5487 13.741C56.0947 13.4003 56.7504 13.23 57.5157 13.23C58.3417 13.23 59.0464 13.4353 59.6297 13.846C60.2177 14.2567 60.605 14.819 60.7917 15.533L59.3357 15.953C59.191 15.5283 58.953 15.1993 58.6217 14.966C58.295 14.728 57.9194 14.609 57.4947 14.609C57.014 14.609 56.6197 14.7233 56.3117 14.952C56.0037 15.176 55.775 15.484 55.6257 15.876C55.4764 16.268 55.3994 16.716 55.3947 17.22C55.3994 17.9993 55.5767 18.6293 55.9267 19.11C56.2814 19.5907 56.804 19.831 57.4947 19.831C57.966 19.831 58.3464 19.7237 58.6357 19.509C58.9297 19.2897 59.1537 18.977 59.3077 18.571L60.7917 18.921C60.5444 19.6583 60.136 20.2253 59.5667 20.622C58.9974 21.014 58.3067 21.21 57.4947 21.21ZM62.4907 21L62.4977 10.92H63.9817V17.08L66.9497 13.44H68.8117L65.6757 17.22L69.1337 21H67.1457L63.9817 17.36V21H62.4907Z" fill="#1A1D1F"/>
    <circle cx="16" cy="16" r="16" transform="rotate(-180 16 16)" fill="#006181"/>
    <path d="M19.2496 8.82806C18.9603 8.82806 18.7169 8.93713 18.5174 9.13864C16.4348 11.2468 14.351 13.3544 12.275 15.4692C11.8255 15.9268 11.836 16.5692 12.2887 17.0301C14.3726 19.1489 16.4604 21.2644 18.5502 23.3766C19.0069 23.8381 19.6512 23.8375 20.0882 23.3932C20.5258 22.949 20.5258 22.2979 20.0691 21.8337C18.3028 20.0387 16.5346 18.2471 14.7584 16.4621C14.5819 16.2846 14.5786 16.1928 14.7571 16.0132C16.5096 14.2515 18.2536 12.4818 19.9957 10.7101C20.598 10.0976 20.3592 9.10007 19.5626 8.87462C19.4629 8.84668 19.3546 8.84336 19.2496 8.82806Z" fill="white"/>
</svg>
