<svg width="55" height="55" viewBox="0 0 55 55" fill="none" xmlns="http://www.w3.org/2000/svg">
    <path d="M40.4693 9.88301C36.306 9.88301 32.1427 9.89119 27.9793 9.87155C27.4638 9.86828 27.2347 10.0352 27.0613 10.5229C25.9091 13.7501 23.0158 15.768 19.615 15.7631C16.2847 15.7565 13.3962 13.7043 12.2523 10.4885C12.0854 10.0221 11.8612 9.86992 11.3718 9.87319C8.24935 9.89446 5.12685 9.88955 2.00435 9.8781C0.986433 9.87482 0.166532 9.15475 0.0372457 8.2072C-0.103496 7.16473 0.452925 6.26137 1.41357 5.95861C1.69341 5.87024 1.97817 5.88006 2.26292 5.88006C5.26268 5.87842 8.26408 5.86533 11.2638 5.89151C11.8104 5.89642 12.0854 5.75896 12.2818 5.20581C13.4044 2.04403 16.3174 0.00491855 19.6281 8.96063e-06C22.9994 -0.00490063 25.9042 2.00803 27.0449 5.19435C27.238 5.73604 27.4982 5.89315 28.0546 5.89151C36.2995 5.87351 44.5459 5.87842 52.7908 5.88006C54.1114 5.88006 54.9641 6.64268 54.9854 7.82589C55.0066 9.03201 54.1605 9.87973 52.9004 9.88301C49.3901 9.88955 45.8797 9.88628 42.3694 9.88628C41.7344 9.88301 41.101 9.88301 40.4693 9.88301ZM23.528 7.86353C23.5083 5.75568 21.7065 3.97514 19.633 4.01278C17.517 4.05042 15.743 5.85878 15.797 7.92245C15.8527 10.0221 17.5923 11.7437 19.6625 11.7437C21.7524 11.747 23.5476 9.9452 23.528 7.86353Z" fill="#006181"/>
    <path d="M14.5668 25.4758C18.7105 25.4758 22.8526 25.4659 26.9963 25.4872C27.5363 25.4905 27.7736 25.3154 27.9553 24.8064C29.0829 21.643 31.9893 19.6006 35.3 19.5957C38.6729 19.5908 41.5778 21.6005 42.7217 24.7835C42.9132 25.317 43.1603 25.4938 43.7265 25.4889C46.8277 25.461 49.9306 25.4692 53.0335 25.4807C53.9581 25.4839 54.6913 26.0731 54.9269 26.9372C55.1675 27.8225 54.8009 28.7325 54.0137 29.2136C53.6308 29.4476 53.2135 29.4853 52.7765 29.4836C49.7768 29.4787 46.7754 29.4934 43.7756 29.4705C43.2143 29.4656 42.9213 29.5965 42.7135 30.1824C41.5827 33.3589 38.6598 35.3686 35.2886 35.3604C31.9828 35.3539 29.0779 33.3066 27.952 30.1382C27.7671 29.6178 27.5134 29.4705 26.9832 29.4705C18.7171 29.4853 10.451 29.482 2.18486 29.4803C0.911636 29.4803 0.0524585 28.7079 0.0213644 27.5607C-0.00972965 26.3644 0.808536 25.4872 2.01466 25.4807C4.52509 25.4659 7.03553 25.4758 9.54596 25.4758C11.2201 25.4758 12.8943 25.4758 14.5668 25.4758ZM35.354 31.3444C37.457 31.3296 39.2424 29.5262 39.2081 27.4511C39.1737 25.3579 37.4488 23.6363 35.3622 23.6118C33.2822 23.5872 31.4836 25.3743 31.4771 27.4723C31.4705 29.5622 33.2691 31.3591 35.354 31.3444Z" fill="#006181"/>
    <path d="M40.4322 49.0829C36.3295 49.0829 32.2283 49.0943 28.1255 49.0698C27.5298 49.0665 27.2402 49.2138 27.0242 49.8128C25.8868 52.9795 22.9607 54.9711 19.5763 54.9613C16.3098 54.9515 13.3984 52.9009 12.2823 49.767C12.0892 49.2236 11.8273 49.0665 11.2726 49.0698C8.19098 49.096 5.1094 49.0927 2.02781 49.0763C0.496022 49.0681 -0.454803 47.5282 0.221084 46.178C0.605668 45.4089 1.25864 45.0734 2.11455 45.075C5.1765 45.0816 8.2368 45.0668 11.2988 45.0881C11.8241 45.0914 12.0843 44.9523 12.2708 44.427C13.4033 41.2325 16.3098 39.1982 19.6631 39.1982C23.0196 39.1982 25.9146 41.2243 27.0553 44.427C27.2418 44.9523 27.5037 45.0881 28.029 45.0881C36.2951 45.0734 44.5612 45.0767 52.8273 45.0799C54.13 45.0799 54.9777 45.8687 54.9859 47.0618C54.9924 48.2172 54.166 49.0731 52.9861 49.0796C50.3742 49.0927 47.7606 49.0845 45.1487 49.0845C43.5744 49.0829 42.0033 49.0829 40.4322 49.0829ZM23.5285 47.106C23.5613 45.0292 21.7791 43.229 19.6745 43.2143C17.5879 43.1996 15.7943 44.9899 15.7976 47.083C15.8008 49.1549 17.5208 50.8929 19.6205 50.9469C21.6793 50.9976 23.4958 49.2138 23.5285 47.106Z" fill="#006181"/>
</svg>
