<?xml version="1.0" encoding="UTF-8"?>
<!DOCTYPE svg PUBLIC "-//W3C//DTD SVG 1.1//EN" "http://www.w3.org/Graphics/SVG/1.1/DTD/svg11.dtd">
<svg xmlns="http://www.w3.org/2000/svg" version="1.1" width="512px" height="512px" style="shape-rendering:geometricPrecision; text-rendering:geometricPrecision; image-rendering:optimizeQuality; fill-rule:evenodd; clip-rule:evenodd" xmlns:xlink="http://www.w3.org/1999/xlink">
<g><path style="opacity:0.931" fill="#fefffe" d="M 168.5,78.5 C 188.985,76.513 202.485,85.1797 209,104.5C 209.965,125.231 209.632,145.898 208,166.5C 199.034,185.831 184.2,192.664 163.5,187C 151.97,182.14 144.803,173.64 142,161.5C 141.049,141.448 141.382,121.448 143,101.5C 147.615,89.3788 156.115,81.7121 168.5,78.5 Z M 170.5,94.5 C 181.338,93.1898 188.838,97.5231 193,107.5C 193.667,125.167 193.667,142.833 193,160.5C 186.888,172.643 177.722,175.81 165.5,170C 161.884,167.258 159.384,163.758 158,159.5C 157.333,142.167 157.333,124.833 158,107.5C 160.353,101.315 164.52,96.982 170.5,94.5 Z"/></g>
<g><path style="opacity:0.931" fill="#fefffe" d="M 253.5,78.5 C 274.762,76.3663 288.596,85.3663 295,105.5C 295.667,124.167 295.667,142.833 295,161.5C 290.385,178.611 279.219,187.944 261.5,189.5C 240.074,187.575 228.574,175.908 227,154.5C 226.333,140.5 226.333,126.5 227,112.5C 228.214,95.1305 237.047,83.7971 253.5,78.5 Z M 256.5,94.5 C 267.802,93.2269 275.302,97.8936 279,108.5C 279.667,125.5 279.667,142.5 279,159.5C 274.663,170.417 266.83,174.584 255.5,172C 247.88,168.702 243.713,162.869 243,154.5C 242.096,138.46 242.43,122.46 244,106.5C 246.769,100.895 250.936,96.8947 256.5,94.5 Z"/></g>
<g><path style="opacity:0.925" fill="#fefffe" d="M 329.5,78.5 C 347.799,77.4598 357.799,86.1264 359.5,104.5C 356.405,127.376 344.072,134.876 322.5,127C 308.292,112.662 307.959,97.9953 321.5,83C 324.099,81.205 326.766,79.705 329.5,78.5 Z M 333.5,94.5 C 338.929,94.4259 342.096,97.0925 343,102.5C 343.874,110.619 340.374,114.452 332.5,114C 325.711,107.038 326.044,100.538 333.5,94.5 Z"/></g>
<g><path style="opacity:0.934" fill="#fefffe" d="M 92.5,80.5 C 101.506,80.3336 110.506,80.5002 119.5,81C 121.333,81.5 122.5,82.6667 123,84.5C 123.667,117.5 123.667,150.5 123,183.5C 118.333,188.833 113.667,188.833 109,183.5C 107.533,154.55 107.033,125.55 107.5,96.5C 103.154,96.6657 98.8206,96.499 94.5,96C 87.2807,91.8343 86.614,86.6676 92.5,80.5 Z"/></g>
<g><path style="opacity:0.917" fill="#fefffe" d="M 382.5,82.5 C 392.535,82.3813 395.702,87.048 392,96.5C 380.333,124.167 368.667,151.833 357,179.5C 352.333,184.833 347.667,184.833 343,179.5C 342.262,175.739 342.595,172.072 344,168.5C 355.528,141.581 366.862,114.581 378,87.5C 379.025,85.313 380.525,83.6464 382.5,82.5 Z"/></g>
<g><path style="opacity:0.927" fill="#fefffe" d="M 393.5,136.5 C 408.275,135.133 417.775,141.466 422,155.5C 424.632,167.269 421.466,177.102 412.5,185C 394.024,193.176 381.857,187.676 376,168.5C 373.786,153.25 379.62,142.583 393.5,136.5 Z M 396.5,152.5 C 401.385,151.856 404.552,153.856 406,158.5C 408.199,165.764 405.866,170.764 399,173.5C 391.677,169.833 389.677,164.167 393,156.5C 394.376,155.295 395.542,153.962 396.5,152.5 Z"/></g>
<g><path style="opacity:0.935" fill="#fefffe" d="M 511.5,255.5 C 511.5,260.167 511.5,264.833 511.5,269.5C 506.034,282.722 501.034,296.222 496.5,310C 501.132,324.071 506.132,337.904 511.5,351.5C 511.5,356.167 511.5,360.833 511.5,365.5C 508.061,374.761 501.395,380.261 491.5,382C 467.833,382.667 444.167,382.667 420.5,382C 404.427,377.717 397.427,367.217 399.5,350.5C 303.5,350.5 207.5,350.5 111.5,350.5C 113.573,367.217 106.573,377.717 90.5,382C 66.8333,382.667 43.1667,382.667 19.5,382C 9.60526,380.261 2.9386,374.761 -0.5,365.5C -0.5,360.833 -0.5,356.167 -0.5,351.5C 4.86833,337.904 9.86833,324.071 14.5,310C 9.96633,296.222 4.96633,282.722 -0.5,269.5C -0.5,264.833 -0.5,260.167 -0.5,255.5C 2.64896,247.519 8.31563,242.019 16.5,239C 32.1631,238.5 47.8298,238.333 63.5,238.5C 61.6068,216.228 71.7734,205.561 94,206.5C 98.1667,206.667 102.333,206.833 106.5,207C 108.333,207.5 109.5,208.667 110,210.5C 111.227,214.591 110.394,218.091 107.5,221C 99.9376,222.267 92.2709,222.934 84.5,223C 82.3333,223.833 80.8333,225.333 80,227.5C 79.3333,261.167 79.3333,294.833 80,328.5C 80.7845,330.286 81.9512,331.786 83.5,333C 140.752,334.163 198.085,334.663 255.5,334.5C 312.915,334.663 370.248,334.163 427.5,333C 429.049,331.786 430.215,330.286 431,328.5C 431.986,294.082 431.653,259.748 430,225.5C 429.097,224.299 427.931,223.465 426.5,223C 328.5,222.667 230.5,222.333 132.5,222C 126.566,218.274 125.566,213.608 129.5,208C 229.419,206.338 329.419,206.005 429.5,207C 443.845,212.504 449.845,223.004 447.5,238.5C 463.17,238.333 478.837,238.5 494.5,239C 502.684,242.019 508.351,247.519 511.5,255.5 Z M 19.5,254.5 C 34.1667,254.5 48.8333,254.5 63.5,254.5C 63.3334,280.169 63.5,305.835 64,331.5C 69.3115,346.085 79.8115,352.418 95.5,350.5C 95.665,353.85 95.4983,357.183 95,360.5C 93.8333,363 92,364.833 89.5,366C 66.8333,366.667 44.1667,366.667 21.5,366C 16.0758,363.983 14.2425,360.15 16,354.5C 21.4695,339.924 26.6362,325.257 31.5,310.5C 27.0305,295.592 21.8638,280.925 16,266.5C 14.5934,261.643 15.76,257.643 19.5,254.5 Z M 447.5,254.5 C 462.17,254.333 476.837,254.5 491.5,255C 495.277,257.955 496.443,261.788 495,266.5C 489.136,280.925 483.97,295.592 479.5,310.5C 484.364,325.257 489.53,339.924 495,354.5C 496.758,360.15 494.924,363.983 489.5,366C 466.833,366.667 444.167,366.667 421.5,366C 419,364.833 417.167,363 416,360.5C 415.502,357.183 415.335,353.85 415.5,350.5C 431.188,352.418 441.688,346.085 447,331.5C 447.5,305.835 447.667,280.169 447.5,254.5 Z M 210.5,262.5 C 225.653,263.147 231.486,270.814 228,285.5C 220.016,295.332 211.349,295.999 202,287.5C 196.367,276.231 199.201,267.898 210.5,262.5 Z"/></g>
<g><path style="opacity:0.933" fill="#fefffe" d="M 123.5,246.5 C 128.384,245.861 132.217,247.527 135,251.5C 137.333,259.5 139.667,267.5 142,275.5C 144.266,266.701 146.933,258.035 150,249.5C 155.281,245.301 160.281,245.634 165,250.5C 169.56,268.624 172.56,286.958 174,305.5C 169.333,310.833 164.667,310.833 160,305.5C 158.284,299.252 156.95,292.919 156,286.5C 153.973,293.277 151.639,299.943 149,306.5C 144.333,310.5 139.667,310.5 135,306.5C 132.653,300.122 130.32,293.789 128,287.5C 127.139,294.013 125.639,300.346 123.5,306.5C 119.333,310.417 115.167,310.417 111,306.5C 109.517,303.298 109.183,299.964 110,296.5C 112.667,281.833 115.333,267.167 118,252.5C 119.36,249.977 121.193,247.977 123.5,246.5 Z"/></g>
<g><path style="opacity:0.924" fill="#fefffe" d="M 208.5,246.5 C 234.743,246.318 246.91,259.318 245,285.5C 239.158,303.012 226.991,310.845 208.5,309C 187.954,303.086 179.788,289.586 184,268.5C 188.286,256.708 196.453,249.374 208.5,246.5 Z M 210.5,262.5 C 199.201,267.898 196.367,276.231 202,287.5C 211.349,295.999 220.016,295.332 228,285.5C 231.486,270.814 225.653,263.147 210.5,262.5 Z"/></g>
<g><path style="opacity:0.93" fill="#fefffe" d="M 262.5,246.5 C 266.192,245.971 269.358,246.971 272,249.5C 277.752,258.672 283.752,267.672 290,276.5C 289.434,268.553 289.434,260.553 290,252.5C 293.994,245.337 298.994,244.67 305,250.5C 306.138,267.823 306.471,285.156 306,302.5C 304.839,306.833 302.005,308.833 297.5,308.5C 295.192,308.635 293.192,307.969 291.5,306.5C 285.472,298.305 279.639,289.972 274,281.5C 273.907,289.909 273.24,298.243 272,306.5C 267.046,310.677 262.38,310.343 258,305.5C 257.333,287.167 257.333,268.833 258,250.5C 259.397,248.93 260.897,247.596 262.5,246.5 Z"/></g>
<g><path style="opacity:0.925" fill="#fefffe" d="M 324.5,246.5 C 332.507,246.334 340.507,246.5 348.5,247C 353.906,248.98 355.739,252.814 354,258.5C 352.833,259.667 351.667,260.833 350.5,262C 345.177,262.499 339.844,262.666 334.5,262.5C 334.5,265.167 334.5,267.833 334.5,270.5C 339.511,270.334 344.511,270.501 349.5,271C 354.833,275.667 354.833,280.333 349.5,285C 344.511,285.499 339.511,285.666 334.5,285.5C 334.5,288.167 334.5,290.833 334.5,293.5C 339.844,293.334 345.177,293.501 350.5,294C 354.212,296.602 355.378,300.102 354,304.5C 353.167,306.667 351.667,308.167 349.5,309C 341.167,309.667 332.833,309.667 324.5,309C 322.714,308.215 321.214,307.049 320,305.5C 318.391,288.553 318.058,271.553 319,254.5C 319.49,250.854 321.323,248.187 324.5,246.5 Z"/></g>
<g><path style="opacity:0.921" fill="#fefffe" d="M 370.5,246.5 C 373.32,246.248 375.986,246.748 378.5,248C 381.791,252.748 384.958,257.581 388,262.5C 390.667,258.5 393.333,254.5 396,250.5C 403.003,244.403 408.169,245.736 411.5,254.5C 407.434,262.966 402.601,270.966 397,278.5C 396.667,286.833 396.333,295.167 396,303.5C 393.983,308.924 390.15,310.758 384.5,309C 383.333,307.833 382.167,306.667 381,305.5C 380.667,296.833 380.333,288.167 380,279.5C 375.085,272.672 370.419,265.672 366,258.5C 364.309,253.131 365.809,249.131 370.5,246.5 Z"/></g>
<g><path style="opacity:0.937" fill="#fefffe" d="M 151.5,369.5 C 159.571,369.137 167.571,369.637 175.5,371C 187.25,377.413 190.584,386.913 185.5,399.5C 192.046,409.426 191.379,418.926 183.5,428C 181.833,429 180.167,430 178.5,431C 169.242,432.584 159.909,432.917 150.5,432C 149.069,431.535 147.903,430.701 147,429.5C 145.374,411.566 145.041,393.566 146,375.5C 147.021,372.65 148.854,370.65 151.5,369.5 Z M 161.5,385.5 C 164.187,385.336 166.854,385.503 169.5,386C 171.602,387.733 171.935,389.733 170.5,392C 167.518,392.498 164.518,392.665 161.5,392.5C 161.5,390.167 161.5,387.833 161.5,385.5 Z M 161.5,408.5 C 164.518,408.335 167.518,408.502 170.5,409C 174.221,410.714 174.887,413.047 172.5,416C 168.848,416.499 165.182,416.665 161.5,416.5C 161.5,413.833 161.5,411.167 161.5,408.5 Z"/></g>
<g><path style="opacity:0.935" fill="#fefffe" d="M 223.5,369.5 C 227.31,369.379 230.477,370.712 233,373.5C 240.089,390.433 246.589,407.6 252.5,425C 249.995,432.613 245.162,434.446 238,430.5C 236.589,428.35 235.755,426.016 235.5,423.5C 228.833,423.5 222.167,423.5 215.5,423.5C 214.855,430.994 210.855,433.827 203.5,432C 201.667,431.5 200.5,430.333 200,428.5C 199.333,425.833 199.333,423.167 200,420.5C 205.667,405.5 211.333,390.5 217,375.5C 218.436,372.558 220.603,370.558 223.5,369.5 Z M 225.5,399.5 C 227.02,401.89 228.02,404.557 228.5,407.5C 226.396,407.799 224.396,407.466 222.5,406.5C 223.312,404.055 224.312,401.722 225.5,399.5 Z"/></g>
<g><path style="opacity:0.922" fill="#fefffe" d="M 284.5,369.5 C 293.1,368.981 300.767,371.314 307.5,376.5C 311.117,386.059 307.784,390.225 297.5,389C 285.826,383.114 277.659,386.28 273,398.5C 271.994,406.981 275.494,412.814 283.5,416C 289.066,417.54 293.732,416.207 297.5,412C 307.68,408.34 311.846,411.84 310,422.5C 302.384,431.117 292.884,434.283 281.5,432C 261.682,425.538 253.849,412.038 258,391.5C 262.717,379.077 271.55,371.743 284.5,369.5 Z"/></g>
<g><path style="opacity:0.929" fill="#fefffe" d="M 327.5,369.5 C 335.215,370.207 338.715,374.54 338,382.5C 341.912,377.917 346.412,374.083 351.5,371C 361.048,370.253 364.215,374.42 361,383.5C 354.833,389 348.667,394.5 342.5,400C 349.333,406.833 356.167,413.667 363,420.5C 365.124,431.03 360.957,434.53 350.5,431C 346.333,426.833 342.167,422.667 338,418.5C 337.667,421.167 337.333,423.833 337,426.5C 335.02,431.906 331.186,433.739 325.5,432C 324.333,430.833 323.167,429.667 322,428.5C 321.333,410.5 321.333,392.5 322,374.5C 323.107,371.887 324.94,370.22 327.5,369.5 Z"/></g>
</svg>
