<svg width="11" height="7" viewBox="0 0 11 7" fill="none" xmlns="http://www.w3.org/2000/svg">
<path id="Vector" d="M-3.57628e-07 1.3248C-3.57628e-07 1.52976 0.0805403 1.70218 0.229339 1.84347C1.78608 3.31862 3.34234 4.7947 4.904 6.2652C5.24186 6.58356 5.71626 6.57612 6.05658 6.25543C7.62118 4.77936 9.18333 3.30049 10.743 1.82023C11.0838 1.49676 11.0833 1.04037 10.7553 0.730839C10.4273 0.420844 9.94648 0.420843 9.6037 0.744316C8.27825 1.99545 6.95527 3.24798 5.63719 4.50608C5.50607 4.6311 5.4383 4.63342 5.3057 4.50701C4.00481 3.26564 2.69803 2.03031 1.38978 0.796368C0.937487 0.369719 0.200858 0.538892 0.0343796 1.10311C0.0137535 1.17375 0.011295 1.25044 -3.57628e-07 1.3248Z" fill="#006181"/>
</svg>
