<svg width="11" height="6" viewBox="0 0 11 6" fill="none" xmlns="http://www.w3.org/2000/svg">
<path d="M-3.57628e-07 0.824801C-3.57628e-07 1.02976 0.0805403 1.20218 0.229339 1.34347C1.78608 2.81862 3.34234 4.2947 4.904 5.7652C5.24186 6.08356 5.71626 6.07612 6.05658 5.75543C7.62118 4.27936 9.18333 2.80049 10.743 1.32023C11.0838 0.996761 11.0833 0.540369 10.7553 0.230839C10.4273 -0.079156 9.94648 -0.0791571 9.6037 0.244316C8.27825 1.49545 6.95527 2.74798 5.63719 4.00608C5.50607 4.1311 5.4383 4.13342 5.3057 4.00701C4.00481 2.76564 2.69803 1.53031 1.38978 0.296368C0.937487 -0.130281 0.200858 0.0388919 0.0343796 0.60311C0.0137535 0.673754 0.011295 0.75044 -3.57628e-07 0.824801Z" fill="white"/>
</svg>
