<svg width="20" height="20" viewBox="0 0 20 20" fill="none" xmlns="http://www.w3.org/2000/svg">
<g id="Group">
<g id="Group_2">
<path id="Vector" d="M0.00405814 5.59004C0.329055 5.33935 0.703099 5.1724 1.05782 4.97324C2.07096 4.40499 3.08806 3.84467 4.10417 3.28236C4.30581 3.17089 4.47772 3.20458 4.56888 3.36906C4.65805 3.53007 4.59563 3.69208 4.38755 3.80801C3.47003 4.31928 2.55102 4.82758 1.63251 5.33688C1.59535 5.35768 1.5577 5.378 1.47942 5.4211C6.83989 5.4211 12.1563 5.4211 17.5152 5.4211C17.1432 5.21401 16.8058 5.02526 16.4679 4.83749C14.3391 3.6569 12.2078 2.48176 10.0844 1.29176C9.6737 1.06139 9.31155 1.06337 8.90233 1.2982C7.85253 1.90113 6.78737 2.4778 5.72866 3.06487C5.68556 3.08865 5.64196 3.11293 5.59638 3.13175C5.42992 3.19963 5.27386 3.14959 5.19707 3.00592C5.12078 2.86324 5.16487 2.70272 5.32489 2.61008C5.68853 2.40002 6.05762 2.19887 6.42473 1.99476C7.19213 1.56919 7.96252 1.14957 8.72596 0.718059C9.24665 0.423779 9.75347 0.430219 10.2742 0.72004C12.0334 1.70048 13.7961 2.67448 15.5573 3.65096C16.6215 4.241 17.6847 4.83402 18.7518 5.41912C18.9307 5.51721 19.0169 5.64057 19.0065 5.84667C18.9951 6.06861 18.9916 6.29205 19.0065 6.514C19.0456 7.11396 18.6101 7.63663 17.9131 7.70598C17.7872 7.71837 17.7114 7.76643 17.6431 7.86402C17.3884 8.22865 17.1303 8.5913 16.8697 8.95148C16.8048 9.04115 16.7781 9.13379 16.7781 9.24427C16.78 11.4008 16.78 13.5574 16.7781 15.714C16.7781 15.8245 16.8058 15.9161 16.8707 16.0058C17.1313 16.3665 17.3899 16.7281 17.6431 17.0942C17.7139 17.1968 17.7966 17.2429 17.9205 17.2379C18.0934 17.2315 18.2663 17.2325 18.4382 17.2587C18.7652 17.3092 18.9961 17.5619 19.0025 17.8924C19.0079 18.1579 18.9891 18.4249 19.0079 18.689C19.0347 19.0685 18.8871 19.3335 18.5462 19.496C12.4203 19.496 6.29493 19.4955 0.169034 19.5C0.0263522 19.5 -0.00188701 19.4643 9.46777e-05 19.3276C0.00901227 18.7906 0.00356262 18.253 0.00356262 17.716C0.140794 17.3841 0.3999 17.2414 0.747687 17.2379C0.846771 17.2369 0.945855 17.23 1.04395 17.2374C1.18861 17.2488 1.28423 17.1958 1.36746 17.0734C1.60675 16.7207 1.85545 16.3744 2.10712 16.0301C2.18391 15.925 2.2176 15.8185 2.21711 15.6882C2.21414 13.55 2.21414 11.4112 2.21711 9.273C2.21711 9.1432 2.18837 9.03421 2.11059 8.92918C1.89806 8.64085 1.68255 8.3535 1.48785 8.05278C1.35111 7.84123 1.20645 7.71639 0.928516 7.68419C0.449443 7.6282 0.159621 7.29776 0.00306747 6.85089C0.00405831 6.43027 0.00405814 6.01016 0.00405814 5.59004ZM9.49386 17.2364C10.5937 17.2364 11.694 17.2344 12.7939 17.2389C12.9385 17.2394 13.0322 17.1948 13.1154 17.0724C13.3507 16.7241 13.5969 16.3838 13.8442 16.0444C13.917 15.9444 13.9487 15.8413 13.9477 15.7179C13.9442 15.1125 13.9462 14.5066 13.9462 13.9012C13.9462 13.8081 13.9457 13.715 13.9824 13.6278C14.0592 13.4454 14.2747 13.3865 14.4293 13.5049C14.5333 13.5847 14.5526 13.6971 14.5521 13.8195C14.5506 14.3694 14.5556 14.9193 14.5492 15.4692C14.5472 15.6184 14.5913 15.6788 14.7478 15.6758C15.1679 15.6679 15.5881 15.6689 16.0082 15.6753C16.1548 15.6778 16.1989 15.6238 16.1984 15.4801C16.1949 13.4717 16.1944 11.4633 16.1989 9.45482C16.1994 9.29877 16.1365 9.26855 16.0002 9.27053C15.5925 9.27647 15.1843 9.28093 14.7765 9.26904C14.5962 9.26359 14.5457 9.32255 14.5472 9.49991C14.5551 10.4268 14.5511 11.3538 14.5506 12.2807C14.5506 12.3486 14.5561 12.4184 14.5422 12.4838C14.5105 12.6339 14.4159 12.7241 14.2588 12.7286C14.1107 12.7325 14.0081 12.6577 13.973 12.5145C13.9512 12.4259 13.9467 12.3312 13.9462 12.2396C13.9442 11.2448 13.9442 10.2495 13.9462 9.25467C13.9462 9.13379 13.9269 9.02628 13.8526 8.92472C13.591 8.56505 13.3334 8.2024 13.0792 7.83678C13.0158 7.74562 12.9425 7.71094 12.832 7.71094C10.6071 7.71342 8.38263 7.71342 6.15769 7.71094C6.04622 7.71094 5.97488 7.74958 5.91196 7.83975C5.66128 8.19992 5.40713 8.55712 5.14951 8.91234C5.07668 9.01241 5.04646 9.11645 5.04646 9.23932C5.04844 11.4023 5.04844 13.5653 5.04646 15.7284C5.04646 15.8453 5.07668 15.9429 5.14555 16.0375C5.39227 16.3774 5.63948 16.7177 5.87431 17.066C5.96101 17.1943 6.0591 17.2399 6.2107 17.2394C7.30608 17.2339 8.39997 17.2364 9.49386 17.2364ZM9.48842 18.905C12.3485 18.905 15.2091 18.905 18.0691 18.905C18.137 18.905 18.2049 18.904 18.2727 18.9025C18.3693 18.9005 18.4214 18.855 18.4209 18.7544C18.4199 18.5012 18.4209 18.2481 18.4199 17.9944C18.4194 17.8859 18.358 17.8398 18.2544 17.8403C18.1989 17.8403 18.1434 17.8393 18.0875 17.8393C12.3609 17.8393 6.63379 17.8393 0.907212 17.8393C0.85767 17.8393 0.808128 17.8418 0.759081 17.8393C0.624326 17.8334 0.56983 17.8998 0.572307 18.0311C0.575775 18.2164 0.572803 18.4016 0.572803 18.5869C0.572803 18.9045 0.572802 18.9045 0.888386 18.9045C3.75539 18.905 6.6219 18.905 9.48842 18.905ZM9.51467 6.04384C6.69721 6.04384 3.88024 6.04384 1.06277 6.04384C0.538123 6.04384 0.483626 6.11122 0.585683 6.63637C0.643648 6.9361 0.832899 7.09612 1.13957 7.10405C1.19505 7.10553 1.25054 7.10504 1.30652 7.10504C6.76805 7.10504 12.2296 7.10504 17.6916 7.10504C17.7412 7.10504 17.7907 7.10553 17.8397 7.10454C18.1846 7.09761 18.3921 6.9039 18.4189 6.56057C18.4253 6.48081 18.4214 6.40005 18.4214 6.31979C18.4214 6.04434 18.4214 6.04434 18.1519 6.04384C15.273 6.04384 12.3936 6.04384 9.51467 6.04384ZM2.79824 12.4645C2.79824 13.4658 2.80072 14.4665 2.79576 15.4678C2.79527 15.6154 2.83341 15.6788 2.99244 15.6758C3.41256 15.6674 3.83268 15.6689 4.2528 15.6753C4.39746 15.6773 4.44552 15.6263 4.44552 15.4811C4.44205 13.4727 4.44155 11.4643 4.44601 9.45631C4.44651 9.30273 4.38607 9.26855 4.24834 9.27053C3.84061 9.27697 3.43238 9.28093 3.02514 9.26904C2.84679 9.26409 2.79328 9.31908 2.79477 9.49842C2.8027 10.4868 2.79824 11.4757 2.79824 12.4645ZM16.9931 7.75057C16.9594 7.72927 16.9495 7.71738 16.9396 7.71738C15.9135 7.7154 14.8875 7.71441 13.862 7.71292C13.7426 7.71292 13.7594 7.76593 13.81 7.83727C13.9864 8.0835 14.1632 8.32923 14.3371 8.57694C14.3951 8.65967 14.4768 8.66809 14.566 8.66809C15.1035 8.6676 15.6416 8.66809 16.1791 8.6676C16.2465 8.6676 16.3247 8.6785 16.3693 8.61756C16.5799 8.33071 16.785 8.04039 16.9931 7.75057ZM2.00209 7.75008C2.20522 8.03445 2.40339 8.30941 2.59908 8.58635C2.64862 8.6562 2.71798 8.6676 2.79477 8.6671C3.34469 8.66661 3.89461 8.66512 4.44502 8.66859C4.55699 8.66908 4.62882 8.62351 4.69025 8.53433C4.84136 8.31585 4.9994 8.10183 5.151 7.88434C5.18122 7.84124 5.24562 7.79863 5.2159 7.74215C5.18617 7.68567 5.11483 7.71391 5.06232 7.71391C4.09823 7.71243 3.13413 7.71242 2.17004 7.71342C2.12248 7.71342 2.07145 7.70004 2.00209 7.75008ZM15.3676 17.2364C15.861 17.2364 16.3545 17.2359 16.8474 17.2369C16.948 17.2369 17.0134 17.229 16.9257 17.1096C16.7508 16.8708 16.5789 16.63 16.4114 16.3858C16.3505 16.2971 16.2727 16.2783 16.1736 16.2788C15.6371 16.2812 15.1006 16.2822 14.564 16.2783C14.4545 16.2773 14.3797 16.31 14.3168 16.4031C14.1652 16.628 14.0032 16.846 13.8481 17.0685C13.8184 17.1116 13.752 17.1542 13.7867 17.2102C13.8174 17.2602 13.8892 17.2359 13.9428 17.2359C14.4179 17.2369 14.893 17.2364 15.3676 17.2364ZM3.62361 17.2364C4.10516 17.2364 4.58671 17.2369 5.06777 17.2359C5.11582 17.2359 5.18072 17.2557 5.20747 17.2121C5.24265 17.1542 5.17824 17.1126 5.14852 17.07C4.99296 16.8475 4.83095 16.629 4.67935 16.4041C4.61693 16.3115 4.54262 16.2773 4.43263 16.2783C3.8956 16.2822 3.35856 16.2822 2.82152 16.2783C2.71253 16.2773 2.63574 16.3085 2.57282 16.4006C2.41974 16.6251 2.25872 16.8435 2.10267 17.066C2.07542 17.1046 2.02439 17.1443 2.04817 17.1953C2.0769 17.2572 2.14577 17.2349 2.19828 17.2354C2.67339 17.2369 3.1485 17.2364 3.62361 17.2364Z" fill="black"/>
<path id="Vector_2" d="M9.50083 2.17017C10.2068 2.17166 10.7988 2.76368 10.8013 3.47065C10.8038 4.17068 10.2078 4.77064 9.50331 4.77708C8.79782 4.78352 8.18697 4.17068 8.19341 3.46471C8.20035 2.75774 8.79535 2.16868 9.50083 2.17017ZM10.1934 3.48105C10.1959 3.07778 9.89964 2.77855 9.49786 2.77805C9.10301 2.77805 8.80526 3.06985 8.80129 3.46124C8.79733 3.85411 9.10746 4.17019 9.49686 4.17019C9.87983 4.17068 10.1914 3.86253 10.1934 3.48105Z" fill="black"/>
<path id="Vector_3" d="M6.29527 12.4749C6.2705 10.8549 7.57296 9.26901 9.49916 9.27149C11.4452 9.27396 12.7145 10.8796 12.7016 12.4798C12.6872 14.2495 11.2619 15.6867 9.49421 15.6862C7.72753 15.6857 6.29477 14.2475 6.29527 12.4749ZM9.4848 15.0793C10.9384 15.0833 12.116 13.9299 12.1066 12.4759C12.0967 10.9832 10.9166 9.88383 9.51799 9.86847C8.0669 9.85262 6.87888 11.0436 6.88581 12.4893C6.89275 13.922 8.05055 15.0754 9.4848 15.0793Z" fill="black"/>
<path id="Vector_4" d="M9.80154 11.7388C9.80154 11.7695 9.80154 11.8007 9.80154 11.8314C9.80154 12.1252 9.80253 12.1232 10.0834 12.2258C10.3594 12.3268 10.5372 12.5265 10.6071 12.8069C10.6784 13.0918 10.6789 13.3856 10.6056 13.6694C10.5219 13.9939 10.3098 14.208 9.97543 14.2763C9.86247 14.2996 9.80748 14.3422 9.79064 14.4631C9.76834 14.6202 9.6653 14.7187 9.49933 14.7197C9.33336 14.7207 9.22635 14.6241 9.20604 14.4666C9.18969 14.3422 9.12826 14.3046 9.01976 14.2793C8.63977 14.1906 8.38364 13.88 8.35589 13.4876C8.34301 13.3003 8.44804 13.1601 8.61401 13.1428C8.78889 13.1245 8.9177 13.2241 8.94743 13.4133C8.9613 13.5015 8.97913 13.5832 9.048 13.6442C9.07574 13.6689 9.10844 13.6942 9.14708 13.6813C9.18919 13.6675 9.19118 13.6248 9.19118 13.5882C9.19167 13.3598 9.19068 13.1314 9.19118 12.903C9.19167 12.8163 9.13618 12.7856 9.06385 12.7707C8.61104 12.6786 8.39702 12.3784 8.35243 11.9404C8.3336 11.7566 8.3341 11.5713 8.3663 11.3865C8.43318 11.0036 8.66553 10.746 9.04205 10.6692C9.14411 10.6484 9.18771 10.6152 9.20109 10.5096C9.2214 10.3437 9.32296 10.2322 9.49437 10.2312C9.66579 10.2302 9.7728 10.3397 9.79014 10.5057C9.80302 10.6256 9.86099 10.6503 9.96453 10.6731C10.3559 10.7583 10.6185 11.0769 10.6403 11.4747C10.6502 11.6521 10.5372 11.7977 10.3728 11.82C10.2207 11.8408 10.0844 11.7318 10.0463 11.5575C10.0398 11.5272 10.0413 11.495 10.0329 11.4658C10.0081 11.3816 9.9789 11.278 9.87734 11.2845C9.75645 11.2924 9.80897 11.4078 9.80203 11.4787C9.79509 11.5654 9.80154 11.6526 9.80154 11.7388ZM9.19266 11.7299C9.19316 11.7299 9.19316 11.7299 9.19365 11.7299C9.19365 11.6313 9.19663 11.5327 9.19266 11.4341C9.19019 11.3771 9.21496 11.2964 9.12727 11.284C9.04701 11.2731 9.00143 11.338 8.98409 11.4044C8.93058 11.6095 8.93554 11.8175 8.98013 12.0241C8.98756 12.0573 9.0158 12.0885 9.04106 12.1148C9.07029 12.1455 9.10646 12.1777 9.15352 12.1584C9.19464 12.1416 9.19217 12.0989 9.19266 12.0623C9.19316 11.9518 9.19266 11.8408 9.19266 11.7299ZM9.80253 13.2369C9.80203 13.2369 9.80203 13.2369 9.80154 13.2369C9.80154 13.3355 9.79955 13.4341 9.80253 13.5327C9.80401 13.5852 9.78172 13.661 9.84662 13.6793C9.92391 13.7011 9.97345 13.6343 9.99971 13.5728C10.0814 13.3841 10.0383 13.1849 10.0329 12.9897C10.0319 12.9496 10.0066 12.9075 9.98385 12.8718C9.95759 12.8297 9.91945 12.792 9.86297 12.8039C9.79807 12.8173 9.80352 12.8748 9.80253 12.9228C9.80104 13.0274 9.80253 13.1324 9.80253 13.2369Z" fill="black"/>
</g>
</g>
</svg>
