<svg width="28" height="31" viewBox="0 0 28 31" fill="none" xmlns="http://www.w3.org/2000/svg">
<g id="Group">
<g id="Group_2">
<path id="Vector" d="M4.15267 30.6913C3.26682 30.5209 2.45059 30.1952 1.75599 29.6022C0.60046 28.6163 0.014693 27.3552 0.0122923 25.8451C0.00268955 19.3065 0.00589011 12.7678 0.0106915 6.22917C0.0114917 5.43294 -0.0509265 4.63272 0.117121 3.84209C0.594057 1.58785 2.52741 0.00340119 4.82966 0.00260096C9.76146 -0.000599951 14.6925 -0.00140062 19.6243 0.00340075C22.0618 0.00580143 24.1103 1.87513 24.3664 4.29742C24.4192 4.79676 24.4048 5.2945 24.4056 5.79225C24.4104 7.62877 24.408 9.46609 24.4056 11.3026C24.4056 11.4611 24.4 11.6235 24.3704 11.7787C24.2408 12.4637 23.7062 12.8583 23.0068 12.7982C22.4203 12.747 21.9513 12.2309 21.9329 11.5891C21.9185 11.0801 21.9289 10.5712 21.9281 10.0615C21.9281 8.37458 21.9289 6.6877 21.9281 5.00002C21.9273 3.42997 20.9422 2.44329 19.3618 2.44089C16.2969 2.43689 13.232 2.43929 10.168 2.43929C8.4707 2.43929 6.77421 2.43769 5.07693 2.44009C4.48716 2.44089 3.9246 2.54412 3.44127 2.91623C2.83469 3.38356 2.4914 3.99414 2.4914 4.76315C2.4866 11.8212 2.485 18.8784 2.4914 25.9364C2.4922 27.296 3.5621 28.2682 5.03532 28.2714C7.38159 28.277 9.72705 28.273 12.0733 28.273C13.4905 28.273 14.9085 28.273 16.3257 28.273C17.1043 28.273 17.5685 28.5955 17.7125 29.2341C17.8526 29.8535 17.5501 30.3648 16.8523 30.6897C12.6183 30.6913 8.38507 30.6913 4.15267 30.6913Z" fill="#006181"/>
<path id="Vector_2" d="M22.901 30.6914C22.2448 30.4441 21.9527 29.9568 21.9943 29.2702C22.0119 28.9829 21.9335 28.8669 21.6222 28.8093C20.2106 28.5476 19.2919 27.5377 19.1263 26.1221C19.0367 25.3595 19.5 24.7457 20.2394 24.6465C20.8916 24.5592 21.487 25.0706 21.587 25.8052C21.6486 26.2557 21.8126 26.4094 22.2704 26.415C22.7993 26.4222 23.3283 26.4262 23.8572 26.4134C24.523 26.3974 24.8607 26.0421 24.8647 25.3819C24.8647 25.3723 24.8647 25.3619 24.8647 25.3523C24.8687 24.284 24.5894 24.0031 23.5259 24.0031C22.8889 24.0031 22.2528 24.0351 21.6366 23.7934C20.265 23.2557 19.3944 21.9593 19.4168 20.4485C19.4384 18.9753 20.3154 17.7421 21.7022 17.2572C21.9175 17.182 22.0135 17.0771 21.9919 16.8499C21.9775 16.6914 21.9839 16.5306 21.9919 16.3713C22.0255 15.6791 22.5312 15.1702 23.1906 15.1582C23.8812 15.1462 24.4702 15.6271 24.443 16.3249C24.4198 16.9235 24.627 17.1539 25.1704 17.3788C26.2411 17.8213 26.8053 18.7112 26.9157 19.8683C26.9813 20.5509 26.5188 21.1615 25.8962 21.2447C25.1616 21.3431 24.5838 20.9118 24.4574 20.1724C24.3678 19.6459 24.2245 19.5146 23.6908 19.5162C23.3331 19.517 22.9722 19.4706 22.6169 19.5562C22.1223 19.6747 21.8911 19.9932 21.8943 20.5437C21.8975 21.0623 22.1695 21.4232 22.6417 21.5216C23.0762 21.6128 23.5171 21.5568 23.9557 21.5648C25.5697 21.5936 26.9229 22.6491 27.2414 24.2296C27.5119 25.5739 27.3838 26.8599 26.3411 27.901C25.8986 28.3427 25.3673 28.634 24.7599 28.7636C24.5158 28.8157 24.4422 28.9293 24.467 29.1518C24.471 29.191 24.4662 29.2318 24.4678 29.2718C24.4958 29.9584 24.2133 30.4457 23.5579 30.6946C23.3403 30.6914 23.1202 30.6914 22.901 30.6914Z" fill="#006181"/>
<path id="Vector_3" d="M14.6268 8.00969C13.3497 8.00889 12.0725 8.0153 10.7953 8.00649C10.1624 8.00249 9.66942 7.52796 9.5998 6.88698C9.53898 6.32522 9.9431 5.75625 10.5161 5.60901C10.6305 5.5794 10.7529 5.5738 10.8714 5.5738C13.3761 5.5722 15.8808 5.5706 18.3847 5.573C19.1257 5.5738 19.6691 6.08915 19.6747 6.78375C19.6803 7.48635 19.1281 8.00729 18.3687 8.00889C17.1211 8.01209 15.8736 8.00969 14.6268 8.00969Z" fill="#006181"/>
<path id="Vector_4" d="M14.635 12.8014C13.3579 12.8014 12.0807 12.8062 10.8035 12.799C10.1674 12.795 9.67602 12.3301 9.6008 11.6875C9.53518 11.1265 9.9345 10.5552 10.5083 10.4039C10.6315 10.3719 10.7643 10.3655 10.8932 10.3655C13.3875 10.3631 15.8826 10.3623 18.3769 10.3647C19.1323 10.3655 19.6869 10.8961 19.6749 11.5971C19.6629 12.2925 19.1211 12.799 18.3769 12.8006C17.1293 12.8038 15.8826 12.8022 14.635 12.8014Z" fill="#006181"/>
<path id="Vector_5" d="M14.6044 17.5941C13.3369 17.5941 12.0701 17.5989 10.8026 17.5917C10.1664 17.5877 9.67503 17.1219 9.59981 16.4802C9.53419 15.9192 9.93431 15.3478 10.5073 15.1974C10.6305 15.1654 10.7633 15.159 10.8922 15.159C13.3865 15.1566 15.8816 15.1558 18.3759 15.1582C19.1313 15.159 19.6859 15.6903 19.6739 16.3913C19.6619 17.0867 19.1201 17.5925 18.3759 17.5949C17.1188 17.5957 15.8616 17.5941 14.6044 17.5941Z" fill="#006181"/>
<path id="Vector_6" d="M13.4368 19.9482C14.2947 19.9482 15.1525 19.945 16.0111 19.949C16.7409 19.953 17.2907 20.4908 17.2787 21.1813C17.2667 21.8663 16.7297 22.3825 16.0103 22.3841C14.2947 22.3881 12.5782 22.3881 10.8625 22.3841C10.1335 22.3825 9.58292 21.8407 9.59492 21.1509C9.60612 20.4667 10.1447 19.9522 10.8625 19.9482C11.7203 19.945 12.579 19.9482 13.4368 19.9482Z" fill="#006181"/>
<path id="Vector_7" d="M6.35857 5.57208C7.22601 5.57208 7.67174 5.86096 7.83579 6.52995C8.00944 7.23895 7.47088 7.96796 6.73867 8.00557C6.50021 8.01757 6.26014 8.01277 6.02087 8.00797C5.33588 7.99436 4.80052 7.45501 4.80373 6.78602C4.80693 6.11463 5.34148 5.58568 6.02967 5.57288C6.1393 5.57048 6.24894 5.57288 6.35857 5.57208Z" fill="#006181"/>
<path id="Vector_8" d="M6.36731 10.3671C7.22836 10.3639 7.67648 10.6584 7.83733 11.3306C8.00378 12.026 7.47483 12.7526 6.75862 12.7958C6.48014 12.8126 6.20007 12.8118 5.92159 12.7958C5.30221 12.7614 4.79327 12.1956 4.80287 11.569C4.81247 10.9489 5.31181 10.4079 5.91839 10.3679C6.06803 10.3591 6.21767 10.3671 6.36731 10.3671Z" fill="#006181"/>
<path id="Vector_9" d="M6.27311 17.5931C5.98663 17.6083 5.65214 17.5979 5.35205 17.3923C4.91833 17.0946 4.71427 16.5585 4.85431 16.0559C5.00315 15.5222 5.44247 15.1725 5.98903 15.1581C6.20829 15.1525 6.42755 15.1533 6.64682 15.1573C7.33661 15.1693 7.86956 15.6974 7.87357 16.3696C7.87757 17.0386 7.34221 17.5771 6.65642 17.5923C6.54759 17.5955 6.43796 17.5931 6.27311 17.5931Z" fill="#006181"/>
<path id="Vector_10" d="M6.40245 19.9489C6.69773 19.9321 7.04183 19.9457 7.34671 20.1642C7.77244 20.4691 7.96529 21.0093 7.81565 21.511C7.662 22.0263 7.22508 22.3688 6.69133 22.3832C6.46246 22.3896 6.2328 22.3896 6.00313 22.384C5.33654 22.368 4.80919 21.8351 4.80279 21.1749C4.79639 20.5067 5.33254 19.9642 6.01594 19.9489C6.12637 19.9465 6.236 19.9489 6.40245 19.9489Z" fill="#006181"/>
</g>
</g>
</svg>
