<svg width="55" height="55" viewBox="0 0 55 55" fill="none" xmlns="http://www.w3.org/2000/svg">
    <path d="M0.0170138 53.2898C0.282561 52.8823 0.678752 52.8212 1.1289 52.8226C6.6912 52.8297 12.2549 52.8255 17.8172 52.8297C18.6493 52.8297 19.3963 52.638 19.9629 51.9791C20.298 51.59 20.5025 51.1441 20.5039 50.6272C20.5096 47.0487 20.5053 43.4702 20.5153 39.8917C20.5167 39.5239 20.3846 39.3635 20.0168 39.4032C19.9473 39.4103 19.8748 39.4047 19.8038 39.4047C19.0668 39.4047 19.064 39.4047 19.064 40.1246C19.0626 43.2956 19.064 46.4665 19.0626 49.6375C19.0626 49.8675 19.0668 50.1018 19.0242 50.3248C18.9092 50.9283 18.4903 51.2989 17.8768 51.3018C15.8221 51.3131 13.7673 51.3131 11.7125 51.3032C11.1487 51.3003 10.8235 50.968 10.8292 50.4625C10.8349 49.9584 11.1586 49.6474 11.7366 49.6446C13.4023 49.6346 15.068 49.6247 16.7323 49.6488C17.208 49.6559 17.3387 49.4955 17.333 49.0368C17.3103 47.4066 17.3103 45.7764 17.333 44.1476C17.3401 43.6847 17.1995 43.5299 16.728 43.5398C15.4173 43.5682 14.1066 43.554 12.7959 43.5469C11.6045 43.5398 10.8377 42.773 10.8249 41.5887C10.8193 41.0036 10.8122 40.4186 10.8264 39.8349C10.8335 39.5126 10.7028 39.3919 10.3861 39.4004C9.87209 39.4146 9.35803 39.4061 8.8454 39.4018C6.62304 39.3819 4.87497 37.6381 4.87497 35.4058C4.86929 24.9359 4.86929 14.4659 4.87497 3.99599C4.87639 1.76369 6.62446 0.00426012 8.84682 0.00426012C21.106 -0.00142004 33.3652 -0.00142004 45.6244 0.00426012C47.8212 0.00568016 49.5792 1.76085 49.5849 3.95339C49.5963 7.86844 49.5892 11.7835 49.5877 15.6985C49.5877 15.8405 49.5948 15.9854 49.5679 16.1217C49.477 16.5633 49.1845 16.8104 48.7457 16.8062C48.3069 16.8019 48.0158 16.5491 47.9391 16.1047C47.9064 15.9144 47.9206 15.7156 47.9206 15.521C47.9192 11.8005 47.9206 8.08002 47.9192 4.35952C47.9192 3.33851 47.6096 2.47229 46.6468 1.96391C46.1811 1.71825 45.6713 1.66571 45.1515 1.66571C40.5634 1.66713 35.9752 1.66712 31.3871 1.66712C24.1236 1.66712 16.8601 1.66712 9.5966 1.66712C9.38359 1.66712 9.17059 1.66003 8.959 1.67281C7.5276 1.75801 6.63866 2.64127 6.54635 4.07125C6.53641 4.23029 6.54067 4.38934 6.54067 4.54981C6.54067 14.6477 6.54067 24.7456 6.54067 34.8435C6.54067 34.9855 6.53784 35.1275 6.54352 35.2681C6.61168 36.7449 7.52618 37.6594 9.00586 37.729C9.16491 37.7361 9.32537 37.7319 9.48442 37.7319C21.319 37.7319 33.1522 37.7319 44.9868 37.7319C45.0749 37.7319 45.1643 37.7319 45.2524 37.7319C46.9536 37.7148 47.9164 36.7563 47.9192 35.0452C47.9249 30.156 47.922 25.2668 47.922 20.3761C47.922 20.1631 47.9164 19.9501 47.9249 19.7385C47.9476 19.2018 48.2998 18.8297 48.7684 18.8368C49.2384 18.8453 49.5863 19.2145 49.5863 19.7627C49.5906 25.0779 49.6048 30.3917 49.575 35.7069C49.565 37.5842 47.7729 39.3266 45.8956 39.3919C45.329 39.4118 44.761 39.4245 44.1959 39.3919C43.74 39.3663 43.6094 39.5495 43.6321 39.9784C43.6605 40.5265 43.6449 41.0761 43.6364 41.6256C43.6207 42.7517 42.8525 43.5327 41.7321 43.5427C40.4029 43.554 39.0738 43.5625 37.746 43.537C37.2916 43.5285 37.1198 43.652 37.1283 44.132C37.1539 45.7608 37.1553 47.3924 37.1283 49.0212C37.1198 49.5196 37.2902 49.6474 37.7702 49.646C42.9079 49.6304 48.0456 49.6361 53.1833 49.6375C53.3778 49.6375 53.5766 49.6233 53.7669 49.6531C54.2128 49.7212 54.4542 49.9953 54.4727 50.4469C54.4911 50.8956 54.21 51.2322 53.7627 51.2904C53.571 51.316 53.3736 51.3046 53.179 51.3046C47.8113 51.3046 42.4435 51.3046 37.0758 51.3046C35.7551 51.3046 35.3973 50.9524 35.3973 49.646C35.3959 46.4395 35.3987 43.2331 35.393 40.0266C35.393 39.8151 35.501 39.4927 35.1971 39.4359C34.8236 39.3663 34.4203 39.3138 34.0525 39.4828C33.9119 39.5467 33.9517 39.7355 33.9517 39.8747C33.9517 43.4532 33.9389 47.0317 33.9616 50.6102C33.9687 51.8655 35.0267 52.7928 36.4169 52.8198C37.4436 52.8397 38.4717 52.824 39.4998 52.8255C44.1419 52.8255 48.7826 52.824 53.4247 52.8269C54.1986 52.8269 54.6047 53.2501 54.4556 53.8749C54.3946 54.1347 54.2114 54.298 54.0183 54.4571C47.8184 54.4571 41.6171 54.4571 35.4172 54.4571C32.9917 53.7371 32.1284 51.874 32.1937 49.8647C32.2562 47.9533 32.1979 46.0391 32.2136 44.1263C32.2178 43.7003 32.1014 43.5043 31.6455 43.5398C31.2224 43.5725 30.7921 43.581 30.3718 43.5384C29.8236 43.483 29.6831 43.696 29.6873 44.2271C29.71 47.2376 29.693 50.2495 29.7044 53.2614C29.7058 53.7329 29.6007 54.1333 29.2528 54.4585C28.9688 54.4585 28.6862 54.4585 28.4022 54.4585C28.0529 54.1347 27.9492 53.7329 27.9506 53.2628C27.962 49.9513 27.9563 46.6383 27.9563 43.3268C27.9563 42.1936 27.9577 41.0604 27.9534 39.9258C27.9534 39.7568 28.0131 39.514 27.8086 39.4558C27.4337 39.3493 27.0205 39.3237 26.6612 39.4615C26.3886 39.5666 26.5149 39.9045 26.5149 40.1374C26.5078 44.5126 26.5064 48.8863 26.5164 53.2614C26.5178 53.7329 26.4127 54.1333 26.0648 54.4585C25.7808 54.4585 25.4982 54.4585 25.2142 54.4585C24.8649 54.1347 24.747 53.7343 24.7626 53.2614C24.7853 52.5713 24.7683 51.8797 24.7683 51.1896C24.7683 48.8337 24.7598 46.4779 24.7754 44.122C24.7782 43.6903 24.6504 43.5086 24.2017 43.5412C23.7615 43.5725 23.3142 43.5796 22.874 43.5398C22.3642 43.493 22.2449 43.7088 22.2506 44.1803C22.2705 46.2166 22.2591 48.2544 22.2591 50.2907C22.2591 50.9538 22.137 51.5914 21.8501 52.195C21.2778 53.3992 20.2923 54.0865 19.0498 54.4585C12.8826 54.4585 6.71676 54.4528 0.549528 54.4713C0.0922759 54.4727 -0.0539882 54.3676 0.0170138 53.9246C0.0439945 53.7187 0.0170138 53.5028 0.0170138 53.2898ZM14.9161 41.8784C15.5693 41.8784 16.2239 41.8699 16.8771 41.8826C17.1895 41.8883 17.3316 41.7733 17.3245 41.451C17.3131 40.9213 17.3103 40.3902 17.3259 39.8605C17.3358 39.5154 17.1952 39.3947 16.8544 39.3976C15.5466 39.4104 14.2401 39.4075 12.9323 39.399C12.6199 39.3961 12.4793 39.5026 12.4892 39.8293C12.5048 40.3419 12.4977 40.8545 12.4921 41.3657C12.4878 41.7208 12.6554 41.8812 13.009 41.8784C13.6437 41.8741 14.2799 41.8784 14.9161 41.8784ZM39.585 39.4047C38.9133 39.4047 38.2416 39.4146 37.5714 39.4004C37.2504 39.3947 37.1269 39.5268 37.1326 39.8406C37.1439 40.3703 37.1425 40.9014 37.1326 41.4311C37.1269 41.7335 37.2263 41.8855 37.5586 41.8841C38.8664 41.8741 40.1729 41.8784 41.4807 41.8798C41.8116 41.8798 41.965 41.7165 41.9636 41.3899C41.9621 40.8772 41.9494 40.3646 41.9692 39.8534C41.9834 39.497 41.823 39.3933 41.4921 39.4018C40.8573 39.4146 40.2212 39.4032 39.585 39.4047ZM23.4746 41.8798C24.7626 41.8798 24.7626 41.8798 24.7626 40.7012C24.7626 39.4032 24.7626 39.4032 23.4888 39.4032C22.2534 39.4032 22.2534 39.4033 22.2534 40.6344C22.2534 41.8798 22.2534 41.8798 23.4746 41.8798ZM30.9284 41.8798C32.2022 41.8798 32.2022 41.8798 32.2036 40.6884C32.2036 39.4032 32.2036 39.4032 30.9156 39.4032C29.6944 39.4032 29.6944 39.4032 29.6944 40.6486C29.6944 41.8798 29.6944 41.8798 30.9284 41.8798Z" fill="#00678F"/>
    <path d="M0.0166016 50.1016C0.228187 49.8176 0.485214 49.6373 0.862945 49.6387C3.19891 49.6444 5.53487 49.6358 7.87084 49.6444C8.47436 49.6472 8.83079 50.0363 8.75836 50.5787C8.69446 51.0545 8.39483 51.3015 7.9248 51.3015C5.55334 51.3072 3.18187 51.303 0.810403 51.3044C0.453973 51.3044 0.218247 51.107 0.0180219 50.8443C0.0166019 50.5972 0.0166016 50.3487 0.0166016 50.1016Z" fill="#00678F"/>
    <path d="M27.1915 36.2135C21.5412 36.2135 15.8894 36.2135 10.2391 36.2135C8.76368 36.2135 8.05934 35.5091 8.05792 34.0394C8.0565 32.2146 8.06076 30.3899 8.05792 28.5651C8.05792 28.142 8.24536 27.8523 8.64013 27.7088C9.00366 27.5768 9.29903 27.7145 9.54328 27.9843C9.73924 28.2002 9.72646 28.4714 9.72646 28.7384C9.72646 30.4396 9.72504 32.1394 9.72788 33.8406C9.7293 34.4867 9.78468 34.5435 10.4265 34.5435C21.6221 34.5449 32.8163 34.5449 44.0119 34.5435C44.6779 34.5435 44.729 34.4895 44.729 33.8051C44.7304 24.3987 44.7304 14.9924 44.729 5.58746C44.729 4.91153 44.6765 4.85756 44.0034 4.85756C38.4056 4.85614 32.8078 4.85756 27.21 4.85614C27.0154 4.85614 26.8181 4.86608 26.6264 4.84052C26.179 4.78088 25.9007 4.44575 25.9192 3.99418C25.9376 3.54119 26.1819 3.27138 26.6264 3.20179C26.7996 3.17481 26.9799 3.1876 27.1574 3.1876C32.8433 3.1876 38.5291 3.18618 44.2164 3.1876C45.6918 3.1876 46.3976 3.89052 46.3976 5.36168C46.399 14.9271 46.399 24.4924 46.3976 34.0578C46.3976 35.4949 45.6819 36.212 44.249 36.212C38.5632 36.2149 32.8774 36.2135 27.1915 36.2135Z" fill="#00678F"/>
    <path d="M27.245 31.7354C24.2331 31.7354 21.2226 31.7368 18.2107 31.7354C15.8761 31.734 14.1053 30.1009 13.9633 27.7877C13.9165 27.0322 14.1337 26.3151 14.5143 25.6562C17.5944 20.3183 20.6546 14.9676 23.7673 9.64953C25.3237 6.9898 29.1677 7.03098 30.7269 9.70349C33.3071 14.1241 35.849 18.566 38.4079 22.9993C38.895 23.8428 39.3863 24.6835 39.8705 25.5284C41.5107 28.3869 39.5766 31.734 36.2778 31.7368C33.2688 31.7382 30.2569 31.7354 27.245 31.7354ZM27.1796 29.993C30.2256 29.993 33.2716 29.9987 36.3176 29.9916C38.2631 29.9873 39.3693 28.0944 38.4008 26.4131C35.3804 21.1646 32.3486 15.9233 29.3239 10.6762C29.02 10.148 28.611 9.75462 28.0302 9.55581C26.9198 9.17524 25.7866 9.57427 25.193 10.5981C22.1385 15.8679 19.1053 21.149 16.0409 26.4131C15.0227 28.1612 16.4811 30.0725 18.1468 30.0186C21.1573 29.9248 24.1692 29.993 27.1796 29.993Z" fill="#00678F"/>
    <path d="M8.05727 14.84C8.05727 11.669 8.05585 8.49809 8.05727 5.32715C8.05869 3.91847 8.77581 3.18999 10.1675 3.18857C14.348 3.18714 18.5286 3.18714 22.7092 3.18857C22.8512 3.18857 22.9947 3.18288 23.1338 3.20134C23.5826 3.26099 23.8694 3.59328 23.8538 4.03917C23.8367 4.48932 23.5982 4.76765 23.1537 4.84007C22.9634 4.87131 22.7646 4.85711 22.5701 4.85711C18.5485 4.85853 14.5284 4.85711 10.5068 4.85853C9.7599 4.85853 9.72724 4.89119 9.72724 5.64097C9.72582 11.8764 9.72724 18.1118 9.72724 24.3472C9.72724 25.2304 9.46595 25.6323 8.8951 25.6351C8.32282 25.638 8.05869 25.2333 8.05869 24.3528C8.05727 21.1819 8.05727 18.0109 8.05727 14.84Z" fill="#00678F"/>
    <path d="M18.0159 10.1845C17.9648 11.2538 17.2704 12.3075 15.927 12.8954C15.5749 13.0488 15.4343 13.2263 15.4613 13.6012C15.4883 13.9704 15.4826 14.3467 15.4556 14.7159C15.4201 15.2001 15.0779 15.4927 14.6078 15.4799C14.1619 15.4685 13.8438 15.1831 13.8098 14.7187C13.7828 14.3481 13.7785 13.9732 13.8041 13.604C13.8296 13.2319 13.7018 13.0445 13.3397 12.8982C11.9055 12.3132 11.1302 10.9656 11.2565 9.36376C11.3616 8.02608 12.4437 6.80911 13.841 6.45552C15.9611 5.92016 18.0216 7.56315 18.0159 10.1845ZM16.336 9.77983C16.3516 8.89799 15.5451 8.07436 14.649 8.05874C13.7657 8.04312 12.9435 8.8497 12.9279 9.74433C12.9123 10.6262 13.7189 11.4498 14.6135 11.4654C15.4968 11.481 16.3204 10.6745 16.336 9.77983Z" fill="#00678F"/>
    <path d="M25.3126 28.7555C23.9735 28.7526 23.0902 27.4888 23.5332 26.286C23.8513 25.4241 24.2532 24.5933 24.6153 23.747C24.8752 23.142 24.8723 23.142 24.1879 23.1406C23.7448 23.1406 23.3018 23.1278 22.8601 23.1421C22.2254 23.1619 21.7525 22.8921 21.4813 22.334C21.2214 21.7973 21.3024 21.2676 21.663 20.7862C23.1186 18.8464 24.5727 16.9067 26.0268 14.9655C26.2398 14.6829 26.4457 14.3946 26.6658 14.1177C27.3304 13.287 28.2662 13.0939 29.114 13.6079C29.9121 14.0907 30.1875 15.0322 29.7928 15.978C29.452 16.7945 29.1055 17.6082 28.7377 18.4133C28.5644 18.7925 28.5914 18.9586 29.0629 18.9331C29.5741 18.9047 30.0896 18.9132 30.6022 18.9316C31.8035 18.9757 32.4994 20.204 31.7993 21.171C30.1066 23.507 28.3571 25.8018 26.6133 28.0994C26.2782 28.5425 25.7712 28.7228 25.3126 28.7555ZM28.1768 15.0705C28.0816 15.1444 28.0163 15.1756 27.978 15.2267C26.4983 17.1921 25.0229 19.1603 23.5418 21.1256C23.2989 21.4479 23.4935 21.4664 23.7533 21.465C24.479 21.4636 25.2046 21.4593 25.9303 21.4664C26.8789 21.4749 27.2239 21.9748 26.8604 22.841C26.362 24.0324 25.8394 25.2139 25.3339 26.4025C25.2628 26.5686 25.1038 26.722 25.2614 27.067C26.8661 24.9299 28.4239 22.8538 29.9845 20.7748C29.7786 20.603 29.5954 20.6627 29.4264 20.6598C28.7533 20.6499 28.0802 20.6783 27.4085 20.6442C26.5111 20.5988 26.1802 20.062 26.5253 19.2384C27.0322 18.0313 27.5605 16.8328 28.0731 15.6286C28.1413 15.4753 28.2804 15.3347 28.1768 15.0705Z" fill="#00678F"/>
</svg>
