<svg width="29" height="29" viewBox="0 0 29 29" fill="none" xmlns="http://www.w3.org/2000/svg">
<g id="Group">
<g id="Group_2">
<g id="Vector">
<mask id="path-1-outside-1_375_128" maskUnits="userSpaceOnUse" x="0" y="0" width="29" height="29" fill="black">
<rect fill="white" width="29" height="29"/>
<path d="M13.1803 28.6823C12.2978 28.4779 11.7533 27.9558 11.6334 27.0351C11.5128 26.1035 12.3151 25.1265 13.2568 25.1026C14.2107 25.0788 15.1669 25.0723 16.1208 25.1055C16.8097 25.1293 17.3015 25.5171 17.5889 26.136C17.6842 26.3411 17.7954 26.409 18.015 26.4082C19.6181 26.4018 21.2227 26.3779 22.8251 26.4191C23.8715 26.4458 24.7106 25.6168 24.6348 24.5863C24.6081 24.2281 24.6239 23.8656 24.6333 23.506C24.6384 23.3153 24.5792 23.2373 24.3741 23.2287C23.7206 23.2012 23.3811 22.8308 23.3811 22.17C23.3804 19.8642 23.358 17.5577 23.3963 15.252C23.4064 14.6425 23.5595 14.0359 23.5451 13.4127C23.4786 10.5191 22.3615 8.14686 20.0897 6.33358C19.9387 6.21298 19.8203 6.12849 19.6275 6.28953C19.4426 6.44406 19.2397 6.34874 19.0527 6.2332C18.2338 5.72554 17.3571 5.35797 16.4089 5.17599C14.322 4.77521 12.3419 5.05395 10.4968 6.14005C10.2079 6.30975 9.94075 6.49461 9.62012 6.20143C9.53346 6.12199 9.45114 6.22092 9.38398 6.2722C7.84872 7.44711 6.79079 8.95421 6.22608 10.8065C5.86068 12.0038 5.7112 13.2516 5.88379 14.4663C6.06938 15.7733 5.96033 17.066 5.99933 18.3636C6.03832 19.6685 6.01088 20.9756 6.00583 22.282C6.00366 22.781 5.66715 23.1875 5.17248 23.2157C4.50884 23.2532 3.83725 23.293 3.1765 23.194C1.90626 23.0041 1.04042 22.0249 1.01948 20.7438C0.997814 19.384 0.988426 18.0228 1.02237 16.6637C1.05053 15.5386 1.6073 14.7364 2.67461 14.3305C2.8732 14.2547 2.8992 14.1363 2.89414 13.9608C2.85515 12.7303 2.95336 11.5142 3.27904 10.3227C4.01345 7.63631 5.50178 5.46485 7.73896 3.80754C7.8906 3.69489 7.97076 3.60968 7.90577 3.39448C7.82922 3.14101 8.01915 2.9872 8.22279 2.8601C9.37965 2.13941 10.621 1.61803 11.9505 1.31978C15.2268 0.585371 18.2951 1.12336 21.1627 2.85721C21.4205 3.01319 21.578 3.20312 21.4559 3.5223C21.3938 3.68623 21.544 3.72161 21.6292 3.78371C22.9045 4.71455 23.9545 5.85408 24.7756 7.20014C25.7194 8.74696 26.2726 10.4238 26.4481 12.2298C26.5058 12.8241 26.4878 13.417 26.4928 14.0106C26.4943 14.1781 26.5463 14.2641 26.7109 14.3276C27.7486 14.7248 28.3603 15.5813 28.3718 16.6868C28.3863 18.0286 28.3892 19.371 28.3718 20.7135C28.3531 22.1404 27.3016 23.1904 25.8682 23.2272C25.6234 23.2337 25.5678 23.3197 25.5663 23.5464C25.5634 24.0859 25.6125 24.6267 25.5244 25.1647C25.3223 26.3952 24.2506 27.334 22.9977 27.342C21.3404 27.3528 19.6831 27.347 18.0251 27.3398C17.812 27.3391 17.6936 27.386 17.6012 27.6055C17.3448 28.2179 16.8451 28.5465 16.2082 28.6823C15.1979 28.6823 14.1891 28.6823 13.1803 28.6823ZM14.6888 1.93504C14.3191 1.93504 13.9515 1.95093 13.5832 1.98704C12.0097 2.14085 10.5401 2.6153 9.15868 3.37715C9.01641 3.45586 9.0128 3.5223 9.09585 3.64867C9.38687 4.09279 9.68078 4.53618 9.95014 4.99401C10.0823 5.2186 10.1892 5.25904 10.4325 5.12761C11.6139 4.48635 12.8885 4.14839 14.2274 4.08268C15.9265 3.99891 17.5398 4.34265 19.0382 5.16516C19.2036 5.25615 19.2874 5.22943 19.3827 5.07489C19.6708 4.60695 19.9626 4.14117 20.2709 3.68695C20.3929 3.50641 20.3453 3.43853 20.1734 3.34538C18.462 2.4131 16.6378 1.93216 14.6888 1.93504ZM5.07138 18.7052C5.07138 17.6155 5.06705 16.5251 5.075 15.4354C5.07644 15.2108 5.0165 15.1046 4.77098 15.1133C4.32975 15.1285 3.88853 15.1111 3.4473 15.1205C2.60962 15.1393 1.96114 15.7827 1.95537 16.6233C1.94453 18.0105 1.94526 19.3977 1.95537 20.785C1.96114 21.6176 2.62262 22.2733 3.45163 22.2906C3.8748 22.2993 4.2987 22.2791 4.72115 22.2993C4.99267 22.3123 5.08149 22.2242 5.07788 21.9483C5.06344 20.8673 5.07138 19.7863 5.07138 18.7052ZM24.3156 18.698C24.3156 19.7971 24.3192 20.8955 24.3127 21.9946C24.3113 22.2105 24.3748 22.3051 24.6052 22.2978C25.0551 22.2841 25.5057 22.3007 25.9563 22.2899C26.7557 22.2711 27.4222 21.6226 27.4309 20.8204C27.4461 19.4158 27.4446 18.0105 27.4316 16.6052C27.4244 15.7835 26.7694 15.1408 25.9476 15.1213C25.5158 15.1111 25.0825 15.1306 24.6507 15.1133C24.3885 15.1025 24.3084 15.1992 24.3113 15.4563C24.3214 16.5366 24.3149 17.617 24.3156 18.698ZM3.8257 13.1578C3.8257 13.3195 3.82498 13.482 3.8257 13.6438C3.82714 14.2532 3.78526 14.1803 4.36297 14.1781C5.0425 14.1753 4.95657 14.2699 4.94068 13.5903C4.89735 11.6954 5.35807 9.93632 6.32935 8.31223C6.98866 7.21025 7.83789 6.27508 8.87127 5.51179C9.03952 5.38758 9.06913 5.2872 8.94348 5.11894C8.81999 4.95357 8.71095 4.77593 8.60985 4.59539C8.51959 4.43291 8.42137 4.4293 8.29139 4.54123C8.24373 4.5824 8.18812 4.61345 8.13902 4.65244C5.37685 6.81596 3.93402 9.64818 3.8257 13.1578ZM25.5606 13.1599C25.5396 12.8176 25.5461 12.4587 25.5021 12.0998C25.1273 9.02715 23.6902 6.56394 21.2617 4.66472C20.9078 4.38814 20.9042 4.39247 20.6717 4.76221C20.5995 4.87631 20.5359 4.99762 20.4536 5.10306C20.3207 5.27276 20.3424 5.37819 20.5215 5.51684C23.0735 7.50488 24.4124 10.1046 24.4405 13.3549C24.4477 14.2128 24.4427 14.207 25.302 14.1839C25.5086 14.1781 25.5685 14.0937 25.5627 13.9059C25.5548 13.6633 25.5606 13.4199 25.5606 13.1599ZM14.6794 27.7521C15.1026 27.7521 15.5265 27.7579 15.9496 27.7507C16.4523 27.742 16.8205 27.3904 16.8379 26.9166C16.8545 26.4429 16.4891 26.0197 15.9908 26.0067C15.1264 25.9851 14.2613 25.9851 13.3969 26.0067C12.8993 26.019 12.5303 26.4451 12.5498 26.9152C12.57 27.4026 12.9398 27.7449 13.4633 27.7514C13.8684 27.7572 14.2736 27.7529 14.6794 27.7521Z"/>
</mask>
<path d="M13.1803 28.6823C12.2978 28.4779 11.7533 27.9558 11.6334 27.0351C11.5128 26.1035 12.3151 25.1265 13.2568 25.1026C14.2107 25.0788 15.1669 25.0723 16.1208 25.1055C16.8097 25.1293 17.3015 25.5171 17.5889 26.136C17.6842 26.3411 17.7954 26.409 18.015 26.4082C19.6181 26.4018 21.2227 26.3779 22.8251 26.4191C23.8715 26.4458 24.7106 25.6168 24.6348 24.5863C24.6081 24.2281 24.6239 23.8656 24.6333 23.506C24.6384 23.3153 24.5792 23.2373 24.3741 23.2287C23.7206 23.2012 23.3811 22.8308 23.3811 22.17C23.3804 19.8642 23.358 17.5577 23.3963 15.252C23.4064 14.6425 23.5595 14.0359 23.5451 13.4127C23.4786 10.5191 22.3615 8.14686 20.0897 6.33358C19.9387 6.21298 19.8203 6.12849 19.6275 6.28953C19.4426 6.44406 19.2397 6.34874 19.0527 6.2332C18.2338 5.72554 17.3571 5.35797 16.4089 5.17599C14.322 4.77521 12.3419 5.05395 10.4968 6.14005C10.2079 6.30975 9.94075 6.49461 9.62012 6.20143C9.53346 6.12199 9.45114 6.22092 9.38398 6.2722C7.84872 7.44711 6.79079 8.95421 6.22608 10.8065C5.86068 12.0038 5.7112 13.2516 5.88379 14.4663C6.06938 15.7733 5.96033 17.066 5.99933 18.3636C6.03832 19.6685 6.01088 20.9756 6.00583 22.282C6.00366 22.781 5.66715 23.1875 5.17248 23.2157C4.50884 23.2532 3.83725 23.293 3.1765 23.194C1.90626 23.0041 1.04042 22.0249 1.01948 20.7438C0.997814 19.384 0.988426 18.0228 1.02237 16.6637C1.05053 15.5386 1.6073 14.7364 2.67461 14.3305C2.8732 14.2547 2.8992 14.1363 2.89414 13.9608C2.85515 12.7303 2.95336 11.5142 3.27904 10.3227C4.01345 7.63631 5.50178 5.46485 7.73896 3.80754C7.8906 3.69489 7.97076 3.60968 7.90577 3.39448C7.82922 3.14101 8.01915 2.9872 8.22279 2.8601C9.37965 2.13941 10.621 1.61803 11.9505 1.31978C15.2268 0.585371 18.2951 1.12336 21.1627 2.85721C21.4205 3.01319 21.578 3.20312 21.4559 3.5223C21.3938 3.68623 21.544 3.72161 21.6292 3.78371C22.9045 4.71455 23.9545 5.85408 24.7756 7.20014C25.7194 8.74696 26.2726 10.4238 26.4481 12.2298C26.5058 12.8241 26.4878 13.417 26.4928 14.0106C26.4943 14.1781 26.5463 14.2641 26.7109 14.3276C27.7486 14.7248 28.3603 15.5813 28.3718 16.6868C28.3863 18.0286 28.3892 19.371 28.3718 20.7135C28.3531 22.1404 27.3016 23.1904 25.8682 23.2272C25.6234 23.2337 25.5678 23.3197 25.5663 23.5464C25.5634 24.0859 25.6125 24.6267 25.5244 25.1647C25.3223 26.3952 24.2506 27.334 22.9977 27.342C21.3404 27.3528 19.6831 27.347 18.0251 27.3398C17.812 27.3391 17.6936 27.386 17.6012 27.6055C17.3448 28.2179 16.8451 28.5465 16.2082 28.6823C15.1979 28.6823 14.1891 28.6823 13.1803 28.6823ZM14.6888 1.93504C14.3191 1.93504 13.9515 1.95093 13.5832 1.98704C12.0097 2.14085 10.5401 2.6153 9.15868 3.37715C9.01641 3.45586 9.0128 3.5223 9.09585 3.64867C9.38687 4.09279 9.68078 4.53618 9.95014 4.99401C10.0823 5.2186 10.1892 5.25904 10.4325 5.12761C11.6139 4.48635 12.8885 4.14839 14.2274 4.08268C15.9265 3.99891 17.5398 4.34265 19.0382 5.16516C19.2036 5.25615 19.2874 5.22943 19.3827 5.07489C19.6708 4.60695 19.9626 4.14117 20.2709 3.68695C20.3929 3.50641 20.3453 3.43853 20.1734 3.34538C18.462 2.4131 16.6378 1.93216 14.6888 1.93504ZM5.07138 18.7052C5.07138 17.6155 5.06705 16.5251 5.075 15.4354C5.07644 15.2108 5.0165 15.1046 4.77098 15.1133C4.32975 15.1285 3.88853 15.1111 3.4473 15.1205C2.60962 15.1393 1.96114 15.7827 1.95537 16.6233C1.94453 18.0105 1.94526 19.3977 1.95537 20.785C1.96114 21.6176 2.62262 22.2733 3.45163 22.2906C3.8748 22.2993 4.2987 22.2791 4.72115 22.2993C4.99267 22.3123 5.08149 22.2242 5.07788 21.9483C5.06344 20.8673 5.07138 19.7863 5.07138 18.7052ZM24.3156 18.698C24.3156 19.7971 24.3192 20.8955 24.3127 21.9946C24.3113 22.2105 24.3748 22.3051 24.6052 22.2978C25.0551 22.2841 25.5057 22.3007 25.9563 22.2899C26.7557 22.2711 27.4222 21.6226 27.4309 20.8204C27.4461 19.4158 27.4446 18.0105 27.4316 16.6052C27.4244 15.7835 26.7694 15.1408 25.9476 15.1213C25.5158 15.1111 25.0825 15.1306 24.6507 15.1133C24.3885 15.1025 24.3084 15.1992 24.3113 15.4563C24.3214 16.5366 24.3149 17.617 24.3156 18.698ZM3.8257 13.1578C3.8257 13.3195 3.82498 13.482 3.8257 13.6438C3.82714 14.2532 3.78526 14.1803 4.36297 14.1781C5.0425 14.1753 4.95657 14.2699 4.94068 13.5903C4.89735 11.6954 5.35807 9.93632 6.32935 8.31223C6.98866 7.21025 7.83789 6.27508 8.87127 5.51179C9.03952 5.38758 9.06913 5.2872 8.94348 5.11894C8.81999 4.95357 8.71095 4.77593 8.60985 4.59539C8.51959 4.43291 8.42137 4.4293 8.29139 4.54123C8.24373 4.5824 8.18812 4.61345 8.13902 4.65244C5.37685 6.81596 3.93402 9.64818 3.8257 13.1578ZM25.5606 13.1599C25.5396 12.8176 25.5461 12.4587 25.5021 12.0998C25.1273 9.02715 23.6902 6.56394 21.2617 4.66472C20.9078 4.38814 20.9042 4.39247 20.6717 4.76221C20.5995 4.87631 20.5359 4.99762 20.4536 5.10306C20.3207 5.27276 20.3424 5.37819 20.5215 5.51684C23.0735 7.50488 24.4124 10.1046 24.4405 13.3549C24.4477 14.2128 24.4427 14.207 25.302 14.1839C25.5086 14.1781 25.5685 14.0937 25.5627 13.9059C25.5548 13.6633 25.5606 13.4199 25.5606 13.1599ZM14.6794 27.7521C15.1026 27.7521 15.5265 27.7579 15.9496 27.7507C16.4523 27.742 16.8205 27.3904 16.8379 26.9166C16.8545 26.4429 16.4891 26.0197 15.9908 26.0067C15.1264 25.9851 14.2613 25.9851 13.3969 26.0067C12.8993 26.019 12.5303 26.4451 12.5498 26.9152C12.57 27.4026 12.9398 27.7449 13.4633 27.7514C13.8684 27.7572 14.2736 27.7529 14.6794 27.7521Z" fill="#006181"/>
<path d="M13.1803 28.6823C12.2978 28.4779 11.7533 27.9558 11.6334 27.0351C11.5128 26.1035 12.3151 25.1265 13.2568 25.1026C14.2107 25.0788 15.1669 25.0723 16.1208 25.1055C16.8097 25.1293 17.3015 25.5171 17.5889 26.136C17.6842 26.3411 17.7954 26.409 18.015 26.4082C19.6181 26.4018 21.2227 26.3779 22.8251 26.4191C23.8715 26.4458 24.7106 25.6168 24.6348 24.5863C24.6081 24.2281 24.6239 23.8656 24.6333 23.506C24.6384 23.3153 24.5792 23.2373 24.3741 23.2287C23.7206 23.2012 23.3811 22.8308 23.3811 22.17C23.3804 19.8642 23.358 17.5577 23.3963 15.252C23.4064 14.6425 23.5595 14.0359 23.5451 13.4127C23.4786 10.5191 22.3615 8.14686 20.0897 6.33358C19.9387 6.21298 19.8203 6.12849 19.6275 6.28953C19.4426 6.44406 19.2397 6.34874 19.0527 6.2332C18.2338 5.72554 17.3571 5.35797 16.4089 5.17599C14.322 4.77521 12.3419 5.05395 10.4968 6.14005C10.2079 6.30975 9.94075 6.49461 9.62012 6.20143C9.53346 6.12199 9.45114 6.22092 9.38398 6.2722C7.84872 7.44711 6.79079 8.95421 6.22608 10.8065C5.86068 12.0038 5.7112 13.2516 5.88379 14.4663C6.06938 15.7733 5.96033 17.066 5.99933 18.3636C6.03832 19.6685 6.01088 20.9756 6.00583 22.282C6.00366 22.781 5.66715 23.1875 5.17248 23.2157C4.50884 23.2532 3.83725 23.293 3.1765 23.194C1.90626 23.0041 1.04042 22.0249 1.01948 20.7438C0.997814 19.384 0.988426 18.0228 1.02237 16.6637C1.05053 15.5386 1.6073 14.7364 2.67461 14.3305C2.8732 14.2547 2.8992 14.1363 2.89414 13.9608C2.85515 12.7303 2.95336 11.5142 3.27904 10.3227C4.01345 7.63631 5.50178 5.46485 7.73896 3.80754C7.8906 3.69489 7.97076 3.60968 7.90577 3.39448C7.82922 3.14101 8.01915 2.9872 8.22279 2.8601C9.37965 2.13941 10.621 1.61803 11.9505 1.31978C15.2268 0.585371 18.2951 1.12336 21.1627 2.85721C21.4205 3.01319 21.578 3.20312 21.4559 3.5223C21.3938 3.68623 21.544 3.72161 21.6292 3.78371C22.9045 4.71455 23.9545 5.85408 24.7756 7.20014C25.7194 8.74696 26.2726 10.4238 26.4481 12.2298C26.5058 12.8241 26.4878 13.417 26.4928 14.0106C26.4943 14.1781 26.5463 14.2641 26.7109 14.3276C27.7486 14.7248 28.3603 15.5813 28.3718 16.6868C28.3863 18.0286 28.3892 19.371 28.3718 20.7135C28.3531 22.1404 27.3016 23.1904 25.8682 23.2272C25.6234 23.2337 25.5678 23.3197 25.5663 23.5464C25.5634 24.0859 25.6125 24.6267 25.5244 25.1647C25.3223 26.3952 24.2506 27.334 22.9977 27.342C21.3404 27.3528 19.6831 27.347 18.0251 27.3398C17.812 27.3391 17.6936 27.386 17.6012 27.6055C17.3448 28.2179 16.8451 28.5465 16.2082 28.6823C15.1979 28.6823 14.1891 28.6823 13.1803 28.6823ZM14.6888 1.93504C14.3191 1.93504 13.9515 1.95093 13.5832 1.98704C12.0097 2.14085 10.5401 2.6153 9.15868 3.37715C9.01641 3.45586 9.0128 3.5223 9.09585 3.64867C9.38687 4.09279 9.68078 4.53618 9.95014 4.99401C10.0823 5.2186 10.1892 5.25904 10.4325 5.12761C11.6139 4.48635 12.8885 4.14839 14.2274 4.08268C15.9265 3.99891 17.5398 4.34265 19.0382 5.16516C19.2036 5.25615 19.2874 5.22943 19.3827 5.07489C19.6708 4.60695 19.9626 4.14117 20.2709 3.68695C20.3929 3.50641 20.3453 3.43853 20.1734 3.34538C18.462 2.4131 16.6378 1.93216 14.6888 1.93504ZM5.07138 18.7052C5.07138 17.6155 5.06705 16.5251 5.075 15.4354C5.07644 15.2108 5.0165 15.1046 4.77098 15.1133C4.32975 15.1285 3.88853 15.1111 3.4473 15.1205C2.60962 15.1393 1.96114 15.7827 1.95537 16.6233C1.94453 18.0105 1.94526 19.3977 1.95537 20.785C1.96114 21.6176 2.62262 22.2733 3.45163 22.2906C3.8748 22.2993 4.2987 22.2791 4.72115 22.2993C4.99267 22.3123 5.08149 22.2242 5.07788 21.9483C5.06344 20.8673 5.07138 19.7863 5.07138 18.7052ZM24.3156 18.698C24.3156 19.7971 24.3192 20.8955 24.3127 21.9946C24.3113 22.2105 24.3748 22.3051 24.6052 22.2978C25.0551 22.2841 25.5057 22.3007 25.9563 22.2899C26.7557 22.2711 27.4222 21.6226 27.4309 20.8204C27.4461 19.4158 27.4446 18.0105 27.4316 16.6052C27.4244 15.7835 26.7694 15.1408 25.9476 15.1213C25.5158 15.1111 25.0825 15.1306 24.6507 15.1133C24.3885 15.1025 24.3084 15.1992 24.3113 15.4563C24.3214 16.5366 24.3149 17.617 24.3156 18.698ZM3.8257 13.1578C3.8257 13.3195 3.82498 13.482 3.8257 13.6438C3.82714 14.2532 3.78526 14.1803 4.36297 14.1781C5.0425 14.1753 4.95657 14.2699 4.94068 13.5903C4.89735 11.6954 5.35807 9.93632 6.32935 8.31223C6.98866 7.21025 7.83789 6.27508 8.87127 5.51179C9.03952 5.38758 9.06913 5.2872 8.94348 5.11894C8.81999 4.95357 8.71095 4.77593 8.60985 4.59539C8.51959 4.43291 8.42137 4.4293 8.29139 4.54123C8.24373 4.5824 8.18812 4.61345 8.13902 4.65244C5.37685 6.81596 3.93402 9.64818 3.8257 13.1578ZM25.5606 13.1599C25.5396 12.8176 25.5461 12.4587 25.5021 12.0998C25.1273 9.02715 23.6902 6.56394 21.2617 4.66472C20.9078 4.38814 20.9042 4.39247 20.6717 4.76221C20.5995 4.87631 20.5359 4.99762 20.4536 5.10306C20.3207 5.27276 20.3424 5.37819 20.5215 5.51684C23.0735 7.50488 24.4124 10.1046 24.4405 13.3549C24.4477 14.2128 24.4427 14.207 25.302 14.1839C25.5086 14.1781 25.5685 14.0937 25.5627 13.9059C25.5548 13.6633 25.5606 13.4199 25.5606 13.1599ZM14.6794 27.7521C15.1026 27.7521 15.5265 27.7579 15.9496 27.7507C16.4523 27.742 16.8205 27.3904 16.8379 26.9166C16.8545 26.4429 16.4891 26.0197 15.9908 26.0067C15.1264 25.9851 14.2613 25.9851 13.3969 26.0067C12.8993 26.019 12.5303 26.4451 12.5498 26.9152C12.57 27.4026 12.9398 27.7449 13.4633 27.7514C13.8684 27.7572 14.2736 27.7529 14.6794 27.7521Z" stroke="#006181" stroke-width="0.342441" mask="url(#path-1-outside-1_375_128)"/>
</g>
<path id="Vector_2" d="M17.1236 10.3133L17.1237 10.3133C17.561 10.3137 17.9109 10.4323 18.1521 10.673C18.3932 10.9136 18.5133 11.2638 18.517 11.7017L18.517 11.7018C18.5177 11.799 18.5184 11.8646 18.5242 11.9122C18.53 11.9601 18.5394 11.9713 18.5425 11.9744C18.5461 11.9779 18.5589 11.9873 18.6091 11.9929C18.6585 11.9983 18.7265 11.9986 18.8265 11.9988C19.0529 11.9991 19.2796 11.9987 19.5065 11.9983C19.9283 11.9976 20.3506 11.997 20.7724 12.0003C20.7724 12.0003 20.7725 12.0003 20.7725 12.0003M17.1236 10.3133L20.7725 12.0003M17.1236 10.3133C16.181 10.3129 15.2379 10.313 14.295 10.3132C13.8236 10.3133 13.3523 10.3133 12.881 10.3133C12.4522 10.3133 12.0232 10.313 11.5943 10.3127C10.5643 10.312 9.53423 10.3112 8.50532 10.3148L8.50526 10.3148C7.78195 10.3179 7.2467 10.8373 7.24437 11.5526L7.24437 11.5527C7.23859 13.3907 7.24004 15.228 7.24437 17.0659L7.24437 17.066C7.24592 17.5533 7.48483 17.9169 7.90292 18.1494L7.90302 18.1494M17.1236 10.3133L7.90302 18.1494M20.7725 12.0003C21.203 12.0033 21.5492 12.1245 21.7878 12.364M20.7725 12.0003L21.7878 12.364M22.1457 13.3777V13.3777C22.1465 15.134 22.1472 16.891 22.1457 18.6473C22.1454 19.0583 22.028 19.3923 21.7972 19.6239C21.5663 19.8556 21.233 19.9737 20.8235 19.9756M22.1457 13.3777L20.5253 21.3796L20.4396 21.3805L20.5253 21.3796C20.5228 21.1247 20.5234 20.8697 20.524 20.6142C20.5243 20.5005 20.5245 20.3867 20.5245 20.2727C20.5245 20.1755 20.5247 20.1099 20.53 20.0622C20.5354 20.0141 20.5446 20.0029 20.5474 20.0001C20.5503 19.9972 20.5619 19.9879 20.6108 19.9822C20.6591 19.9767 20.7254 19.9762 20.8235 19.9756M22.1457 13.3777C22.1454 12.9495 22.0264 12.6036 21.7878 12.364M22.1457 13.3777L21.7878 12.364M20.8235 19.9756L20.8231 19.89L20.8236 19.9756C20.8236 19.9756 20.8235 19.9756 20.8235 19.9756ZM11.0586 19.3828C11.3283 19.8157 11.7316 19.983 12.2289 19.9792H12.2289C13.0733 19.9722 13.9163 19.9727 14.7598 19.9733C15.3928 19.9737 16.0261 19.9741 16.6604 19.9713C16.8516 19.9706 17.0041 20.0198 17.1574 20.1323L17.1576 20.1324L11.1313 19.3376M11.0586 19.3828L11.1313 19.3376M11.0586 19.3828C11.0586 19.3828 11.0586 19.3828 11.0586 19.3828L11.1313 19.3376M11.0586 19.3828C11.0394 19.3519 11.0253 19.3381 11.0173 19.3324C11.0137 19.3298 11.0119 19.3292 11.0117 19.3292L11.0111 19.3291C11.0091 19.3293 11.0016 19.3305 10.9854 19.3395C10.9691 19.3485 10.9507 19.3615 10.9259 19.3794M11.1313 19.3376C11.0418 19.1939 10.9724 19.2401 10.8757 19.3101M10.9259 19.3794L10.8757 19.3101M10.9259 19.3794C10.9259 19.3794 10.9259 19.3795 10.9259 19.3795L10.8757 19.3101M10.9259 19.3794C10.7317 19.5202 10.5353 19.6609 10.3393 19.8014C10.1684 19.9238 9.99775 20.046 9.8289 20.1681L9.82878 20.1682C9.73921 20.2327 9.6395 20.2954 9.52925 20.3244C9.41513 20.3546 9.29347 20.3477 9.16506 20.2807L9.16501 20.2807C9.03354 20.212 8.95429 20.1149 8.9104 20.0013C8.86783 19.891 8.86012 19.7692 8.86197 19.6519C8.86552 19.4049 8.86478 19.158 8.86403 18.9103C8.86371 18.8069 8.8634 18.7033 8.8634 18.5995C8.8634 18.501 8.86324 18.4338 8.85789 18.3848C8.85246 18.3351 8.84314 18.3225 8.83984 18.319C8.83715 18.3162 8.82641 18.307 8.77925 18.3015L10.8757 19.3101M7.90302 18.1494C8.11355 18.2661 8.34226 18.2981 8.5711 18.2966L7.90302 18.1494ZM11.7121 17.4599L11.7122 17.4598C11.9692 17.2693 12.2371 17.1778 12.5617 17.1801M11.7121 17.4599L12.5611 17.2657M11.7121 17.4599C11.2872 17.776 10.8564 18.0838 10.4005 18.4097C10.2589 18.5108 10.115 18.6137 9.96797 18.7191L11.7121 17.4599ZM12.5617 17.1801L12.5611 17.2657M12.5617 17.1801C12.5617 17.1801 12.5617 17.1801 12.5617 17.1801L12.5611 17.2657M12.5617 17.1801C13.8769 17.1889 15.1921 17.1868 16.5077 17.1847C16.705 17.1844 16.9023 17.184 17.0996 17.1837M12.5611 17.2657C13.8768 17.2745 15.1924 17.2724 16.508 17.2703C16.7052 17.27 16.9025 17.2696 17.0998 17.2694M17.0996 17.1837L17.0998 17.2694M17.0996 17.1837C17.0996 17.1837 17.0996 17.1837 17.0996 17.1837L17.0998 17.2694M17.0996 17.1837C17.1868 17.1836 17.2483 17.1808 17.2933 17.1728C17.3377 17.1649 17.3561 17.1537 17.3657 17.1441C17.3753 17.1346 17.3865 17.1164 17.3942 17.0725C17.4021 17.0278 17.4048 16.9668 17.4048 16.8801V16.8801C17.4063 15.16 17.4063 13.4406 17.4048 11.7205V11.7205C17.4048 11.6368 17.4021 11.5773 17.3944 11.5337C17.3868 11.4906 17.3759 11.4722 17.3667 11.4626C17.3578 11.4534 17.3411 11.4426 17.3007 11.4349C17.2594 11.427 17.2025 11.4241 17.1214 11.4241H17.1214C14.2849 11.4226 11.4483 11.4226 8.61182 11.4241L8.61177 11.4241C8.53292 11.4241 8.4785 11.4265 8.43925 11.4335C8.40099 11.4404 8.38727 11.45 8.38077 11.4568C8.37375 11.4641 8.36389 11.48 8.35695 11.5219C8.34994 11.5641 8.34751 11.6219 8.34715 11.7042L8.34715 11.7043C8.34513 12.1387 8.34558 12.5734 8.34604 13.0083C8.34623 13.1947 8.34643 13.3812 8.34643 13.5677V13.574V13.5802V13.5865V13.5928V13.5991V13.6054V13.6116V13.6179V13.6242V13.6305V13.6368V13.643V13.6493V13.6556V13.6619V13.6682V13.6744V13.6807V13.687V13.6933V13.6996V13.7058V13.7121V13.7184V13.7247V13.7309V13.7372V13.7435V13.7498V13.7561V13.7623V13.7686V13.7749V13.7812V13.7875V13.7937V13.8V13.8063V13.8126V13.8189V13.8251V13.8314V13.8377V13.844V13.8503V13.8565V13.8628V13.8691V13.8754V13.8816V13.8879V13.8942V13.9005V13.9068V13.913V13.9193V13.9256V13.9319V13.9382V13.9444V13.9507V13.957V13.9633V13.9696V13.9758V13.9821V13.9884V13.9947V14.001V14.0072V14.0135V14.0198V14.0261V14.0323V14.0386V14.0449V14.0512V14.0575V14.0637V14.07V14.0763V14.0826V14.0889V14.0951V14.1014V14.1077V14.114V14.1203V14.1265V14.1328V14.1391V14.1454V14.1517V14.1579V14.1642V14.1705V14.1768V14.183V14.1893V14.1956V14.2019V14.2082V14.2144V14.2207V14.227V14.2333V14.2396V14.2458V14.2521V14.2584V14.2647V14.271V14.2772V14.2835V14.2898V14.2961V14.3024V14.3086V14.3149V14.3212V14.3275V14.3338V14.34V14.3463V14.3526V14.3589V14.3651V14.3714V14.3777V14.384V14.3903V14.3965V14.4028V14.4091V14.4154V14.4217V14.4279V14.4342V14.4405V14.4468V14.4531V14.4593V14.4656V14.4719V14.4782V14.4845V14.4907V14.497V14.5033V14.5096V14.5158V14.5221V14.5284V14.5347V14.541V14.5472V14.5535V14.5598V14.5661V14.5724V14.5786V14.5849V14.5912V14.5975V14.6038V14.61V14.6163V14.6226V14.6289V14.6352V14.6414V14.6477V14.654V14.6603V14.6665V14.6728V14.6791V14.6854V14.6917V14.6979V14.7042V14.7105V14.7168V14.7231V14.7293V14.7356V14.7419V14.7482V14.7545V14.7607V14.767V14.7733V14.7796V14.7859V14.7921V14.7984V14.8047V14.811V14.8172V14.8235V14.8298V14.8361V14.8424V14.8486V14.8549V14.8612V14.8675V14.8738V14.88V14.8863V14.8926V14.8989V14.9052V14.9114V14.9177V14.924V14.9303V14.9366V14.9428V14.9491V14.9554V14.9617V14.9679V14.9742V14.9805V14.9868V14.9931V14.9993V15.0056V15.0119V15.0182V15.0245V15.0307V15.037V15.0433V15.0496V15.0559V15.0621V15.0684V15.0747V15.081V15.0873V15.0935V15.0998V15.1061V15.1124V15.1186V15.1249V15.1312V15.1375V15.1438V15.15V15.1563V15.1626V15.1689V15.1752V15.1814V15.1877V15.194V15.2003V15.2066V15.2128V15.2191V15.2254V15.2317V15.238V15.2442V15.2505V15.2568V15.2631V15.2694V15.2756V15.2819V15.2882V15.2945V15.3007V15.307V15.3133V15.3196V15.3259V15.3321V15.3384V15.3447V15.351V15.3573V15.3635V15.3698V15.3761V15.3824V15.3887V15.3949V15.4012V15.4075V15.4138V15.4201V15.4263V15.4326V15.4389V15.4452V15.4514V15.4577V15.464V15.4703V15.4766V15.4828V15.4891V15.4954V15.5017V15.508V15.5142V15.5205V15.5268V15.5331V15.5394V15.5456V15.5519V15.5582V15.5645V15.5708V15.577V15.5833V15.5896V15.5959V15.6021V15.6084V15.6147V15.621V15.6273V15.6335V15.6398V15.6461V15.6524V15.6587V15.6649V15.6712V15.6775V15.6838V15.6901V15.6963V15.7026V15.7089V15.7152V15.7215V15.7277V15.734V15.7403V15.7466V15.7528V15.7591V15.7654V15.7717V15.778V15.7842V15.7905V15.7968V15.8031V15.8094V15.8156V15.8219V15.8282V15.8345V15.8408V15.847V15.8533V15.8596V15.8659V15.8722V15.8784V15.8847V15.891V15.8973V15.9035V15.9098V15.9161V15.9224V15.9287V15.9349V15.9412V15.9475V15.9538V15.9601V15.9663V15.9726V15.9789V15.9852V15.9915V15.9977V16.004V16.0103V16.0166V16.0229V16.0291V16.0354V16.0417V16.048V16.0543V16.0605V16.0668V16.0731V16.0794V16.0856V16.0919V16.0982V16.1045V16.1108V16.117V16.1233V16.1296V16.1359V16.1422V16.1484V16.1547V16.161V16.1673V16.1736V16.1798V16.1861V16.1924V16.1987V16.205V16.2112V16.2175V16.2238V16.2301V16.2363V16.2426V16.2489V16.2552V16.2615V16.2677V16.274V16.2803V16.2866V16.2929V16.2991V16.3054V16.3117V16.318V16.3243V16.3305V16.3368V16.3431V16.3494V16.3557V16.3619V16.3682V16.3745V16.3808V16.387V16.3933V16.3996V16.4059V16.4122V16.4184V16.4247V16.431V16.4373V16.4436V16.4498V16.4561V16.4624V16.4687V16.475V16.4812V16.4875V16.4938V16.5001V16.5064V16.5126V16.5189V16.5252V16.5315V16.5377V16.544V16.5503V16.5566V16.5629V16.5691V16.5754V16.5817V16.588V16.5943V16.6005V16.6068V16.6131V16.6194V16.6257V16.6319V16.6382V16.6445V16.6508V16.6571V16.6633V16.6696V16.6759V16.6822V16.6884V16.6947V16.701V16.7073V16.7136V16.7198V16.7261V16.7324V16.7387V16.745V16.7512V16.7575V16.7638V16.7701V16.7764V16.7826C8.34643 16.9063 8.34659 16.992 8.35344 17.0547C8.36037 17.1183 8.37267 17.1396 8.38169 17.1488C8.3903 17.1577 8.41002 17.17 8.4711 17.177C8.53176 17.184 8.61476 17.1843 8.73526 17.1845C8.78096 17.1845 8.82691 17.1844 8.87302 17.1842C8.98904 17.1839 9.10602 17.1836 9.22229 17.1852C9.22232 17.1852 9.22236 17.1852 9.2224 17.1852L9.22126 17.2708L17.0998 17.2694M20.763 13.1081L20.7629 13.1081C20.5422 13.1074 20.3209 13.1082 20.0991 13.109C19.6543 13.1106 19.208 13.1122 18.763 13.1016L18.7629 13.1016C18.6364 13.0984 18.5838 13.119 18.5583 13.1445C18.5323 13.1705 18.5116 13.2244 18.5127 13.3518C18.5222 14.3209 18.5204 15.2901 18.5187 16.2587C18.5183 16.4693 18.518 16.6798 18.5177 16.8903V16.8904C18.517 17.3352 18.3983 17.6898 18.1555 17.9328C17.9127 18.1759 17.5589 18.2945 17.115 18.2945C16.7638 18.2946 16.4125 18.2952 16.0611 18.2958C14.9362 18.2977 13.8104 18.2995 12.6852 18.288C12.4015 18.2854 12.2185 18.4341 12.0174 18.618C11.9732 18.6585 11.9633 18.7142 11.9825 18.7686C12.0023 18.8244 12.0518 18.8738 12.1208 18.8894L12.1208 18.8894C12.1787 18.9025 12.2391 18.9017 12.3101 18.9008C12.3294 18.9005 12.3495 18.9003 12.3705 18.9003H12.3705C12.6576 18.9004 12.9446 18.9006 13.2316 18.9008C14.4748 18.9017 15.7178 18.9027 16.9607 18.8974H16.9608C17.2086 18.8966 17.4127 18.9655 17.6098 19.1104L17.6098 19.1105C18.1256 19.4901 18.6476 19.8612 19.1701 20.2326C19.2124 20.2627 19.2547 20.2928 19.297 20.3228L19.2971 20.3229C19.3176 20.3375 19.3367 20.3552 19.3514 20.3688L19.3524 20.3698C19.3689 20.3851 19.3811 20.3963 19.393 20.4051C19.4047 20.4137 19.411 20.416 19.4134 20.4166C19.4138 20.4167 19.4143 20.4173 19.4184 20.4155L19.4532 20.4937M20.763 13.1081L20.4221 18.9853C20.4776 18.9856 20.533 18.9859 20.5884 18.9859M20.763 13.1081C20.839 13.1083 20.893 13.1116 20.9325 13.1196C20.971 13.1274 20.9884 13.1382 20.998 13.1479C21.0078 13.1577 21.0187 13.1755 21.0266 13.2149C21.0347 13.2552 21.0383 13.3102 21.0386 13.3875M20.763 13.1081L21.0401 18.4357M19.4532 20.4937L19.4183 20.4155C19.4205 20.4146 19.4217 20.4138 19.4222 20.4134C19.4228 20.412 19.4244 20.407 19.4247 20.3952C19.425 20.3813 19.4234 20.3655 19.4211 20.3433L19.4208 20.3407C19.4188 20.3214 19.416 20.2957 19.4167 20.271L19.4167 20.2708C19.4197 20.1754 19.4198 20.0767 19.4198 19.9765C19.4199 19.7953 19.42 19.6091 19.4373 19.429C19.4536 19.2596 19.5055 19.1247 19.6099 19.0329C19.7133 18.9419 19.8538 18.906 20.0193 18.9017M19.4532 20.4937C19.3902 20.5217 19.3417 20.4767 19.295 20.4334C19.2791 20.4186 19.2634 20.404 19.2474 20.3926L19.5062 20.3339C19.5129 20.3973 19.5199 20.4639 19.4532 20.4937ZM20.0193 18.9017L20.0215 18.9873L20.0192 18.9017C20.0193 18.9017 20.0193 18.9017 20.0193 18.9017ZM20.0193 18.9017C20.1544 18.8981 20.2902 18.8989 20.4241 18.8996C20.4792 18.9 20.534 18.9003 20.5883 18.9003M20.5883 18.9003L20.5884 18.9859M20.5883 18.9003C20.7227 18.9001 20.8166 18.8994 20.8856 18.891C20.9547 18.8825 20.9812 18.8679 20.9946 18.8543C21.0083 18.8402 21.0229 18.8122 21.0312 18.7407C21.0395 18.6697 21.0401 18.5732 21.0401 18.4357M20.5883 18.9003C20.5883 18.9003 20.5884 18.9003 20.5884 18.9003V18.9859M20.5884 18.9859L21.0401 18.4357M21.0401 18.4357C21.0393 17.6268 21.0393 16.8166 21.0393 16.0063C21.0393 15.7443 21.0395 15.4823 21.0397 15.2204C21.0402 14.6093 21.0406 13.9985 21.0386 13.3875M21.0386 13.3875L21.1242 13.3872L21.0386 13.3874C21.0386 13.3875 21.0386 13.3875 21.0386 13.3875ZM20.1956 21.8845L20.2358 21.9601C20.2358 21.9601 20.2359 21.9601 20.2359 21.96L20.1956 21.8845ZM19.5677 21.8723L19.6179 21.8029L19.5676 21.8722C19.5676 21.8723 19.5677 21.8723 19.5677 21.8723Z" fill="#006181" stroke="#006181" stroke-width="0.17122"/>
<path id="Vector_3" d="M9.27201 16.1437L9.27199 16.1436C9.19817 15.8613 9.374 15.5707 9.66918 15.5054M9.27201 16.1437L9.66918 15.5054M9.27201 16.1437C9.3124 16.2975 9.39051 16.408 9.50239 16.4778C9.61178 16.5461 9.74431 16.5697 9.88433 16.5693L9.88414 16.4837M9.27201 16.1437L9.35482 16.1219C9.42631 16.3942 9.62128 16.4844 9.88414 16.4837M9.66918 15.5054C9.66915 15.5054 9.66913 15.5054 9.6691 15.5054L9.68772 15.589L9.66925 15.5054C9.66923 15.5054 9.6692 15.5054 9.66918 15.5054ZM9.88414 16.4837C10.5981 16.4822 11.312 16.4825 12.026 16.4827C12.3115 16.4829 12.597 16.483 12.8825 16.483C13.6934 16.483 14.5036 16.483 15.3146 16.4837L9.88438 16.5693M9.88414 16.4837L9.88438 16.5693M9.88438 16.5693C10.5982 16.5678 11.3119 16.5681 12.0258 16.5684C12.3113 16.5685 12.5969 16.5686 12.8825 16.5686C13.6934 16.5686 14.5036 16.5686 15.3145 16.5693H15.3146C15.3714 16.5693 15.4291 16.5699 15.4873 16.5706C15.6456 16.5723 15.808 16.5741 15.9681 16.5633L15.9681 16.5633C16.1062 16.554 16.2262 16.5096 16.3167 16.4252C16.4073 16.3406 16.4603 16.2234 16.4777 16.0834L16.4777 16.0834C16.4953 15.9417 16.4631 15.8098 16.3857 15.7051C16.3085 15.6006 16.1907 15.5291 16.0476 15.4994L16.0476 15.4994M9.88438 16.5693L16.0476 15.4994M16.0476 15.4994C15.9173 15.4724 15.7829 15.4658 15.6548 15.4658C13.809 15.4637 11.9624 15.4637 10.1166 15.4658L16.0476 15.4994Z" fill="#006181" stroke="#006181" stroke-width="0.17122"/>
<path id="Vector_4" d="M16.0003 12.046L16.0006 12.0461C16.1291 12.0654 16.2413 12.1128 16.326 12.195C16.4111 12.2777 16.4616 12.389 16.478 12.5232C16.478 12.5233 16.478 12.5233 16.478 12.5233L16.3931 12.5337C16.4219 12.7677 16.292 12.959 16.058 13.019L16.0003 12.046ZM16.0003 12.046C15.933 12.0363 15.8616 12.0376 15.7992 12.0387C15.7803 12.039 15.7622 12.0394 15.7453 12.0394H15.7397H15.734H15.7284H15.7227H15.7171H15.7114H15.7058H15.7001H15.6945H15.6888H15.6832H15.6776H15.6719H15.6663H15.6606H15.655H15.6493H15.6437H15.638H15.6324H15.6268H15.6211H15.6155H15.6098H15.6042H15.5985H15.5929H15.5872H15.5816H15.576H15.5703H15.5647H15.559H15.5534H15.5477H15.5421H15.5364H15.5308H15.5252H15.5195H15.5139H15.5082H15.5026H15.4969H15.4913H15.4856H15.48H15.4744H15.4687H15.4631H15.4574H15.4518H15.4461H15.4405H15.4348H15.4292H15.4236H15.4179H15.4123H15.4066H15.401H15.3953H15.3897H15.384H15.3784H15.3728H15.3671H15.3615H15.3558H15.3502H15.3445H15.3389H15.3332H15.3276H15.322H15.3163H15.3107H15.305H15.2994H15.2937H15.2881H15.2824H15.2768H15.2712H15.2655H15.2599H15.2542H15.2486H15.2429H15.2373H15.2316H15.226H15.2204H15.2147H15.2091H15.2034H15.1978H15.1921H15.1865H15.1808H15.1752H15.1696H15.1639H15.1583H15.1526H15.147H15.1413H15.1357H15.13H15.1244H15.1188H15.1131H15.1075H15.1018H15.0962H15.0905H15.0849H15.0792H15.0736H15.068H15.0623H15.0567H15.051H15.0454H15.0397H15.0341H15.0284H15.0228H15.0172H15.0115H15.0059H15.0002H14.9946H14.9889H14.9833H14.9776H14.972H14.9664H14.9607H14.9551H14.9494H14.9438H14.9381H14.9325H14.9268H14.9212H14.9156H14.9099H14.9043H14.8986H14.893H14.8873H14.8817H14.876H14.8704H14.8648H14.8591H14.8535H14.8478H14.8422H14.8365H14.8309H14.8252H14.8196H14.814H14.8083H14.8027H14.797H14.7914H14.7857H14.7801H14.7744H14.7688H14.7632H14.7575H14.7519H14.7462H14.7406H14.7349H14.7293H14.7236H14.718H14.7123H14.7067H14.7011H14.6954H14.6898H14.6841H14.6785H14.6728H14.6672H14.6615H14.6559H14.6503H14.6446H14.639H14.6333H14.6277H14.622H14.6164H14.6107H14.6051H14.5995H14.5938H14.5882H14.5825H14.5769H14.5712H14.5656H14.5599H14.5543H14.5487H14.543H14.5374H14.5317H14.5261H14.5204H14.5148H14.5091H14.5035H14.4979H14.4922H14.4866H14.4809H14.4753H14.4696H14.464H14.4583H14.4527H14.4471H14.4414H14.4358H14.4301H14.4245H14.4188H14.4132H14.4075H14.4019H14.3963H14.3906H14.385H14.3793H14.3737H14.368H14.3624H14.3567H14.3511H14.3455H14.3398H14.3342H14.3285H14.3229H14.3172H14.3116H14.3059H14.3003H14.2947H14.289H14.2834H14.2777H14.2721H14.2664H14.2608H14.2551H14.2495H14.2439H14.2382H14.2326H14.2269H14.2213H14.2156H14.21H14.2043H14.1987H14.1931H14.1874H14.1818H14.1761H14.1705H14.1648H14.1592H14.1535H14.1479H14.1423H14.1366H14.131H14.1253H14.1197H14.114H14.1084H14.1027H14.0971H14.0915H14.0858H14.0802H14.0745H14.0689H14.0632H14.0576H14.0519H14.0463H14.0407H14.035H14.0294H14.0237H14.0181H14.0124H14.0068H14.0011H13.9955H13.9899H13.9842H13.9786H13.9729H13.9673H13.9616H13.956H13.9503H13.9447H13.9391H13.9334H13.9278H13.9221H13.9165H13.9108H13.9052H13.8995H13.8939H13.8883H13.8826H13.877H13.8713H13.8657H13.86H13.8544H13.8487H13.8431H13.8375H13.8318H13.8262H13.8205H13.8149H13.8092H13.8036H13.7979H13.7923H13.7867H13.781H13.7754H13.7697H13.7641H13.7584H13.7528H13.7471H13.7415H13.7358H13.7302H13.7246H13.7189H13.7133H13.7076H13.702H13.6963H13.6907H13.685H13.6794H13.6738H13.6681H13.6625H13.6568H13.6512H13.6455H13.6399H13.6342H13.6286H13.623H13.6173H13.6117H13.606H13.6004H13.5947H13.5891H13.5834H13.5778H13.5722H13.5665H13.5609H13.5552H13.5496H13.5439H13.5383H13.5326H13.527H13.5214H13.5157H13.5101H13.5044H13.4988H13.4931H13.4875H13.4818H13.4762H13.4706H13.4649H13.4593H13.4536H13.448H13.4423H13.4367H13.431H13.4254H13.4198H13.4141H13.4085H13.4028H13.3972H13.3915H13.3859H13.3802H13.3746H13.369H13.3633H13.3577H13.352H13.3464H13.3407H13.3351H13.3294H13.3238H13.3182H13.3125H13.3069H13.3012H13.2956H13.2899H13.2843H13.2786H13.273H13.2674H13.2617H13.2561H13.2504H13.2448H13.2391H13.2335H13.2278H13.2222H13.2166H13.2109H13.2053H13.1996H13.194H13.1883H13.1827H13.177H13.1714H13.1658H13.1601H13.1545H13.1488H13.1432H13.1375H13.1319H13.1262H13.1206H13.115H13.1093H13.1037H13.098H13.0924H13.0867H13.0811H13.0754H13.0698H13.0642H13.0585H13.0529H13.0472H13.0416H13.0359H13.0303H13.0246H13.019H13.0134H13.0077H13.0021H12.9964H12.9908H12.9851H12.9795H12.9738H12.9682H12.9626H12.9569H12.9513H12.9456H12.94H12.9343H12.9287H12.923H12.9174H12.9118H12.9061H12.9005H12.8948H12.8892H12.8835H12.8779H12.8722H12.8666H12.861H12.8553H12.8498H12.8442H12.8387H12.8331H12.8276H12.822H12.8165H12.811H12.8054H12.7999H12.7943H12.7888H12.7832H12.7777H12.7722H12.7666H12.7611H12.7555H12.75H12.7445H12.7389H12.7334H12.7278H12.7223H12.7167H12.7112H12.7057H12.7001H12.6946H12.689H12.6835H12.6779H12.6724H12.6669H12.6613H12.6558H12.6502H12.6447H12.6391H12.6336H12.6281H12.6225H12.617H12.6114H12.6059H12.6003H12.5948H12.5893H12.5837H12.5782H12.5726H12.5671H12.5616H12.556H12.5505H12.5449H12.5394H12.5338H12.5283H12.5228H12.5172H12.5117H12.5061H12.5006H12.495H12.4895H12.484H12.4784H12.4729H12.4673H12.4618H12.4563H12.4507H12.4452H12.4396H12.4341H12.4285H12.423H12.4175H12.4119H12.4064H12.4008H12.3953H12.3898H12.3842H12.3787H12.3731H12.3676H12.362H12.3565H12.351H12.3454H12.3399H12.3343H12.3288H12.3233H12.3177H12.3122H12.3066H12.3011H12.2955H12.29H12.2845H12.2789H12.2734H12.2678H12.2623H12.2568H12.2512H12.2457H12.2401H12.2346H12.229H12.2235H12.218H12.2124H12.2069H12.2013H12.1958H12.1903H12.1847H12.1792H12.1736H12.1681H12.1626H12.157H12.1515H12.1459H12.1404H12.1348H12.1293H12.1238H12.1182H12.1127H12.1071H12.1016H12.0961H12.0905H12.085H12.0794H12.0739H12.0684H12.0628H12.0573H12.0517H12.0462H12.0407H12.0351H12.0296H12.024H12.0185H12.0129H12.0074H12.0019H11.9963H11.9908H11.9852H11.9797H11.9742H11.9686H11.9631H11.9575H11.952H11.9465H11.9409H11.9354H11.9298H11.9243H11.9188H11.9132H11.9077H11.9021H11.8966H11.8911H11.8855H11.88H11.8744H11.8689H11.8634H11.8578H11.8523H11.8467H11.8412H11.8356H11.8301H11.8246H11.819H11.8135H11.8079H11.8024H11.7969H11.7913H11.7858H11.7802H11.7747H11.7692H11.7636H11.7581H11.7525H11.747H11.7415H11.7359H11.7304H11.7248H11.7193H11.7138H11.7082H11.7027H11.6971H11.6916H11.6861H11.6805H11.675H11.6694H11.6639H11.6584H11.6528H11.6473H11.6417H11.6362H11.6307H11.6251H11.6196H11.614H11.6085H11.603H11.5974H11.5919H11.5863H11.5808H11.5753H11.5697H11.5642H11.5586H11.5531H11.5476H11.542H11.5365H11.5309H11.5254H11.5199H11.5143H11.5088H11.5032H11.4977H11.4922H11.4866H11.4811H11.4755H11.47H11.4645H11.4589H11.4534H11.4478H11.4423H11.4368H11.4312H11.4257H11.4201H11.4146H11.4091H11.4035H11.398H11.3924H11.3869H11.3814H11.3758H11.3703H11.3647H11.3592H11.3537H11.3481H11.3426H11.337H11.3315H11.326H11.3204H11.3149H11.3093H11.3038H11.2983H11.2927H11.2872H11.2816H11.2761H11.2706H11.265H11.2595H11.254H11.2484H11.2429H11.2373H11.2318H11.2263H11.2207H11.2152H11.2096H11.2041H11.1986H11.193H11.1875H11.1819H11.1764H11.1709H11.1653H11.1598H11.1542H11.1487H11.1432H11.1376H11.1321H11.1265H11.121H11.1155H11.1099H11.1044H11.0988H11.0933H11.0878H11.0822H11.0767H11.0711H11.0656H11.0601H11.0545H11.049H11.0435H11.0379H11.0324H11.0268H11.0213H11.0158H11.0102H11.0047H10.9991H10.9936H10.9881H10.9825H10.977H10.9714H10.9659H10.9604H10.9548H10.9493H10.9437H10.9382H10.9327H10.9271H10.9216H10.9161H10.9105H10.905H10.8994H10.8939H10.8884H10.8828H10.8773H10.8717H10.8662H10.8607H10.8551H10.8496H10.844H10.8385H10.833H10.8274H10.8219H10.8163H10.8108H10.8053H10.7997H10.7942H10.7887H10.7831H10.7776H10.772H10.7665H10.761H10.7554H10.7499H10.7443H10.7388H10.7333H10.7277H10.7222H10.7166H10.7111H10.7056H10.7H10.6945H10.6889H10.6834H10.6779H10.6723H10.6668H10.6613H10.6557H10.6502H10.6446H10.6391H10.6336H10.628H10.6225H10.6169H10.6114H10.6059H10.6003H10.5948H10.5892H10.5837H10.5782H10.5726H10.5671H10.5616H10.556H10.5505H10.5449H10.5394H10.5339H10.5283H10.5228H10.5172H10.5117H10.5062H10.5006H10.4951H10.4895H10.484H10.4785H10.4729H10.4674H10.4619H10.4563H10.4508H10.4452H10.4397H10.4342H10.4286H10.4231H10.4175H10.412H10.4065H10.4009H10.3954H10.3899H10.3843H10.3788H10.3732H10.3677H10.3622H10.3566H10.3511H10.3455H10.34H10.3345H10.3289H10.3234H10.3178H10.3123H10.3068H10.3012H10.2957H10.2902H10.2846H10.2791H10.2735H10.268H10.2625H10.2569H10.2514H10.2458H10.2403H10.2348H10.2292H10.2237H10.2181H10.2126H10.2071H10.2015H10.196H10.1905H10.1849H10.1794H10.1738H10.1683H10.1628H10.1572H10.1517H10.1461H10.1406H10.1351H10.1295H10.124H10.1185H10.1129H10.1074H10.1018H10.0963H10.0908H10.0852H10.0797H10.0741H10.0686H10.0631H10.0575H10.052H10.0464H10.0409H10.0354H10.0298H10.0243H10.0188C10.0009 12.0394 9.9823 12.0391 9.96303 12.0389C9.89243 12.0379 9.81354 12.0369 9.73768 12.0474L9.73767 12.0474C9.59618 12.067 9.47922 12.1237 9.39563 12.2157C9.31224 12.3076 9.26842 12.4276 9.26027 12.5625L9.26026 12.5626C9.25236 12.696 9.2854 12.8159 9.35895 12.9114C9.4322 13.0066 9.54023 13.0706 9.67033 13.1028L9.67052 13.1029M16.0003 12.046L9.67052 13.1029M9.67052 13.1029C9.79069 13.1323 9.91693 13.1436 10.0382 13.1436L9.67052 13.1029Z" fill="#006181" stroke="#006181" stroke-width="0.17122"/>
<path id="Vector_5" d="M16.4504 14.1247L16.4504 14.1248C16.4907 14.2374 16.497 14.349 16.4658 14.4543C16.4348 14.5591 16.3687 14.6509 16.2754 14.7275L16.2754 14.7275C16.1663 14.8169 16.0408 14.8408 15.9185 14.8408H15.9185C15.2407 14.8406 14.5629 14.8407 13.8851 14.8407C12.5293 14.8409 11.1735 14.8411 9.81775 14.8387L9.81769 14.8387C9.49059 14.8378 9.2557 14.6137 9.25136 14.3123L9.25136 14.3123C9.24923 14.1593 9.30765 14.0225 9.41289 13.9243C9.51772 13.8266 9.66427 13.7714 9.83259 13.7705L16.4504 14.1247ZM16.4504 14.1247C16.4072 14.0046 16.3362 13.9128 16.2398 13.8521C16.1443 13.792 16.0303 13.7665 15.9068 13.7669L16.4504 14.1247Z" fill="#006181" stroke="#006181" stroke-width="0.17122"/>
</g>
</g>
</svg>
