<svg width="27" height="27" viewBox="0 0 27 27" fill="none" xmlns="http://www.w3.org/2000/svg">
<g id="Group">
<g id="Group_2">
<path id="Vector" d="M0.214548 11.7936C0.421524 10.9936 0.864751 10.385 1.62934 10.0309C2.02559 9.84777 2.44635 9.80692 2.87187 9.81033C3.07204 9.81169 3.18302 9.75178 3.24429 9.55365C3.36072 9.18055 3.50573 8.81562 3.69705 8.4752C3.81075 8.27231 3.77399 8.14227 3.60718 7.99657C3.2014 7.64185 2.90455 7.21156 2.79289 6.67574C2.62064 5.84919 2.79289 5.10231 3.37229 4.47866C3.78828 4.03067 4.22334 3.59969 4.66861 3.18098C5.59864 2.30678 7.04338 2.31903 7.97273 3.19459C8.41324 3.60991 8.41188 3.6065 8.95859 3.36412C9.20642 3.25451 9.45697 3.14285 9.71569 3.06387C9.93151 2.99851 10.0091 2.88753 10.0037 2.66218C9.9887 1.96976 10.1535 1.33181 10.6355 0.806204C11.0998 0.299658 11.6711 0.015747 12.3628 0.00621526C12.9653 -0.00263567 13.5686 -0.00127361 14.1718 0.0055348C15.3633 0.0184708 16.3981 0.9982 16.4907 2.19171C16.4982 2.28499 16.5336 2.38167 16.5166 2.4695C16.4376 2.87937 16.6562 3.0346 17.0102 3.14013C17.3166 3.23204 17.608 3.38114 17.8967 3.52344C18.0601 3.60378 18.1704 3.59357 18.2936 3.45263C18.666 3.02847 19.1093 2.70711 19.6744 2.59409C20.4825 2.43273 21.2171 2.59954 21.8285 3.15919C22.2915 3.58336 22.7341 4.03135 23.163 4.49023C24.0195 5.40733 23.9997 6.85684 23.1357 7.77665C22.7191 8.21988 22.7232 8.21852 22.9662 8.76728C23.0799 9.02328 23.1882 9.28268 23.2746 9.5482C23.3373 9.74156 23.4401 9.81373 23.6443 9.80897C24.3449 9.79331 24.9924 9.95331 25.5248 10.4435C26.0307 10.9085 26.3126 11.4804 26.3228 12.1722C26.3309 12.7665 26.3289 13.3609 26.3234 13.9553C26.3119 15.1665 25.341 16.2014 24.1332 16.2967C24.0488 16.3035 23.9609 16.3362 23.8806 16.3212C23.4557 16.245 23.2801 16.4628 23.1759 16.8414C23.0976 17.1246 22.9649 17.3976 22.8232 17.6577C22.7123 17.862 22.7463 17.9906 22.9138 18.137C23.3134 18.4849 23.6089 18.9077 23.7226 19.4333C23.9058 20.2783 23.7254 21.0394 23.131 21.676C22.7259 22.1104 22.3024 22.5291 21.8714 22.9383C20.9353 23.8254 19.4871 23.82 18.5469 22.9376C18.1084 22.5257 18.1098 22.5298 17.5556 22.7756C17.2996 22.8893 17.0402 22.9982 16.7746 23.084C16.5772 23.1473 16.5139 23.2556 16.5187 23.4564C16.5343 24.1679 16.3587 24.8167 15.865 25.3567C15.5022 25.7536 15.0426 25.9749 14.5347 26.1138C13.685 26.1138 12.836 26.1138 11.9863 26.1138C11.4797 25.9728 11.0202 25.7543 10.6566 25.3573C10.1698 24.8249 9.9853 24.1877 10.0037 23.485C10.0098 23.2474 9.92811 23.1337 9.70275 23.067C9.45152 22.9928 9.2105 22.8832 8.97017 22.7763C8.41256 22.5291 8.41392 22.5264 7.96388 22.9478C7.04475 23.8084 5.60068 23.8234 4.68018 22.9649C4.22743 22.5427 3.78692 22.1056 3.36684 21.6508C2.79834 21.0347 2.62336 20.296 2.78745 19.4783C2.90047 18.9132 3.22318 18.4713 3.64599 18.0989C3.78624 17.9757 3.8019 17.8633 3.71543 17.7026C3.52752 17.3506 3.37025 16.9823 3.25178 16.6017C3.18846 16.3975 3.08429 16.3205 2.86847 16.3239C2.44294 16.3294 2.02286 16.2858 1.62729 16.1027C0.86339 15.7486 0.421524 15.14 0.213867 14.3406C0.214548 13.4923 0.214548 12.6426 0.214548 11.7936ZM1.76278 13.0566C1.76278 13.3201 1.75393 13.5836 1.76482 13.8464C1.78661 14.3876 2.13929 14.7267 2.67987 14.7335C3.01961 14.7376 3.35935 14.7314 3.69909 14.7355C4.11304 14.7403 4.40308 14.9425 4.5127 15.336C4.73806 16.1415 5.05056 16.9081 5.46315 17.6359C5.6783 18.0151 5.61975 18.344 5.31677 18.6572C5.08665 18.8948 4.84767 19.1249 4.61551 19.3612C4.21449 19.7697 4.19883 20.2279 4.59168 20.6452C4.94095 21.0163 5.30247 21.3758 5.67149 21.7264C6.0977 22.1308 6.55658 22.1179 6.97462 21.7073C7.21087 21.4752 7.441 21.2369 7.67861 21.0068C7.98158 20.714 8.31247 20.6534 8.67877 20.8597C9.41544 21.2743 10.1889 21.5923 11.0025 21.8197C11.3831 21.9259 11.588 22.218 11.5934 22.6149C11.5982 22.9628 11.5914 23.3114 11.5962 23.6593C11.6037 24.1856 11.938 24.5451 12.467 24.5628C12.9926 24.5798 13.5202 24.5791 14.0458 24.5635C14.5857 24.5478 14.92 24.1863 14.9262 23.643C14.9296 23.3032 14.9241 22.9635 14.9282 22.6238C14.9337 22.2132 15.1393 21.9252 15.5348 21.8149C16.3403 21.5902 17.1062 21.2764 17.8347 20.8638C18.2119 20.65 18.5387 20.7113 18.8546 21.0177C19.0984 21.2546 19.3333 21.5004 19.577 21.7366C19.9583 22.1056 20.4151 22.1274 20.8039 21.7659C21.2022 21.3969 21.5868 21.0115 21.9565 20.6139C22.3181 20.2245 22.2983 19.7683 21.9307 19.3864C21.7012 19.1481 21.4616 18.9186 21.2301 18.6824C20.8937 18.3399 20.8393 18.0199 21.0789 17.5998C21.4847 16.887 21.7843 16.1333 22.009 15.3462C22.1213 14.9514 22.4038 14.7417 22.8144 14.7362C23.1541 14.7314 23.4939 14.7376 23.8336 14.7342C24.3783 14.7287 24.7391 14.3965 24.7561 13.8559C24.7725 13.3296 24.7732 12.8026 24.7555 12.277C24.7378 11.7378 24.3756 11.4089 23.8288 11.4035C23.4809 11.4001 23.1323 11.4069 22.7844 11.4008C22.4154 11.3933 22.1193 11.1843 22.0212 10.8364C21.7904 10.0146 21.4738 9.23229 21.0531 8.48882C20.8447 8.12116 20.9039 7.79299 21.1981 7.48934C21.4398 7.23879 21.693 6.99914 21.9341 6.74859C22.2942 6.3748 22.3187 5.91864 21.9701 5.54077C21.5964 5.13567 21.2049 4.74487 20.8005 4.36973C20.4131 4.00956 19.9555 4.03407 19.5736 4.40513C19.3237 4.64751 19.0841 4.9001 18.8328 5.14112C18.5373 5.42435 18.2092 5.4829 17.8538 5.28341C17.1096 4.86538 16.3301 4.5413 15.5069 4.31458C15.1399 4.21381 14.9357 3.91765 14.9289 3.5357C14.9228 3.18779 14.9302 2.8392 14.9262 2.49129C14.92 1.94934 14.583 1.58985 14.0418 1.57487C13.5155 1.56058 12.9885 1.55853 12.4629 1.57623C11.9345 1.59394 11.603 1.9541 11.5962 2.48311C11.5914 2.83988 11.6003 3.19664 11.5928 3.55272C11.5853 3.91901 11.3722 4.21313 11.0229 4.31117C10.21 4.54062 9.43382 4.85108 8.69851 5.26912C8.30907 5.49039 7.98363 5.42911 7.65818 5.11116C7.42125 4.87968 7.19113 4.64138 6.9542 4.41058C6.56339 4.03067 6.10519 4.01024 5.70826 4.3813C5.31745 4.74623 4.93822 5.12478 4.57397 5.51558C4.20223 5.91387 4.2213 6.37208 4.60053 6.76152C4.83133 6.99845 5.07031 7.22858 5.30179 7.46551C5.62043 7.79163 5.6817 8.1164 5.46179 8.50584C5.05056 9.23434 4.73533 9.9996 4.51202 10.8057C4.40308 11.1986 4.11168 11.3987 3.69569 11.4035C3.3648 11.4076 3.03323 11.4021 2.70234 11.4055C2.1318 11.4103 1.7798 11.7521 1.76414 12.3213C1.75597 12.5636 1.7621 12.8101 1.76278 13.0566Z" fill="#006181"/>
<path id="Vector_2" d="M13.2523 18.7816C10.1273 18.7769 7.54212 16.1835 7.54688 13.0578C7.55165 9.93206 10.1443 7.34759 13.27 7.35304C16.3965 7.3578 18.9796 9.94909 18.9748 13.0762C18.9707 16.2012 16.3774 18.7864 13.2523 18.7816ZM13.2598 17.183C15.5366 17.1837 17.3755 15.3488 17.3769 13.0755C17.3782 10.7961 15.5474 8.95506 13.2755 8.95233C10.9831 8.94961 9.1455 10.7831 9.14618 13.0721C9.14686 15.3468 10.9838 17.1823 13.2598 17.183Z" fill="#006181"/>
</g>
</g>
</svg>
